<svg id="Layer_2" data-name="Layer 2" xmlns="http://www.w3.org/2000/svg" viewBox="0 0 206.04 89.76"><defs><style>.cls-1,.cls-2{fill:#7a6e66;}.cls-2{opacity:0.5;}</style></defs><title>architecture-fig1-1</title><path class="cls-1" d="M-86.91,87.35c-52.91-.9-42.84-35.7-54.59-35.49-8.31.15-8.18,24.34-21.06,23.9C-177.65,75.26-173.19,35-186.73,35c-13.85,0-10.13,46.15-29.36,45.58-18.17-.53-18.06-21.05-22.55-21.05s-5.27,26.18-21.12,26.18c-11,0-10.39-10.64-16.1-10.64-5,0-4.57,9.15-13.31,12v.34H-86.91Z" transform="translate(289.17 -35)"/><path class="cls-1" d="M-83.13,86.85c-20.48,0-20.57,13.49-29.24,13.6-6.85.09-8.38-11.89-23.95-11.61-20.43.36-16,35.92-27.91,35.92-11.39,0-7.68-36.26-26.66-36.26-19.54,0-15.22,24.33-22.27,24.33-6.33,0-3.25-24.21-21.8-24.47-15.56-.22-18,6.17-25.71,6.13-10.39-.06-9.69-7.64-24.62-7.64Z" transform="translate(289.17 -35)"/><path class="cls-2" d="M-84.84,87.46c-23.3,0-26.24-9.63-33.87-9.71-6-.07-8.42,6.1-26.61,5.71C-165.85,83-159.45,59-169.9,59c-10,0-5.1,25.4-21.82,25.29-13.53-.09-10.87-16.48-19.45-16.48-8,0-8.31,18.3-20.36,18.47-10.41.15-16-9.91-22.11-9.91-7.29,0-9.81,11-23.8,11Z" transform="translate(289.17 -35)"/></svg>