<svg xmlns="http://www.w3.org/2000/svg" viewBox="0 0 387.17 129.91"><defs><style>.cls-1{isolation:isolate;}.cls-2{mix-blend-mode:multiply;}.cls-3{fill:#826d4c;}</style></defs><title>architecture-fig1-2</title><g class="cls-1"><g id="Layer_1" data-name="Layer 1"><g class="cls-2"><path class="cls-3" d="M172.48,89.7a.12.12,0,0,0,.11,0s0-.05,0-.07a.12.12,0,0,0-.11,0S172.44,89.69,172.48,89.7Z" transform="translate(-45.71 -35.21)"/><path class="cls-3" d="M181.47,91.54a.32.32,0,0,0,.24-.07s0-.09-.07-.11a.32.32,0,0,0-.24.07S181.38,91.53,181.47,91.54Z" transform="translate(-45.71 -35.21)"/><path class="cls-3" d="M191.13,92a.7.7,0,0,0,.39-.13c.07-.07,0-.12-.12-.11a.7.7,0,0,0-.39.13C190.93,92,191,92,191.13,92Z" transform="translate(-45.71 -35.21)"/><path class="cls-3" d="M201.63,91a.93.93,0,0,0,.46-.19c.07-.08,0-.11-.2-.09a.94.94,0,0,0-.46.19C201.36,91,201.45,91,201.63,91Z" transform="translate(-45.71 -35.21)"/><path class="cls-3" d="M212.76,88.77a1.17,1.17,0,0,0,.52-.25c.06-.08-.07-.1-.3,0a1.18,1.18,0,0,0-.52.25C212.4,88.8,212.54,88.82,212.76,88.77Z" transform="translate(-45.71 -35.21)"/><path class="cls-3" d="M224.4,85.47a1.42,1.42,0,0,0,.59-.31c.05-.08-.12-.08-.4,0a1.42,1.42,0,0,0-.59.31C224,85.55,224.13,85.55,224.4,85.47Z" transform="translate(-45.71 -35.21)"/><path class="cls-3" d="M236.45,81.34a1.59,1.59,0,0,0,.62-.34c0-.08-.17-.06-.46.05a1.59,1.59,0,0,0-.62.34C235.94,81.47,236.15,81.45,236.45,81.34Z" transform="translate(-45.71 -35.21)"/><path class="cls-3" d="M248.78,76.6a1.77,1.77,0,0,0,.65-.37c0-.07-.2,0-.53.1a1.77,1.77,0,0,0-.65.37C248.22,76.77,248.46,76.73,248.78,76.6Z" transform="translate(-45.71 -35.21)"/><path class="cls-3" d="M261.3,71.48a1.87,1.87,0,0,0,.64-.36c0-.06-.22,0-.55.13a1.86,1.86,0,0,0-.64.36C260.73,71.67,261,71.61,261.3,71.48Z" transform="translate(-45.71 -35.21)"/><path class="cls-3" d="M273.89,66.19a2,2,0,0,0,.63-.35c0-.05-.23,0-.56.15a2,2,0,0,0-.63.35C273.31,66.4,273.56,66.33,273.89,66.19Z" transform="translate(-45.71 -35.21)"/><path class="cls-3" d="M286.44,61a2.06,2.06,0,0,0,.61-.32s-.24,0-.57.16a2,2,0,0,0-.61.32S286.12,61.1,286.44,61Z" transform="translate(-45.71 -35.21)"/><path class="cls-3" d="M298.86,56a2,2,0,0,0,.56-.27s-.23,0-.53.14a2,2,0,0,0-.56.27S298.56,56.13,298.86,56Z" transform="translate(-45.71 -35.21)"/><path class="cls-3" d="M311,51.57a1.83,1.83,0,0,0,.5-.22,1.37,1.37,0,0,0-.49.12,1.81,1.81,0,0,0-.5.22A1.36,1.36,0,0,0,311,51.57Z" transform="translate(-45.71 -35.21)"/><path class="cls-3" d="M322.86,47.84a1.56,1.56,0,0,0,.44-.16,1.44,1.44,0,0,0-.46.09,1.55,1.55,0,0,0-.44.17A1.44,1.44,0,0,0,322.86,47.84Z" transform="translate(-45.71 -35.21)"/><path class="cls-3" d="M334.21,45a1,1,0,0,0,.32-.09,1.26,1.26,0,0,0-.35,0,1,1,0,0,0-.32.09A1.26,1.26,0,0,0,334.21,45Z" transform="translate(-45.71 -35.21)"/><path class="cls-3" d="M345,43.41a.65.65,0,0,0,.24,0H345a.65.65,0,0,0-.24,0Z" transform="translate(-45.71 -35.21)"/><path class="cls-3" d="M355.17,43h0Z" transform="translate(-45.71 -35.21)"/><path class="cls-3" d="M365.06,43.17h0Z" transform="translate(-45.71 -35.21)"/><path class="cls-3" d="M134.61,73s0,0,.06,0a.06.06,0,0,0,0-.07s0,0-.06,0A.06.06,0,0,0,134.61,73Z" transform="translate(-45.71 -35.21)"/><path class="cls-3" d="M141.25,79.74c.06.06.14.06.18,0a.15.15,0,0,0,0-.19c-.06-.06-.14-.06-.18,0A.15.15,0,0,0,141.25,79.74Z" transform="translate(-45.71 -35.21)"/><ellipse class="cls-3" cx="148.42" cy="85.39" rx="0.21" ry="0.27" transform="matrix(0.59, -0.81, 0.81, 0.59, -54.04, 119.1)"/><path class="cls-3" d="M155.79,90.33a.39.39,0,0,0,.49-.05c.09-.12,0-.3-.16-.4a.39.39,0,0,0-.49.05C155.54,90.05,155.61,90.23,155.79,90.33Z" transform="translate(-45.71 -35.21)"/><path class="cls-3" d="M163.74,93.95a.61.61,0,0,0,.65-.13c.12-.15,0-.35-.22-.43a.6.6,0,0,0-.65.12C163.4,93.67,163.5,93.86,163.74,93.95Z" transform="translate(-45.71 -35.21)"/><path class="cls-3" d="M172.19,96.28a.91.91,0,0,0,.79-.22c.14-.17,0-.36-.28-.41a.9.9,0,0,0-.79.21C171.77,96,171.89,96.22,172.19,96.28Z" transform="translate(-45.71 -35.21)"/><path class="cls-3" d="M181.15,97.2a1.44,1.44,0,0,0,1-.34c.17-.19,0-.34-.33-.35a1.42,1.42,0,0,0-1,.33C180.65,97,180.8,97.2,181.15,97.2Z" transform="translate(-45.71 -35.21)"/><path class="cls-3" d="M191.7,96.6a2.3,2.3,0,0,0,1.23-.47c.17-.2-.09-.31-.59-.25a2.33,2.33,0,0,0-1.23.46C190.93,96.54,191.2,96.66,191.7,96.6Z" transform="translate(-45.71 -35.21)"/><path class="cls-3" d="M203.69,94.56a2.56,2.56,0,0,0,1.26-.58c.13-.2-.2-.25-.75-.13a2.59,2.59,0,0,0-1.26.58C202.79,94.62,203.13,94.69,203.69,94.56Z" transform="translate(-45.71 -35.21)"/><path class="cls-3" d="M216,91.36a2.82,2.82,0,0,0,1.29-.68c.1-.19-.3-.2-.9,0a2.85,2.85,0,0,0-1.29.67C215,91.53,215.38,91.54,216,91.36Z" transform="translate(-45.71 -35.21)"/><path class="cls-3" d="M228.53,87.21a3,3,0,0,0,1.3-.74c.08-.18-.37-.14-1,.09a3,3,0,0,0-1.3.74C227.44,87.47,227.9,87.44,228.53,87.21Z" transform="translate(-45.71 -35.21)"/><path class="cls-3" d="M241.24,82.35a3.3,3.3,0,0,0,1.34-.81c.06-.17-.45-.08-1.13.19a3.3,3.3,0,0,0-1.35.81C240,82.71,240.56,82.63,241.24,82.35Z" transform="translate(-45.71 -35.21)"/><path class="cls-3" d="M254,77a3.44,3.44,0,0,0,1.32-.81c0-.15-.48,0-1.16.26a3.42,3.42,0,0,0-1.32.81C252.83,77.4,253.36,77.29,254,77Z" transform="translate(-45.71 -35.21)"/><path class="cls-3" d="M266.87,71.38a3.59,3.59,0,0,0,1.3-.79c0-.13-.5,0-1.18.3a3.56,3.56,0,0,0-1.3.79C265.65,71.82,266.18,71.69,266.87,71.38Z" transform="translate(-45.71 -35.21)"/><path class="cls-3" d="M279.64,65.75a3.74,3.74,0,0,0,1.28-.75c0-.12-.51,0-1.19.33a3.68,3.68,0,0,0-1.28.75C278.42,66.19,279,66,279.64,65.75Z" transform="translate(-45.71 -35.21)"/><path class="cls-3" d="M292.29,60.3a3.6,3.6,0,0,0,1.18-.65c0-.09-.48,0-1.12.3a3.54,3.54,0,0,0-1.18.65C291.16,60.7,291.66,60.57,292.29,60.3Z" transform="translate(-45.71 -35.21)"/><path class="cls-3" d="M304.75,55.29a3.45,3.45,0,0,0,1.11-.56c0-.08-.47,0-1.07.27a3.39,3.39,0,0,0-1.12.56C303.67,55.64,304.15,55.52,304.75,55.29Z" transform="translate(-45.71 -35.21)"/><path class="cls-3" d="M316.95,50.93a3,3,0,0,0,1-.45c0-.07-.44,0-1,.21a3,3,0,0,0-1,.45C316,51.21,316.4,51.12,316.95,50.93Z" transform="translate(-45.71 -35.21)"/><path class="cls-3" d="M328.81,47.46a2.42,2.42,0,0,0,.89-.33,2.13,2.13,0,0,0-.91.13,2.4,2.4,0,0,0-.9.33A2.16,2.16,0,0,0,328.81,47.46Z" transform="translate(-45.71 -35.21)"/><path class="cls-3" d="M340.26,45.1c.43-.07.76-.15.75-.2a2,2,0,0,0-.81,0c-.43.07-.76.16-.75.2A2,2,0,0,0,340.26,45.1Z" transform="translate(-45.71 -35.21)"/><path class="cls-3" d="M351.23,44.07c.36,0,.63,0,.6-.07a2,2,0,0,0-.71-.07c-.35,0-.63,0-.6.09A2.19,2.19,0,0,0,351.23,44.07Z" transform="translate(-45.71 -35.21)"/><path class="cls-3" d="M361.71,44.3c.3,0,.5,0,.46-.05a1.66,1.66,0,0,0-.61-.1c-.3,0-.5,0-.47.05A1.7,1.7,0,0,0,361.71,44.3Z" transform="translate(-45.71 -35.21)"/><path class="cls-3" d="M371.62,45c.22,0,.37,0,.34,0a1.14,1.14,0,0,0-.46-.11c-.22,0-.37,0-.34,0A1.17,1.17,0,0,0,371.62,45Z" transform="translate(-45.71 -35.21)"/><path class="cls-3" d="M381,46.24c.15,0,.26,0,.24,0a.69.69,0,0,0-.32-.11c-.15,0-.26,0-.24,0A.71.71,0,0,0,381,46.24Z" transform="translate(-45.71 -35.21)"/><path class="cls-3" d="M389.88,48c.09,0,.16,0,.15,0a.36.36,0,0,0-.19-.09c-.09,0-.16,0-.15,0A.36.36,0,0,0,389.88,48Z" transform="translate(-45.71 -35.21)"/><path class="cls-3" d="M398.31,50.44h0l0,0h0Z" transform="translate(-45.71 -35.21)"/><path class="cls-3" d="M121,66.8s.09.07.12,0a.13.13,0,0,0,0-.15s-.09-.07-.12,0A.13.13,0,0,0,121,66.8Z" transform="translate(-45.71 -35.21)"/><path class="cls-3" d="M127.16,74.71c.1.11.23.15.29.07a.3.3,0,0,0-.07-.35c-.1-.11-.23-.15-.29-.07A.3.3,0,0,0,127.16,74.71Z" transform="translate(-45.71 -35.21)"/><path class="cls-3" d="M133.76,81.89c.16.15.36.18.45.07a.41.41,0,0,0-.12-.49c-.16-.15-.36-.18-.45-.07A.41.41,0,0,0,133.76,81.89Z" transform="translate(-45.71 -35.21)"/><path class="cls-3" d="M140.73,88.21c.22.18.49.19.61,0s0-.43-.19-.6-.49-.19-.61,0S140.5,88,140.73,88.21Z" transform="translate(-45.71 -35.21)"/><path class="cls-3" d="M148.07,93.53a.59.59,0,0,0,.78,0c.14-.2,0-.5-.27-.68a.59.59,0,0,0-.78,0C147.66,93,147.78,93.35,148.07,93.53Z" transform="translate(-45.71 -35.21)"/><path class="cls-3" d="M155.81,97.73a.81.81,0,0,0,1-.14c.16-.24,0-.56-.37-.72a.81.81,0,0,0-1,.13C155.28,97.24,155.44,97.57,155.81,97.73Z" transform="translate(-45.71 -35.21)"/><path class="cls-3" d="M163.93,100.64a1.13,1.13,0,0,0,1.13-.28c.19-.27,0-.57-.45-.68a1.12,1.12,0,0,0-1.13.27C163.3,100.21,163.5,100.53,163.93,100.64Z" transform="translate(-45.71 -35.21)"/><path class="cls-3" d="M172.44,102.14a1.67,1.67,0,0,0,1.32-.46c.22-.29,0-.55-.53-.59a1.64,1.64,0,0,0-1.32.44C171.7,101.83,171.93,102.1,172.44,102.14Z" transform="translate(-45.71 -35.21)"/><path class="cls-3" d="M181.38,102.09a3.51,3.51,0,0,0,2-.68c.25-.3-.22-.5-1-.43a2.72,2.72,0,0,0-1.58.65C180.48,101.94,180.8,102.15,181.38,102.09Z" transform="translate(-45.71 -35.21)"/><path class="cls-3" d="M194.37,100.41a3.69,3.69,0,0,0,2-.86c.19-.3-.37-.41-1.25-.25a3.78,3.78,0,0,0-2,.84C192.91,100.45,193.47,100.57,194.37,100.41Z" transform="translate(-45.71 -35.21)"/><path class="cls-3" d="M207.46,97.41a3.9,3.9,0,0,0,2-1c.14-.29-.5-.32-1.43-.07a4,4,0,0,0-2,1C205.87,97.62,206.51,97.67,207.46,97.41Z" transform="translate(-45.71 -35.21)"/><path class="cls-3" d="M220.59,93.35a4.13,4.13,0,0,0,2-1.14c.1-.28-.61-.23-1.58.1a4.2,4.2,0,0,0-2,1.12C218.89,93.72,219.6,93.69,220.59,93.35Z" transform="translate(-45.71 -35.21)"/><path class="cls-3" d="M233.73,88.46a4.41,4.41,0,0,0,2-1.23c.07-.27-.7-.15-1.71.25a4.44,4.44,0,0,0-2,1.22C231.93,89,232.71,88.87,233.73,88.46Z" transform="translate(-45.71 -35.21)"/><path class="cls-3" d="M246.84,83a4.65,4.65,0,0,0,2-1.28c0-.25-.75-.08-1.79.37a4.65,4.65,0,0,0-2,1.27C245,83.58,245.8,83.42,246.84,83Z" transform="translate(-45.71 -35.21)"/><path class="cls-3" d="M259.89,77.12a4.92,4.92,0,0,0,2-1.29c0-.23-.79,0-1.84.46a4.88,4.88,0,0,0-2,1.28C258,77.8,258.83,77.6,259.89,77.12Z" transform="translate(-45.71 -35.21)"/><path class="cls-3" d="M272.83,71.14a5.12,5.12,0,0,0,1.94-1.24c0-.2-.79,0-1.84.5A5,5,0,0,0,271,71.64C271,71.85,271.78,71.63,272.83,71.14Z" transform="translate(-45.71 -35.21)"/><path class="cls-3" d="M285.63,65.28a5.17,5.17,0,0,0,1.87-1.15c0-.18-.78,0-1.79.49a5.06,5.06,0,0,0-1.88,1.15C283.81,66,284.62,65.73,285.63,65.28Z" transform="translate(-45.71 -35.21)"/><path class="cls-3" d="M298.26,59.76a5.09,5.09,0,0,0,1.81-1c0-.16-.75,0-1.73.45a5,5,0,0,0-1.81,1C296.5,60.38,297.28,60.17,298.26,59.76Z" transform="translate(-45.71 -35.21)"/><path class="cls-3" d="M310.68,54.84a4.78,4.78,0,0,0,1.73-.88c0-.14-.73,0-1.67.37a4.67,4.67,0,0,0-1.74.89C309,55.36,309.74,55.19,310.68,54.84Z" transform="translate(-45.71 -35.21)"/><path class="cls-3" d="M322.86,50.72a4,4,0,0,0,1.58-.68c0-.12-.69,0-1.55.24a4,4,0,0,0-1.58.7C321.3,51.1,322,51,322.86,50.72Z" transform="translate(-45.71 -35.21)"/><path class="cls-3" d="M334.75,47.67c.81-.17,1.46-.39,1.45-.5s-.67-.07-1.47.09a3.18,3.18,0,0,0-1.45.51C333.28,47.89,333.94,47.84,334.75,47.67Z" transform="translate(-45.71 -35.21)"/><path class="cls-3" d="M346.33,45.9c.73-.07,1.31-.2,1.28-.3a2.65,2.65,0,0,0-1.37-.07c-.73.07-1.3.21-1.28.31S345.6,46,346.33,45.9Z" transform="translate(-45.71 -35.21)"/><path class="cls-3" d="M357.59,45.74c.64,0,1.11,0,1.06-.13a2.68,2.68,0,0,0-1.24-.23c-.63,0-1.11,0-1.06.13A2.76,2.76,0,0,0,357.59,45.74Z" transform="translate(-45.71 -35.21)"/><path class="cls-3" d="M368.11,46.48c.53.05.9,0,.83-.09a2.2,2.2,0,0,0-1.06-.28c-.52-.05-.9,0-.84.09A2.3,2.3,0,0,0,368.11,46.48Z" transform="translate(-45.71 -35.21)"/><path class="cls-3" d="M377.78,47.78c.43.07.72,0,.67-.06a1.71,1.71,0,0,0-.87-.32c-.43-.07-.73,0-.67.06A1.78,1.78,0,0,0,377.78,47.78Z" transform="translate(-45.71 -35.21)"/><path class="cls-3" d="M386.68,49.67c.33.09.56.07.52,0a1.21,1.21,0,0,0-.67-.34c-.33-.08-.57-.07-.53,0A1.26,1.26,0,0,0,386.68,49.67Z" transform="translate(-45.71 -35.21)"/><path class="cls-3" d="M394.91,52.18c.24.09.42.08.41,0s-.23-.24-.48-.33-.43-.08-.41,0S394.67,52.09,394.91,52.18Z" transform="translate(-45.71 -35.21)"/><path class="cls-3" d="M402.55,55.34c.17.08.31.08.3,0s-.14-.21-.31-.29-.31-.08-.3,0S402.38,55.26,402.55,55.34Z" transform="translate(-45.71 -35.21)"/><path class="cls-3" d="M409.69,59.2c.12.07.22.08.23,0s-.08-.18-.2-.25-.22-.08-.23,0S409.57,59.13,409.69,59.2Z" transform="translate(-45.71 -35.21)"/><path class="cls-3" d="M416.41,63.76s.1,0,.11,0,0-.09-.07-.13-.1,0-.11,0S416.36,63.73,416.41,63.76Z" transform="translate(-45.71 -35.21)"/><path class="cls-3" d="M102.14,49.55c0,.06.08.08.11.05a.13.13,0,0,0,0-.15c0-.06-.08-.08-.11-.05A.13.13,0,0,0,102.14,49.55Z" transform="translate(-45.71 -35.21)"/><path class="cls-3" d="M107.57,58.71c.09.14.22.19.29.13s.06-.23,0-.37-.22-.19-.29-.13S107.48,58.57,107.57,58.71Z" transform="translate(-45.71 -35.21)"/><path class="cls-3" d="M113.41,67.52c.15.21.36.29.47.18s.07-.37-.08-.58-.36-.29-.47-.18S113.26,67.31,113.41,67.52Z" transform="translate(-45.71 -35.21)"/><path class="cls-3" d="M119.66,75.83c.22.27.51.36.65.2s.07-.5-.14-.77-.51-.36-.65-.2S119.44,75.56,119.66,75.83Z" transform="translate(-45.71 -35.21)"/><path class="cls-3" d="M126.31,83.48c.28.3.65.38.81.18s.06-.6-.22-.89-.64-.38-.8-.19S126,83.18,126.31,83.48Z" transform="translate(-45.71 -35.21)"/><path class="cls-3" d="M133.31,90.35c.37.32.81.38,1,.13s0-.7-.33-1-.81-.38-1-.14S132.95,90,133.31,90.35Z" transform="translate(-45.71 -35.21)"/><path class="cls-3" d="M140.68,96.25c.44.31,1,.32,1.16,0s0-.77-.44-1.08-1-.33-1.15,0S140.24,95.94,140.68,96.25Z" transform="translate(-45.71 -35.21)"/><path class="cls-3" d="M148.37,101.07a1,1,0,0,0,1.32-.11c.21-.33,0-.81-.55-1.08s-1.11-.23-1.32.09S147.85,100.79,148.37,101.07Z" transform="translate(-45.71 -35.21)"/><path class="cls-3" d="M156.37,104.63a1.34,1.34,0,0,0,1.5-.3c.23-.37-.07-.82-.67-1a1.34,1.34,0,0,0-1.51.28C155.46,103.94,155.77,104.42,156.37,104.63Z" transform="translate(-45.71 -35.21)"/><path class="cls-3" d="M164.64,106.79a1.83,1.83,0,0,0,1.7-.54c.26-.4-.09-.8-.78-.91a1.82,1.82,0,0,0-1.71.51C163.6,106.25,164,106.68,164.64,106.79Z" transform="translate(-45.71 -35.21)"/><path class="cls-3" d="M173.18,107.38a2.68,2.68,0,0,0,1.89-.82c.29-.42-.09-.72-.86-.7a2.62,2.62,0,0,0-1.9.78C172,107.06,172.42,107.4,173.18,107.38Z" transform="translate(-45.71 -35.21)"/><path class="cls-3" d="M184.69,106.22a4.83,4.83,0,0,0,2.78-1.11c.24-.42-.58-.59-1.84-.41a5,5,0,0,0-2.8,1.07C182.55,106.2,183.39,106.41,184.69,106.22Z" transform="translate(-45.71 -35.21)"/><path class="cls-3" d="M198.71,103.56c1.37-.33,2.61-.95,2.78-1.36s-.76-.48-2.1-.16-2.6.9-2.8,1.33S197.35,103.89,198.71,103.56Z" transform="translate(-45.71 -35.21)"/><path class="cls-3" d="M212.57,99.68c1.39-.45,2.6-1.15,2.71-1.54s-.9-.35-2.27.08-2.6,1.1-2.73,1.51S211.18,100.13,212.57,99.68Z" transform="translate(-45.71 -35.21)"/><path class="cls-3" d="M226.24,94.85c1.41-.55,2.61-1.31,2.68-1.69s-1-.24-2.4.3-2.61,1.27-2.7,1.66S224.83,95.4,226.24,94.85Z" transform="translate(-45.71 -35.21)"/><path class="cls-3" d="M239.72,89.3c1.41-.62,2.59-1.41,2.63-1.76s-1.06-.14-2.46.47-2.59,1.38-2.64,1.74S238.31,89.92,239.72,89.3Z" transform="translate(-45.71 -35.21)"/><path class="cls-3" d="M253,83.29c1.41-.66,2.57-1.47,2.6-1.8s-1.09-.06-2.5.59-2.58,1.44-2.62,1.78S251.59,84,253,83.29Z" transform="translate(-45.71 -35.21)"/><path class="cls-3" d="M266.1,77c1.39-.67,2.53-1.46,2.55-1.76s-1.09,0-2.48.66-2.55,1.45-2.57,1.75S264.71,77.72,266.1,77Z" transform="translate(-45.71 -35.21)"/><path class="cls-3" d="M279,70.82a6.32,6.32,0,0,0,2.48-1.66c0-.27-1.06,0-2.41.67s-2.47,1.38-2.49,1.66S277.65,71.47,279,70.82Z" transform="translate(-45.71 -35.21)"/><path class="cls-3" d="M291.72,64.86a6.35,6.35,0,0,0,2.42-1.51c0-.24-1,0-2.33.62a6.17,6.17,0,0,0-2.43,1.53C289.35,65.75,290.41,65.46,291.72,64.86Z" transform="translate(-45.71 -35.21)"/><path class="cls-3" d="M304.24,59.4a6.07,6.07,0,0,0,2.32-1.32c0-.22-1,0-2.23.52A5.89,5.89,0,0,0,302,59.94C302,60.17,303,59.92,304.24,59.4Z" transform="translate(-45.71 -35.21)"/><path class="cls-3" d="M316.57,54.7a5.5,5.5,0,0,0,2.21-1.1c0-.2-.93,0-2.13.37a5.35,5.35,0,0,0-2.22,1.12C314.42,55.3,315.37,55.11,316.57,54.7Z" transform="translate(-45.71 -35.21)"/><path class="cls-3" d="M328.72,51c1.13-.29,2-.66,2.06-.84s-.88-.11-2,.18a4.49,4.49,0,0,0-2.06.87C326.69,51.37,327.59,51.27,328.72,51Z" transform="translate(-45.71 -35.21)"/><path class="cls-3" d="M340.67,48.5c1-.15,1.87-.4,1.87-.57s-.84-.2-1.87,0-1.86.43-1.87.6S339.63,48.65,340.67,48.5Z" transform="translate(-45.71 -35.21)"/><path class="cls-3" d="M352.42,47.49c1,0,1.75-.07,1.71-.23s-.87-.34-1.81-.35-1.68.17-1.66.33S351.51,47.48,352.42,47.49Z" transform="translate(-45.71 -35.21)"/><path class="cls-3" d="M363.92,48.17c.82.08,1.41,0,1.35-.16a2.84,2.84,0,0,0-1.57-.43c-.81-.07-1.43,0-1.37.17A3,3,0,0,0,363.92,48.17Z" transform="translate(-45.71 -35.21)"/><path class="cls-3" d="M374.19,49.45c.66.11,1.12.07,1.05-.1a2.31,2.31,0,0,0-1.3-.49c-.65-.11-1.14-.06-1.07.11A2.44,2.44,0,0,0,374.19,49.45Z" transform="translate(-45.71 -35.21)"/><path class="cls-3" d="M383.38,51.36c.52.14.89.11.84-.05s-.52-.41-1-.54-.9-.1-.85.06A1.91,1.91,0,0,0,383.38,51.36Z" transform="translate(-45.71 -35.21)"/><path class="cls-3" d="M391.64,53.91c.4.15.69.14.66,0s-.38-.4-.78-.55-.7-.14-.66,0S391.24,53.76,391.64,53.91Z" transform="translate(-45.71 -35.21)"/><path class="cls-3" d="M399.09,57.14c.3.15.54.16.54,0s-.26-.4-.57-.55-.55-.16-.54,0S398.79,57,399.09,57.14Z" transform="translate(-45.71 -35.21)"/><path class="cls-3" d="M405.89,61c.22.15.41.16.42,0s-.16-.35-.38-.5-.41-.16-.42,0S405.67,60.89,405.89,61Z" transform="translate(-45.71 -35.21)"/><path class="cls-3" d="M412.16,65.65c.15.12.29.14.31,0a.53.53,0,0,0-.23-.41c-.15-.12-.29-.14-.31,0A.54.54,0,0,0,412.16,65.65Z" transform="translate(-45.71 -35.21)"/><path class="cls-3" d="M418,71c.1.1.2.11.22,0a.37.37,0,0,0-.12-.32c-.1-.1-.2-.11-.22,0A.38.38,0,0,0,418,71Z" transform="translate(-45.71 -35.21)"/><path class="cls-3" d="M423.63,77.1s.07,0,.09,0a.14.14,0,0,0,0-.13s-.07,0-.09,0A.15.15,0,0,0,423.63,77.1Z" transform="translate(-45.71 -35.21)"/><path class="cls-3" d="M94.61,49.05c0,.09.12.13.17.09s0-.13,0-.22-.12-.13-.17-.09S94.56,49,94.61,49.05Z" transform="translate(-45.71 -35.21)"/><path class="cls-3" d="M100,58.39c.1.17.26.25.35.17s.08-.27,0-.44-.26-.25-.35-.17S99.86,58.22,100,58.39Z" transform="translate(-45.71 -35.21)"/><path class="cls-3" d="M105.81,67.5c.18.26.43.37.57.25s.09-.42-.08-.68-.43-.37-.57-.25S105.63,67.24,105.81,67.5Z" transform="translate(-45.71 -35.21)"/><path class="cls-3" d="M112.12,76.21c.26.33.62.47.78.3s.09-.58-.17-.91-.61-.47-.78-.3S111.86,75.87,112.12,76.21Z" transform="translate(-45.71 -35.21)"/><path class="cls-3" d="M118.88,84.35c.34.38.78.51,1,.29s.07-.69-.27-1.07-.77-.51-1-.3S118.53,84,118.88,84.35Z" transform="translate(-45.71 -35.21)"/><path class="cls-3" d="M126,91.77c.43.4.95.51,1.15.25s0-.8-.4-1.2-.94-.52-1.15-.25S125.59,91.36,126,91.77Z" transform="translate(-45.71 -35.21)"/><path class="cls-3" d="M133.5,98.31c.53.41,1.14.48,1.37.15s0-.91-.55-1.32-1.14-.49-1.36-.17S133,97.9,133.5,98.31Z" transform="translate(-45.71 -35.21)"/><path class="cls-3" d="M141.28,103.79c.62.38,1.31.37,1.55,0s-.08-1-.7-1.35-1.31-.39-1.55,0S140.66,103.42,141.28,103.79Z" transform="translate(-45.71 -35.21)"/><path class="cls-3" d="M149.32,108c.7.3,1.46.2,1.7-.22s-.13-1-.83-1.28-1.46-.22-1.7.19S148.62,107.75,149.32,108Z" transform="translate(-45.71 -35.21)"/><path class="cls-3" d="M157.56,110.93a1.77,1.77,0,0,0,1.89-.5c.25-.46-.18-1-1-1.17a1.78,1.78,0,0,0-1.9.46C156.32,110.19,156.76,110.74,157.56,110.93Z" transform="translate(-45.71 -35.21)"/><path class="cls-3" d="M166,112.26a2.41,2.41,0,0,0,2.07-.83c.27-.49-.2-.9-1.08-.94a2.39,2.39,0,0,0-2.08.78C164.59,111.75,165.08,112.22,166,112.26Z" transform="translate(-45.71 -35.21)"/><path class="cls-3" d="M174.53,111.87c1.62-.21,3.29-.75,3.57-1.26s-.87-.79-2.46-.6a3.7,3.7,0,0,0-2.36,1.16C173,111.69,173.62,112,174.53,111.87Z" transform="translate(-45.71 -35.21)"/><path class="cls-3" d="M189.69,109.64c1.74-.35,3.28-1.07,3.47-1.58s-1-.62-2.72-.28-3.28,1-3.51,1.52S188,110,189.69,109.64Z" transform="translate(-45.71 -35.21)"/><path class="cls-3" d="M204.42,106.05c1.76-.51,3.25-1.35,3.36-1.84s-1.18-.47-2.9,0-3.26,1.28-3.4,1.79S202.67,106.56,204.42,106.05Z" transform="translate(-45.71 -35.21)"/><path class="cls-3" d="M218.74,101.39c1.77-.65,3.24-1.58,3.29-2.06s-1.3-.33-3,.3-3.25,1.52-3.33,2S217,102,218.74,101.39Z" transform="translate(-45.71 -35.21)"/><path class="cls-3" d="M232.67,95.89c1.79-.76,3.24-1.77,3.26-2.23s-1.38-.21-3.16.54-3.26,1.72-3.3,2.2S230.88,96.66,232.67,95.89Z" transform="translate(-45.71 -35.21)"/><path class="cls-3" d="M246.26,89.8c1.79-.84,3.22-1.89,3.23-2.32s-1.42-.11-3.2.72S243,90,243,90.5,244.47,90.65,246.26,89.8Z" transform="translate(-45.71 -35.21)"/><path class="cls-3" d="M259.52,83.37c1.75-.87,3.15-1.9,3.15-2.3s-1.41,0-3.15.82-3.18,1.88-3.18,2.29S257.78,84.23,259.52,83.37Z" transform="translate(-45.71 -35.21)"/><path class="cls-3" d="M272.51,76.86c1.73-.87,3.13-1.88,3.13-2.26s-1.39,0-3.12.87-3.16,1.87-3.16,2.26S270.78,77.73,272.51,76.86Z" transform="translate(-45.71 -35.21)"/><path class="cls-3" d="M285.25,70.51c1.68-.82,3.05-1.76,3.07-2.1s-1.33,0-3,.84-3.08,1.76-3.09,2.12S283.57,71.33,285.25,70.51Z" transform="translate(-45.71 -35.21)"/><path class="cls-3" d="M297.78,64.58c1.64-.74,3-1.58,3-1.9s-1.27,0-2.92.73-3,1.6-3,1.93S296.15,65.32,297.78,64.58Z" transform="translate(-45.71 -35.21)"/><path class="cls-3" d="M310.15,59.31C311.71,58.7,313,58,313,57.69s-1.2-.05-2.76.55-2.87,1.36-2.9,1.66S308.58,59.93,310.15,59.31Z" transform="translate(-45.71 -35.21)"/><path class="cls-3" d="M322.38,55c1.49-.46,2.73-1,2.77-1.31s-1.14-.14-2.63.32-2.73,1.08-2.77,1.35S320.88,55.43,322.38,55Z" transform="translate(-45.71 -35.21)"/><path class="cls-3" d="M334.5,51.79c1.41-.29,2.57-.7,2.6-1s-1.09-.26-2.49,0-2.56.76-2.59,1S333.1,52.08,334.5,51.79Z" transform="translate(-45.71 -35.21)"/><path class="cls-3" d="M346.56,50c1.33-.1,2.41-.36,2.41-.61s-1.07-.39-2.38-.29-2.39.42-2.4.66S345.24,50.14,346.56,50Z" transform="translate(-45.71 -35.21)"/><path class="cls-3" d="M358.81,50.13c1.25.09,2.21,0,2.16-.28s-1.07-.53-2.3-.61-2.23,0-2.2.29S357.56,50,358.81,50.13Z" transform="translate(-45.71 -35.21)"/><path class="cls-3" d="M370.05,51.32c1,.15,1.75.08,1.68-.18s-.93-.58-1.94-.72-1.78-.06-1.72.19S369,51.17,370.05,51.32Z" transform="translate(-45.71 -35.21)"/><path class="cls-3" d="M379.84,53.19c.8.2,1.37.16,1.3-.09s-.76-.61-1.56-.8-1.4-.14-1.33.1S379,53,379.84,53.19Z" transform="translate(-45.71 -35.21)"/><path class="cls-3" d="M388.36,55.73c.62.23,1.08.22,1,0s-.59-.64-1.22-.86-1.1-.2-1.05,0S387.74,55.5,388.36,55.73Z" transform="translate(-45.71 -35.21)"/><path class="cls-3" d="M395.82,59c.48.25.85.26.84,0s-.42-.64-.91-.89-.87-.25-.85,0S395.34,58.72,395.82,59Z" transform="translate(-45.71 -35.21)"/><path class="cls-3" d="M402.41,62.91c.37.26.68.29.7.06s-.27-.63-.65-.88-.69-.28-.7,0S402,62.65,402.41,62.91Z" transform="translate(-45.71 -35.21)"/><path class="cls-3" d="M408.32,67.56c.28.26.55.29.59.08a1.14,1.14,0,0,0-.44-.85c-.29-.25-.56-.29-.59-.07A1.19,1.19,0,0,0,408.32,67.56Z" transform="translate(-45.71 -35.21)"/><path class="cls-3" d="M413.72,72.93c.21.24.44.28.5.09a1,1,0,0,0-.29-.78c-.22-.24-.44-.28-.5-.09A1,1,0,0,0,413.72,72.93Z" transform="translate(-45.71 -35.21)"/><path class="cls-3" d="M418.81,79c.15.2.33.24.39.09a.76.76,0,0,0-.16-.64c-.15-.2-.33-.24-.39-.09A.77.77,0,0,0,418.81,79Z" transform="translate(-45.71 -35.21)"/><path class="cls-3" d="M423.75,85.87c.1.15.22.18.27.07a.53.53,0,0,0-.08-.45c-.1-.15-.22-.18-.27-.07A.53.53,0,0,0,423.75,85.87Z" transform="translate(-45.71 -35.21)"/><path class="cls-3" d="M428.73,93.48c.05.09.12.11.16,0a.31.31,0,0,0,0-.27c-.05-.09-.12-.11-.16,0A.31.31,0,0,0,428.73,93.48Z" transform="translate(-45.71 -35.21)"/><path class="cls-3" d="M82.23,38.66c0,.09.11.13.16.1s.06-.13,0-.21-.11-.13-.16-.1S82.19,38.58,82.23,38.66Z" transform="translate(-45.71 -35.21)"/><path class="cls-3" d="M86.79,48.08c.1.19.27.28.37.22s.11-.28,0-.46-.27-.28-.37-.22S86.69,47.89,86.79,48.08Z" transform="translate(-45.71 -35.21)"/><path class="cls-3" d="M92,57.56c.17.29.44.43.6.32s.14-.43,0-.72-.44-.43-.59-.32S91.86,57.27,92,57.56Z" transform="translate(-45.71 -35.21)"/><path class="cls-3" d="M97.9,66.93c.26.38.63.56.83.41s.15-.58-.11-1S98,65.81,97.8,66,97.64,66.55,97.9,66.93Z" transform="translate(-45.71 -35.21)"/><path class="cls-3" d="M104.32,76c.35.46.83.67,1.06.47s.13-.73-.22-1.19-.82-.67-1.05-.47S104,75.55,104.32,76Z" transform="translate(-45.71 -35.21)"/><path class="cls-3" d="M111.22,84.64c.46.53,1.05.75,1.31.49s.09-.9-.36-1.42-1-.75-1.31-.49S110.76,84.11,111.22,84.64Z" transform="translate(-45.71 -35.21)"/><path class="cls-3" d="M118.57,92.61c.56.55,1.23.75,1.49.44s0-1-.52-1.55-1.22-.75-1.49-.44S118,92.06,118.57,92.61Z" transform="translate(-45.71 -35.21)"/><path class="cls-3" d="M126.28,99.78c.67.56,1.43.7,1.7.33s0-1.11-.7-1.66-1.41-.71-1.69-.35S125.61,99.22,126.28,99.78Z" transform="translate(-45.71 -35.21)"/><path class="cls-3" d="M134.28,106c.76.52,1.6.58,1.86.15s-.13-1.17-.89-1.69-1.59-.6-1.86-.18S133.52,105.44,134.28,106Z" transform="translate(-45.71 -35.21)"/><path class="cls-3" d="M142.5,111c.87.45,1.78.39,2-.09s-.22-1.22-1.08-1.66-1.78-.43-2.05.05S141.63,110.52,142.5,111Z" transform="translate(-45.71 -35.21)"/><path class="cls-3" d="M150.87,114.63c1,.32,1.94.12,2.2-.42s-.3-1.2-1.24-1.52-1.94-.18-2.21.36S149.91,114.31,150.87,114.63Z" transform="translate(-45.71 -35.21)"/><path class="cls-3" d="M159.32,116.76a2.33,2.33,0,0,0,2.35-.81c.27-.58-.35-1.13-1.38-1.28s-2.1.16-2.37.74S158.28,116.61,159.32,116.76Z" transform="translate(-45.71 -35.21)"/><path class="cls-3" d="M167.77,117.17a3.21,3.21,0,0,0,2.49-1.28c.29-.6-.36-1-1.47-.92a3.18,3.18,0,0,0-2.52,1.18C166,116.76,166.67,117.25,167.77,117.17Z" transform="translate(-45.71 -35.21)"/><path class="cls-3" d="M180.23,115.63c2.23-.35,4.16-1.17,4.37-1.78s-1.35-.79-3.51-.46-4.17,1.07-4.44,1.69S178,116,180.23,115.63Z" transform="translate(-45.71 -35.21)"/><path class="cls-3" d="M196,112.46c2.25-.57,4.12-1.56,4.23-2.17s-1.55-.62-3.75-.07-4.14,1.46-4.3,2.09S193.78,113,196,112.46Z" transform="translate(-45.71 -35.21)"/><path class="cls-3" d="M211.15,108.06c2.25-.75,4.06-1.89,4.09-2.48s-1.69-.45-3.9.28-4.09,1.79-4.17,2.41S208.91,108.81,211.15,108.06Z" transform="translate(-45.71 -35.21)"/><path class="cls-3" d="M225.67,102.67c2.22-.91,4-2.14,4-2.71s-1.77-.3-4,.59-4,2.06-4,2.66S223.44,103.58,225.67,102.67Z" transform="translate(-45.71 -35.21)"/><path class="cls-3" d="M239.63,96.58c2.18-1,3.9-2.3,3.86-2.85s-1.8-.17-4,.83-3.95,2.24-3.92,2.81S237.45,97.59,239.63,96.58Z" transform="translate(-45.71 -35.21)"/><path class="cls-3" d="M253.12,90c2.13-1.08,3.81-2.38,3.77-2.89s-1.78-.07-3.91,1-3.86,2.33-3.82,2.87S251,91.1,253.12,90Z" transform="translate(-45.71 -35.21)"/><path class="cls-3" d="M266.21,83.27c2.07-1.09,3.71-2.35,3.69-2.83s-1.72,0-3.8,1.06-3.77,2.33-3.73,2.83S264.13,84.36,266.21,83.27Z" transform="translate(-45.71 -35.21)"/><path class="cls-3" d="M279,76.59c2-1,3.62-2.24,3.61-2.68s-1.63,0-3.65,1-3.66,2.24-3.64,2.7S276.95,77.63,279,76.59Z" transform="translate(-45.71 -35.21)"/><path class="cls-3" d="M291.44,70.22c1.93-1,3.51-2,3.53-2.45s-1.54,0-3.48.94-3.54,2.06-3.55,2.48S289.51,71.18,291.44,70.22Z" transform="translate(-45.71 -35.21)"/><path class="cls-3" d="M303.74,64.44c1.85-.82,3.39-1.76,3.43-2.14s-1.43-.06-3.3.75-3.41,1.8-3.44,2.19S301.89,65.26,303.74,64.44Z" transform="translate(-45.71 -35.21)"/><path class="cls-3" d="M315.93,59.5c1.77-.64,3.24-1.41,3.3-1.77s-1.34-.16-3.12.48-3.25,1.47-3.3,1.83S314.16,60.14,315.93,59.5Z" transform="translate(-45.71 -35.21)"/><path class="cls-3" d="M328.07,55.66c1.67-.44,3.08-1,3.13-1.36s-1.26-.28-2.93.15-3.07,1.1-3.12,1.43S326.4,56.09,328.07,55.66Z" transform="translate(-45.71 -35.21)"/><path class="cls-3" d="M340.24,53.18c1.61-.22,2.95-.62,3-.94S342,51.79,340.4,52s-2.93.71-3,1S338.63,53.4,340.24,53.18Z" transform="translate(-45.71 -35.21)"/><path class="cls-3" d="M352.5,52.3c1.62,0,3-.09,3-.4s-1.33-.68-2.91-.72-2.72.28-2.75.59S351,52.26,352.5,52.3Z" transform="translate(-45.71 -35.21)"/><path class="cls-3" d="M365.09,53.32c1.32.16,2.31.06,2.25-.25s-1.12-.69-2.42-.85-2.36,0-2.32.28S363.78,53.16,365.09,53.32Z" transform="translate(-45.71 -35.21)"/><path class="cls-3" d="M375.81,55.07c1,.23,1.78.17,1.72-.14s-.93-.74-2-1-1.83-.14-1.77.16S374.78,54.84,375.81,55.07Z" transform="translate(-45.71 -35.21)"/><path class="cls-3" d="M384.9,57.55c.79.27,1.38.26,1.32,0s-.73-.78-1.53-1-1.42-.23-1.36.06S384.11,57.27,384.9,57.55Z" transform="translate(-45.71 -35.21)"/><path class="cls-3" d="M392.61,60.74c.6.31,1.05.32,1,0s-.52-.78-1.13-1.08-1.08-.3-1.05,0S392,60.44,392.61,60.74Z" transform="translate(-45.71 -35.21)"/><path class="cls-3" d="M399.19,64.67c.46.33.83.36.84.07a1.75,1.75,0,0,0-.82-1.11c-.47-.32-.85-.35-.85-.06A1.88,1.88,0,0,0,399.19,64.67Z" transform="translate(-45.71 -35.21)"/><path class="cls-3" d="M404.87,69.32c.34.33.65.38.69.11a1.53,1.53,0,0,0-.55-1.08c-.35-.32-.67-.36-.7-.1A1.62,1.62,0,0,0,404.87,69.32Z" transform="translate(-45.71 -35.21)"/><path class="cls-3" d="M409.89,74.69c.25.31.51.37.58.13a1.33,1.33,0,0,0-.35-1c-.26-.31-.52-.36-.59-.12A1.39,1.39,0,0,0,409.89,74.69Z" transform="translate(-45.71 -35.21)"/><path class="cls-3" d="M414.5,80.78c.19.28.41.34.49.13a1.14,1.14,0,0,0-.21-.89c-.19-.28-.41-.33-.49-.13A1.17,1.17,0,0,0,414.5,80.78Z" transform="translate(-45.71 -35.21)"/><path class="cls-3" d="M418.91,87.59c.14.23.32.29.39.12a.91.91,0,0,0-.12-.73c-.14-.23-.32-.29-.39-.12A.92.92,0,0,0,418.91,87.59Z" transform="translate(-45.71 -35.21)"/><path class="cls-3" d="M423.36,95.14c.1.17.22.22.29.1a.64.64,0,0,0-.06-.53c-.1-.17-.22-.21-.29-.1A.64.64,0,0,0,423.36,95.14Z" transform="translate(-45.71 -35.21)"/><path class="cls-3" d="M428.06,103.41c.05.09.12.12.16.06a.34.34,0,0,0,0-.28c-.05-.09-.12-.12-.16-.06A.34.34,0,0,0,428.06,103.41Z" transform="translate(-45.71 -35.21)"/><path class="cls-3" d="M74.65,37.2c0,.06.07.09.11.07s0-.08,0-.13-.07-.09-.11-.07S74.62,37.15,74.65,37.2Z" transform="translate(-45.71 -35.21)"/><ellipse class="cls-3" cx="79.08" cy="46.45" rx="0.19" ry="0.32" transform="translate(-58.26 7.39) rotate(-28.02)"/><ellipse class="cls-3" cx="84.27" cy="55.94" rx="0.33" ry="0.58" transform="translate(-62.36 14.01) rotate(-29.77)"/><path class="cls-3" d="M89.83,65.67c.25.38.62.58.82.45s.16-.54-.09-.91-.61-.58-.82-.45S89.58,65.3,89.83,65.67Z" transform="translate(-45.71 -35.21)"/><path class="cls-3" d="M96.34,75.08c.35.47.82.7,1.06.53s.14-.69-.2-1.15-.82-.7-1.05-.53S96,74.62,96.34,75.08Z" transform="translate(-45.71 -35.21)"/><ellipse class="cls-3" cx="103.91" cy="83.74" rx="0.63" ry="1.3" transform="translate(-75.2 52.33) rotate(-40.5)"/><path class="cls-3" d="M111,92.68c.58.6,1.27.85,1.54.56s0-1-.54-1.58-1.26-.85-1.54-.57S110.43,92.09,111,92.68Z" transform="translate(-45.71 -35.21)"/><path class="cls-3" d="M119,100.48c.69.61,1.48.83,1.75.48s-.06-1.11-.74-1.72-1.46-.84-1.74-.5S118.31,99.87,119,100.48Z" transform="translate(-45.71 -35.21)"/><path class="cls-3" d="M127.29,107.38c.82.61,1.7.75,2,.33s-.17-1.22-1-1.82-1.68-.77-2-.36S126.47,106.78,127.29,107.38Z" transform="translate(-45.71 -35.21)"/><path class="cls-3" d="M135.82,113.15c.91.54,1.85.57,2.1.1s-.27-1.26-1.17-1.79-1.84-.6-2.11-.14S134.9,112.61,135.82,113.15Z" transform="translate(-45.71 -35.21)"/><path class="cls-3" d="M144.45,117.65c1,.43,2,.32,2.28-.22s-.38-1.29-1.39-1.72-2-.37-2.3.16S143.42,117.21,144.45,117.65Z" transform="translate(-45.71 -35.21)"/><path class="cls-3" d="M153.11,120.64c1.12.27,2.19,0,2.42-.63s-.47-1.25-1.57-1.52-2.21,0-2.45.55S152,120.37,153.11,120.64Z" transform="translate(-45.71 -35.21)"/><path class="cls-3" d="M161.7,121.94a2.68,2.68,0,0,0,2.53-1.13c.23-.64-.51-1.13-1.69-1.18s-2.33.38-2.57,1S160.52,121.9,161.7,121.94Z" transform="translate(-45.71 -35.21)"/><path class="cls-3" d="M170.22,121.37c2.44-.38,4.85-1.13,5.06-1.8s-1.78-1-4.16-.65c-1.19.18-2.58.91-2.83,1.6S169,121.55,170.22,121.37Z" transform="translate(-45.71 -35.21)"/><path class="cls-3" d="M187.28,118.7c2.62-.55,4.76-1.59,4.85-2.27s-1.84-.74-4.39-.21-4.8,1.46-5,2.16S184.67,119.25,187.28,118.7Z" transform="translate(-45.71 -35.21)"/><path class="cls-3" d="M203.39,114.65c2.59-.78,4.64-2,4.64-2.67s-2-.55-4.54.2-4.7,1.88-4.75,2.57S200.8,115.42,203.39,114.65Z" transform="translate(-45.71 -35.21)"/><path class="cls-3" d="M218.63,109.49c2.57-1,4.55-2.35,4.5-3s-2.1-.38-4.64.58-4.62,2.24-4.6,2.93S216.07,110.47,218.63,109.49Z" transform="translate(-45.71 -35.21)"/><path class="cls-3" d="M233.1,103.5c2.55-1.15,4.5-2.64,4.41-3.29s-2.16-.23-4.7.9-4.58,2.55-4.51,3.22S230.55,104.65,233.1,103.5Z" transform="translate(-45.71 -35.21)"/><path class="cls-3" d="M246.9,96.91c2.5-1.26,4.41-2.81,4.32-3.43s-2.15-.1-4.65,1.13-4.5,2.74-4.41,3.39S244.4,98.17,246.9,96.91Z" transform="translate(-45.71 -35.21)"/><path class="cls-3" d="M260.13,90c2.44-1.32,4.33-2.86,4.25-3.45s-2.1,0-4.55,1.27-4.42,2.83-4.33,3.44S257.69,91.32,260.13,90Z" transform="translate(-45.71 -35.21)"/><path class="cls-3" d="M272.9,83.05c2.37-1.3,4.23-2.79,4.18-3.34s-2,0-4.38,1.29-4.3,2.78-4.24,3.36S270.53,84.35,272.9,83.05Z" transform="translate(-45.71 -35.21)"/><path class="cls-3" d="M285.32,76.31c2.28-1.21,4.1-2.58,4.09-3.1s-1.86,0-4.16,1.2-4.16,2.61-4.13,3.14S283,77.52,285.32,76.31Z" transform="translate(-45.71 -35.21)"/><path class="cls-3" d="M297.49,70.05c2.19-1.07,4-2.28,4-2.76s-1.73-.05-3.94,1-4,2.34-4,2.83S295.31,71.12,297.49,70.05Z" transform="translate(-45.71 -35.21)"/><path class="cls-3" d="M309.54,64.55c2.1-.87,3.85-1.9,3.91-2.35s-1.6-.16-3.72.71-3.87,2-3.91,2.44S307.44,65.42,309.54,64.55Z" transform="translate(-45.71 -35.21)"/><path class="cls-3" d="M321.56,60.07c2-.64,3.71-1.45,3.79-1.88s-1.5-.3-3.52.34-3.71,1.56-3.78,2S319.55,60.71,321.56,60.07Z" transform="translate(-45.71 -35.21)"/><path class="cls-3" d="M333.66,56.86c1.92-.38,3.55-1,3.63-1.37s-1.43-.48-3.35-.09-3.53,1.08-3.61,1.48S331.74,57.25,333.66,56.86Z" transform="translate(-45.71 -35.21)"/><path class="cls-3" d="M346,55.21c1.84-.11,3.4-.46,3.46-.85s-1.4-.68-3.23-.56-3.36.59-3.43,1S344.11,55.32,346,55.21Z" transform="translate(-45.71 -35.21)"/><path class="cls-3" d="M359.08,55.54c1.83.17,3.24,0,3.22-.38s-1.42-.85-3.22-1-3.33,0-3.36.42S357.25,55.37,359.08,55.54Z" transform="translate(-45.71 -35.21)"/><path class="cls-3" d="M371.11,57.1c1.41.26,2.46.18,2.4-.21s-1.18-.91-2.58-1.16-2.54-.13-2.5.24S369.7,56.84,371.11,57.1Z" transform="translate(-45.71 -35.21)"/><path class="cls-3" d="M381.09,59.45c1.07.33,1.85.3,1.8-.08s-.93-1-2-1.28-1.93-.26-1.87.11S380,59.12,381.09,59.45Z" transform="translate(-45.71 -35.21)"/><path class="cls-3" d="M389.31,62.56c.8.38,1.4.4,1.37,0s-.69-1-1.5-1.36-1.46-.36-1.41,0S388.51,62.18,389.31,62.56Z" transform="translate(-45.71 -35.21)"/><path class="cls-3" d="M396.09,66.44c.59.42,1.06.47,1.07.1a2.29,2.29,0,0,0-1.07-1.41c-.61-.41-1.11-.44-1.1-.08A2.52,2.52,0,0,0,396.09,66.44Z" transform="translate(-45.71 -35.21)"/><path class="cls-3" d="M401.7,71.07c.44.44.82.51.87.15a2.11,2.11,0,0,0-.73-1.42c-.45-.43-.86-.48-.89-.14A2.29,2.29,0,0,0,401.7,71.07Z" transform="translate(-45.71 -35.21)"/><path class="cls-3" d="M406.46,76.43c.33.44.66.52.74.19a2,2,0,0,0-.47-1.39c-.34-.43-.68-.5-.75-.18A2.11,2.11,0,0,0,406.46,76.43Z" transform="translate(-45.71 -35.21)"/><path class="cls-3" d="M410.63,82.52c.25.42.54.52.65.21a1.83,1.83,0,0,0-.28-1.32c-.26-.42-.56-.5-.65-.2A1.91,1.91,0,0,0,410.63,82.52Z" transform="translate(-45.71 -35.21)"/><path class="cls-3" d="M414.51,89.31c.2.38.45.47.57.2a1.57,1.57,0,0,0-.16-1.17c-.2-.37-.46-.46-.57-.2A1.62,1.62,0,0,0,414.51,89.31Z" transform="translate(-45.71 -35.21)"/><path class="cls-3" d="M418.38,96.82c.16.33.38.42.5.19a1.31,1.31,0,0,0-.09-1c-.16-.33-.39-.41-.5-.19A1.33,1.33,0,0,0,418.38,96.82Z" transform="translate(-45.71 -35.21)"/><path class="cls-3" d="M422.51,105c.12.25.3.32.39.16a1,1,0,0,0-.06-.76c-.13-.25-.3-.32-.39-.15A1,1,0,0,0,422.51,105Z" transform="translate(-45.71 -35.21)"/><path class="cls-3" d="M427.17,113.92c.09.17.22.22.28.11a.62.62,0,0,0-.05-.51c-.09-.17-.21-.22-.28-.11A.62.62,0,0,0,427.17,113.92Z" transform="translate(-45.71 -35.21)"/><path class="cls-3" d="M432.64,123.49c0,.06.08.08.1,0a.22.22,0,0,0,0-.18c0-.06-.08-.08-.1,0A.22.22,0,0,0,432.64,123.49Z" transform="translate(-45.71 -35.21)"/><ellipse class="cls-3" cx="67.02" cy="35.39" rx="0.13" ry="0.18" transform="translate(-54.19 -6.49) rotate(-22.79)"/><path class="cls-3" d="M70.77,44.62c.1.2.28.32.4.26s.15-.26.05-.46-.28-.32-.4-.26S70.67,44.42,70.77,44.62Z" transform="translate(-45.71 -35.21)"/><path class="cls-3" d="M75.63,54.18c.18.32.49.52.68.43s.2-.43,0-.75-.48-.51-.68-.42S75.44,53.85,75.63,54.18Z" transform="translate(-45.71 -35.21)"/><path class="cls-3" d="M81.39,63.91c.29.45.73.7,1,.57s.21-.6-.08-1-.72-.7-1-.57S81.11,63.46,81.39,63.91Z" transform="translate(-45.71 -35.21)"/><path class="cls-3" d="M88,73.61c.4.54,1,.84,1.23.67s.18-.75-.21-1.29-.94-.84-1.22-.67S87.58,73.07,88,73.61Z" transform="translate(-45.71 -35.21)"/><path class="cls-3" d="M95.24,83.09c.53.64,1.21,1,1.51.74s.12-.92-.4-1.55-1.19-1-1.5-.75S94.72,82.45,95.24,83.09Z" transform="translate(-45.71 -35.21)"/><path class="cls-3" d="M103.1,92.14c.65.69,1.43,1,1.74.74s0-1.06-.6-1.75-1.41-1-1.74-.75S102.45,91.45,103.1,92.14Z" transform="translate(-45.71 -35.21)"/><path class="cls-3" d="M111.42,100.57c.79.73,1.68,1,2,.69s-.07-1.21-.85-1.93-1.66-1-2-.71S110.63,99.84,111.42,100.57Z" transform="translate(-45.71 -35.21)"/><path class="cls-3" d="M120.09,108.18c.92.73,1.91,1,2.2.56s-.2-1.33-1.11-2.05-1.89-1-2.2-.59S119.16,107.45,120.09,108.18Z" transform="translate(-45.71 -35.21)"/><path class="cls-3" d="M129,114.75c1,.68,2.09.81,2.36.33S131,113.68,130,113s-2.07-.85-2.36-.37S128,114.07,129,114.75Z" transform="translate(-45.71 -35.21)"/><path class="cls-3" d="M138,120.08c1.14.57,2.25.56,2.48,0s-.47-1.42-1.59-2-2.24-.61-2.5-.07S136.89,119.5,138,120.08Z" transform="translate(-45.71 -35.21)"/><path class="cls-3" d="M147,124c1.24.42,2.4.2,2.61-.42s-.59-1.41-1.81-1.82-2.41-.29-2.64.33S145.8,123.56,147,124Z" transform="translate(-45.71 -35.21)"/><path class="cls-3" d="M155.94,126.22c1.31.19,2.5-.28,2.69-1s-.68-1.31-2-1.5-2.53.15-2.74.83S154.63,126,155.94,126.22Z" transform="translate(-45.71 -35.21)"/><path class="cls-3" d="M164.58,126.61c1.37-.11,2.59-.88,2.78-1.61s-.72-1.15-2.08-1-2.65.71-2.85,1.44S163.21,126.73,164.58,126.61Z" transform="translate(-45.71 -35.21)"/><path class="cls-3" d="M178,124.8c3.08-.51,5.56-1.6,5.64-2.35s-2.2-.89-5.19-.4-5.63,1.43-5.8,2.2S174.94,125.31,178,124.8Z" transform="translate(-45.71 -35.21)"/><path class="cls-3" d="M195.33,121.21c3-.79,5.41-2.11,5.38-2.87s-2.38-.68-5.36.08-5.5,2-5.55,2.73S192.29,122,195.33,121.21Z" transform="translate(-45.71 -35.21)"/><path class="cls-3" d="M211.49,116.36c3-1.05,5.29-2.58,5.18-3.33s-2.51-.48-5.48.54-5.4,2.43-5.35,3.22S208.48,117.41,211.49,116.36Z" transform="translate(-45.71 -35.21)"/><path class="cls-3" d="M226.61,110.53c3-1.27,5.16-3,5-3.7s-2.57-.3-5.51.94-5.29,2.83-5.17,3.61S223.65,111.8,226.61,110.53Z" transform="translate(-45.71 -35.21)"/><path class="cls-3" d="M240.83,104c2.9-1.44,5-3.22,4.89-4s-2.57-.15-5.46,1.26-5.19,3.13-5,3.89S237.94,105.42,240.83,104Z" transform="translate(-45.71 -35.21)"/><path class="cls-3" d="M254.29,97c2.81-1.53,4.92-3.35,4.78-4s-2.5,0-5.33,1.46-5.06,3.29-4.9,4S251.48,98.51,254.29,97Z" transform="translate(-45.71 -35.21)"/><path class="cls-3" d="M267.12,89.79c2.69-1.54,4.75-3.3,4.65-4s-2.35,0-5.08,1.53-4.88,3.29-4.74,4S264.43,91.33,267.12,89.79Z" transform="translate(-45.71 -35.21)"/><path class="cls-3" d="M279.48,82.71C282,81.26,284,79.62,284,79s-2.16,0-4.76,1.45-4.65,3.11-4.56,3.75S276.92,84.16,279.48,82.71Z" transform="translate(-45.71 -35.21)"/><path class="cls-3" d="M291.5,76c2.41-1.29,4.35-2.74,4.35-3.3s-2,0-4.41,1.24-4.42,2.81-4.38,3.39S289.09,77.29,291.5,76Z" transform="translate(-45.71 -35.21)"/><path class="cls-3" d="M303.34,70c2.28-1.08,4.16-2.31,4.21-2.83s-1.78-.13-4.09.94-4.2,2.41-4.22,2.93S301.07,71,303.34,70Z" transform="translate(-45.71 -35.21)"/><path class="cls-3" d="M315.15,64.85c2.17-.83,4-1.82,4.09-2.31s-1.64-.27-3.83.55-4,1.95-4.08,2.43S313,65.68,315.15,64.85Z" transform="translate(-45.71 -35.21)"/><path class="cls-3" d="M327.06,61c2.08-.55,3.85-1.29,4-1.74s-1.53-.45-3.61.1-3.84,1.43-3.93,1.88S325,61.5,327.06,61Z" transform="translate(-45.71 -35.21)"/><path class="cls-3" d="M339.21,58.53c2-.25,3.68-.73,3.77-1.16s-1.45-.65-3.43-.4-3.64.88-3.73,1.3S337.23,58.78,339.21,58.53Z" transform="translate(-45.71 -35.21)"/><path class="cls-3" d="M351.74,57.86c2.22.1,4-.06,4.09-.49s-1.67-.95-3.82-1c-1.84-.07-3.49.33-3.57.74S349.87,57.78,351.74,57.86Z" transform="translate(-45.71 -35.21)"/><path class="cls-3" d="M365.48,59.15c1.71.25,3,.14,3-.27s-1.34-1-3-1.19-3.12-.08-3.13.32S363.77,58.91,365.48,59.15Z" transform="translate(-45.71 -35.21)"/><path class="cls-3" d="M376.7,61.31c1.28.33,2.23.3,2.19-.11s-1.06-1-2.34-1.34-2.33-.24-2.29.15S375.42,61,376.7,61.31Z" transform="translate(-45.71 -35.21)"/><path class="cls-3" d="M385.75,64.29c.94.4,1.64.42,1.61,0s-.79-1.06-1.74-1.44-1.72-.37-1.68,0S384.81,63.89,385.75,64.29Z" transform="translate(-45.71 -35.21)"/><path class="cls-3" d="M393,68.07c.67.44,1.19.5,1.19.11A2.5,2.5,0,0,0,393,66.69c-.68-.43-1.25-.46-1.23-.09S392.32,67.62,393,68.07Z" transform="translate(-45.71 -35.21)"/><path class="cls-3" d="M398.75,72.64c.48.47.88.56.92.18a2.37,2.37,0,0,0-.82-1.52c-.49-.46-.93-.52-.95-.16A2.59,2.59,0,0,0,398.75,72.64Z" transform="translate(-45.71 -35.21)"/><path class="cls-3" d="M403.39,78c.34.47.66.57.74.22a2.26,2.26,0,0,0-.5-1.48c-.35-.46-.69-.55-.75-.2A2.44,2.44,0,0,0,403.39,78Z" transform="translate(-45.71 -35.21)"/><path class="cls-3" d="M407.26,84c.24.45.52.56.62.23a2.12,2.12,0,0,0-.28-1.39c-.25-.44-.54-.54-.63-.22A2.24,2.24,0,0,0,407.26,84Z" transform="translate(-45.71 -35.21)"/><path class="cls-3" d="M410.66,90.79c.19.42.44.53.55.24a1.92,1.92,0,0,0-.14-1.29c-.2-.42-.45-.52-.56-.23A2,2,0,0,0,410.66,90.79Z" transform="translate(-45.71 -35.21)"/><path class="cls-3" d="M414,98.25c.15.36.37.46.49.22a1.57,1.57,0,0,0-.07-1.1c-.16-.36-.37-.46-.48-.21A1.61,1.61,0,0,0,414,98.25Z" transform="translate(-45.71 -35.21)"/><path class="cls-3" d="M417.46,106.42c.13.3.32.39.42.19a1.23,1.23,0,0,0,0-.91c-.13-.3-.32-.39-.42-.19A1.24,1.24,0,0,0,417.46,106.42Z" transform="translate(-45.71 -35.21)"/><path class="cls-3" d="M421.51,115.22c.1.21.24.28.32.14a.81.81,0,0,0,0-.63c-.1-.21-.24-.27-.32-.14A.81.81,0,0,0,421.51,115.22Z" transform="translate(-45.71 -35.21)"/><path class="cls-3" d="M426.41,124.67c.06.11.13.14.17.07a.38.38,0,0,0,0-.31c-.06-.11-.13-.14-.17-.07A.38.38,0,0,0,426.41,124.67Z" transform="translate(-45.71 -35.21)"/><path class="cls-3" d="M62.67,42.26c0,.1.13.16.2.14s.08-.12,0-.22-.13-.16-.2-.14S62.62,42.17,62.67,42.26Z" transform="translate(-45.71 -35.21)"/><path class="cls-3" d="M67.21,51.74c.12.22.33.36.47.31s.15-.27,0-.49-.33-.36-.47-.31S67.09,51.52,67.21,51.74Z" transform="translate(-45.71 -35.21)"/><path class="cls-3" d="M72.83,61.54c.22.35.56.56.76.48s.18-.43,0-.78-.56-.56-.76-.47S72.61,61.2,72.83,61.54Z" transform="translate(-45.71 -35.21)"/><path class="cls-3" d="M79.41,71.47c.34.47.82.75,1.06.62s.17-.6-.16-1.07-.81-.74-1.06-.62S79.08,71,79.41,71.47Z" transform="translate(-45.71 -35.21)"/><path class="cls-3" d="M86.84,81.31c.46.56,1.06.88,1.33.72s.12-.75-.33-1.31-1-.88-1.32-.72S86.38,80.75,86.84,81.31Z" transform="translate(-45.71 -35.21)"/><path class="cls-3" d="M94.93,90.85c.6.65,1.32,1,1.61.78s0-.92-.54-1.57-1.3-1-1.6-.78S94.34,90.2,94.93,90.85Z" transform="translate(-45.71 -35.21)"/><path class="cls-3" d="M103.59,99.88c.74.71,1.58,1.06,1.87.77s-.07-1.08-.79-1.79-1.56-1.06-1.87-.79S102.85,99.17,103.59,99.88Z" transform="translate(-45.71 -35.21)"/><path class="cls-3" d="M112.67,108.17c.87.73,1.8,1,2.07.68s-.2-1.2-1-1.92-1.77-1-2.07-.7S111.8,107.45,112.67,108.17Z" transform="translate(-45.71 -35.21)"/><path class="cls-3" d="M122,115.53c1,.71,2,.93,2.27.51s-.34-1.31-1.33-2-2-1-2.27-.55S121,114.82,122,115.53Z" transform="translate(-45.71 -35.21)"/><path class="cls-3" d="M131.51,121.73c1.13.64,2.21.74,2.42.24s-.5-1.38-1.6-2-2.19-.78-2.43-.3S130.39,121.09,131.51,121.73Z" transform="translate(-45.71 -35.21)"/><path class="cls-3" d="M141,126.55c1.23.52,2.36.43,2.54-.13s-.64-1.39-1.85-1.9-2.36-.51-2.57.05S139.76,126,141,126.55Z" transform="translate(-45.71 -35.21)"/><path class="cls-3" d="M150.33,129.76c1.3.32,2.45,0,2.59-.62s-.75-1.34-2-1.65-2.47-.11-2.64.51S149,129.45,150.33,129.76Z" transform="translate(-45.71 -35.21)"/><path class="cls-3" d="M159.36,131.17c1.35,0,2.52-.55,2.64-1.24s-.83-1.21-2.17-1.26-2.57.4-2.71,1.09S158,131.12,159.36,131.17Z" transform="translate(-45.71 -35.21)"/><path class="cls-3" d="M168.08,130.53c3-.5,5.82-1.37,5.9-2.11s-2.55-1.06-5.46-.59c-1.31.22-2.76,1-2.88,1.79S166.76,130.75,168.08,130.53Z" transform="translate(-45.71 -35.21)"/><path class="cls-3" d="M186.81,127.47c3.16-.69,5.6-1.91,5.55-2.66s-2.5-.75-5.59-.08-5.71,1.75-5.74,2.52S183.65,128.16,186.81,127.47Z" transform="translate(-45.71 -35.21)"/><path class="cls-3" d="M204.08,123c3.12-1,5.44-2.43,5.31-3.19s-2.64-.54-5.71.4-5.58,2.28-5.5,3.06S201,124,204.08,123Z" transform="translate(-45.71 -35.21)"/><path class="cls-3" d="M220,117.44c3.07-1.23,5.32-2.9,5.12-3.66s-2.73-.35-5.77.84-5.47,2.76-5.31,3.55S217,118.67,220,117.44Z" transform="translate(-45.71 -35.21)"/><path class="cls-3" d="M234.82,111c3-1.44,5.19-3.26,5-4s-2.75-.18-5.75,1.22-5.36,3.15-5.15,3.94S231.81,112.45,234.82,111Z" transform="translate(-45.71 -35.21)"/><path class="cls-3" d="M248.63,104c3-1.62,5.15-3.56,4.94-4.31s-2.74-.05-5.74,1.53-5.33,3.48-5.11,4.27S245.65,105.64,248.63,104Z" transform="translate(-45.71 -35.21)"/><path class="cls-3" d="M261.63,96.74c3-1.74,5.18-3.75,5-4.5s-2.7,0-5.72,1.74-5.36,3.72-5.15,4.5S258.65,98.49,261.63,96.74Z" transform="translate(-45.71 -35.21)"/><path class="cls-3" d="M274,89.39c2.85-1.71,5-3.63,4.9-4.34s-2.51.06-5.41,1.74-5.17,3.65-5,4.39S271.12,91.1,274,89.39Z" transform="translate(-45.71 -35.21)"/><path class="cls-3" d="M285.84,82.28c2.64-1.54,4.71-3.25,4.67-3.89s-2.23,0-4.93,1.53-4.83,3.31-4.73,4S283.2,83.81,285.84,82.28Z" transform="translate(-45.71 -35.21)"/><path class="cls-3" d="M297.45,75.72c2.46-1.3,4.45-2.76,4.47-3.34s-2-.07-4.49,1.21-4.53,2.87-4.5,3.47S295,77,297.45,75.72Z" transform="translate(-45.71 -35.21)"/><path class="cls-3" d="M309,70c2.31-1,4.25-2.22,4.32-2.76s-1.78-.22-4.13.8-4.29,2.36-4.32,2.9S306.65,71,309,70Z" transform="translate(-45.71 -35.21)"/><path class="cls-3" d="M320.58,65.44c2.22-.73,4.13-1.65,4.23-2.16s-1.64-.4-3.89.33-4.12,1.82-4.21,2.32S318.36,66.18,320.58,65.44Z" transform="translate(-45.71 -35.21)"/><path class="cls-3" d="M332.45,62.27c2.14-.41,4-1,4.12-1.53s-1.55-.61-3.7-.2-4,1.23-4.07,1.7S330.31,62.68,332.45,62.27Z" transform="translate(-45.71 -35.21)"/><path class="cls-3" d="M344.75,60.77c2.08-.08,3.88-.44,4-.9s-1.51-.85-3.59-.75-3.82.62-3.93,1.08S342.67,60.85,344.75,60.77Z" transform="translate(-45.71 -35.21)"/><path class="cls-3" d="M358.68,61.34c2.21.23,3.91.09,3.94-.37s-1.61-1-3.77-1.25-4.08,0-4.16.44S356.46,61.11,358.68,61.34Z" transform="translate(-45.71 -35.21)"/><path class="cls-3" d="M371.54,63.23c1.63.34,2.85.29,2.83-.15s-1.28-1.1-2.89-1.43-3-.22-3,.21S369.9,62.89,371.54,63.23Z" transform="translate(-45.71 -35.21)"/><path class="cls-3" d="M381.75,66c1.19.43,2.07.45,2,0s-1-1.16-2.15-1.58-2.19-.39-2.16,0S380.56,65.6,381.75,66Z" transform="translate(-45.71 -35.21)"/><path class="cls-3" d="M389.73,69.67c.83.49,1.45.56,1.44.13s-.66-1.17-1.49-1.65-1.54-.51-1.52-.1S388.91,69.18,389.73,69.67Z" transform="translate(-45.71 -35.21)"/><path class="cls-3" d="M395.88,74.15c.57.53,1,.64,1.06.22a2.74,2.74,0,0,0-1-1.71c-.59-.52-1.1-.6-1.11-.19A3,3,0,0,0,395.88,74.15Z" transform="translate(-45.71 -35.21)"/><path class="cls-3" d="M400.59,79.41c.39.55.75.67.81.27a2.75,2.75,0,0,0-.6-1.7c-.41-.53-.79-.64-.84-.25A3,3,0,0,0,400.59,79.41Z" transform="translate(-45.71 -35.21)"/><path class="cls-3" d="M404.25,85.45c.27.55.57.69.68.31a2.78,2.78,0,0,0-.33-1.68c-.29-.54-.6-.66-.69-.29A3,3,0,0,0,404.25,85.45Z" transform="translate(-45.71 -35.21)"/><path class="cls-3" d="M407.27,92.21c.2.52.46.66.59.31a2.6,2.6,0,0,0-.15-1.57c-.21-.51-.48-.64-.6-.3A2.75,2.75,0,0,0,407.27,92.21Z" transform="translate(-45.71 -35.21)"/><path class="cls-3" d="M410,99.66c.16.47.4.61.54.3a2.25,2.25,0,0,0-.05-1.41c-.17-.47-.41-.6-.54-.29A2.33,2.33,0,0,0,410,99.66Z" transform="translate(-45.71 -35.21)"/><path class="cls-3" d="M412.86,107.79c.15.42.38.54.52.28a1.85,1.85,0,0,0,0-1.25c-.15-.42-.38-.54-.51-.27A1.88,1.88,0,0,0,412.86,107.79Z" transform="translate(-45.71 -35.21)"/><path class="cls-3" d="M416.21,116.56c.13.34.34.44.46.23a1.37,1.37,0,0,0,0-1c-.14-.34-.34-.44-.45-.23A1.37,1.37,0,0,0,416.21,116.56Z" transform="translate(-45.71 -35.21)"/><path class="cls-3" d="M420.41,125.93c.11.24.28.32.36.17a.89.89,0,0,0-.06-.7c-.12-.24-.27-.31-.36-.17A.89.89,0,0,0,420.41,125.93Z" transform="translate(-45.71 -35.21)"/><path class="cls-3" d="M425.83,135.9c.08.14.19.19.24.11a.5.5,0,0,0-.07-.41c-.08-.14-.19-.19-.24-.1A.5.5,0,0,0,425.83,135.9Z" transform="translate(-45.71 -35.21)"/><path class="cls-3" d="M432.85,146.42s0,0,0,0a.06.06,0,0,0,0,0s0,0,0,0A.06.06,0,0,0,432.85,146.42Z" transform="translate(-45.71 -35.21)"/><path class="cls-3" d="M54.39,39.66c0,.1.13.16.2.14s.09-.11.06-.21-.13-.16-.19-.14S54.36,39.57,54.39,39.66Z" transform="translate(-45.71 -35.21)"/><path class="cls-3" d="M58.52,49c.11.2.3.34.44.3s.16-.24.05-.44-.3-.34-.43-.3S58.41,48.75,58.52,49Z" transform="translate(-45.71 -35.21)"/><path class="cls-3" d="M63.91,58.75c.21.33.54.55.74.49s.2-.39,0-.73-.53-.55-.73-.48S63.71,58.42,63.91,58.75Z" transform="translate(-45.71 -35.21)"/><path class="cls-3" d="M70.44,68.84c.33.46.81.76,1.06.66s.19-.56-.13-1-.79-.76-1.05-.66S70.11,68.38,70.44,68.84Z" transform="translate(-45.71 -35.21)"/><path class="cls-3" d="M78,79c.46.57,1.06.92,1.34.78s.14-.71-.31-1.28-1-.91-1.33-.78S77.51,78.42,78,79Z" transform="translate(-45.71 -35.21)"/><path class="cls-3" d="M86.3,89c.61.67,1.35,1.06,1.65.87s.06-.89-.54-1.55-1.33-1.06-1.64-.88S85.7,88.3,86.3,89Z" transform="translate(-45.71 -35.21)"/><path class="cls-3" d="M95.31,98.56c.75.74,1.6,1.13,1.9.89s-.06-1-.79-1.76-1.57-1.13-1.89-.9S94.57,97.82,95.31,98.56Z" transform="translate(-45.71 -35.21)"/><path class="cls-3" d="M104.82,107.54c.9.78,1.86,1.16,2.15.85s-.2-1.18-1.08-2-1.84-1.17-2.14-.87S103.92,106.76,104.82,107.54Z" transform="translate(-45.71 -35.21)"/><path class="cls-3" d="M114.67,115.68c1,.79,2.1,1.1,2.35.72s-.36-1.3-1.38-2.08-2.07-1.12-2.35-.75S113.63,114.89,114.67,115.68Z" transform="translate(-45.71 -35.21)"/><path class="cls-3" d="M124.71,122.74c1.16.73,2.27.93,2.48.48s-.53-1.38-1.66-2.09-2.25-1-2.49-.53S123.55,122,124.71,122.74Z" transform="translate(-45.71 -35.21)"/><path class="cls-3" d="M134.75,128.49c1.26.62,2.4.66,2.57.14s-.68-1.4-1.91-2-2.39-.72-2.59-.21S133.49,127.87,134.75,128.49Z" transform="translate(-45.71 -35.21)"/><path class="cls-3" d="M144.64,132.71c1.35.45,2.52.28,2.64-.32s-.83-1.39-2.15-1.83-2.52-.38-2.67.21S143.29,132.26,144.64,132.71Z" transform="translate(-45.71 -35.21)"/><path class="cls-3" d="M154.2,135.16c1.39.21,2.55-.23,2.63-.89s-.93-1.29-2.3-1.49-2.58.1-2.69.75S152.81,135,154.2,135.16Z" transform="translate(-45.71 -35.21)"/><path class="cls-3" d="M163.25,135.62c1.41-.12,2.55-.89,2.6-1.61s-1-1.12-2.38-1-2.62.7-2.69,1.42S161.85,135.74,163.25,135.62Z" transform="translate(-45.71 -35.21)"/><path class="cls-3" d="M177.67,133.58c3.34-.57,5.9-1.71,5.85-2.45s-2.65-.82-5.91-.26-6,1.54-6.05,2.31S174.32,134.16,177.67,133.58Z" transform="translate(-45.71 -35.21)"/><path class="cls-3" d="M196.27,129.58c3.23-.87,5.62-2.24,5.46-3s-2.76-.6-5.93.24-5.77,2.08-5.67,2.86S193,130.45,196.27,129.58Z" transform="translate(-45.71 -35.21)"/><path class="cls-3" d="M213.24,124.3c3.13-1.14,5.37-2.72,5.14-3.47s-2.82-.4-5.91.71-5.54,2.58-5.35,3.36S210.12,125.44,213.24,124.3Z" transform="translate(-45.71 -35.21)"/><path class="cls-3" d="M228.77,118c3-1.36,5.13-3.11,4.87-3.85s-2.8-.22-5.79,1.11-5.31,3-5.06,3.76S225.77,119.39,228.77,118Z" transform="translate(-45.71 -35.21)"/><path class="cls-3" d="M243.06,111c2.88-1.53,4.91-3.38,4.66-4.1s-2.73-.07-5.62,1.43-5.1,3.29-4.83,4S240.18,112.57,243.06,111Z" transform="translate(-45.71 -35.21)"/><path class="cls-3" d="M256.3,103.61c2.74-1.62,4.71-3.5,4.48-4.19s-2.59,0-5.36,1.63-4.89,3.45-4.63,4.18S253.56,105.23,256.3,103.61Z" transform="translate(-45.71 -35.21)"/><path class="cls-3" d="M268.71,96c2.59-1.62,4.49-3.44,4.33-4.09s-2.39.09-5,1.67-4.65,3.43-4.44,4.12S266.12,97.66,268.71,96Z" transform="translate(-45.71 -35.21)"/><path class="cls-3" d="M280.5,88.61c2.43-1.52,4.28-3.2,4.18-3.8s-2.15.08-4.63,1.57-4.41,3.24-4.26,3.87S278.08,90.13,280.5,88.61Z" transform="translate(-45.71 -35.21)"/><path class="cls-3" d="M291.9,81.63c2.28-1.34,4.09-2.82,4.06-3.38s-1.92,0-4.25,1.33-4.18,2.91-4.1,3.48S289.62,83,291.9,81.63Z" transform="translate(-45.71 -35.21)"/><path class="cls-3" d="M303.12,75.38c2.16-1.11,3.94-2.35,4-2.87s-1.72-.11-3.93,1-4,2.47-4,3S301,76.48,303.12,75.38Z" transform="translate(-45.71 -35.21)"/><path class="cls-3" d="M314.38,70.16c2.08-.84,3.85-1.83,3.94-2.32s-1.57-.27-3.69.56-3.87,2-3.92,2.47S312.29,71,314.38,70.16Z" transform="translate(-45.71 -35.21)"/><path class="cls-3" d="M325.88,66.25c2-.54,3.78-1.26,3.89-1.72s-1.47-.47-3.51.07-3.75,1.42-3.85,1.88S323.85,66.79,325.88,66.25Z" transform="translate(-45.71 -35.21)"/><path class="cls-3" d="M337.82,63.93c2-.22,3.69-.67,3.81-1.1s-1.41-.69-3.38-.46-3.64.84-3.75,1.27S335.86,64.15,337.82,63.93Z" transform="translate(-45.71 -35.21)"/><path class="cls-3" d="M350.43,63.51c2.47.15,4.46,0,4.54-.43s-1.74-1-4.14-1.1c-1.91-.1-3.59.26-3.7.67S348.51,63.39,350.43,63.51Z" transform="translate(-45.71 -35.21)"/><path class="cls-3" d="M365.34,65.07c1.83.29,3.22.23,3.23-.18s-1.36-1-3.15-1.29-3.37-.15-3.41.25S363.51,64.78,365.34,65.07Z" transform="translate(-45.71 -35.21)"/><path class="cls-3" d="M377.09,67.61c1.31.39,2.29.41,2.27,0s-1-1.07-2.33-1.44-2.42-.34-2.41.05S375.78,67.22,377.09,67.61Z" transform="translate(-45.71 -35.21)"/><path class="cls-3" d="M386.15,71.09c.91.46,1.6.54,1.59.14s-.72-1.11-1.64-1.56-1.7-.48-1.68-.09S385.23,70.62,386.15,71.09Z" transform="translate(-45.71 -35.21)"/><path class="cls-3" d="M393,75.43c.61.51,1.08.62,1.1.23A2.66,2.66,0,0,0,393,74c-.62-.49-1.15-.57-1.16-.2A3,3,0,0,0,393,75.43Z" transform="translate(-45.71 -35.21)"/><path class="cls-3" d="M398,80.62c.4.53.74.67.79.29a2.75,2.75,0,0,0-.64-1.64c-.41-.52-.79-.63-.83-.26A3,3,0,0,0,398,80.62Z" transform="translate(-45.71 -35.21)"/><path class="cls-3" d="M401.63,86.59c.25.52.51.67.6.32a2.85,2.85,0,0,0-.32-1.58c-.26-.52-.55-.64-.62-.3A3.1,3.1,0,0,0,401.63,86.59Z" transform="translate(-45.71 -35.21)"/><path class="cls-3" d="M404.38,93.32c.17.5.38.64.49.32a2.76,2.76,0,0,0-.12-1.48c-.18-.49-.4-.62-.5-.31A2.94,2.94,0,0,0,404.38,93.32Z" transform="translate(-45.71 -35.21)"/><path class="cls-3" d="M406.65,100.77c.12.46.32.6.45.31a2.46,2.46,0,0,0,0-1.36c-.13-.46-.33-.59-.45-.3A2.57,2.57,0,0,0,406.65,100.77Z" transform="translate(-45.71 -35.21)"/><path class="cls-3" d="M408.88,108.87c.11.39.29.51.41.27a1.94,1.94,0,0,0,0-1.15c-.11-.39-.29-.51-.41-.27A2,2,0,0,0,408.88,108.87Z" transform="translate(-45.71 -35.21)"/><path class="cls-3" d="M411.49,117.62c.1.32.27.43.38.23a1.43,1.43,0,0,0,0-.94c-.1-.32-.27-.42-.38-.22A1.44,1.44,0,0,0,411.49,117.62Z" transform="translate(-45.71 -35.21)"/><path class="cls-3" d="M414.92,127c.09.22.23.3.3.16a.88.88,0,0,0,0-.65c-.09-.22-.22-.29-.3-.16A.89.89,0,0,0,414.92,127Z" transform="translate(-45.71 -35.21)"/><path class="cls-3" d="M419.57,136.83c.06.11.13.15.17.08a.4.4,0,0,0,0-.32c-.06-.11-.13-.15-.17-.08A.4.4,0,0,0,419.57,136.83Z" transform="translate(-45.71 -35.21)"/><path class="cls-3" d="M49.89,45.81c0,.06.08.1.12.09s.05-.06,0-.12-.08-.1-.12-.09S49.87,45.75,49.89,45.81Z" transform="translate(-45.71 -35.21)"/><path class="cls-3" d="M54.95,55.51c.1.17.27.28.37.25s.11-.18,0-.35-.26-.28-.37-.25S54.85,55.34,54.95,55.51Z" transform="translate(-45.71 -35.21)"/><path class="cls-3" d="M61.32,65.67c.21.3.51.5.68.45s.14-.34-.07-.64-.51-.5-.68-.44S61.11,65.37,61.32,65.67Z" transform="translate(-45.71 -35.21)"/><path class="cls-3" d="M68.86,76c.33.41.76.68,1,.6s.12-.48-.2-.9-.75-.68-1-.6S68.54,75.63,68.86,76Z" transform="translate(-45.71 -35.21)"/><path class="cls-3" d="M77.38,86.41c.46.52,1,.84,1.26.72s.06-.63-.39-1.15-1-.84-1.25-.72S76.93,85.89,77.38,86.41Z" transform="translate(-45.71 -35.21)"/><path class="cls-3" d="M86.69,96.52c.61.62,1.32,1,1.57.81s0-.8-.63-1.42-1.3-1-1.56-.81S86.08,95.9,86.69,96.52Z" transform="translate(-45.71 -35.21)"/><path class="cls-3" d="M96.62,106.13c.75.68,1.57,1,1.81.82s-.16-.94-.9-1.62-1.55-1-1.81-.83S95.86,105.46,96.62,106.13Z" transform="translate(-45.71 -35.21)"/><path class="cls-3" d="M107,115c.89.71,1.79,1,2,.75s-.3-1.07-1.17-1.77-1.77-1-2-.77S106.08,114.31,107,115Z" transform="translate(-45.71 -35.21)"/><path class="cls-3" d="M117.57,122.93c1,.7,2,1,2.22.61s-.47-1.19-1.48-1.88-2-1-2.22-.65S116.53,122.23,117.57,122.93Z" transform="translate(-45.71 -35.21)"/><path class="cls-3" d="M128.22,129.61c1.12.63,2.15.77,2.29.35s-.62-1.23-1.72-1.84-2.14-.81-2.31-.4S127.1,129,128.22,129.61Z" transform="translate(-45.71 -35.21)"/><path class="cls-3" d="M138.74,134.85c1.23.51,2.29.49,2.39,0s-.78-1.26-2-1.76-2.29-.55-2.41-.07S137.51,134.34,138.74,134.85Z" transform="translate(-45.71 -35.21)"/><path class="cls-3" d="M148.92,138.38c1.28.32,2.34.08,2.39-.48s-.91-1.22-2.16-1.53-2.36-.17-2.43.38S147.64,138.06,148.92,138.38Z" transform="translate(-45.71 -35.21)"/><path class="cls-3" d="M158.59,140c1.29.06,2.3-.45,2.32-1.07s-1-1.09-2.25-1.14-2.35.33-2.38.93S157.3,139.89,158.59,140Z" transform="translate(-45.71 -35.21)"/><path class="cls-3" d="M167.68,139.33c2.94-.5,5.59-1.32,5.55-2s-2.72-.91-5.59-.42c-1.2.21-2.46,1-2.46,1.63S166.47,139.53,167.68,139.33Z" transform="translate(-45.71 -35.21)"/><path class="cls-3" d="M187.88,135.87c3-.68,5.26-1.82,5.11-2.48s-2.59-.61-5.56.05-5.39,1.69-5.29,2.37S184.86,136.55,187.88,135.87Z" transform="translate(-45.71 -35.21)"/><path class="cls-3" d="M206.09,131c2.86-.92,4.9-2.25,4.68-2.91s-2.6-.41-5.43.49-5,2.13-4.86,2.81S203.23,131.89,206.09,131Z" transform="translate(-45.71 -35.21)"/><path class="cls-3" d="M222.55,124.92c2.71-1.14,4.6-2.62,4.34-3.27s-2.57-.23-5.27.88-4.76,2.52-4.51,3.19S219.84,126.06,222.55,124.92Z" transform="translate(-45.71 -35.21)"/><path class="cls-3" d="M237.48,118c2.57-1.31,4.36-2.92,4.08-3.55s-2.51-.08-5.08,1.21-4.52,2.84-4.24,3.5S234.91,119.34,237.48,118Z" transform="translate(-45.71 -35.21)"/><path class="cls-3" d="M251.12,110.56c2.42-1.42,4.11-3.08,3.86-3.69s-2.37,0-4.82,1.43-4.27,3-4,3.66S248.7,112,251.12,110.56Z" transform="translate(-45.71 -35.21)"/><path class="cls-3" d="M263.72,102.84c2.29-1.46,3.92-3.11,3.71-3.7s-2.21.11-4.53,1.54-4.06,3.1-3.82,3.71S261.43,104.3,263.72,102.84Z" transform="translate(-45.71 -35.21)"/><path class="cls-3" d="M275.51,95.13c2.16-1.43,3.76-3,3.61-3.55s-2,.12-4.22,1.53-3.88,3-3.69,3.6S273.35,96.56,275.51,95.13Z" transform="translate(-45.71 -35.21)"/><path class="cls-3" d="M286.74,87.75c2-1.32,3.62-2.75,3.55-3.26s-1.81.09-3.91,1.38-3.71,2.81-3.59,3.34S284.69,89.07,286.74,87.75Z" transform="translate(-45.71 -35.21)"/><path class="cls-3" d="M297.67,81c2-1.14,3.54-2.4,3.53-2.87s-1.63,0-3.64,1.13-3.6,2.49-3.55,3S295.71,82.14,297.67,81Z" transform="translate(-45.71 -35.21)"/><path class="cls-3" d="M308.54,75.16c1.91-.92,3.5-2,3.55-2.4s-1.49-.14-3.43.77-3.53,2.08-3.54,2.53S306.63,76.07,308.54,75.16Z" transform="translate(-45.71 -35.21)"/><path class="cls-3" d="M319.59,70.53c1.87-.65,3.49-1.44,3.59-1.87s-1.38-.32-3.29.33-3.48,1.59-3.55,2S317.72,71.18,319.59,70.53Z" transform="translate(-45.71 -35.21)"/><path class="cls-3" d="M331.08,67.41c1.86-.35,3.49-.89,3.61-1.29s-1.33-.53-3.2-.17-3.45,1-3.55,1.45S329.22,67.76,331.08,67.41Z" transform="translate(-45.71 -35.21)"/><path class="cls-3" d="M343.23,66.1c1.86,0,3.51-.31,3.63-.71s-1.33-.76-3.19-.71-3.45.48-3.57.87S341.37,66.14,343.23,66.1Z" transform="translate(-45.71 -35.21)"/><path class="cls-3" d="M357.86,66.94c2.15.25,3.82.17,3.87-.23s-1.52-.94-3.63-1.17-4-.08-4.1.3S355.71,66.69,357.86,66.94Z" transform="translate(-45.71 -35.21)"/><path class="cls-3" d="M371.56,69.18c1.54.36,2.71.37,2.71,0s-1.16-1-2.69-1.36-2.86-.3-2.88.07S370,68.82,371.56,69.18Z" transform="translate(-45.71 -35.21)"/><path class="cls-3" d="M382,72.42c1.07.45,1.86.52,1.85.14s-.83-1.07-1.89-1.5-2-.46-2-.09S381,72,382,72.42Z" transform="translate(-45.71 -35.21)"/><path class="cls-3" d="M389.81,76.61c.71.5,1.24.63,1.25.25a2.74,2.74,0,0,0-1.25-1.59c-.71-.49-1.33-.58-1.33-.21S389.11,76.1,389.81,76.61Z" transform="translate(-45.71 -35.21)"/><path class="cls-3" d="M395.38,81.69c.45.54.81.69.85.32a2.82,2.82,0,0,0-.74-1.64c-.46-.53-.87-.65-.9-.29A3.14,3.14,0,0,0,395.38,81.69Z" transform="translate(-45.71 -35.21)"/><path class="cls-3" d="M399.23,87.61c.27.55.53.72.6.36a3.11,3.11,0,0,0-.37-1.63c-.28-.54-.57-.69-.63-.34A3.44,3.44,0,0,0,399.23,87.61Z" transform="translate(-45.71 -35.21)"/><path class="cls-3" d="M401.85,94.32c.16.54.37.71.47.37a3.28,3.28,0,0,0-.13-1.58c-.17-.53-.39-.69-.48-.36A3.56,3.56,0,0,0,401.85,94.32Z" transform="translate(-45.71 -35.21)"/><path class="cls-3" d="M403.75,101.76c.11.51.29.67.41.36a3.08,3.08,0,0,0,0-1.47c-.11-.5-.3-.66-.41-.35A3.27,3.27,0,0,0,403.75,101.76Z" transform="translate(-45.71 -35.21)"/><path class="cls-3" d="M405.4,109.87c.09.44.26.59.38.32a2.5,2.5,0,0,0,.06-1.29c-.09-.44-.26-.58-.38-.32A2.59,2.59,0,0,0,405.4,109.87Z" transform="translate(-45.71 -35.21)"/><path class="cls-3" d="M407.28,118.62c.09.38.26.5.37.28a1.88,1.88,0,0,0,.05-1.09c-.09-.38-.25-.5-.37-.28A1.91,1.91,0,0,0,407.28,118.62Z" transform="translate(-45.71 -35.21)"/><path class="cls-3" d="M409.88,127.94c.09.28.24.38.33.21a1.22,1.22,0,0,0,0-.81c-.09-.28-.24-.38-.33-.21A1.23,1.23,0,0,0,409.88,127.94Z" transform="translate(-45.71 -35.21)"/><path class="cls-3" d="M413.65,137.81c.08.19.2.25.26.14a.72.72,0,0,0,0-.54c-.08-.19-.2-.25-.26-.14A.71.71,0,0,0,413.65,137.81Z" transform="translate(-45.71 -35.21)"/><path class="cls-3" d="M419.08,148.15c0,.07.09.09.11.05a.23.23,0,0,0,0-.19c0-.07-.09-.09-.11-.05A.23.23,0,0,0,419.08,148.15Z" transform="translate(-45.71 -35.21)"/><path class="cls-3" d="M45.74,52c.05.09.14.15.2.14s.07-.09,0-.18-.14-.15-.2-.14S45.69,51.87,45.74,52Z" transform="translate(-45.71 -35.21)"/><path class="cls-3" d="M51.86,62.1c.14.21.35.35.47.32s.11-.22,0-.43-.35-.35-.47-.32S51.73,61.89,51.86,62.1Z" transform="translate(-45.71 -35.21)"/><path class="cls-3" d="M59.34,72.63c.25.33.6.55.77.49s.11-.36-.14-.68-.59-.54-.77-.49S59.09,72.31,59.34,72.63Z" transform="translate(-45.71 -35.21)"/><path class="cls-3" d="M68,83.31c.38.44.86.73,1.07.64s.07-.51-.31-.94-.85-.73-1.07-.64S67.59,82.87,68,83.31Z" transform="translate(-45.71 -35.21)"/><path class="cls-3" d="M77.55,93.89c.52.54,1.14.88,1.36.76s0-.66-.53-1.19-1.12-.88-1.36-.76S77,93.35,77.55,93.89Z" transform="translate(-45.71 -35.21)"/><path class="cls-3" d="M87.87,104.11c.69.64,1.44,1,1.67.84s-.13-.82-.81-1.46-1.42-1-1.67-.84S87.18,103.47,87.87,104.11Z" transform="translate(-45.71 -35.21)"/><path class="cls-3" d="M98.74,113.71c.82.67,1.66,1,1.87.81s-.27-.94-1.07-1.61-1.64-1-1.87-.82S97.92,113,98.74,113.71Z" transform="translate(-45.71 -35.21)"/><path class="cls-3" d="M109.93,122.46c1,.69,1.88,1,2.06.72s-.42-1.06-1.36-1.74-1.86-1-2.06-.74S109,121.77,109.93,122.46Z" transform="translate(-45.71 -35.21)"/><path class="cls-3" d="M121.25,130.08c1.06.65,2,.87,2.17.52s-.58-1.12-1.62-1.76-2-.9-2.17-.56S120.19,129.43,121.25,130.08Z" transform="translate(-45.71 -35.21)"/><path class="cls-3" d="M132.46,136.34c1.16.56,2.16.66,2.25.24s-.74-1.17-1.88-1.73-2.16-.7-2.27-.3S131.31,135.77,132.46,136.34Z" transform="translate(-45.71 -35.21)"/><path class="cls-3" d="M143.37,141c1.21.41,2.21.32,2.25-.15s-.87-1.15-2.06-1.56-2.22-.39-2.28.08S142.16,140.54,143.37,141Z" transform="translate(-45.71 -35.21)"/><path class="cls-3" d="M153.75,143.69c1.23.2,2.19-.12,2.19-.66s-1-1.07-2.18-1.26-2.22,0-2.23.56S152.52,143.49,153.75,143.69Z" transform="translate(-45.71 -35.21)"/><path class="cls-3" d="M163.38,144.26c1.2-.08,2.09-.69,2-1.26s-1-.91-2.19-.82-2.14.56-2.11,1.13S162.19,144.35,163.38,144.26Z" transform="translate(-45.71 -35.21)"/><path class="cls-3" d="M178.75,142c2.87-.52,5-1.46,4.88-2.05s-2.45-.62-5.28-.11-5.13,1.35-5,2S175.87,142.53,178.75,142Z" transform="translate(-45.71 -35.21)"/><path class="cls-3" d="M198.46,137.58c2.71-.76,4.65-1.89,4.44-2.48s-2.47-.43-5.15.31-4.78,1.78-4.6,2.39S195.76,138.34,198.46,137.58Z" transform="translate(-45.71 -35.21)"/><path class="cls-3" d="M216.07,131.84c2.52-1,4.28-2.24,4-2.82s-2.42-.25-4.93.69-4.41,2.15-4.17,2.75S213.55,132.8,216.07,131.84Z" transform="translate(-45.71 -35.21)"/><path class="cls-3" d="M231.84,125.08c2.33-1.12,3.93-2.51,3.65-3.07s-2.32-.1-4.65,1-4.07,2.44-3.79,3S229.51,126.2,231.84,125.08Z" transform="translate(-45.71 -35.21)"/><path class="cls-3" d="M246,117.62c2.15-1.23,3.62-2.67,3.35-3.2s-2.17,0-4.34,1.24-3.75,2.62-3.47,3.18S243.89,118.85,246,117.62Z" transform="translate(-45.71 -35.21)"/><path class="cls-3" d="M258.94,109.76c2-1.28,3.36-2.72,3.13-3.23s-2,.11-4,1.37-3.48,2.7-3.23,3.23S257,111,258.94,109.76Z" transform="translate(-45.71 -35.21)"/><path class="cls-3" d="M270.82,101.8c1.84-1.27,3.16-2.67,3-3.14s-1.81.15-3.68,1.41-3.26,2.67-3.05,3.16S269,103.07,270.82,101.8Z" transform="translate(-45.71 -35.21)"/><path class="cls-3" d="M282,94c1.73-1.2,3-2.5,2.9-2.94s-1.62.15-3.39,1.33-3.1,2.54-2.95,3S280.23,95.24,282,94Z" transform="translate(-45.71 -35.21)"/><path class="cls-3" d="M292.64,86.79c1.65-1.07,2.93-2.23,2.88-2.64s-1.45.09-3.13,1.15-3,2.3-2.9,2.71S291,87.87,292.64,86.79Z" transform="translate(-45.71 -35.21)"/><path class="cls-3" d="M303.13,80.35c1.59-.9,2.89-1.88,2.9-2.26s-1.3,0-2.93.88-2.92,2-2.9,2.35S301.54,81.25,303.13,80.35Z" transform="translate(-45.71 -35.21)"/><path class="cls-3" d="M313.72,75c1.56-.68,2.88-1.45,2.94-1.81s-1.19-.15-2.78.53S311,75.3,311,75.65,312.16,75.7,313.72,75Z" transform="translate(-45.71 -35.21)"/><path class="cls-3" d="M324.68,71.1c1.55-.42,2.9-1,3-1.31s-1.12-.32-2.69.11-2.88,1.1-3,1.43S323.14,71.52,324.68,71.1Z" transform="translate(-45.71 -35.21)"/><path class="cls-3" d="M336.29,68.9c1.58-.16,3-.49,3.09-.81s-1.12-.52-2.71-.35-2.94.62-3,.94S334.71,69.06,336.29,68.9Z" transform="translate(-45.71 -35.21)"/><path class="cls-3" d="M348.84,68.7c2.22.16,4,.08,4.07-.24s-1.52-.74-3.69-.89c-1.59-.11-3,.11-3.08.42S347.24,68.59,348.84,68.7Z" transform="translate(-45.71 -35.21)"/><path class="cls-3" d="M364.9,70.58c1.6.28,2.83.28,2.85,0s-1.17-.81-2.74-1.08-3-.22-3,.08S363.31,70.3,364.9,70.58Z" transform="translate(-45.71 -35.21)"/><path class="cls-3" d="M377.2,73.54c1.1.37,1.94.44,1.93.13s-.84-.87-1.94-1.23-2-.39-2-.09S376.09,73.17,377.2,73.54Z" transform="translate(-45.71 -35.21)"/><path class="cls-3" d="M386.28,77.52c.73.43,1.28.55,1.27.24s-.56-.91-1.29-1.33-1.36-.5-1.35-.21S385.55,77.09,386.28,77.52Z" transform="translate(-45.71 -35.21)"/><path class="cls-3" d="M392.69,82.46c.44.46.79.6.81.31a2.43,2.43,0,0,0-.76-1.37c-.45-.45-.85-.57-.86-.28A2.7,2.7,0,0,0,392.69,82.46Z" transform="translate(-45.71 -35.21)"/><path class="cls-3" d="M397,88.29c.26.47.48.63.53.34a2.75,2.75,0,0,0-.38-1.38c-.26-.47-.52-.61-.56-.33A3,3,0,0,0,397,88.29Z" transform="translate(-45.71 -35.21)"/><path class="cls-3" d="M399.7,94.95c.13.46.29.62.36.35a3,3,0,0,0-.13-1.32c-.14-.45-.31-.6-.37-.33A3.3,3.3,0,0,0,399.7,94.95Z" transform="translate(-45.71 -35.21)"/><path class="cls-3" d="M401.37,102.37c.07.42.19.57.28.33a2.94,2.94,0,0,0,0-1.2c-.08-.42-.2-.56-.28-.32A3.12,3.12,0,0,0,401.37,102.37Z" transform="translate(-45.71 -35.21)"/><path class="cls-3" d="M402.54,110.5c0,.37.16.5.25.29a2.41,2.41,0,0,0,.08-1c0-.36-.16-.49-.25-.28A2.49,2.49,0,0,0,402.54,110.5Z" transform="translate(-45.71 -35.21)"/><path class="cls-3" d="M403.74,119.27c0,.3.15.4.23.23a1.69,1.69,0,0,0,.07-.84c0-.29-.15-.4-.23-.23A1.72,1.72,0,0,0,403.74,119.27Z" transform="translate(-45.71 -35.21)"/><path class="cls-3" d="M405.5,128.62c0,.21.14.28.2.16a1,1,0,0,0,0-.59c0-.21-.14-.28-.2-.16A1,1,0,0,0,405.5,128.62Z" transform="translate(-45.71 -35.21)"/><path class="cls-3" d="M408.33,138.5c0,.11.1.15.13.09a.45.45,0,0,0,0-.31c0-.11-.1-.15-.13-.09A.45.45,0,0,0,408.33,138.5Z" transform="translate(-45.71 -35.21)"/><path class="cls-3" d="M49.65,68.74c.07.1.18.17.23.16s0-.1,0-.2-.18-.17-.23-.16S49.57,68.64,49.65,68.74Z" transform="translate(-45.71 -35.21)"/><path class="cls-3" d="M58.3,79.65c.17.2.39.34.49.31s0-.22-.13-.42-.39-.34-.49-.31S58.13,79.45,58.3,79.65Z" transform="translate(-45.71 -35.21)"/><path class="cls-3" d="M68.06,90.61c.3.32.66.53.79.47s0-.36-.29-.68-.65-.52-.79-.47S67.76,90.3,68.06,90.61Z" transform="translate(-45.71 -35.21)"/><path class="cls-3" d="M78.72,101.37c.44.42.93.68,1.09.59s-.07-.51-.51-.92-.92-.68-1.09-.59S78.27,101,78.72,101.37Z" transform="translate(-45.71 -35.21)"/><path class="cls-3" d="M90.06,111.65c.57.49,1.16.77,1.32.63s-.17-.63-.74-1.11-1.15-.77-1.32-.64S89.48,111.17,90.06,111.65Z" transform="translate(-45.71 -35.21)"/><path class="cls-3" d="M101.83,121.19c.7.53,1.38.8,1.52.62s-.3-.74-1-1.26-1.37-.81-1.52-.63S101.13,120.67,101.83,121.19Z" transform="translate(-45.71 -35.21)"/><path class="cls-3" d="M113.8,129.74c.83.54,1.6.78,1.71.55s-.45-.86-1.26-1.39-1.59-.8-1.72-.56S113,129.19,113.8,129.74Z" transform="translate(-45.71 -35.21)"/><path class="cls-3" d="M125.75,137c.93.51,1.74.66,1.82.37s-.59-.92-1.5-1.42-1.73-.69-1.83-.4S124.82,136.49,125.75,137Z" transform="translate(-45.71 -35.21)"/><path class="cls-3" d="M137.43,142.71c1,.41,1.8.44,1.84.1s-.71-.93-1.68-1.34-1.8-.48-1.85-.14S136.44,142.3,137.43,142.71Z" transform="translate(-45.71 -35.21)"/><path class="cls-3" d="M148.6,146.62c1,.27,1.84.13,1.83-.27s-.83-.91-1.84-1.18-1.85-.19-1.86.21S147.57,146.35,148.6,146.62Z" transform="translate(-45.71 -35.21)"/><path class="cls-3" d="M159,148.44c1,.06,1.79-.29,1.74-.74s-.89-.82-1.9-.88-1.82.21-1.78.66S158,148.38,159,148.44Z" transform="translate(-45.71 -35.21)"/><path class="cls-3" d="M168.63,147.9c2.38-.41,4.42-1,4.32-1.53s-2.28-.64-4.61-.24c-.93.16-1.89.73-1.81,1.22S167.69,148.06,168.63,147.9Z" transform="translate(-45.71 -35.21)"/><path class="cls-3" d="M190.14,144c2.35-.55,4.05-1.42,3.88-1.9s-2.14-.41-4.47.13-4.15,1.34-4,1.84S187.79,144.56,190.14,144Z" transform="translate(-45.71 -35.21)"/><path class="cls-3" d="M209.15,138.63c2.16-.73,3.67-1.73,3.45-2.21s-2.09-.25-4.23.47-3.77,1.67-3.56,2.15S207,139.36,209.15,138.63Z" transform="translate(-45.71 -35.21)"/><path class="cls-3" d="M226,132.1c2-.88,3.34-2,3.09-2.45s-2-.11-4,.76-3.44,1.94-3.2,2.41S224,133,226,132.1Z" transform="translate(-45.71 -35.21)"/><path class="cls-3" d="M240.94,124.72c1.84-1,3.07-2.19,2.82-2.63s-1.9,0-3.74,1-3.17,2.15-2.91,2.61S239.11,125.73,240.94,124.72Z" transform="translate(-45.71 -35.21)"/><path class="cls-3" d="M254.32,116.79c1.69-1.08,2.83-2.3,2.59-2.72s-1.76.11-3.47,1.17-2.92,2.28-2.68,2.71S252.63,117.87,254.32,116.79Z" transform="translate(-45.71 -35.21)"/><path class="cls-3" d="M266.41,108.62c1.54-1.09,2.6-2.28,2.41-2.67s-1.59.16-3.15,1.24-2.69,2.28-2.47,2.68S264.87,109.71,266.41,108.62Z" transform="translate(-45.71 -35.21)"/><path class="cls-3" d="M277.56,100.53c1.45-1.07,2.49-2.22,2.34-2.58s-1.44.18-2.91,1.24-2.56,2.24-2.39,2.61S276.11,101.6,277.56,100.53Z" transform="translate(-45.71 -35.21)"/><path class="cls-3" d="M288,92.82c1.37-1,2.39-2,2.31-2.37s-1.28.16-2.67,1.13-2.45,2.07-2.33,2.42S286.68,93.8,288,92.82Z" transform="translate(-45.71 -35.21)"/><path class="cls-3" d="M298.19,85.8c1.33-.86,2.38-1.78,2.35-2.1s-1.15.09-2.51.95-2.41,1.84-2.35,2.16S296.86,86.66,298.19,85.8Z" transform="translate(-45.71 -35.21)"/><path class="cls-3" d="M308.31,79.77c1.3-.69,2.37-1.44,2.39-1.72s-1,0-2.36.67S306,80.23,306,80.52,307,80.46,308.31,79.77Z" transform="translate(-45.71 -35.21)"/><path class="cls-3" d="M318.71,75.06a6.07,6.07,0,0,0,2.49-1.32c.06-.27-1-.15-2.29.33a5.38,5.38,0,0,0-2.46,1.41C316.4,75.76,317.41,75.54,318.71,75.06Z" transform="translate(-45.71 -35.21)"/><path class="cls-3" d="M329.7,72a5.55,5.55,0,0,0,2.58-.87c.09-.26-.94-.31-2.28-.06a5,5,0,0,0-2.54,1C327.39,72.26,328.38,72.22,329.7,72Z" transform="translate(-45.71 -35.21)"/><path class="cls-3" d="M341.59,70.79c1.37,0,2.58-.17,2.68-.42s-1-.5-2.34-.48-2.54.27-2.63.52S340.22,70.8,341.59,70.79Z" transform="translate(-45.71 -35.21)"/><path class="cls-3" d="M356.86,71.91c1.73.22,3.09.21,3.14,0s-1.23-.65-2.93-.86-3.22-.16-3.29.09S355.13,71.69,356.86,71.91Z" transform="translate(-45.71 -35.21)"/><path class="cls-3" d="M371.39,74.54c1.21.31,2.14.38,2.14.12s-.91-.73-2.11-1-2.24-.33-2.26-.08S370.18,74.22,371.39,74.54Z" transform="translate(-45.71 -35.21)"/><path class="cls-3" d="M382.15,78.27c.79.38,1.39.49,1.39.24s-.61-.77-1.4-1.14-1.47-.45-1.47-.21S381.36,77.89,382.15,78.27Z" transform="translate(-45.71 -35.21)"/><path class="cls-3" d="M389.73,83c.48.41.86.56.86.31a2.26,2.26,0,0,0-.85-1.2c-.49-.41-.91-.53-.91-.29S389.25,82.62,389.73,83Z" transform="translate(-45.71 -35.21)"/><path class="cls-3" d="M394.73,88.76c.27.43.49.59.52.34a2.47,2.47,0,0,0-.44-1.22c-.28-.42-.53-.57-.55-.33A2.72,2.72,0,0,0,394.73,88.76Z" transform="translate(-45.71 -35.21)"/><path class="cls-3" d="M397.75,95.36c.13.42.27.58.32.35a2.93,2.93,0,0,0-.15-1.19c-.14-.42-.29-.57-.34-.34A3.2,3.2,0,0,0,397.75,95.36Z" transform="translate(-45.71 -35.21)"/><path class="cls-3" d="M399.37,102.78c.06.4.15.55.22.33a3.12,3.12,0,0,0,0-1.11c-.06-.39-.16-.54-.23-.33A3.36,3.36,0,0,0,399.37,102.78Z" transform="translate(-45.71 -35.21)"/><path class="cls-3" d="M400.18,110.94c0,.35.1.49.18.3a2.74,2.74,0,0,0,.09-1c0-.35-.11-.48-.18-.29A2.87,2.87,0,0,0,400.18,110.94Z" transform="translate(-45.71 -35.21)"/><path class="cls-3" d="M400.77,119.75c0,.28.09.39.17.24a1.92,1.92,0,0,0,.1-.79c0-.28-.1-.39-.17-.23A2,2,0,0,0,400.77,119.75Z" transform="translate(-45.71 -35.21)"/><path class="cls-3" d="M401.71,129.15c0,.19.09.27.15.16a1.1,1.1,0,0,0,.06-.54c0-.19-.09-.27-.15-.16A1.1,1.1,0,0,0,401.71,129.15Z" transform="translate(-45.71 -35.21)"/><path class="cls-3" d="M403.56,139.1c0,.11.08.15.11.09a.51.51,0,0,0,0-.31c0-.11-.08-.15-.11-.09A.51.51,0,0,0,403.56,139.1Z" transform="translate(-45.71 -35.21)"/><path class="cls-3" d="M48.18,75.55c.06.07.13.12.17.11s0-.07,0-.14-.13-.12-.17-.11S48.12,75.48,48.18,75.55Z" transform="translate(-45.71 -35.21)"/><path class="cls-3" d="M58.05,86.83c.16.17.36.29.43.27s0-.19-.15-.36-.35-.29-.43-.27S57.89,86.66,58.05,86.83Z" transform="translate(-45.71 -35.21)"/><path class="cls-3" d="M69,98.07c.28.27.6.45.7.4s0-.31-.32-.58-.59-.45-.7-.4S68.72,97.8,69,98.07Z" transform="translate(-45.71 -35.21)"/><path class="cls-3" d="M80.77,109c.41.36.84.58,1,.5s-.11-.43-.52-.79-.83-.58-1-.5S80.36,108.62,80.77,109Z" transform="translate(-45.71 -35.21)"/><path class="cls-3" d="M93.11,119.28c.52.41,1,.64,1.15.53s-.21-.54-.73-.94-1-.64-1.15-.53S92.59,118.87,93.11,119.28Z" transform="translate(-45.71 -35.21)"/><path class="cls-3" d="M105.76,128.71c.64.45,1.25.67,1.35.51s-.34-.65-1-1.09-1.24-.68-1.35-.52S105.11,128.26,105.76,128.71Z" transform="translate(-45.71 -35.21)"/><path class="cls-3" d="M118.47,137c.74.44,1.39.62,1.46.41s-.46-.72-1.19-1.15-1.39-.63-1.47-.43S117.73,136.53,118.47,137Z" transform="translate(-45.71 -35.21)"/><path class="cls-3" d="M131,143.78c.81.39,1.49.49,1.53.24s-.58-.76-1.38-1.15-1.49-.51-1.54-.26S130.16,143.39,131,143.78Z" transform="translate(-45.71 -35.21)"/><path class="cls-3" d="M143,148.87c.86.3,1.55.28,1.54,0s-.69-.77-1.54-1.06-1.55-.31-1.56,0S142.14,148.57,143,148.87Z" transform="translate(-45.71 -35.21)"/><path class="cls-3" d="M154.31,152c.88.16,1.55,0,1.5-.37s-.77-.73-1.64-.88-1.56,0-1.53.32S153.43,151.8,154.31,152Z" transform="translate(-45.71 -35.21)"/><path class="cls-3" d="M164.63,152.75c.85,0,1.45-.42,1.38-.81s-.81-.63-1.65-.58-1.48.36-1.41.75S163.79,152.79,164.63,152.75Z" transform="translate(-45.71 -35.21)"/><path class="cls-3" d="M180.94,150.31c2-.39,3.52-1,3.39-1.43s-1.83-.38-3.84,0-3.59,1-3.48,1.39S178.91,150.69,180.94,150.31Z" transform="translate(-45.71 -35.21)"/><path class="cls-3" d="M201.66,145.4c1.9-.56,3.24-1.34,3.05-1.74s-1.83-.25-3.71.3-3.31,1.3-3.14,1.7S199.76,146,201.66,145.4Z" transform="translate(-45.71 -35.21)"/><path class="cls-3" d="M219.81,139.14c1.71-.69,2.89-1.57,2.67-1.95s-1.74-.12-3.45.56-3,1.53-2.75,1.92S218.09,139.83,219.81,139.14Z" transform="translate(-45.71 -35.21)"/><path class="cls-3" d="M235.73,131.88c1.55-.8,2.59-1.75,2.36-2.11s-1.64,0-3.19.79-2.66,1.72-2.43,2.09S234.17,132.68,235.73,131.88Z" transform="translate(-45.71 -35.21)"/><path class="cls-3" d="M249.75,123.92c1.39-.87,2.32-1.85,2.1-2.18s-1.5.09-2.9.95-2.39,1.83-2.16,2.17S248.36,124.78,249.75,123.92Z" transform="translate(-45.71 -35.21)"/><path class="cls-3" d="M262.22,115.58c1.27-.9,2.11-1.89,1.92-2.2s-1.36.16-2.64,1-2.17,1.88-2,2.2S261,116.48,262.22,115.58Z" transform="translate(-45.71 -35.21)"/><path class="cls-3" d="M273.48,107.17c1.15-.89,1.95-1.84,1.79-2.13s-1.21.19-2.38,1.07-2,1.85-1.83,2.14S272.33,108.06,273.48,107.17Z" transform="translate(-45.71 -35.21)"/><path class="cls-3" d="M283.87,99c1.06-.84,1.83-1.71,1.72-2s-1.06.19-2.14,1-1.87,1.73-1.74,2S282.81,99.85,283.87,99Z" transform="translate(-45.71 -35.21)"/><path class="cls-3" d="M293.73,91.43c1-.75,1.78-1.53,1.72-1.76s-.94.16-2,.9-1.81,1.56-1.73,1.8S292.72,92.18,293.73,91.43Z" transform="translate(-45.71 -35.21)"/><path class="cls-3" d="M303.41,84.73c1-.62,1.77-1.27,1.75-1.49s-.83.09-1.83.7-1.78,1.32-1.75,1.53S302.43,85.35,303.41,84.73Z" transform="translate(-45.71 -35.21)"/><path class="cls-3" d="M313.25,79.23a5,5,0,0,0,1.83-1.18c0-.2-.77,0-1.76.46a4.41,4.41,0,0,0-1.82,1.23C311.49,79.94,312.27,79.7,313.25,79.23Z" transform="translate(-45.71 -35.21)"/><path class="cls-3" d="M323.59,75.24a4.79,4.79,0,0,0,1.92-.83c.05-.18-.73-.13-1.74.16a4.25,4.25,0,0,0-1.9.89C321.83,75.64,322.59,75.53,323.59,75.24Z" transform="translate(-45.71 -35.21)"/><path class="cls-3" d="M334.78,73.07a4.4,4.4,0,0,0,2-.46c.07-.17-.72-.26-1.75-.16a3.94,3.94,0,0,0-2,.52C333,73.14,333.75,73.17,334.78,73.07Z" transform="translate(-45.71 -35.21)"/><path class="cls-3" d="M347.16,73.05a7.6,7.6,0,0,0,2.94,0c.06-.17-1.12-.42-2.68-.55a3.92,3.92,0,0,0-2.06.15C345.29,72.78,346.11,73,347.16,73.05Z" transform="translate(-45.71 -35.21)"/><path class="cls-3" d="M364.37,75.29c1.12.22,2,.27,2,.1s-.83-.49-1.94-.7-2.07-.24-2.1-.07S363.25,75.07,364.37,75.29Z" transform="translate(-45.71 -35.21)"/><path class="cls-3" d="M377.21,78.72c.73.27,1.3.37,1.29.2s-.57-.53-1.3-.8-1.35-.34-1.35-.18S376.48,78.45,377.21,78.72Z" transform="translate(-45.71 -35.21)"/><path class="cls-3" d="M386.32,83.27c.45.31.79.43.79.26s-.35-.56-.79-.86-.83-.41-.82-.24S385.87,83,386.32,83.27Z" transform="translate(-45.71 -35.21)"/><path class="cls-3" d="M392.35,88.85c.24.31.43.44.44.28a1.78,1.78,0,0,0-.41-.85c-.24-.31-.45-.42-.46-.27A1.94,1.94,0,0,0,392.35,88.85Z" transform="translate(-45.71 -35.21)"/><path class="cls-3" d="M395.94,95.38c.11.3.21.43.24.28a2.12,2.12,0,0,0-.16-.82c-.11-.3-.23-.42-.25-.27A2.28,2.28,0,0,0,395.94,95.38Z" transform="translate(-45.71 -35.21)"/><path class="cls-3" d="M397.73,102.77c0,.26.09.37.13.24a2.31,2.31,0,0,0,0-.72c0-.26-.1-.37-.13-.24A2.46,2.46,0,0,0,397.73,102.77Z" transform="translate(-45.71 -35.21)"/><path class="cls-3" d="M398.35,110.94c0,.21,0,.3.08.19a2,2,0,0,0,.06-.57c0-.21,0-.29-.08-.19A2,2,0,0,0,398.35,110.94Z" transform="translate(-45.71 -35.21)"/><path class="cls-3" d="M398.43,119.82c0,.16,0,.22.06.14a1.3,1.3,0,0,0,.06-.43c0-.16,0-.22-.06-.14A1.31,1.31,0,0,0,398.43,119.82Z" transform="translate(-45.71 -35.21)"/><path class="cls-3" d="M398.63,129.3c0,.06,0,.08,0,.05a.41.41,0,0,0,0-.17c0-.06,0-.08,0-.05A.41.41,0,0,0,398.63,129.3Z" transform="translate(-45.71 -35.21)"/><path class="cls-3" d="M71,105.63c.08.07.16.11.18.1s0-.08-.1-.15-.16-.11-.18-.1S70.94,105.56,71,105.63Z" transform="translate(-45.71 -35.21)"/><path class="cls-3" d="M83.85,116.64c.2.16.4.26.45.23s-.08-.2-.28-.36-.4-.26-.45-.23S83.65,116.48,83.85,116.64Z" transform="translate(-45.71 -35.21)"/><path class="cls-3" d="M97.14,126.91c.31.22.6.35.65.28s-.15-.3-.46-.52-.6-.35-.65-.29S96.83,126.68,97.14,126.91Z" transform="translate(-45.71 -35.21)"/><path class="cls-3" d="M110.59,136.14c.41.26.78.39.83.29s-.25-.39-.66-.65-.78-.39-.83-.3S110.18,135.87,110.59,136.14Z" transform="translate(-45.71 -35.21)"/><path class="cls-3" d="M123.93,144c.5.27.94.38,1,.24s-.35-.47-.85-.74-.94-.38-1-.24S123.42,143.76,123.93,144Z" transform="translate(-45.71 -35.21)"/><path class="cls-3" d="M136.86,150.31c.58.24,1.05.29,1.06.11s-.46-.52-1-.76-1.05-.3-1.06-.12S136.28,150.07,136.86,150.31Z" transform="translate(-45.71 -35.21)"/><path class="cls-3" d="M149.11,154.66c.62.17,1.09.12,1.06-.1s-.53-.52-1.14-.69-1.09-.14-1.07.08S148.5,154.49,149.11,154.66Z" transform="translate(-45.71 -35.21)"/><path class="cls-3" d="M160.4,156.8c.62.05,1.07-.13,1-.38s-.59-.49-1.21-.54-1.09.1-1,.35S159.78,156.75,160.4,156.8Z" transform="translate(-45.71 -35.21)"/><path class="cls-3" d="M170.62,156.42c1.52-.25,2.74-.66,2.65-.94s-1.44-.34-2.94-.09c-.58.1-1.2.44-1.13.73S170,156.51,170.62,156.42Z" transform="translate(-45.71 -35.21)"/><path class="cls-3" d="M193.34,152c1.46-.36,2.51-.9,2.38-1.18s-1.39-.22-2.84.14-2.55.87-2.43,1.16S191.88,152.38,193.34,152Z" transform="translate(-45.71 -35.21)"/><path class="cls-3" d="M213.08,146.12c1.32-.47,2.24-1.09,2.08-1.37s-1.34-.11-2.66.35-2.28,1.06-2.12,1.35S211.76,146.59,213.08,146.12Z" transform="translate(-45.71 -35.21)"/><path class="cls-3" d="M230.22,139c1.2-.57,2-1.25,1.82-1.52s-1.27,0-2.47.55-2,1.23-1.87,1.5S229,139.61,230.22,139Z" transform="translate(-45.71 -35.21)"/><path class="cls-3" d="M245.12,131.11c1.09-.65,1.8-1.38,1.62-1.63s-1.19.07-2.28.7-1.84,1.36-1.66,1.62S244,131.75,245.12,131.11Z" transform="translate(-45.71 -35.21)"/><path class="cls-3" d="M258.15,122.64c1-.69,1.61-1.43,1.44-1.67s-1.08.13-2.06.81-1.65,1.43-1.47,1.67S257.18,123.33,258.15,122.64Z" transform="translate(-45.71 -35.21)"/><path class="cls-3" d="M269.69,114c.89-.7,1.47-1.45,1.33-1.66s-1,.17-1.87.87-1.51,1.45-1.35,1.67S268.8,114.67,269.69,114Z" transform="translate(-45.71 -35.21)"/><path class="cls-3" d="M280.1,105.41c.81-.68,1.37-1.38,1.25-1.58s-.86.19-1.68.87-1.4,1.39-1.27,1.59S279.29,106.09,280.1,105.41Z" transform="translate(-45.71 -35.21)"/><path class="cls-3" d="M289.76,97.28c.75-.62,1.29-1.25,1.22-1.42s-.75.18-1.51.8-1.31,1.27-1.23,1.44S289,97.9,289.76,97.28Z" transform="translate(-45.71 -35.21)"/><path class="cls-3" d="M299.06,89.91c.72-.54,1.28-1.08,1.24-1.23s-.66.14-1.39.68-1.29,1.1-1.24,1.26S298.33,90.45,299.06,89.91Z" transform="translate(-45.71 -35.21)"/><path class="cls-3" d="M308.35,83.63c.72-.43,1.31-.87,1.3-1s-.6.08-1.33.51-1.31.9-1.3,1S307.63,84.06,308.35,83.63Z" transform="translate(-45.71 -35.21)"/><path class="cls-3" d="M318,78.74a3.94,3.94,0,0,0,1.35-.73c0-.12-.55,0-1.27.29a3.49,3.49,0,0,0-1.34.77C316.75,79.19,317.31,79,318,78.74Z" transform="translate(-45.71 -35.21)"/><path class="cls-3" d="M328.45,75.59a3.91,3.91,0,0,0,1.45-.46c0-.11-.54-.1-1.3,0a3.46,3.46,0,0,0-1.43.49C327.13,75.79,327.7,75.74,328.45,75.59Z" transform="translate(-45.71 -35.21)"/><path class="cls-3" d="M340,74.48a3.73,3.73,0,0,0,1.53-.17c.05-.11-.55-.21-1.34-.21a3.35,3.35,0,0,0-1.51.21C338.63,74.41,339.22,74.48,340,74.48Z" transform="translate(-45.71 -35.21)"/><path class="cls-3" d="M355.87,75.85a4.93,4.93,0,0,0,1.89.08,4.24,4.24,0,0,0-1.78-.45,5.15,5.15,0,0,0-1.94-.06A4.9,4.9,0,0,0,355.87,75.85Z" transform="translate(-45.71 -35.21)"/><path class="cls-3" d="M371.22,78.93c.68.19,1.21.27,1.22.17s-.53-.35-1.21-.55S370,78.3,370,78.4,370.54,78.74,371.22,78.93Z" transform="translate(-45.71 -35.21)"/><path class="cls-3" d="M382.25,83.23c.42.23.74.32.74.22s-.33-.38-.75-.6-.77-.31-.76-.21S381.84,83,382.25,83.23Z" transform="translate(-45.71 -35.21)"/><path class="cls-3" d="M389.65,88.64c.22.23.4.33.4.23a1.38,1.38,0,0,0-.39-.6c-.22-.23-.41-.33-.41-.22A1.49,1.49,0,0,0,389.65,88.64Z" transform="translate(-45.71 -35.21)"/><path class="cls-3" d="M394.1,95.08c.1.21.18.31.19.22a1.48,1.48,0,0,0-.16-.56c-.1-.21-.19-.31-.2-.21A1.58,1.58,0,0,0,394.1,95.08Z" transform="translate(-45.71 -35.21)"/><path class="cls-3" d="M396.29,102.44c0,.18.07.26.08.18a1.69,1.69,0,0,0,0-.47c0-.18-.07-.26-.09-.18A1.76,1.76,0,0,0,396.29,102.44Z" transform="translate(-45.71 -35.21)"/><path class="cls-3" d="M396.91,110.65c0,.15,0,.21,0,.15a1.59,1.59,0,0,0,0-.38c0-.15,0-.21,0-.14A1.65,1.65,0,0,0,396.91,110.65Z" transform="translate(-45.71 -35.21)"/><path class="cls-3" d="M396.64,119.58c0,.07,0,.1,0,.07a.74.74,0,0,0,0-.19c0-.07,0-.1,0-.07A.74.74,0,0,0,396.64,119.58Z" transform="translate(-45.71 -35.21)"/><ellipse class="cls-3" cx="87.88" cy="124.43" rx="0.02" ry="0.1" transform="translate(-107.82 62.6) rotate(-44.7)"/><ellipse class="cls-3" cx="102.08" cy="134.55" rx="0.06" ry="0.29" transform="matrix(0.52, -0.85, 0.85, 0.52, -111.63, 116.74)"/><path class="cls-3" d="M116.22,143.56c.24.14.44.2.46.15s-.16-.21-.4-.35-.44-.2-.46-.15S116,143.43,116.22,143.56Z" transform="translate(-45.71 -35.21)"/><path class="cls-3" d="M130.08,151c.31.15.57.2.58.12s-.24-.28-.55-.43-.57-.2-.58-.12S129.77,150.85,130.08,151Z" transform="translate(-45.71 -35.21)"/><path class="cls-3" d="M143.33,156.63c.37.13.67.14.66,0s-.32-.32-.69-.45-.67-.15-.66,0S143,156.49,143.33,156.63Z" transform="translate(-45.71 -35.21)"/><path class="cls-3" d="M155.65,160.12c.4.08.69,0,.66-.13s-.37-.32-.76-.39-.69,0-.67.12S155.25,160,155.65,160.12Z" transform="translate(-45.71 -35.21)"/><path class="cls-3" d="M166.74,161.18c.4,0,.67-.16.62-.33s-.41-.29-.8-.28-.68.15-.63.32S166.34,161.19,166.74,161.18Z" transform="translate(-45.71 -35.21)"/><path class="cls-3" d="M184,158.55c1-.2,1.73-.52,1.66-.71s-.94-.16-1.93,0-1.75.51-1.68.7S183,158.75,184,158.55Z" transform="translate(-45.71 -35.21)"/><path class="cls-3" d="M205.65,153.06c.92-.29,1.57-.67,1.47-.85s-.92-.09-1.84.19-1.59.66-1.49.84S204.73,153.35,205.65,153.06Z" transform="translate(-45.71 -35.21)"/><path class="cls-3" d="M224.28,146.23c.85-.36,1.42-.81,1.3-1s-.9,0-1.74.33-1.44.8-1.32,1S223.43,146.59,224.28,146.23Z" transform="translate(-45.71 -35.21)"/><path class="cls-3" d="M240.29,138.36c.75-.42,1.24-.89,1.12-1.06s-.83,0-1.58.45-1.26.89-1.13,1.06S239.54,138.78,240.29,138.36Z" transform="translate(-45.71 -35.21)"/><path class="cls-3" d="M254.09,129.82c.69-.47,1.13-1,1-1.14s-.78.09-1.47.56-1.15,1-1,1.14S253.41,130.29,254.09,129.82Z" transform="translate(-45.71 -35.21)"/><path class="cls-3" d="M266.08,120.9c.6-.48,1-1,.88-1.13s-.69.13-1.29.61-1,1-.89,1.13S265.47,121.39,266.08,120.9Z" transform="translate(-45.71 -35.21)"/><path class="cls-3" d="M276.65,112c.54-.47.89-1,.8-1.08s-.6.15-1.14.63-.91,1-.81,1.09S276.12,112.43,276.65,112Z" transform="translate(-45.71 -35.21)"/><path class="cls-3" d="M286.24,103.31c.49-.45.83-.9.76-1s-.53.16-1,.61-.85.9-.77,1S285.74,103.76,286.24,103.31Z" transform="translate(-45.71 -35.21)"/><path class="cls-3" d="M295.23,95.29c.45-.38.77-.76.73-.85s-.44.14-.89.52-.78.77-.73.86S294.78,95.67,295.23,95.29Z" transform="translate(-45.71 -35.21)"/><path class="cls-3" d="M304,88.23c.43-.32.77-.63.75-.71s-.39.11-.83.43-.77.64-.75.72S303.6,88.55,304,88.23Z" transform="translate(-45.71 -35.21)"/><path class="cls-3" d="M313.07,82.45a2.59,2.59,0,0,0,.78-.53c0-.06-.35.06-.78.29a2.35,2.35,0,0,0-.77.54C312.3,82.83,312.64,82.69,313.07,82.45Z" transform="translate(-45.71 -35.21)"/><path class="cls-3" d="M322.73,78.3a2.77,2.77,0,0,0,.82-.34c0-.05-.32,0-.76.14a2.48,2.48,0,0,0-.81.36C322,78.51,322.3,78.43,322.73,78.3Z" transform="translate(-45.71 -35.21)"/><path class="cls-3" d="M333.43,76.08a2.68,2.68,0,0,0,.84-.16s-.31-.06-.75,0a2.43,2.43,0,0,0-.83.17S333,76.12,333.43,76.08Z" transform="translate(-45.71 -35.21)"/><path class="cls-3" d="M345.6,76.14a5.79,5.79,0,0,0,1.32,0,4.59,4.59,0,0,0-1.23-.2,2.71,2.71,0,0,0-.87,0A2,2,0,0,0,345.6,76.14Z" transform="translate(-45.71 -35.21)"/><path class="cls-3" d="M363.94,78.81a2.25,2.25,0,0,0,.83.1,2.32,2.32,0,0,0-.81-.26,2.29,2.29,0,0,0-.84-.1A2.54,2.54,0,0,0,363.94,78.81Z" transform="translate(-45.71 -35.21)"/><path class="cls-3" d="M377.31,82.81c.26.11.46.16.45.12a1.19,1.19,0,0,0-.46-.27c-.26-.11-.46-.16-.46-.12A1.28,1.28,0,0,0,377.31,82.81Z" transform="translate(-45.71 -35.21)"/><path class="cls-3" d="M386.44,88c.12.1.22.15.22.11a.71.71,0,0,0-.22-.24c-.12-.1-.22-.15-.22-.11A.74.74,0,0,0,386.44,88Z" transform="translate(-45.71 -35.21)"/><path class="cls-3" d="M392.08,94.32c0,.07.08.11.08.08a.53.53,0,0,0-.08-.18c0-.07-.08-.11-.08-.08A.54.54,0,0,0,392.08,94.32Z" transform="translate(-45.71 -35.21)"/><path class="cls-3" d="M395,101.64s0,0,0,0a.24.24,0,0,0,0-.06s0,0,0,0A.24.24,0,0,0,395,101.64Z" transform="translate(-45.71 -35.21)"/><path class="cls-3" d="M150.27,162.6c.06,0,.1,0,.1,0s-.05,0-.11-.07-.1,0-.1,0S150.21,162.59,150.27,162.6Z" transform="translate(-45.71 -35.21)"/><path class="cls-3" d="M162.47,165.12c.11,0,.18,0,.17-.05s-.11-.08-.21-.09-.18,0-.17.05S162.37,165.1,162.47,165.12Z" transform="translate(-45.71 -35.21)"/><path class="cls-3" d="M173.36,164.94c.36-.06.62-.15.6-.22s-.33-.06-.68,0c-.14,0-.42.12-.4.18S173.22,165,173.36,164.94Z" transform="translate(-45.71 -35.21)"/><path class="cls-3" d="M197.25,159.93c.37-.1.64-.24.6-.3s-.37,0-.74.05-.64.23-.61.3S196.88,160,197.25,159.93Z" transform="translate(-45.71 -35.21)"/><path class="cls-3" d="M217.68,153.4c.37-.14.64-.32.58-.4s-.39,0-.77.12-.64.32-.59.39S217.31,153.54,217.68,153.4Z" transform="translate(-45.71 -35.21)"/><path class="cls-3" d="M235.09,145.67c.37-.19.61-.41.55-.48s-.41,0-.78.2-.62.4-.56.48S234.72,145.86,235.09,145.67Z" transform="translate(-45.71 -35.21)"/><path class="cls-3" d="M249.89,137.08c.33-.22.55-.46.49-.53s-.39,0-.72.26-.56.45-.49.53S249.56,137.3,249.89,137.08Z" transform="translate(-45.71 -35.21)"/><path class="cls-3" d="M262.54,128c.3-.24.5-.49.44-.56s-.36.07-.67.31-.5.49-.44.56S262.23,128.22,262.54,128Z" transform="translate(-45.71 -35.21)"/><ellipse class="cls-3" cx="273.36" cy="118.57" rx="0.65" ry="0.15" transform="translate(-53.9 180.89) rotate(-42.55)"/><path class="cls-3" d="M283.11,109.54c.24-.23.39-.46.35-.51s-.27.1-.51.33-.4.46-.35.51S282.87,109.77,283.11,109.54Z" transform="translate(-45.71 -35.21)"/><path class="cls-3" d="M291.91,100.89c.22-.22.38-.42.34-.47s-.24.1-.46.31-.38.43-.35.47S291.69,101.1,291.91,100.89Z" transform="translate(-45.71 -35.21)"/><path class="cls-3" d="M300.31,93.06c.2-.18.36-.35.34-.38s-.2.08-.4.26-.36.35-.34.39S300.1,93.24,300.31,93.06Z" transform="translate(-45.71 -35.21)"/><path class="cls-3" d="M308.74,86.4a1.26,1.26,0,0,0,.35-.29s-.17.06-.37.2a1.2,1.2,0,0,0-.35.3S308.54,86.53,308.74,86.4Z" transform="translate(-45.71 -35.21)"/><path class="cls-3" d="M317.65,81.23A1.59,1.59,0,0,0,318,81a1,1,0,0,0-.36.13,1.47,1.47,0,0,0-.36.2A1.08,1.08,0,0,0,317.65,81.23Z" transform="translate(-45.71 -35.21)"/><path class="cls-3" d="M327.47,77.89a1.59,1.59,0,0,0,.33-.09,1,1,0,0,0-.31,0,1.48,1.48,0,0,0-.33.1A1,1,0,0,0,327.47,77.89Z" transform="translate(-45.71 -35.21)"/><path class="cls-3" d="M338.65,76.73l.32,0a1,1,0,0,0-.28,0,1.44,1.44,0,0,0-.31,0A1,1,0,0,0,338.65,76.73Z" transform="translate(-45.71 -35.21)"/><path class="cls-3" d="M355.08,78.36l.32,0-.31-.06-.32,0Z" transform="translate(-45.71 -35.21)"/><ellipse class="cls-3" cx="371.24" cy="81.99" rx="0.12" ry="0.01" transform="translate(-50.55 -8.96) rotate(-4.02)"/></g></g></g></svg>