<svg id="Layer_1" data-name="Layer 1" xmlns="http://www.w3.org/2000/svg" viewBox="0 0 811.23 403.59"><defs><style>.cls-1{fill:#7a6e66;}</style></defs><title>architecture-fig3-1</title><path class="cls-1" d="M3753.49,1401.12V997.53c-27.29,29-29,75.21-40.46,114.51-10.51,36.07-32.8,70.59-66.82,86.53-31.29,14.65-67.88,11.82-101.72,4.88s-67.3-17.73-101.85-18.08-71.8,12.13-90,41.48c-9.8,15.78-13.15,34.72-21.56,51.29-23.86,47.06-82.94,65-135.68,63.73s-104.54-16.9-157.29-16.13c-17.28.25-34.92,2.38-50.43,10-20.59,10.09-34.67,28.05-45.39,48.67v16.73Z" transform="translate(-2942.26 -997.53)"/></svg>