<svg id="Ready" xmlns="http://www.w3.org/2000/svg" viewBox="0 0 759.88 298.65"><defs><style>.cls-1{fill:none;stroke:#826d4c;stroke-linejoin:round;stroke-width:2.5px;}</style></defs><title>architecture-net3</title><path class="cls-1" d="M4860.62,2199.3l11.5,37.21" transform="translate(-4831.54 -2116.02)"/><path class="cls-1" d="M4872.12,2236.51l-25.59,20.84" transform="translate(-4831.54 -2116.02)"/><path class="cls-1" d="M5021.6,2341.93l-34.36,21.71-30.41,7.8-25.24-12.7L4907.23,2341l-22.77-22.82L4864,2290.28l-17.46-32.93-13.74-37.76,55.86-40.72,59.73-31,62.08-20.65,62.87-10,62.08.72,59.76,11.29,56,21.46,50.81,31,44.43,39.73,37,47.45,28.64,54,19.63,59.23-5.56,8.35-1.18,8,3.09,6.89,7.15,5.18,10.92,2.87,14.33,0,17.31-3.3,19.81-7,21.75-11.11,23.13-15.46c30.05-25.15,19.07-15.05,47.82-44.58l-38.26-46.4-43.43-37.4-47.26-28-49.66-18.35-50.61-8.74-45.72.56" transform="translate(-4831.54 -2116.02)"/><path class="cls-1" d="M4897.88,2215.54l-25.76,21,15.34,32.58" transform="translate(-4831.54 -2116.02)"/><path class="cls-1" d="M4887.46,2269.09,4864,2290.28" transform="translate(-4831.54 -2116.02)"/><path class="cls-1" d="M4911.09,2247.77l-23.63,21.32,18.5,27.74" transform="translate(-4831.54 -2116.02)"/><path class="cls-1" d="M4906,2296.83l-21.51,21.37" transform="translate(-4831.54 -2116.02)"/><path class="cls-1" d="M4927.62,2275.32,4906,2296.83l21,22.77" transform="translate(-4831.54 -2116.02)"/><path class="cls-1" d="M4926.93,2319.6l-19.7,21.42" transform="translate(-4831.54 -2116.02)"/><path class="cls-1" d="M4946.75,2298l-19.82,21.56,22.71,17.77" transform="translate(-4831.54 -2116.02)"/><path class="cls-1" d="M4949.64,2337.37l-18,21.37" transform="translate(-4831.54 -2116.02)"/><path class="cls-1" d="M4967.8,2315.86l-18.17,21.51,23.77,12.82" transform="translate(-4831.54 -2116.02)"/><path class="cls-1" d="M4973.4,2350.2l-16.57,21.25" transform="translate(-4831.54 -2116.02)"/><path class="cls-1" d="M4990.08,2328.81l-16.67,21.39,26.62.15" transform="translate(-4831.54 -2116.02)"/><path class="cls-1" d="M5000,2350.35l-12.78,13.3" transform="translate(-4831.54 -2116.02)"/><path class="cls-1" d="M5012.88,2337,5000,2350.35l30.6-13.23" transform="translate(-4831.54 -2116.02)"/><path class="cls-1" d="M5021.6,2341.93c42.06-22.49,33.57-21.28,61.6-36.28,27.29-14.62,1.93-3.51,100.48-58.09" transform="translate(-4831.54 -2116.02)"/><path class="cls-1" d="M5525.76,2352.54l22.66-19.63" transform="translate(-4831.54 -2116.02)"/><path class="cls-1" d="M5548.41,2332.91l-17.76-23.59" transform="translate(-4831.54 -2116.02)"/><path class="cls-1" d="M5530.65,2309.32l-21.45,19.28" transform="translate(-4831.54 -2116.02)"/><path class="cls-1" d="M5509.2,2328.6l16.56,23.93" transform="translate(-4831.54 -2116.02)"/><path class="cls-1" d="M5489.68,2308.81l20.41-18.78" transform="translate(-4831.54 -2116.02)"/><path class="cls-1" d="M5510.09,2290l-20.52-19.25" transform="translate(-4831.54 -2116.02)"/><path class="cls-1" d="M5489.57,2270.78l-19.37,18.28" transform="translate(-4831.54 -2116.02)"/><path class="cls-1" d="M5470.2,2289.06l19.48,19.75" transform="translate(-4831.54 -2116.02)"/><path class="cls-1" d="M5448.37,2273.74l18.52-17.66" transform="translate(-4831.54 -2116.02)"/><path class="cls-1" d="M5466.89,2256.08l-22.62-14.66" transform="translate(-4831.54 -2116.02)"/><path class="cls-1" d="M5444.27,2241.42l-17.67,17" transform="translate(-4831.54 -2116.02)"/><path class="cls-1" d="M5426.6,2258.46l21.76,15.28" transform="translate(-4831.54 -2116.02)"/><path class="cls-1" d="M5403.15,2247.8l17-16.33" transform="translate(-4831.54 -2116.02)"/><path class="cls-1" d="M5420.17,2231.46l-24-9.92" transform="translate(-4831.54 -2116.02)"/><path class="cls-1" d="M5396.15,2221.54l-16.37,15.63" transform="translate(-4831.54 -2116.02)"/><path class="cls-1" d="M5379.77,2237.17l23.38,10.63" transform="translate(-4831.54 -2116.02)"/><path class="cls-1" d="M5355.4,2231.25l15.94-14.89" transform="translate(-4831.54 -2116.02)"/><path class="cls-1" d="M5371.34,2216.35l-24.71-5.16" transform="translate(-4831.54 -2116.02)"/><path class="cls-1" d="M5346.63,2211.19l-5.82,5.31" transform="translate(-4831.54 -2116.02)"/><path class="cls-1" d="M5503.7,2367.68l22.05-15.14,16.59,24" transform="translate(-4831.54 -2116.02)"/><path class="cls-1" d="M5469.6,2323.17l20.08-14.36,19.52,19.79-21,14.83" transform="translate(-4831.54 -2116.02)"/><path class="cls-1" d="M5488.21,2343.43l15.49,24.25" transform="translate(-4831.54 -2116.02)"/><path class="cls-1" d="M5429.92,2287l18.44-13.3,21.83,15.32L5451,2303" transform="translate(-4831.54 -2116.02)"/><path class="cls-1" d="M5451,2303l18.57,20.21" transform="translate(-4831.54 -2116.02)"/><path class="cls-1" d="M5386,2259.85l17.2-12.05,23.45,10.66-17.72,12.72" transform="translate(-4831.54 -2116.02)"/><path class="cls-1" d="M5408.88,2271.18l21,15.86" transform="translate(-4831.54 -2116.02)"/><path class="cls-1" d="M5355.4,2231.25l24.37,5.92-13.81,9.44" transform="translate(-4831.54 -2116.02)"/><path class="cls-1" d="M5171.7,2251.24l38.29-11.77" transform="translate(-4831.54 -2116.02)"/><path class="cls-1" d="M5150.16,2262.49l17.18-5.88" transform="translate(-4831.54 -2116.02)"/><path class="cls-1" d="M5146.4,2268.21l-17.67,5.45" transform="translate(-4831.54 -2116.02)"/><path class="cls-1" d="M5128.73,2273.66l21.43-11.18" transform="translate(-4831.54 -2116.02)"/><path class="cls-1" d="M5110.52,2287.23l26-13.6" transform="translate(-4831.54 -2116.02)"/><path class="cls-1" d="M5070.21,2304.36l22.21-3.64,18.11-13.49" transform="translate(-4831.54 -2116.02)"/><path class="cls-1" d="M5482.88,2378.48l20.82-10.8,15.51,24.29" transform="translate(-4831.54 -2116.02)"/><path class="cls-1" d="M5450.49,2333.2l19.11-10,18.61,20.26-19.88,10.5" transform="translate(-4831.54 -2116.02)"/><path class="cls-1" d="M5468.33,2353.93l14.55,24.55" transform="translate(-4831.54 -2116.02)"/><path class="cls-1" d="M5412.21,2296l17.71-9L5451,2303l-18.32,9.57" transform="translate(-4831.54 -2116.02)"/><path class="cls-1" d="M5432.7,2312.52l17.79,20.68" transform="translate(-4831.54 -2116.02)"/><path class="cls-1" d="M5386,2259.85l22.93,11.32-17.12,8.42" transform="translate(-4831.54 -2116.02)"/><path class="cls-1" d="M5391.76,2279.6l20.45,16.44" transform="translate(-4831.54 -2116.02)"/><path class="cls-1" d="M5201.55,2240.19l38.79-3.34" transform="translate(-4831.54 -2116.02)"/><path class="cls-1" d="M5177.92,2246.8l16.86-2.66" transform="translate(-4831.54 -2116.02)"/><path class="cls-1" d="M5132.25,2264.22l17.9-1.73,21.54-11.24-17.29,2.13" transform="translate(-4831.54 -2116.02)"/><path class="cls-1" d="M5154.41,2253.37l23.51-6.57" transform="translate(-4831.54 -2116.02)"/><path class="cls-1" d="M5090.15,2289.72l20.37-2.49,18.21-13.57-18.52,1.34" transform="translate(-4831.54 -2116.02)"/><path class="cls-1" d="M5110.21,2275l22-10.79" transform="translate(-4831.54 -2116.02)"/><path class="cls-1" d="M5070.21,2304.36l19.94-14.64" transform="translate(-4831.54 -2116.02)"/><path class="cls-1" d="M5054.91,2318.35l28.3-12.7" transform="translate(-4831.54 -2116.02)"/><path class="cls-1" d="M5012.88,2337l26.81-4.71,15.21-13.92" transform="translate(-4831.54 -2116.02)"/><path class="cls-1" d="M5463.9,2385.19l19-6.71,14.58,24.6" transform="translate(-4831.54 -2116.02)"/><path class="cls-1" d="M5433,2339.1l17.51-5.89,17.84,20.73-18.17,6.37" transform="translate(-4831.54 -2116.02)"/><path class="cls-1" d="M5450.16,2360.3l13.74,24.89" transform="translate(-4831.54 -2116.02)"/><path class="cls-1" d="M5399.69,2299.72l12.52-3.69,20.49,16.48-16.84,5.41" transform="translate(-4831.54 -2116.02)"/><path class="cls-1" d="M5415.86,2317.93,5433,2339.1" transform="translate(-4831.54 -2116.02)"/><path class="cls-1" d="M5387.92,2277.55l3.84,2-2.42.64" transform="translate(-4831.54 -2116.02)"/><path class="cls-1" d="M5234.85,2236.13l39.19,5.18" transform="translate(-4831.54 -2116.02)"/><path class="cls-1" d="M5210.08,2237.59l15.77.51" transform="translate(-4831.54 -2116.02)"/><path class="cls-1" d="M5161.24,2245.13l16.68,1.66,23.63-6.61-16.12-1.13" transform="translate(-4831.54 -2116.02)"/><path class="cls-1" d="M5185.43,2239.06l24.65-1.47" transform="translate(-4831.54 -2116.02)"/><path class="cls-1" d="M5114.27,2261.61l18,2.6,22.16-10.84-17.24-2.2" transform="translate(-4831.54 -2116.02)"/><path class="cls-1" d="M5137.17,2251.17l24.07-6" transform="translate(-4831.54 -2116.02)"/><path class="cls-1" d="M5070.5,2286.48l19.65,3.24,20.06-14.71-18.73-3" transform="translate(-4831.54 -2116.02)"/><path class="cls-1" d="M5091.47,2272l22.79-10.38" transform="translate(-4831.54 -2116.02)"/><path class="cls-1" d="M5031.21,2319l23.7-.63,15.3-14-20.56-3.48" transform="translate(-4831.54 -2116.02)"/><path class="cls-1" d="M5049.64,2300.88l20.86-14.4" transform="translate(-4831.54 -2116.02)"/><path class="cls-1" d="M4990.08,2328.81l22.8,8.16,18.32-18" transform="translate(-4831.54 -2116.02)"/><path class="cls-1" d="M5447.3,2388.11l16.6-2.92,13.76,24.93" transform="translate(-4831.54 -2116.02)"/><path class="cls-1" d="M5418,2341.07l15-2,17.17,21.2-15.89,2.55" transform="translate(-4831.54 -2116.02)"/><path class="cls-1" d="M5434.27,2362.85l13,25.26" transform="translate(-4831.54 -2116.02)"/><path class="cls-1" d="M5404,2307.78l11.9,10.16-6.18.62" transform="translate(-4831.54 -2116.02)"/><path class="cls-1" d="M5270.31,2239.94l39.46,14.48" transform="translate(-4831.54 -2116.02)"/><path class="cls-1" d="M5245.42,2236l14,3.42" transform="translate(-4831.54 -2116.02)"/><path class="cls-1" d="M5195.4,2232.78l14.68,4.81,24.76-1.47-14.21-4.14" transform="translate(-4831.54 -2116.02)"/><path class="cls-1" d="M5220.64,2232l24.79,4" transform="translate(-4831.54 -2116.02)"/><path class="cls-1" d="M5145.4,2239.07l15.84,6.06,24.19-6.07-15.16-5.48" transform="translate(-4831.54 -2116.02)"/><path class="cls-1" d="M5170.27,2233.58l25.13-.8" transform="translate(-4831.54 -2116.02)"/><path class="cls-1" d="M5096.86,2254.54l17.41,7.07,22.9-10.44-16.52-6.63" transform="translate(-4831.54 -2116.02)"/><path class="cls-1" d="M5120.65,2244.55l24.75-5.47" transform="translate(-4831.54 -2116.02)"/><path class="cls-1" d="M5051.15,2278.71l19.34,7.77,21-14.48-18.28-7.5" transform="translate(-4831.54 -2116.02)"/><path class="cls-1" d="M5073.19,2264.49l23.66-10" transform="translate(-4831.54 -2116.02)"/><path class="cls-1" d="M5009.6,2310.88l21.6,8.1,18.44-18.1-20.39-8" transform="translate(-4831.54 -2116.02)"/><path class="cls-1" d="M5029.25,2292.84l21.91-14.13" transform="translate(-4831.54 -2116.02)"/><path class="cls-1" d="M4967.8,2315.86l22.27,12.94,19.53-17.93" transform="translate(-4831.54 -2116.02)"/><path class="cls-1" d="M5433.59,2387.64l13.71.47,13,25.3" transform="translate(-4831.54 -2116.02)"/><path class="cls-1" d="M5418.29,2341.94l16,20.91-9.27-.65" transform="translate(-4831.54 -2116.02)"/><path class="cls-1" d="M5306.47,2252.29l39.18,25.21" transform="translate(-4831.54 -2116.02)"/><path class="cls-1" d="M5282.53,2242.74l11.51,5.9" transform="translate(-4831.54 -2116.02)"/><path class="cls-1" d="M5233.42,2228.44l12,7.51,24.88,4-11.65-6.71" transform="translate(-4831.54 -2116.02)"/><path class="cls-1" d="M5258.66,2233.23l23.87,9.52" transform="translate(-4831.54 -2116.02)"/><path class="cls-1" d="M5182.46,2223.74l12.94,9,25.23-.8-12.36-8.31" transform="translate(-4831.54 -2116.02)"/><path class="cls-1" d="M5208.28,2223.68l25.14,4.76" transform="translate(-4831.54 -2116.02)"/><path class="cls-1" d="M5131.07,2228.65l14.33,10.43,24.87-5.49-13.53-9.79" transform="translate(-4831.54 -2116.02)"/><path class="cls-1" d="M5156.74,2223.79l25.71-.05" transform="translate(-4831.54 -2116.02)"/><path class="cls-1" d="M5080.71,2243l16.15,11.57,23.79-10-15.14-11.07" transform="translate(-4831.54 -2116.02)"/><path class="cls-1" d="M5105.52,2233.48l25.56-4.83" transform="translate(-4831.54 -2116.02)"/><path class="cls-1" d="M5032.8,2266.32l18.36,12.39,22-14.21L5056,2252.43" transform="translate(-4831.54 -2116.02)"/><path class="cls-1" d="M5056,2252.43l24.68-9.45" transform="translate(-4831.54 -2116.02)"/><path class="cls-1" d="M4988.68,2298.05l20.92,12.83,19.64-18-19.56-12.71" transform="translate(-4831.54 -2116.02)"/><path class="cls-1" d="M5009.69,2280.13l23.11-13.81" transform="translate(-4831.54 -2116.02)"/><path class="cls-1" d="M4946.75,2298l21.05,17.82,20.88-17.81" transform="translate(-4831.54 -2116.02)"/><path class="cls-1" d="M5341.76,2273.59l37.6,37.81" transform="translate(-4831.54 -2116.02)"/><path class="cls-1" d="M5319.81,2258.58l8.56,7.8" transform="translate(-4831.54 -2116.02)"/><path class="cls-1" d="M5273.77,2233.16l8.76,9.58,23.94,9.55-8.55-8.67" transform="translate(-4831.54 -2116.02)"/><path class="cls-1" d="M5297.92,2243.62l21.88,15" transform="translate(-4831.54 -2116.02)"/><path class="cls-1" d="M5224,2217.06l9.42,11.38,25.24,4.78-9-10.49" transform="translate(-4831.54 -2116.02)"/><path class="cls-1" d="M5249.69,2222.74l24.07,10.42" transform="translate(-4831.54 -2116.02)"/><path class="cls-1" d="M5171.9,2210.61l10.56,13.13,25.82-.06-9.87-12.28" transform="translate(-4831.54 -2116.02)"/><path class="cls-1" d="M5198.41,2211.4l25.59,5.66" transform="translate(-4831.54 -2116.02)"/><path class="cls-1" d="M5118.9,2214l12.17,14.7,25.67-4.86-11.24-14" transform="translate(-4831.54 -2116.02)"/><path class="cls-1" d="M5145.5,2209.83l26.4.78" transform="translate(-4831.54 -2116.02)"/><path class="cls-1" d="M5066.49,2227l14.22,16,24.8-9.5-13.08-15.43" transform="translate(-4831.54 -2116.02)"/><path class="cls-1" d="M5092.44,2218.05l26.47-4.1" transform="translate(-4831.54 -2116.02)"/><path class="cls-1" d="M5016.1,2249.29l16.7,17,23.24-13.89-15.36-16.61" transform="translate(-4831.54 -2116.02)"/><path class="cls-1" d="M5040.68,2235.81l25.81-8.86" transform="translate(-4831.54 -2116.02)"/><path class="cls-1" d="M4969.14,2280.42l19.54,17.63,21-17.92-18-17.43" transform="translate(-4831.54 -2116.02)"/><path class="cls-1" d="M4991.66,2262.7l24.44-13.4" transform="translate(-4831.54 -2116.02)"/><path class="cls-1" d="M4927.62,2275.32l19.14,22.72,22.38-17.62" transform="translate(-4831.54 -2116.02)"/><path class="cls-1" d="M5374.54,2303.94l30.72,47.58c13.6,32.27,9.19,21.69,19.61,46.93" transform="translate(-4831.54 -2116.02)"/><path class="cls-1" d="M5355.59,2283.8l5.25,9" transform="translate(-4831.54 -2116.02)"/><path class="cls-1" d="M5314.68,2247.7l5.12,10.89,21.95,15-5.08-9.89" transform="translate(-4831.54 -2116.02)"/><path class="cls-1" d="M5336.68,2263.7l18.91,20.1" transform="translate(-4831.54 -2116.02)"/><path class="cls-1" d="M5268.31,2220.25l5.46,12.91,24.16,10.46-5.17-11.89" transform="translate(-4831.54 -2116.02)"/><path class="cls-1" d="M5292.75,2231.73l21.93,16" transform="translate(-4831.54 -2116.02)"/><path class="cls-1" d="M5217.74,2202.09l6.26,15,25.69,5.68-5.74-13.94" transform="translate(-4831.54 -2116.02)"/><path class="cls-1" d="M5244,2208.79l24.36,11.45" transform="translate(-4831.54 -2116.02)"/><path class="cls-1" d="M5164.34,2193.67l7.56,16.94,26.51.78-6.79-16" transform="translate(-4831.54 -2116.02)"/><path class="cls-1" d="M5191.62,2195.42l26.12,6.68" transform="translate(-4831.54 -2116.02)"/><path class="cls-1" d="M5109.55,2195.18l9.36,18.77,26.6-4.12-8.34-17.91" transform="translate(-4831.54 -2116.02)"/><path class="cls-1" d="M5137.16,2191.93l27.17,1.74" transform="translate(-4831.54 -2116.02)"/><path class="cls-1" d="M5054.86,2206.61l11.63,20.34,25.95-8.9-10.38-19.63" transform="translate(-4831.54 -2116.02)"/><path class="cls-1" d="M5082.06,2198.42l27.49-3.24" transform="translate(-4831.54 -2116.02)"/><path class="cls-1" d="M5001.74,2227.71l14.36,21.58,24.58-13.48-12.89-21.06" transform="translate(-4831.54 -2116.02)"/><path class="cls-1" d="M5027.79,2214.76l27.06-8.15" transform="translate(-4831.54 -2116.02)"/><path class="cls-1" d="M4951.65,2258l17.49,22.42,22.52-17.73-15.82-22.11" transform="translate(-4831.54 -2116.02)"/><path class="cls-1" d="M4975.84,2240.58l25.9-12.87" transform="translate(-4831.54 -2116.02)"/><path class="cls-1" d="M4911.09,2247.77l16.52,27.55,24-17.32" transform="translate(-4831.54 -2116.02)"/><path class="cls-1" d="M5414,2370.75l2.59,7.66" transform="translate(-4831.54 -2116.02)"/><path class="cls-1" d="M5405.26,2351.52l-2.1-8.43" transform="translate(-4831.54 -2116.02)"/><path class="cls-1" d="M5403.16,2343.09l10.85,27.66" transform="translate(-4831.54 -2116.02)"/><path class="cls-1" d="M5388.11,2318.35l1.77,9.35" transform="translate(-4831.54 -2116.02)"/><path class="cls-1" d="M5354.29,2272.47l1.3,11.32,19,20.14-1.44-10.28" transform="translate(-4831.54 -2116.02)"/><path class="cls-1" d="M5373.1,2293.66l15,24.7" transform="translate(-4831.54 -2116.02)"/><path class="cls-1" d="M5313.44,2234.19l1.24,13.5,22,16-1.16-12.37" transform="translate(-4831.54 -2116.02)"/><path class="cls-1" d="M5335.52,2251.33l18.77,21.14" transform="translate(-4831.54 -2116.02)"/><path class="cls-1" d="M5266.66,2204.43l1.65,15.81,24.44,11.49-1.33-14.63" transform="translate(-4831.54 -2116.02)"/><path class="cls-1" d="M5291.42,2217.1l22,17.09" transform="translate(-4831.54 -2116.02)"/><path class="cls-1" d="M5215.18,2183.94l2.56,18.16,26.22,6.7-2-17" transform="translate(-4831.54 -2116.02)"/><path class="cls-1" d="M5242,2191.81l24.69,12.62" transform="translate(-4831.54 -2116.02)"/><path class="cls-1" d="M5160.35,2173.23l4,20.44,27.28,1.75-3.14-19.32" transform="translate(-4831.54 -2116.02)"/><path class="cls-1" d="M5188.48,2176.09l26.7,7.85" transform="translate(-4831.54 -2116.02)"/><path class="cls-1" d="M5103.61,2172.61l5.94,22.57,27.62-3.26-4.83-21.55" transform="translate(-4831.54 -2116.02)"/><path class="cls-1" d="M5132.33,2170.38l28,2.85" transform="translate(-4831.54 -2116.02)"/><path class="cls-1" d="M5046.46,2182.16l8.4,24.45,27.2-8.19-7-23.58" transform="translate(-4831.54 -2116.02)"/><path class="cls-1" d="M5075,2174.84l28.59-2.23" transform="translate(-4831.54 -2116.02)"/><path class="cls-1" d="M4990.4,2201.72l11.34,26,26-13-9.75-25.31" transform="translate(-4831.54 -2116.02)"/><path class="cls-1" d="M5018,2189.45l28.42-7.29" transform="translate(-4831.54 -2116.02)"/><path class="cls-1" d="M4936.93,2230.9l14.73,27.11,24.19-17.42-12.93-26.66" transform="translate(-4831.54 -2116.02)"/><path class="cls-1" d="M4962.91,2213.92l27.49-12.2" transform="translate(-4831.54 -2116.02)"/><path class="cls-1" d="M4897.88,2215.54l13.22,32.23,25.83-16.87" transform="translate(-4831.54 -2116.02)"/><path class="cls-1" d="M5415.68,2361.88l-1.68,8.87,10.86,27.7" transform="translate(-4831.54 -2116.02)"/><path class="cls-1" d="M5390.63,2307.53l-2.52,10.83,15,24.74,2.18-9.76" transform="translate(-4831.54 -2116.02)"/><path class="cls-1" d="M5405.34,2333.33l10.34,28.56" transform="translate(-4831.54 -2116.02)"/><path class="cls-1" d="M5357.28,2259.38l-3,13.09,18.81,21.18,2.85-11.89" transform="translate(-4831.54 -2116.02)"/><path class="cls-1" d="M5376,2281.77l14.68,25.75" transform="translate(-4831.54 -2116.02)"/><path class="cls-1" d="M5316.48,2218.61l-3,15.58,22.08,17.14,3.13-14.29" transform="translate(-4831.54 -2116.02)"/><path class="cls-1" d="M5338.65,2237l18.63,22.34" transform="translate(-4831.54 -2116.02)"/><path class="cls-1" d="M5269.26,2186.23l-2.6,18.21,24.76,12.67,2.94-16.86" transform="translate(-4831.54 -2116.02)"/><path class="cls-1" d="M5294.37,2200.24l22.11,18.38" transform="translate(-4831.54 -2116.02)"/><path class="cls-1" d="M5216.82,2163.05l-1.64,20.89,26.79,7.87,2.26-19.55" transform="translate(-4831.54 -2116.02)"/><path class="cls-1" d="M5244.23,2172.26l25,14" transform="translate(-4831.54 -2116.02)"/><path class="cls-1" d="M5160.48,2149.71l-.13,23.52,28.13,2.87,1-22.22" transform="translate(-4831.54 -2116.02)"/><path class="cls-1" d="M5189.5,2153.87l27.32,9.18" transform="translate(-4831.54 -2116.02)"/><path class="cls-1" d="M5101.68,2146.61l1.93,26,28.72-2.23-.76-24.81" transform="translate(-4831.54 -2116.02)"/><path class="cls-1" d="M5131.57,2145.57l28.91,4.14" transform="translate(-4831.54 -2116.02)"/><path class="cls-1" d="M5041.91,2153.92l4.55,28.24,28.56-7.32-3.1-27.19" transform="translate(-4831.54 -2116.02)"/><path class="cls-1" d="M5071.92,2147.65l29.76-1" transform="translate(-4831.54 -2116.02)"/><path class="cls-1" d="M4982.72,2171.58l7.68,30.14,27.64-12.27-6-29.28" transform="translate(-4831.54 -2116.02)"/><path class="cls-1" d="M5012.06,2160.16l29.85-6.24" transform="translate(-4831.54 -2116.02)"/><path class="cls-1" d="M4925.63,2199.28l11.3,31.61,26-17-9.37-31" transform="translate(-4831.54 -2116.02)"/><path class="cls-1" d="M4953.54,2182.93l29.18-11.35" transform="translate(-4831.54 -2116.02)"/><path class="cls-1" d="M4888.64,2178.88l9.23,36.66,27.75-16.25" transform="translate(-4831.54 -2116.02)"/><path class="cls-1" d="M5421.79,2352.49l-6.1,9.39,10.36,28.59" transform="translate(-4831.54 -2116.02)"/><path class="cls-1" d="M5397.65,2295.88l-7,11.65,14.71,25.8,6.64-10.43" transform="translate(-4831.54 -2116.02)"/><path class="cls-1" d="M5364.83,2245.16l-7.55,14.22,18.67,22.39,7.38-12.86" transform="translate(-4831.54 -2116.02)"/><path class="cls-1" d="M5324.12,2201.58l-7.65,17,22.17,18.43,7.71-15.58" transform="translate(-4831.54 -2116.02)"/><path class="cls-1" d="M5276.49,2166.21l-7.23,20,25.11,14,7.57-18.5" transform="translate(-4831.54 -2116.02)"/><path class="cls-1" d="M5223.09,2140l-6.27,23.07,27.41,9.21,6.89-21.54" transform="translate(-4831.54 -2116.02)"/><path class="cls-1" d="M5165.22,2123.61l-4.74,26.1,29,4.16,5.65-24.6" transform="translate(-4831.54 -2116.02)"/><path class="cls-1" d="M5104.29,2117.62l-2.61,29,29.9-1,3.82-27.59" transform="translate(-4831.54 -2116.02)"/><path class="cls-1" d="M5041.81,2122.28l.11,31.64,30-6.27,1.4-30.38" transform="translate(-4831.54 -2116.02)"/><path class="cls-1" d="M4979.33,2137.62l3.39,34,29.34-11.42-1.61-32.89" transform="translate(-4831.54 -2116.02)"/><path class="cls-1" d="M4918.42,2163.44l7.2,35.84,27.92-16.35-5.17-35" transform="translate(-4831.54 -2116.02)"/><path class="cls-1" d="M5566.21,2356.54l-17.79-23.63,22.6-24.19" transform="translate(-4831.54 -2116.02)"/><path class="cls-1" d="M5551.9,2285.53l-21.25,23.79L5510.09,2290l20.07-23.22" transform="translate(-4831.54 -2116.02)"/><path class="cls-1" d="M5508.47,2248.13l-18.9,22.65-22.68-14.7,17.92-22" transform="translate(-4831.54 -2116.02)"/><path class="cls-1" d="M5461.21,2220.15l-16.94,21.27-24.1-10,16.18-20.51" transform="translate(-4831.54 -2116.02)"/><path class="cls-1" d="M5411.56,2201.8l-15.41,19.74-24.81-5.19,14.86-18.94" transform="translate(-4831.54 -2116.02)"/><path class="cls-1" d="M5360.94,2193.06l-14.31,18.13-12-.24" transform="translate(-4831.54 -2116.02)"/><path class="cls-1" d="M5428,2405.34l-3-7.21" transform="translate(-4831.54 -2116.02)"/><path class="cls-1" d="M5435.1,2410.52l-9.06-20.05" transform="translate(-4831.54 -2116.02)"/><path class="cls-1" d="M5446,2413.4l-12.43-25.75" transform="translate(-4831.54 -2116.02)"/><path class="cls-1" d="M5428.95,2386.11l4.64,1.53-2.37-4.93" transform="translate(-4831.54 -2116.02)"/><path class="cls-1" d="M5353.66,2230.83l1.75.42-.94.62" transform="translate(-4831.54 -2116.02)"/><path class="cls-1" d="M5327.07,2204.22l8.76-10.85" transform="translate(-4831.54 -2116.02)"/><path class="cls-1" d="M5370.22,2252.08l15.73,7.77-7.1,3.31" transform="translate(-4831.54 -2116.02)"/></svg>