<svg id="Ready" xmlns="http://www.w3.org/2000/svg" viewBox="0 0 640.68 429.87"><defs><style>.cls-1{fill:none;stroke:#826d4c;stroke-linejoin:round;stroke-width:2.5px;}</style></defs><title>architecture-net</title><path class="cls-1" d="M3560.66,1431.06l26.27,19.61" transform="translate(-3285.66 -1383.68)"/><path class="cls-1" d="M3541.21,1457.81l19.45-26.75" transform="translate(-3285.66 -1383.68)"/><path class="cls-1" d="M3586.93,1450.67c-11.68,16-7.24,9.88-19.35,26.71" transform="translate(-3285.66 -1383.68)"/><path class="cls-1" d="M3567.57,1477.38l-26.36-19.57" transform="translate(-3285.66 -1383.68)"/><path class="cls-1" d="M3606.6,1424l-19.67,26.62,26.13,19.64" transform="translate(-3285.66 -1383.68)"/><path class="cls-1" d="M3613.06,1470.31c-11.48,16-7.13,9.85-19,26.6" transform="translate(-3285.66 -1383.68)"/><path class="cls-1" d="M3594.09,1496.91l-26.52-19.53c-11.37,16.07-7.05,9.92-18.83,26.78" transform="translate(-3285.66 -1383.68)"/><path class="cls-1" d="M3632.59,1443.77l-19.53,26.54c16.28,12.25,15.49,11.67,26.25,19.64" transform="translate(-3285.66 -1383.68)"/><path class="cls-1" d="M3639.31,1489.95c-11.07,15.73-6.86,9.71-18.3,26.18" transform="translate(-3285.66 -1383.68)"/><path class="cls-1" d="M3621,1516.13c-11.74-8.2-10.34-7.22-26.92-19.22l-18.38,26.53" transform="translate(-3285.66 -1383.68)"/><path class="cls-1" d="M3658.2,1463.72c-11.4,15.74-7.06,9.72-18.89,26.23L3666,1509.4" transform="translate(-3285.66 -1383.68)"/><path class="cls-1" d="M3666,1509.4l-17.51,25.28" transform="translate(-3285.66 -1383.68)"/><path class="cls-1" d="M3648.48,1534.67c-20.12-13.5-17.74-11.89-27.46-18.54l-17.93,26.08" transform="translate(-3285.66 -1383.68)"/><path class="cls-1" d="M3683.5,1484.25,3666,1509.4c11.27,8.37,14.43,10.76,26.32,20" transform="translate(-3285.66 -1383.68)"/><path class="cls-1" d="M3692.31,1529.37l-16.51,24.11" transform="translate(-3285.66 -1383.68)"/><path class="cls-1" d="M3675.79,1553.49c-10.43-7.32-13.43-9.42-27.32-18.81l-17.62,25.53" transform="translate(-3285.66 -1383.68)"/><path class="cls-1" d="M3708.29,1505.65l-16,23.73c11,8.64,9.86,7.76,25.83,20.56" transform="translate(-3285.66 -1383.68)"/><path class="cls-1" d="M3718.14,1549.93c-9.68,14.46-6.11,9.15-15.56,23.1" transform="translate(-3285.66 -1383.68)"/><path class="cls-1" d="M3702.58,1573c-11.31-8.45-14.58-10.85-26.79-19.54l-17.16,24.77" transform="translate(-3285.66 -1383.68)"/><path class="cls-1" d="M3733.22,1527.14l-15.08,22.79,25.81,20.64" transform="translate(-3285.66 -1383.68)"/><path class="cls-1" d="M3743.95,1570.57l-15.25,22.77" transform="translate(-3285.66 -1383.68)"/><path class="cls-1" d="M3728.69,1593.34c-13.32-10.59-16.13-12.73-26.11-20.32l-16.51,23.91" transform="translate(-3285.66 -1383.68)"/><path class="cls-1" d="M3759.09,1547.86l-15.14,22.71c15.49,12.18,17.68,13.71,26.38,20" transform="translate(-3285.66 -1383.68)"/><path class="cls-1" d="M3770.33,1590.57l-15.52,22.82" transform="translate(-3285.66 -1383.68)"/><path class="cls-1" d="M3754.81,1613.39c-10.44-7.46-11.82-8.57-26.11-20-9.9,14.55-6.24,9.19-16,23.35" transform="translate(-3285.66 -1383.68)"/><path class="cls-1" d="M3785.9,1567.6l-15.58,23c14.7,10.1,18,11.85,27.92,17.12" transform="translate(-3285.66 -1383.68)"/><path class="cls-1" d="M3798.25,1607.69c-9.11,13-5.62,8.07-15.17,21.56" transform="translate(-3285.66 -1383.68)"/><path class="cls-1" d="M3783.08,1629.25c-12.4-5.87-15.85-7.75-28.27-15.86l-15.6,22.66" transform="translate(-3285.66 -1383.68)"/><path class="cls-1" d="M3813.45,1585.71l-15.2,22c15.1,7,18.42,7.77,28.86,10.15" transform="translate(-3285.66 -1383.68)"/><path class="cls-1" d="M3827.11,1617.84c-6.23,8.93-8,11.4-14.86,20.86" transform="translate(-3285.66 -1383.68)"/><path class="cls-1" d="M3812.25,1638.7c-12.45-2.89-16-4-29.18-9.45-8.63,12-8,11.16-15.22,20.94" transform="translate(-3285.66 -1383.68)"/><path class="cls-1" d="M3841.83,1596.23c-8.82,13-5.44,8.08-14.72,21.61,11.17,1.47,14.52,1.59,26.47.07" transform="translate(-3285.66 -1383.68)"/><path class="cls-1" d="M3853.58,1617.91c-5.95,10.7-7.58,13.46-13.47,23" transform="translate(-3285.66 -1383.68)"/><path class="cls-1" d="M3840.11,1640.89c-12.31.14-15.71-.15-27.85-2.19-6.81,9.22-8.6,11.59-15.09,20" transform="translate(-3285.66 -1383.68)"/><path class="cls-1" d="M3866.18,1593.65c-7.65,15-7.19,14.17-12.6,24.26,9.37-1.89,12.06-2.59,22.12-6.63" transform="translate(-3285.66 -1383.68)"/><path class="cls-1" d="M3875.7,1611.28c-4.48,12.13-5.81,15.28-10.63,26" transform="translate(-3285.66 -1383.68)"/><path class="cls-1" d="M3865.07,1637.26a123.74,123.74,0,0,1-25,3.62c-6,9.35-7.74,12-14.37,21.39" transform="translate(-3285.66 -1383.68)"/><path class="cls-1" d="M3884.52,1583.92c-5.49,17.92-6,19.15-8.81,27.37a128.16,128.16,0,0,0,18.21-9.72" transform="translate(-3285.66 -1383.68)"/><path class="cls-1" d="M3893.91,1601.56c-2.94,13-3.83,16.35-7.37,28.25" transform="translate(-3285.66 -1383.68)"/><path class="cls-1" d="M3886.54,1629.81a131.6,131.6,0,0,1-21.47,7.45c-5,10.51-6.53,13.44-12.49,24.08" transform="translate(-3285.66 -1383.68)"/><path class="cls-1" d="M3899.37,1572.38c-3.28,18.87-3.66,20.44-5.46,29.18,6.05-4,7.75-5.11,15.44-11" transform="translate(-3285.66 -1383.68)"/><path class="cls-1" d="M3909.36,1590.56c-1.81,13.36-2.35,16.81-4.69,29.54" transform="translate(-3285.66 -1383.68)"/><path class="cls-1" d="M3904.67,1620.1a152.29,152.29,0,0,1-18.12,9.71c-4,12.46-5.24,15.72-9.68,26.74" transform="translate(-3285.66 -1383.68)"/><path class="cls-1" d="M3522.11,1484.68c11.41-16.14,7-10,19.1-26.87l-26.31-19.59" transform="translate(-3285.66 -1383.68)"/><path class="cls-1" d="M3548.75,1504.16l-26.64-19.48" transform="translate(-3285.66 -1383.68)"/><path class="cls-1" d="M3575.71,1523.44c-16.24-11.52-10-7.09-27-19.28l-18.43,26.75" transform="translate(-3285.66 -1383.68)"/><path class="cls-1" d="M3603.08,1542.21c-10.42-7-13.17-8.84-27.37-18.78l-18.11,26.44" transform="translate(-3285.66 -1383.68)"/><path class="cls-1" d="M3630.86,1560.21c-17.35-11.15-16.59-10.63-27.78-18l-17.89,26.13" transform="translate(-3285.66 -1383.68)"/><path class="cls-1" d="M3658.64,1578.26c-16.65-10.89-10.27-6.75-27.78-18l-17.8,25.94" transform="translate(-3285.66 -1383.68)"/><path class="cls-1" d="M3686.07,1596.94c-10.19-7.14-12.92-9-27.44-18.68L3641,1603.77" transform="translate(-3285.66 -1383.68)"/><path class="cls-1" d="M3712.71,1616.7c-11.63-8.89-14.75-11.22-26.63-19.76l-17.35,24.92" transform="translate(-3285.66 -1383.68)"/><path class="cls-1" d="M3739.21,1636c-10.53-7-12-8.12-26.51-19.35L3695.8,1641" transform="translate(-3285.66 -1383.68)"/><path class="cls-1" d="M3767.86,1650.19c-13.18-5.36-16.64-7.05-28.65-14.14-9.7,13.9-8.94,12.85-15.75,22.26" transform="translate(-3285.66 -1383.68)"/><path class="cls-1" d="M3797.17,1658.68a190.62,190.62,0,0,1-29.3-8.49c-8.16,10.92-9.83,13-15.33,19.95" transform="translate(-3285.66 -1383.68)"/><path class="cls-1" d="M3825.73,1662.27a186.23,186.23,0,0,1-28.57-3.59c-6.9,8.78-8.66,11-15.31,19" transform="translate(-3285.66 -1383.68)"/><path class="cls-1" d="M3852.59,1661.34a169.38,169.38,0,0,1-26.85.93c-6.26,8.67-8,11-15,19.91" transform="translate(-3285.66 -1383.68)"/><path class="cls-1" d="M3876.87,1656.55a156.15,156.15,0,0,1-24.28,4.79c-5.68,9.7-7.35,12.39-13.81,22.15" transform="translate(-3285.66 -1383.68)"/><path class="cls-1" d="M3920.63,1609.43c-10.06,7-11,7.49-16,10.67-2.66,13.14-3.46,16.55-6.68,28.69" transform="translate(-3285.66 -1383.68)"/><path class="cls-1" d="M3898,1648.79a153.08,153.08,0,0,1-21.13,7.76c-5,11.66-6.45,14.63-11.7,24.88" transform="translate(-3285.66 -1383.68)"/><path class="cls-1" d="M3503.36,1511.61l18.75-26.93-26.46-19.53" transform="translate(-3285.66 -1383.68)"/><path class="cls-1" d="M3530.31,1530.9c-16.22-11.55-10-7.11-27-19.3" transform="translate(-3285.66 -1383.68)"/><path class="cls-1" d="M3557.6,1549.88c-16.42-11.32-10.16-7-27.29-19l-18.22,26.67" transform="translate(-3285.66 -1383.68)"/><path class="cls-1" d="M3585.19,1568.34c-12.17-8-15.55-10.27-27.59-18.46l-18,26.36" transform="translate(-3285.66 -1383.68)"/><path class="cls-1" d="M3613.05,1586.15c-17.36-11-16.06-10.16-27.86-17.81l-17.88,26.13" transform="translate(-3285.66 -1383.68)"/><path class="cls-1" d="M3641,1603.77l-27.94-17.62-17.86,26.1" transform="translate(-3285.66 -1383.68)"/><path class="cls-1" d="M3668.73,1621.86c-8.3-5.6-10.12-6.89-27.73-18.09l-17.81,25.92" transform="translate(-3285.66 -1383.68)"/><path class="cls-1" d="M3695.8,1641c-24.25-17.21-18.32-13-27.08-19.12l-17.55,25.22" transform="translate(-3285.66 -1383.68)"/><path class="cls-1" d="M3723.46,1658.31c-9.3-5.15-11.73-6.37-27.66-17.34-10.36,14.71-9.67,13.78-16.79,23.51" transform="translate(-3285.66 -1383.68)"/><path class="cls-1" d="M3752.53,1670.14c-13.2-4.43-16.55-5.72-29.07-11.82-8.19,11-9.93,13.17-15.78,20.33" transform="translate(-3285.66 -1383.68)"/><path class="cls-1" d="M3781.85,1677.67a288.19,288.19,0,0,1-29.32-7.53c-6.54,8-8.38,10.14-15.54,18.15" transform="translate(-3285.66 -1383.68)"/><path class="cls-1" d="M3810.78,1682.18c-12.37-1.46-15.76-2-28.92-4.51-6.67,7.86-8.52,10-15.52,17.76" transform="translate(-3285.66 -1383.68)"/><path class="cls-1" d="M3838.78,1683.49a241.5,241.5,0,0,1-28-1.31c-6.54,8.2-8.33,10.36-15.31,18.6" transform="translate(-3285.66 -1383.68)"/><path class="cls-1" d="M3865.17,1681.43a202,202,0,0,1-26.39,2.06c-6.1,8.88-7.85,11.32-14.67,20.32" transform="translate(-3285.66 -1383.68)"/><path class="cls-1" d="M3916.54,1639.36c-11.66,6.26-12.73,6.69-18.54,9.43-3.64,12.67-4.74,16-8.85,27.39" transform="translate(-3285.66 -1383.68)"/><path class="cls-1" d="M3889.14,1676.18a176.82,176.82,0,0,1-24,5.25c-5.82,10.75-7.43,13.45-13.31,22.73" transform="translate(-3285.66 -1383.68)"/><path class="cls-1" d="M3484.85,1538.54l18.51-26.93-26.74-19.41" transform="translate(-3285.66 -1383.68)"/><path class="cls-1" d="M3512.09,1557.57c-16.39-11.38-10.13-7-27.24-19" transform="translate(-3285.66 -1383.68)"/><path class="cls-1" d="M3539.6,1576.24c-16.54-11.14-10.23-6.85-27.51-18.66L3494,1584.06" transform="translate(-3285.66 -1383.68)"/><path class="cls-1" d="M3567.32,1594.47c-16.66-10.87-10.29-6.68-27.71-18.24l-17.85,26.06" transform="translate(-3285.66 -1383.68)"/><path class="cls-1" d="M3595.2,1612.25c-16.75-10.61-10.35-6.52-27.88-17.78l-17.72,25.67" transform="translate(-3285.66 -1383.68)"/><path class="cls-1" d="M3623.19,1629.69l-28-17.44c-10.78,15.64-10,14.48-17.62,25.37" transform="translate(-3285.66 -1383.68)"/><path class="cls-1" d="M3651.17,1647.07c-11.41-7.2-10.26-6.46-28-17.38-11.12,16-10.17,14.72-17.51,25" transform="translate(-3285.66 -1383.68)"/><path class="cls-1" d="M3679,1664.48c-11.09-6.63-9.23-5.51-27.84-17.41-10.75,15.28-12.08,17-17.18,23.81" transform="translate(-3285.66 -1383.68)"/><path class="cls-1" d="M3707.68,1678.65a228.17,228.17,0,0,1-28.67-14.16c-7,9.26-8.92,11.8-16.31,20.72" transform="translate(-3285.66 -1383.68)"/><path class="cls-1" d="M3737,1688.29c-15.54-4.42-18.42-5.49-29.31-9.64-5.81,6.84-7.5,8.81-15.76,17.65" transform="translate(-3285.66 -1383.68)"/><path class="cls-1" d="M3766.34,1695.43c-13.18-2.91-16.58-3.74-29.34-7.14-5.14,5.6-6.65,7.28-15.67,16.58" transform="translate(-3285.66 -1383.68)"/><path class="cls-1" d="M3795.47,1700.78c-12.95-2-16.3-2.69-29.13-5.35-6.82,7.47-8.68,9.45-15.63,16.79" transform="translate(-3285.66 -1383.68)"/><path class="cls-1" d="M3824.11,1703.81c-12.16-.88-15.56-1.23-28.64-3-6.69,7.75-8.48,9.77-15.51,17.59" transform="translate(-3285.66 -1383.68)"/><path class="cls-1" d="M3851.86,1704.16c-11.71.3-15,.28-27.75-.35-6.45,8.26-8.18,10.39-15.2,18.73" transform="translate(-3285.66 -1383.68)"/><path class="cls-1" d="M3910.68,1668.67c-13.63,5.11-14.75,5.38-21.54,7.51a251.06,251.06,0,0,1-11,25.46" transform="translate(-3285.66 -1383.68)"/><path class="cls-1" d="M3878.11,1701.64a229.87,229.87,0,0,1-26.25,2.52c-6.05,9.05-7.79,11.47-14.56,20.25" transform="translate(-3285.66 -1383.68)"/><path class="cls-1" d="M3466.53,1565.41l18.32-26.88-27-19.22" transform="translate(-3285.66 -1383.68)"/><path class="cls-1" d="M3494,1584.06c-16.54-11.14-10.22-6.85-27.51-18.65" transform="translate(-3285.66 -1383.68)"/><path class="cls-1" d="M3521.75,1602.29c-16.65-10.87-10.29-6.69-27.71-18.23l-17.8,26" transform="translate(-3285.66 -1383.68)"/><path class="cls-1" d="M3549.6,1620.14c-16.73-10.65-10.34-6.55-27.85-17.85-10.59,15.31-6.56,9.53-17.57,25.23" transform="translate(-3285.66 -1383.68)"/><path class="cls-1" d="M3577.57,1637.62c-16.8-10.43-10.38-6.41-28-17.48-9.86,14-9.31,13.28-17.34,24.39" transform="translate(-3285.66 -1383.68)"/><path class="cls-1" d="M3605.68,1654.65c-16.89-10.14-10.43-6.23-28.11-17-7.81,10.94-9.87,13.75-17.08,23.37" transform="translate(-3285.66 -1383.68)"/><path class="cls-1" d="M3634,1670.89c-9.38-5.2-12.15-6.69-28.31-16.23-7.19,9.79-9.22,12.47-16.75,22" transform="translate(-3285.66 -1383.68)"/><path class="cls-1" d="M3662.7,1685.2c-10.88-5-13.87-6.36-28.71-14.32-7,9-8.89,11.36-16.32,20" transform="translate(-3285.66 -1383.68)"/><path class="cls-1" d="M3691.92,1696.3c-13.22-4.48-16.68-5.78-29.22-11.1-5.41,6.28-7.08,8.25-15.88,17.59" transform="translate(-3285.66 -1383.68)"/><path class="cls-1" d="M3721.33,1704.87c-16.83-4.55-19.64-5.48-29.4-8.57-5.34,5.6-6.85,7.19-15.72,16.1" transform="translate(-3285.66 -1383.68)"/><path class="cls-1" d="M3750.7,1712.22c-12.5-3-16.06-3.86-29.38-7.35-9.42,9.58-5.81,5.94-15.7,15.87" transform="translate(-3285.66 -1383.68)"/><path class="cls-1" d="M3780,1718.37c-11-2.08-14-2.65-29.26-6.15-9.4,9.81-5.8,6.08-15.67,16.24" transform="translate(-3285.66 -1383.68)"/><path class="cls-1" d="M3808.91,1722.53c-12.33-1.42-15.82-1.91-28.95-4.16-9.35,10.25-5.77,6.36-15.6,16.92" transform="translate(-3285.66 -1383.68)"/><path class="cls-1" d="M3837.3,1724.41c-11.9-.43-15.36-.63-28.39-1.87-5,5.87-6.49,7.58-15.47,17.62" transform="translate(-3285.66 -1383.68)"/><path class="cls-1" d="M3902.59,1696.74c-15.54,3.45-16.9,3.61-24.48,4.9a208.63,208.63,0,0,1-13.25,22.45" transform="translate(-3285.66 -1383.68)"/><path class="cls-1" d="M3864.86,1724.09c-11.5.46-14.81.53-27.56.31-6.28,7.81-5.72,7.09-15.25,18.29" transform="translate(-3285.66 -1383.68)"/><path class="cls-1" d="M3448.46,1592l18.07-26.64-27.34-18.92" transform="translate(-3285.66 -1383.68)"/><path class="cls-1" d="M3476.24,1610c-16.69-10.72-10.31-6.59-27.78-18" transform="translate(-3285.66 -1383.68)"/><path class="cls-1" d="M3504.18,1627.53c-16.79-10.41-10.37-6.39-27.94-17.48-10.67,15.34-9.85,14.21-17.47,24.86" transform="translate(-3285.66 -1383.68)"/><path class="cls-1" d="M3532.25,1644.53c-16.87-10.13-10.42-6.22-28.08-17-9,12.66-10.88,15.21-17.21,23.75" transform="translate(-3285.66 -1383.68)"/><path class="cls-1" d="M3560.49,1661c-12.79-7.33-11.34-6.5-28.23-16.46-8.87,12.11-10.64,14.38-16.94,22.53" transform="translate(-3285.66 -1383.68)"/><path class="cls-1" d="M3588.93,1676.65c-12.19-6.52-15.63-8.42-28.44-15.66-8.68,11.37-10.51,13.6-16.63,21.09" transform="translate(-3285.66 -1383.68)"/><path class="cls-1" d="M3617.67,1690.91c-11.16-5.21-14.1-6.61-28.74-14.26-7.47,9.22-9.39,11.49-16.28,19.33" transform="translate(-3285.66 -1383.68)"/><path class="cls-1" d="M3646.82,1702.8c-13.3-5-16.74-6.39-29.15-11.89-6.83,7.75-8.81,9.91-15.94,17.38" transform="translate(-3285.66 -1383.68)"/><path class="cls-1" d="M3676.2,1712.4c-15.39-4.69-18.38-5.73-29.38-9.61-6.72,7-8.62,8.92-15.76,16" transform="translate(-3285.66 -1383.68)"/><path class="cls-1" d="M3705.63,1720.74c-16.34-4.47-19.34-5.37-29.43-8.33-8.84,8.78-8.43,8.4-15.71,15.47" transform="translate(-3285.66 -1383.68)"/><path class="cls-1" d="M3735,1728.45c-17.64-4.54-10.89-2.77-29.4-7.72-9.65,9.6-8.9,8.88-15.69,15.51" transform="translate(-3285.66 -1383.68)"/><path class="cls-1" d="M3764.36,1735.29c-9.5-2-12.32-2.6-29.33-6.84-8.71,8.83-8.5,8.66-15.68,15.71" transform="translate(-3285.66 -1383.68)"/><path class="cls-1" d="M3793.44,1740.16c-12.45-1.7-15.89-2.27-29.08-4.86-8.88,9.4-10.5,11-15.64,16.19" transform="translate(-3285.66 -1383.68)"/><path class="cls-1" d="M3822,1742.7c-14.92-1-17.79-1.3-28.61-2.54-8.62,9.54-8.43,9.37-15.53,17" transform="translate(-3285.66 -1383.68)"/><path class="cls-1" d="M3891.52,1722.12c-16.14,1.35-15.34,1.32-26.66,2-4.31,6.18-5,7.28-14.6,19.87" transform="translate(-3285.66 -1383.68)"/><path class="cls-1" d="M3850.26,1744c-16.23-.58-18.92-.75-28.22-1.26l-15.3,17.94" transform="translate(-3285.66 -1383.68)"/><path class="cls-1" d="M3430.72,1618c11.11-16.14,7-10.2,17.74-25.91l-27.65-18.4" transform="translate(-3285.66 -1383.68)"/><path class="cls-1" d="M3458.77,1634.91c-16.85-10.08-10.42-6.19-28-16.95" transform="translate(-3285.66 -1383.68)"/><path class="cls-1" d="M3487,1651.27c-16.94-9.73-10.47-6-28.19-16.36-9.5,13.08-11.37,15.43-17.09,22.73" transform="translate(-3285.66 -1383.68)"/><path class="cls-1" d="M3515.31,1667.06c-12.83-7-11.4-6.24-28.35-15.79-8.83,11.68-10.63,13.87-16.83,21.4" transform="translate(-3285.66 -1383.68)"/><path class="cls-1" d="M3543.86,1682.08c-12.36-6.33-15.8-8.14-28.55-15-3.92,4.95-8.65,10.93-13.26,16.21" transform="translate(-3285.66 -1383.68)"/><path class="cls-1" d="M3572.65,1696c-12.5-5.79-15.89-7.43-28.79-13.9-4.92,5.86-3.29,3.95-7.24,8.5" transform="translate(-3285.66 -1383.68)"/><path class="cls-1" d="M3601.73,1708.29c-12.43-4.95-15.87-6.39-29.08-12.31l-4.14,4.58" transform="translate(-3285.66 -1383.68)"/><path class="cls-1" d="M3631.06,1718.76c-15.15-5.08-18.24-6.25-29.32-10.47l-3.66,3.73" transform="translate(-3285.66 -1383.68)"/><path class="cls-1" d="M3660.49,1727.88c-15.36-4.57-18.22-5.49-29.43-9.11-4.61,4.46-3.59,3.48-5,4.85" transform="translate(-3285.66 -1383.68)"/><path class="cls-1" d="M3689.93,1736.25c-16.58-4.64-15.77-4.38-29.44-8.37-4.71,4.51-3.17,3.05-6.83,6.47" transform="translate(-3285.66 -1383.68)"/><path class="cls-1" d="M3719.35,1744.16c-17.65-4.69-10.89-2.87-29.42-7.92-4.71,4.53-2.92,2.84-7.79,7.41" transform="translate(-3285.66 -1383.68)"/><path class="cls-1" d="M3748.73,1751.49c-9.75-2.29-12.12-2.83-29.37-7.32-4.7,4.53-2.94,2.86-7.68,7.29" transform="translate(-3285.66 -1383.68)"/><path class="cls-1" d="M3777.91,1757.17c-11-1.82-14-2.31-29.19-5.68-4.7,4.62-3.13,3.11-6.94,6.72" transform="translate(-3285.66 -1383.68)"/><path class="cls-1" d="M3806.74,1760.64c-18.25-1.89-20-2.21-28.83-3.47-2.72,2.89-5.61,6-9.39,9.71" transform="translate(-3285.66 -1383.68)"/><path class="cls-1" d="M3878.29,1744.78l-28-.82-14.82,19.49" transform="translate(-3285.66 -1383.68)"/><path class="cls-1" d="M3835.44,1763.45l-28.7-2.82c-7.84,9.22-9.07,10.65-15.28,17.34" transform="translate(-3285.66 -1383.68)"/><path class="cls-1" d="M3413.37,1642.1c5.7-7.65,7.34-9.8,17.35-24.13l-27.94-17.45" transform="translate(-3285.66 -1383.68)"/><path class="cls-1" d="M3441.68,1657.64c-17-9.25-10.5-5.68-28.31-15.55" transform="translate(-3285.66 -1383.68)"/><path class="cls-1" d="M3470.13,1672.67c-17.11-8.94-10.56-5.48-28.45-15-8.77,10.79-10.67,12.79-16.56,19.06" transform="translate(-3285.66 -1383.68)"/><path class="cls-1" d="M3487,1681.25c-7-3.5-11.85-6-16.88-8.58-5,5.8-3.68,4.32-5.9,6.81" transform="translate(-3285.66 -1383.68)"/><path class="cls-1" d="M3791.46,1778c-5.38-.91-11-1.86-17.37-3" transform="translate(-3285.66 -1383.68)"/><path class="cls-1" d="M3864.16,1766.19l-28.72-2.74c-8.44,11.17-8.5,11.34-14.87,19.25" transform="translate(-3285.66 -1383.68)"/><path class="cls-1" d="M3820.57,1782.71c-12.52-2-11.05-1.73-29.1-4.72a99.41,99.41,0,0,1-9.1,8.53" transform="translate(-3285.66 -1383.68)"/><path class="cls-1" d="M3396.56,1662.5c6-6.74,7.85-8.79,16.81-20.41l-28.21-16" transform="translate(-3285.66 -1383.68)"/><path class="cls-1" d="M3425.12,1676.7c-17.15-8.46-10.6-5.2-28.56-14.2" transform="translate(-3285.66 -1383.68)"/><path class="cls-1" d="M3849.66,1786.92c-17.46-2.47-10.78-1.5-29.1-4.21-6.4,7.51-8.31,9.73-15.23,15.24" transform="translate(-3285.66 -1383.68)"/><path class="cls-1" d="M3805.34,1797.95c-4.6-1.06-9.66-2.2-17.13-4" transform="translate(-3285.66 -1383.68)"/><path class="cls-1" d="M3380.6,1677.69a155.62,155.62,0,0,0,16-15.19l-28.47-14.44" transform="translate(-3285.66 -1383.68)"/><path class="cls-1" d="M3430.54,1679.34l-5.42-2.64-3,3" transform="translate(-3285.66 -1383.68)"/><path class="cls-1" d="M3389.88,1682l-9.28-4.31" transform="translate(-3285.66 -1383.68)"/><path class="cls-1" d="M3535.86,1730.58c72.7,16.77,29.67,6.94,73.8,17.16" transform="translate(-3285.66 -1383.68)"/><path class="cls-1" d="M3590.34,1743.27l-3.06-1" transform="translate(-3285.66 -1383.68)"/><path class="cls-1" d="M3587.28,1742.27l-15-3.31" transform="translate(-3285.66 -1383.68)"/><path class="cls-1" d="M3609.66,1747.74c38.18,9.26,38.92,9.28,57.49,15.21" transform="translate(-3285.66 -1383.68)"/><path class="cls-1" d="M3623.3,1751.08l-3.07-1-2.93-1.56" transform="translate(-3285.66 -1383.68)"/><path class="cls-1" d="M3617.29,1748.54c-18-3.69-11.13-2.24-30-6.26l-2.91-1.55c-3.1-2.25-3.33-2.23-8.08-7.06" transform="translate(-3285.66 -1383.68)"/><path class="cls-1" d="M3652.9,1758.54l-3-1.35-2.9-1.78" transform="translate(-3285.66 -1383.68)"/><path class="cls-1" d="M3647,1755.41c-11.45-3.17-13.46-3.6-29.7-6.87-5-3.59-6.12-4.88-10.72-9.71" transform="translate(-3285.66 -1383.68)"/><path class="cls-1" d="M3667.14,1762.95c35.95,12.86,21.14,8,142.32,48.16" transform="translate(-3285.66 -1383.68)"/><path class="cls-1" d="M3678.42,1767l-3.13-1.17" transform="translate(-3285.66 -1383.68)"/><path class="cls-1" d="M3675.29,1765.81c-17.75-6.88-17.37-6.81-28.3-10.4a112.38,112.38,0,0,1-11-9" transform="translate(-3285.66 -1383.68)"/><path class="cls-1" d="M3682.36,1768.44l-7.07-2.63a63.79,63.79,0,0,1-11.64-7.38" transform="translate(-3285.66 -1383.68)"/><path class="cls-1" d="M3834.63,1804.26c-18.35-3.88-17.11-3.6-29.29-6.31l-3.79,2.33-3.74,1.64-1.7.46" transform="translate(-3285.66 -1383.68)"/><path class="cls-1" d="M3372.6,1683.65c2.72-1.76,6.91-5.09,8-6L3352,1664.1" transform="translate(-3285.66 -1383.68)"/><path class="cls-1" d="M3435.62,1709.78c.13,0,40.1,7.91,42,8.28" transform="translate(-3285.66 -1383.68)"/><path class="cls-1" d="M3477.63,1718.06c11.32,2.49,11.27,2.45,26.4,5.56" transform="translate(-3285.66 -1383.68)"/><path class="cls-1" d="M3491.23,1721l-3-1-2.89-1.48" transform="translate(-3285.66 -1383.68)"/><path class="cls-1" d="M3485.32,1718.56c-18.89-3.06-17.44-2.81-30.35-5.05l-2.94-1.17-2.83-1.64a47.88,47.88,0,0,1-5.45-4.35" transform="translate(-3285.66 -1383.68)"/><path class="cls-1" d="M3504,1723.61c9.67,2.16,14.41,3.25,31.82,7" transform="translate(-3285.66 -1383.68)"/><path class="cls-1" d="M3524.34,1728.11l-3-1.06-2.88-1.57-2.77-2" transform="translate(-3285.66 -1383.68)"/><path class="cls-1" d="M3515.67,1723.44l-30.36-4.88c-5-3.53-6.2-4.86-10.7-9.81" transform="translate(-3285.66 -1383.68)"/><path class="cls-1" d="M3557.37,1735.56l-3-1.06-2.89-1.58a38.61,38.61,0,0,1-5.46-4.43" transform="translate(-3285.66 -1383.68)"/><path class="cls-1" d="M3546,1728.5l-30.31-5.06c-4.79-4.34-5.93-5.79-10.37-11.23" transform="translate(-3285.66 -1383.68)"/><path class="cls-1" d="M3576.29,1733.66l-30.3-5.16a119.58,119.58,0,0,1-10.19-11.84" transform="translate(-3285.66 -1383.68)"/><path class="cls-1" d="M3606.58,1738.82c-12.26-2.26-11.08-2-30.29-5.16-4.27-4.69-3.84-4.24-10.18-11.84" transform="translate(-3285.66 -1383.68)"/><path class="cls-1" d="M3636,1746.45c-9.48-3.08-12.25-4.1-29.41-7.62-6.35-6.73-6.11-6.5-10.45-10.92" transform="translate(-3285.66 -1383.68)"/><path class="cls-1" d="M3663.65,1758.43c-14.46-6.75-16.31-7.64-27.66-12-6.25-5.46-7.36-6.36-11-9.37" transform="translate(-3285.66 -1383.68)"/><path class="cls-1" d="M3700.56,1774.87a49.75,49.75,0,0,1-9.24-4.35" transform="translate(-3285.66 -1383.68)"/><path class="cls-1" d="M3691.33,1770.52c-9.21-3.77-11.88-4.81-27.68-12.09-4.7-3.56-4.25-3.22-11.27-8.67" transform="translate(-3285.66 -1383.68)"/><path class="cls-1" d="M3726.12,1783.38a52.89,52.89,0,0,1-6.3-2.54" transform="translate(-3285.66 -1383.68)"/><path class="cls-1" d="M3719.83,1780.83c-17.29-5.95-19.49-6.84-28.5-10.32a111.51,111.51,0,0,1-11.59-7.94" transform="translate(-3285.66 -1383.68)"/><path class="cls-1" d="M3751.75,1791.89l-3.13-1.32" transform="translate(-3285.66 -1383.68)"/><path class="cls-1" d="M3748.62,1790.56l-28.8-9.73a73.34,73.34,0,0,1-11.84-7.27" transform="translate(-3285.66 -1383.68)"/><path class="cls-1" d="M3780.57,1801.6l-3.12-1.33" transform="translate(-3285.66 -1383.68)"/><path class="cls-1" d="M3777.45,1800.26l-28.83-9.7a64.19,64.19,0,0,1-11.81-7.26" transform="translate(-3285.66 -1383.68)"/><path class="cls-1" d="M3377.58,1699.36l58,10.42" transform="translate(-3285.66 -1383.68)"/><path class="cls-1" d="M3418.64,1706.61l-2.92-1.06-2.84-1.44" transform="translate(-3285.66 -1383.68)"/><path class="cls-1" d="M3412.88,1704.11c-13.3-1.27-13.84-1.4-23-2.64" transform="translate(-3285.66 -1383.68)"/><path class="cls-1" d="M3443.75,1706.35c-19.29-1.3-18.35-1.21-30.87-2.24-4.21-2.64-4.61-3-11-7.95" transform="translate(-3285.66 -1383.68)"/><path class="cls-1" d="M3474.62,1708.75c-13.29-1.18-11.7-1-30.87-2.39-5.51-5.28-4.11-4.13-10.6-10.57" transform="translate(-3285.66 -1383.68)"/><path class="cls-1" d="M3505.31,1712.21c-14.74-1.87-18.55-2.27-30.69-3.47-7.77-9-5.43-6.41-10.35-11.82" transform="translate(-3285.66 -1383.68)"/><path class="cls-1" d="M3535.79,1716.66c-13.83-2.16-17.4-2.68-30.48-4.44-5.72-7.15-5.92-7.45-10.17-12.42" transform="translate(-3285.66 -1383.68)"/><path class="cls-1" d="M3566.1,1721.82c-17-3-16.23-2.87-30.31-5.16-5.11-6.49-6-7.62-10.12-12.47" transform="translate(-3285.66 -1383.68)"/><path class="cls-1" d="M3596.12,1727.9c-9-2.09-11-2.65-30-6.08-5.72-6.8-6.76-7.91-10.31-11.78" transform="translate(-3285.66 -1383.68)"/><path class="cls-1" d="M3625,1737.08a217.92,217.92,0,0,0-28.88-9.18c-4.61-4.55-5.9-5.76-10.81-10.21" transform="translate(-3285.66 -1383.68)"/><path class="cls-1" d="M3652.38,1749.75c-14.15-6.94-16.2-7.95-27.38-12.67-4.33-3.48-4-3.25-11.28-8.93" transform="translate(-3285.66 -1383.68)"/><path class="cls-1" d="M3679.74,1762.58c-8.25-3.66-10.27-4.47-27.36-12.82-6.91-5.4-6.54-5.09-11.24-8.92" transform="translate(-3285.66 -1383.68)"/><path class="cls-1" d="M3708,1773.56c-14.82-5.38-17.67-6.56-28.25-11-4.77-3.73-6.11-4.83-11.08-9.21" transform="translate(-3285.66 -1383.68)"/><path class="cls-1" d="M3736.81,1783.3c-15.54-5.07-18.9-6.26-28.82-9.74a118.12,118.12,0,0,1-11-9.33" transform="translate(-3285.66 -1383.68)"/><path class="cls-1" d="M3806.35,1809.79l-28.89-9.53c-4.52-2.41-5.82-3.09-11.59-7.79" transform="translate(-3285.66 -1383.68)"/><path class="cls-1" d="M3765.86,1792.47c-17.45-5.45-10.78-3.34-29-9.18a101.9,101.9,0,0,1-10.84-9.73" transform="translate(-3285.66 -1383.68)"/><path class="cls-1" d="M3355.24,1695.59c7,1.29,4.69.9,10.34,1.75" transform="translate(-3285.66 -1383.68)"/><path class="cls-1" d="M3346.82,1694.21c4.68.86,2.77.54,8.42,1.38" transform="translate(-3285.66 -1383.68)"/><path class="cls-1" d="M3382.25,1700.25c-3.92-.83-5-1-11.47-4" transform="translate(-3285.66 -1383.68)"/><path class="cls-1" d="M3365.58,1697.33c7.3,1.35,4.55.89,12,2" transform="translate(-3285.66 -1383.68)"/><path class="cls-1" d="M3370.78,1696.23c-18.07-.93-19.91-1.44-38.56-4.12" transform="translate(-3285.66 -1383.68)"/><path class="cls-1" d="M3401.92,1696.16c-20.08.41-21.68.29-31.14.07-6.48-3.28-5.7-3-11.18-5.64" transform="translate(-3285.66 -1383.68)"/><path class="cls-1" d="M3433.15,1695.79c-13.14,0-11.93,0-31.23.38a100.09,100.09,0,0,0-11-7.71" transform="translate(-3285.66 -1383.68)"/><path class="cls-1" d="M3464.27,1696.93c-14.08-.82-17.79-.94-31.12-1.14a83.39,83.39,0,0,0-10.92-8.9" transform="translate(-3285.66 -1383.68)"/><path class="cls-1" d="M3495.13,1699.79c-14-1.57-17.63-1.9-30.86-2.86a99.88,99.88,0,0,0-10.79-9.92" transform="translate(-3285.66 -1383.68)"/><path class="cls-1" d="M3525.67,1704.18c-13.72-2.23-17.45-2.75-30.53-4.39a126.37,126.37,0,0,0-10.64-10.68" transform="translate(-3285.66 -1383.68)"/><path class="cls-1" d="M3555.79,1710c-12.7-2.72-16.27-3.43-30.13-5.86-4.48-5-5.74-6.28-10.58-10.92" transform="translate(-3285.66 -1383.68)"/><path class="cls-1" d="M3585.31,1717.69c-11-3.24-14-4.09-29.52-7.65-4-4.13-5.06-5.25-10.71-10.49" transform="translate(-3285.66 -1383.68)"/><path class="cls-1" d="M3613.72,1728.16a293.5,293.5,0,0,0-28.41-10.47c-4.56-4-4.19-3.71-11-9.57" transform="translate(-3285.66 -1383.68)"/><path class="cls-1" d="M3641.14,1740.84c-16.54-7.86-16.14-7.72-27.42-12.68-5-4-6.27-5-11.18-9.14" transform="translate(-3285.66 -1383.68)"/><path class="cls-1" d="M3668.66,1753.36c-9.16-4-11.46-4.93-27.52-12.52-5-4.22-6.34-5.37-10.94-9.58" transform="translate(-3285.66 -1383.68)"/><path class="cls-1" d="M3697,1764.24c-12.9-4.61-16.24-5.89-28.32-10.88-4.82-4.42-6-5.59-10.61-10.24" transform="translate(-3285.66 -1383.68)"/><path class="cls-1" d="M3726,1773.57c-15.19-4.63-18-5.6-29-9.34-4-3.87-5.07-5-10.38-10.75" transform="translate(-3285.66 -1383.68)"/><path class="cls-1" d="M3795,1801.36l-29.16-8.89a103.11,103.11,0,0,1-10.51-10.54" transform="translate(-3285.66 -1383.68)"/><path class="cls-1" d="M3755.35,1781.94c-13.08-3.6-16.36-4.52-29.37-8.36-3.87-4.07-4.9-5.16-10.13-11.36" transform="translate(-3285.66 -1383.68)"/><path class="cls-1" d="M3359.6,1690.59c-14.09.67-17.71.76-31.12.75" transform="translate(-3285.66 -1383.68)"/><path class="cls-1" d="M3328.49,1691.34c6.63,1.1,1.62.29,8.57,1.45" transform="translate(-3285.66 -1383.68)"/><path class="cls-1" d="M3390.89,1688.45c-23.89,1.71-20.75,1.5-31.29,2.13-3.44-1.51-4-1.79-11.3-4.46" transform="translate(-3285.66 -1383.68)"/><path class="cls-1" d="M3422.23,1686.88c-11.8.39-15,.51-31.34,1.57a100.76,100.76,0,0,0-11.26-5.5" transform="translate(-3285.66 -1383.68)"/><path class="cls-1" d="M3453.48,1687c-13.34-.36-17.14-.39-31.26-.12a122,122,0,0,0-11.22-6.57" transform="translate(-3285.66 -1383.68)"/><path class="cls-1" d="M3484.49,1689.11c-13.14-1.22-16.88-1.49-31-2.1-3.37-2.57-3.95-3.07-11.13-7.93" transform="translate(-3285.66 -1383.68)"/><path class="cls-1" d="M3515.08,1693.26c-13-2.11-16.6-2.62-30.59-4.16-3.31-2.88-3.87-3.41-11-9.1" transform="translate(-3285.66 -1383.68)"/><path class="cls-1" d="M3545.08,1699.55c-12.65-3-16.27-3.81-30-6.29-3.3-3-3.81-3.55-10.91-9.68" transform="translate(-3285.66 -1383.68)"/><path class="cls-1" d="M3574.28,1708.12c-12.31-4-15.85-5.09-29.21-8.56-4.57-4.12-4.15-3.74-11-9.64" transform="translate(-3285.66 -1383.68)"/><path class="cls-1" d="M3602.54,1719c-12.4-5.16-15.59-6.42-28.26-10.9l-11-9.42" transform="translate(-3285.66 -1383.68)"/><path class="cls-1" d="M3630.2,1731.25c-15.75-7.05-16.47-7.41-27.66-12.24-4.63-4-4.19-3.62-10.92-9.63" transform="translate(-3285.66 -1383.68)"/><path class="cls-1" d="M3658.05,1743.12c-9.34-3.8-11.79-4.76-27.85-11.87-4.46-4.21-4.05-3.83-10.59-10.28" transform="translate(-3285.66 -1383.68)"/><path class="cls-1" d="M3686.6,1753.49c-13.07-4.4-16.5-5.67-28.55-10.36-4.34-4.51-3.94-4.1-10.27-10.93" transform="translate(-3285.66 -1383.68)"/><path class="cls-1" d="M3715.84,1762.21c-13.15-3.66-16.5-4.64-29.24-8.72-4.17-4.67-3.78-4.24-10-11.49" transform="translate(-3285.66 -1383.68)"/><path class="cls-1" d="M3784.9,1789.83l-29.55-7.89c-3.42-4-4.41-5.12-9.83-12.15" transform="translate(-3285.66 -1383.68)"/><path class="cls-1" d="M3745.52,1769.79c-15.51-3.79-18.54-4.59-29.68-7.57-4.12-5-3.74-4.54-9.8-12.12" transform="translate(-3285.66 -1383.68)"/><path class="cls-1" d="M3553.82,1384.68c190.68,142.22,126.22,102,205.26,163.18,47.51,35.87,58.28,41.16,75.83,46.91l6.92,1.46,6.63.49,6.29-.37,5.92-1.07c6.81-2,7.17-2,15.31-6,18.12-10.69,33.81-25.82,49.1-40.51-2.85,52.95-7.1,111.77-27.68,161.07-13.4,29.24-42.1,70.48-55.19,86.61-6.7,7.45-7.24,7.57-11.4,10.81l-3.8,2.29-3.75,1.6-3.65.92-3.52.26-3.38-.34-3.25-.86-3.12-1.31c-14.73-8.26-24.32-23.27-40.25-46.46-58.93-12.41-86-17.77-140.09-39.71-36.83-15.29-57.2-24.35-91.88-33.7-66.9-16.49-113.17-11.21-185.83-3.79-28.55,3-34.78,4.12-61.4,10.43,18.51-12.37,19.22-5.64,42.81-17.5,51.57-28.3,48.18-53.13,224.1-294.37" transform="translate(-3285.66 -1383.68)"/><path class="cls-1" d="M3580.26,1404.38l-19.6,26.68-26.32-19.64" transform="translate(-3285.66 -1383.68)"/><path class="cls-1" d="M3912.65,1560.57c-1.92,18.62-1.77,17.43-3.3,30,5.91-4.68,5.42-4.31,14-11.39" transform="translate(-3285.66 -1383.68)"/><path class="cls-1" d="M3819.62,1812,3801,1806.5" transform="translate(-3285.66 -1383.68)"/><path class="cls-1" d="M3775.4,1776.82l-29.88-7c-4-5.32-3.66-4.84-9.54-12.82" transform="translate(-3285.66 -1383.68)"/><path class="cls-1" d="M3317.24,1690c7.23.72,7.79.83,11.25,1.32l-7.73-.14" transform="translate(-3285.66 -1383.68)"/><path class="cls-1" d="M3297.65,1690.28l14.72.65" transform="translate(-3285.66 -1383.68)"/><path class="cls-1" d="M3314.88,1691.23a110,110,0,0,1,17.33.88" transform="translate(-3285.66 -1383.68)"/><path class="cls-1" d="M3309.6,1686.86c9.09,2.1,6.58,1.53,11.37,2.59" transform="translate(-3285.66 -1383.68)"/><path class="cls-1" d="M3322.75,1682.39c8.78,3.39,5.77,2.24,13.26,5.06" transform="translate(-3285.66 -1383.68)"/><path class="cls-1" d="M3336.91,1674.95c17.25,7.89,12.34,5.67,22.23,10.06" transform="translate(-3285.66 -1383.68)"/><path class="cls-1" d="M3305.47,1692.31l4.93-.72" transform="translate(-3285.66 -1383.68)"/><path class="cls-1" d="M3310.4,1691.6l4.48-.37" transform="translate(-3285.66 -1383.68)"/></svg>