<svg id="Ready" xmlns="http://www.w3.org/2000/svg" viewBox="0 0 469.73 503.86"><defs><style>.cls-1{fill:none;stroke:#826d4c;stroke-linejoin:round;stroke-width:2.5px;}</style></defs><title>architecture-net4</title><path class="cls-1" d="M4442.32,2270.56l-26.15,30.54" transform="translate(-4283.87 -1902.3)"/><path class="cls-1" d="M4416.17,2301.11l55.08,7.5" transform="translate(-4283.87 -1902.3)"/><path class="cls-1" d="M4471.25,2308.61l26.43-30.34" transform="translate(-4283.87 -1902.3)"/><path class="cls-1" d="M4497.68,2278.27l-55.35-7.71" transform="translate(-4283.87 -1902.3)"/><path class="cls-1" d="M4365,2360.88l-25,29.25" transform="translate(-4283.87 -1902.3)"/><path class="cls-1" d="M4574.83,2219.62l-6.27-14.55L4550,2175.88l-23.28-26.65-27.12-23.13-30-18.74-31.75-13.63,156.09-190.17,32.74,14.69,31,19.93,28.05,24.41,24.12,28,19.33,30.49L4743,2053l7.82,32.15,1.54,31.43-4.89,29.13-11.15,25.94-17,21.76-22.34,16.73-26.83,11-30.34,4.82c-42.32-2.12-9,1.85-200.42-26l-154.21,183.26c191.83,24.44,152.22,20.4,194.67,21.76l29.57-5.17,26.21-11.11,21.89-16.57" transform="translate(-4283.87 -1902.3)"/><path class="cls-1" d="M4394.22,2397l25.32-29.06" transform="translate(-4283.87 -1902.3)"/><path class="cls-1" d="M4419.53,2368l-54.55-7.11" transform="translate(-4283.87 -1902.3)"/><path class="cls-1" d="M4360.54,2293.53l55.63,7.58-25.78,30.1" transform="translate(-4283.87 -1902.3)"/><path class="cls-1" d="M4468.86,2239.56l-26.54,31-55.91-7.79" transform="translate(-4283.87 -1902.3)"/><path class="cls-1" d="M4390.39,2331.21,4365,2360.88l-55.09-7.17" transform="translate(-4283.87 -1902.3)"/><path class="cls-1" d="M4531.59,2347l26.46-29.61" transform="translate(-4283.87 -1902.3)"/><path class="cls-1" d="M4558,2317.35l-32.25-1.31" transform="translate(-4283.87 -1902.3)"/><path class="cls-1" d="M4525.79,2316l-26.31,29.7" transform="translate(-4283.87 -1902.3)"/><path class="cls-1" d="M4499.49,2345.74l32.1,1.22" transform="translate(-4283.87 -1902.3)"/><path class="cls-1" d="M4561.41,2341.89l26.59-29.55" transform="translate(-4283.87 -1902.3)"/><path class="cls-1" d="M4588,2312.34l-30,5,26.84-30" transform="translate(-4283.87 -1902.3)"/><path class="cls-1" d="M4505.5,2376.14l26.08-29.18,29.83-5.06" transform="translate(-4283.87 -1902.3)"/><path class="cls-1" d="M4587.83,2330.8l26.69-29.53" transform="translate(-4283.87 -1902.3)"/><path class="cls-1" d="M4614.52,2301.28,4588,2312.34l27-30" transform="translate(-4283.87 -1902.3)"/><path class="cls-1" d="M4535.2,2371l26.21-29.13,26.42-11.09" transform="translate(-4283.87 -1902.3)"/><path class="cls-1" d="M4557.46,2372.06l161.8-178.68" transform="translate(-4283.87 -1902.3)"/><path class="cls-1" d="M4636.64,2284.62l-22.11,16.66,27.07-30" transform="translate(-4283.87 -1902.3)"/><path class="cls-1" d="M4561.52,2359.92l26.31-29.12,22-16.62" transform="translate(-4283.87 -1902.3)"/><path class="cls-1" d="M4669.63,2208.74l-2.22,12.81" transform="translate(-4283.87 -1902.3)"/><path class="cls-1" d="M4641.5,2207.86l26.75-30" transform="translate(-4283.87 -1902.3)"/><path class="cls-1" d="M4668.25,2177.82l1.38,30.92" transform="translate(-4283.87 -1902.3)"/><path class="cls-1" d="M4572.83,1983.07l-26.35,31.73" transform="translate(-4283.87 -1902.3)"/><path class="cls-1" d="M4546.48,2014.8l-32.24-14.14" transform="translate(-4283.87 -1902.3)"/><path class="cls-1" d="M4540.42,1968.75l32.4,14.32" transform="translate(-4283.87 -1902.3)"/><path class="cls-1" d="M4494.87,2076.94l-25.27,30.42" transform="translate(-4283.87 -1902.3)"/><path class="cls-1" d="M4463,2063.14l31.92,13.8" transform="translate(-4283.87 -1902.3)"/><path class="cls-1" d="M4603.46,2002.59l-26.52,31.53" transform="translate(-4283.87 -1902.3)"/><path class="cls-1" d="M4576.94,2034.12l-30.46-19.32-26,31.28" transform="translate(-4283.87 -1902.3)"/><path class="cls-1" d="M4599.56,1950.89l-26.73,32.18,30.63,19.52" transform="translate(-4283.87 -1902.3)"/><path class="cls-1" d="M4525,2095.87l-25.43,30.23" transform="translate(-4283.87 -1902.3)"/><path class="cls-1" d="M4520.49,2046.09l-25.62,30.85,30.14,18.93" transform="translate(-4283.87 -1902.3)"/><path class="cls-1" d="M4631.2,2026.56l-26.67,31.31" transform="translate(-4283.87 -1902.3)"/><path class="cls-1" d="M4604.52,2057.88l-27.58-23.75-26.14,31.08" transform="translate(-4283.87 -1902.3)"/><path class="cls-1" d="M4630.36,1970.61l-26.9,32,27.74,24" transform="translate(-4283.87 -1902.3)"/><path class="cls-1" d="M4552.29,2119.2l-25.58,30" transform="translate(-4283.87 -1902.3)"/><path class="cls-1" d="M4550.8,2065.21,4525,2095.87l27.27,23.33" transform="translate(-4283.87 -1902.3)"/><path class="cls-1" d="M4655,2054.08l-26.82,31.09" transform="translate(-4283.87 -1902.3)"/><path class="cls-1" d="M4628.22,2085.17l-23.69-27.29-26.3,30.87" transform="translate(-4283.87 -1902.3)"/><path class="cls-1" d="M4658.25,1994.8l-27.05,31.76,23.84,27.52" transform="translate(-4283.87 -1902.3)"/><path class="cls-1" d="M4575.7,2146.06,4550,2175.88" transform="translate(-4283.87 -1902.3)"/><path class="cls-1" d="M4578.22,2088.75l-25.94,30.45,23.41,26.86" transform="translate(-4283.87 -1902.3)"/><path class="cls-1" d="M4674.1,2084.12,4647.16,2115" transform="translate(-4283.87 -1902.3)"/><path class="cls-1" d="M4647.16,2115l-18.94-29.83-26.45,30.66" transform="translate(-4283.87 -1902.3)"/><path class="cls-1" d="M4682.23,2022.54l-27.2,31.54,19.07,30" transform="translate(-4283.87 -1902.3)"/><path class="cls-1" d="M4594.4,2175.46l-25.84,29.61" transform="translate(-4283.87 -1902.3)"/><path class="cls-1" d="M4601.77,2115.83l-26.07,30.23,18.7,29.4" transform="translate(-4283.87 -1902.3)"/><path class="cls-1" d="M4687.72,2115.6l-27,30.66" transform="translate(-4283.87 -1902.3)"/><path class="cls-1" d="M4660.68,2146.26,4647.16,2115l-26.57,30.44" transform="translate(-4283.87 -1902.3)"/><path class="cls-1" d="M4701.43,2052.81l-27.33,31.31,13.62,31.48" transform="translate(-4283.87 -1902.3)"/><path class="cls-1" d="M4607.7,2206.31l-14.15,16" transform="translate(-4283.87 -1902.3)"/><path class="cls-1" d="M4620.59,2145.44l-26.2,30,13.31,30.85" transform="translate(-4283.87 -1902.3)"/><path class="cls-1" d="M4695.38,2147.36l-27.13,30.46-7.58-31.56L4634,2176.49" transform="translate(-4283.87 -1902.3)"/><path class="cls-1" d="M4715.16,2084.5l-27.44,31.1,7.66,31.76" transform="translate(-4283.87 -1902.3)"/><path class="cls-1" d="M4634,2176.49l-26.3,29.82,4.34,18.25" transform="translate(-4283.87 -1902.3)"/><path class="cls-1" d="M4445.21,2338.51l26-29.9,54.54,7.43,26.69-30.13" transform="translate(-4283.87 -1902.3)"/><path class="cls-1" d="M4552.49,2285.9l-54.81-7.64,26.82-30.78" transform="translate(-4283.87 -1902.3)"/><path class="cls-1" d="M4448,2403.89l25.57-28.87" transform="translate(-4283.87 -1902.3)"/><path class="cls-1" d="M4473.55,2375l-54-7,25.68-29.48" transform="translate(-4283.87 -1902.3)"/><path class="cls-1" d="M4335,2323.83l164.45,21.9L4473.55,2375l32,1.12" transform="translate(-4283.87 -1902.3)"/><path class="cls-1" d="M4641.5,2207.86l-7.5-31.37-13.41-31.06-18.82-29.61-23.55-27.08-27.43-23.54-30.31-19.12-32.08-14" transform="translate(-4283.87 -1902.3)"/><path class="cls-1" d="M4642.27,2225.54l-.76-17.67L4626,2225.25" transform="translate(-4283.87 -1902.3)"/><path class="cls-1" d="M4583.48,2343.32l-22,16.6" transform="translate(-4283.87 -1902.3)"/><path class="cls-1" d="M4535.2,2371l26.32-11.1-25.95,28.71" transform="translate(-4283.87 -1902.3)"/><path class="cls-1" d="M4479.79,2404.91l25.72-28.78,29.7-5.12-25.84,28.72" transform="translate(-4283.87 -1902.3)"/><path class="cls-1" d="M4551.7,2216.25l-27.21,31.24" transform="translate(-4283.87 -1902.3)"/><path class="cls-1" d="M4468.86,2239.56l110.7,15.76" transform="translate(-4283.87 -1902.3)"/><path class="cls-1" d="M4579.56,2255.33l27.48-31" transform="translate(-4283.87 -1902.3)"/><path class="cls-1" d="M4750.81,2085.11l-27.91,31.34" transform="translate(-4283.87 -1902.3)"/><path class="cls-1" d="M4722.9,2116.45l-7.74-32" transform="translate(-4283.87 -1902.3)"/><path class="cls-1" d="M4701.43,2052.81l13.73,31.69L4743,2053" transform="translate(-4283.87 -1902.3)"/><path class="cls-1" d="M4682.23,2022.54l19.2,30.27,27.72-31.76" transform="translate(-4283.87 -1902.3)"/><path class="cls-1" d="M4658.25,1994.8l24,27.74,27.59-32" transform="translate(-4283.87 -1902.3)"/><path class="cls-1" d="M4630.36,1970.61l27.89,24.19,27.45-32.22" transform="translate(-4283.87 -1902.3)"/><path class="cls-1" d="M4599.56,1950.89l30.8,19.72,27.28-32.43" transform="translate(-4283.87 -1902.3)"/><path class="cls-1" d="M4567,1936.39l32.57,14.5,27.12-32.64" transform="translate(-4283.87 -1902.3)"/><path class="cls-1" d="M4412.67,2231.57l56.19,8,26.93-31.45" transform="translate(-4283.87 -1902.3)"/><path class="cls-1" d="M4584.89,2287.32l27.23-30.46" transform="translate(-4283.87 -1902.3)"/><path class="cls-1" d="M4612.12,2256.85l-32.55-1.52-27.08,30.58,32.4,1.41,30.08-4.94" transform="translate(-4283.87 -1902.3)"/><path class="cls-1" d="M4642.33,2252l-30.21,4.88,27.63-30.91" transform="translate(-4283.87 -1902.3)"/><path class="cls-1" d="M4641.59,2271.32,4615,2282.37l27.36-30.4" transform="translate(-4283.87 -1902.3)"/><path class="cls-1" d="M4669.06,2240.94l-26.73,11,27.76-30.85" transform="translate(-4283.87 -1902.3)"/><path class="cls-1" d="M4663.78,2254.64l-22.19,16.68,27.47-30.38" transform="translate(-4283.87 -1902.3)"/><path class="cls-1" d="M4691.32,2224.23l-22.26,16.7,27.86-30.83" transform="translate(-4283.87 -1902.3)"/><path class="cls-1" d="M4691.87,2207.28l27.59-30.59" transform="translate(-4283.87 -1902.3)"/><path class="cls-1" d="M4719.46,2176.7l-10.53,24.42" transform="translate(-4283.87 -1902.3)"/><path class="cls-1" d="M4724.38,2147.71l-4.92,29,28-31" transform="translate(-4283.87 -1902.3)"/><path class="cls-1" d="M4696.81,2178.44l27.57-30.73" transform="translate(-4283.87 -1902.3)"/><path class="cls-1" d="M4691.87,2207.28l4.94-28.84" transform="translate(-4283.87 -1902.3)"/><path class="cls-1" d="M4656.6,2223.26l40.21-44.82-1.43-31.08,27.52-30.91,1.49,31.26,28-31.17" transform="translate(-4283.87 -1902.3)"/><path class="cls-1" d="M4689.3,2213.24l2.58-6-7,7.78" transform="translate(-4283.87 -1902.3)"/><path class="cls-1" d="M4711,2199.55l25.28-27.94" transform="translate(-4283.87 -1902.3)"/></svg>