<svg id="Ready" xmlns="http://www.w3.org/2000/svg" viewBox="0 0 678.89 299.84"><defs><style>.cls-1{fill:none;stroke:#826d4c;stroke-linejoin:round;stroke-width:2.5px;}</style></defs><title>architecture-net2</title><path class="cls-1" d="M4464.16,1962.52l-17.49,8.18" transform="translate(-4428.05 -1872.39)"/><path class="cls-1" d="M4608.92,2017.88l-8.46-.86c-47.8-13.37-16.53-4.11-171.17-51.65l89.74-42.49,19.3,3.22c24.36,25.64,18.56,19.19,27.35,30.28,40.65,51.2,71.51,108.38,100.15,160.48l41.75,28.31,41.33,17.86,40.62,8,39.7-1.24,38.62-9.61,37.46-17.08,36.25-23.61c75.24-62.69,104.54-101.36,164.12-183.26-89.18-39.83-95.33-48-151.68-60.52l-20.42-2-20.18.87-20,4-19.89,7.41-19.86,10.92c-41.94,45-25.83,29.16-68,66.49l-35.54,24.6-25,12.42" transform="translate(-4428.05 -1872.39)"/><path class="cls-1" d="M4446.71,1957.12l17.44,5.41" transform="translate(-4428.05 -1872.39)"/><path class="cls-1" d="M4686.89,2131.13l-23.09-40" transform="translate(-4428.05 -1872.39)"/><path class="cls-1" d="M4663.79,2091.15l-20.74-15.75" transform="translate(-4428.05 -1872.39)"/><path class="cls-1" d="M4684.22,2106.67l-20.42-15.51-22.36-36.92" transform="translate(-4428.05 -1872.39)"/><path class="cls-1" d="M4641.43,2054.23,4621,2037.3" transform="translate(-4428.05 -1872.39)"/><path class="cls-1" d="M4661.55,2070.93l-20.12-16.7-21.71-33.36" transform="translate(-4428.05 -1872.39)"/><path class="cls-1" d="M4619.72,2020.88,4599.66,2003" transform="translate(-4428.05 -1872.39)"/><path class="cls-1" d="M4639.52,2038.49l-19.79-17.62-21.16-29.41" transform="translate(-4428.05 -1872.39)"/><path class="cls-1" d="M4598.56,1991.46l-19.71-18.53" transform="translate(-4428.05 -1872.39)"/><path class="cls-1" d="M4618,2009.76l-19.47-18.3-20.74-25.21" transform="translate(-4428.05 -1872.39)"/><path class="cls-1" d="M4577.82,1966.25l-19.37-19" transform="translate(-4428.05 -1872.39)"/><path class="cls-1" d="M4597,1985c-23.84-23.38-10.29-9.78-58.63-58.95" transform="translate(-4428.05 -1872.39)"/><path class="cls-1" d="M4537.42,1935.59,4519,1922.87" transform="translate(-4428.05 -1872.39)"/><path class="cls-1" d="M4556.07,1944.75l-18.65-9.16-19.2,1.65" transform="translate(-4428.05 -1872.39)"/><path class="cls-1" d="M4518.22,1937.23l-17.68-5.61" transform="translate(-4428.05 -1872.39)"/><path class="cls-1" d="M4535.79,1942.81l-17.57-5.57-18.3,8.56" transform="translate(-4428.05 -1872.39)"/><path class="cls-1" d="M4499.93,1945.79l-17.6-5.54" transform="translate(-4428.05 -1872.39)"/><path class="cls-1" d="M4517.42,1951.3l-17.49-5.5-18,8.43" transform="translate(-4428.05 -1872.39)"/><path class="cls-1" d="M4481.91,1954.22l-17.52-5.47" transform="translate(-4428.05 -1872.39)"/><path class="cls-1" d="M4499.32,1959.66l-17.42-5.44-17.75,8.3,17.34,5.37" transform="translate(-4428.05 -1872.39)"/><path class="cls-1" d="M4877.08,1896.62l-20,7.33" transform="translate(-4428.05 -1872.39)"/><path class="cls-1" d="M4857,1903.95l-16.62,18.12" transform="translate(-4428.05 -1872.39)"/><path class="cls-1" d="M4840.42,1922.07l20.21-7.25" transform="translate(-4428.05 -1872.39)"/><path class="cls-1" d="M4860.63,1914.82l16.45-18.2" transform="translate(-4428.05 -1872.39)"/><path class="cls-1" d="M4843.79,1930.44l-20.36,7" transform="translate(-4428.05 -1872.39)"/><path class="cls-1" d="M4823.42,1937.49l-17.16,15.57" transform="translate(-4428.05 -1872.39)"/><path class="cls-1" d="M4806.26,1953.05l20.53-6.85" transform="translate(-4428.05 -1872.39)"/><path class="cls-1" d="M4826.79,1946.2l17-15.76" transform="translate(-4428.05 -1872.39)"/><path class="cls-1" d="M4809.45,1959.06l-20.69,6.54" transform="translate(-4428.05 -1872.39)"/><path class="cls-1" d="M4788.77,1965.6l-17.68,12.68" transform="translate(-4428.05 -1872.39)"/><path class="cls-1" d="M4771.09,1978.28l20.85-6.23" transform="translate(-4428.05 -1872.39)"/><path class="cls-1" d="M4791.94,1972l17.52-13" transform="translate(-4428.05 -1872.39)"/><path class="cls-1" d="M4774.13,1981.84l-21,5.84" transform="translate(-4428.05 -1872.39)"/><path class="cls-1" d="M4753.14,1987.68l-18.16,9.5" transform="translate(-4428.05 -1872.39)"/><path class="cls-1" d="M4705.14,2006.91c37.46-12.21,25.13-8.52,51-15.17" transform="translate(-4428.05 -1872.39)"/><path class="cls-1" d="M4756.13,1991.74l18-9.9" transform="translate(-4428.05 -1872.39)"/><path class="cls-1" d="M4737.91,1998.18l-21.27,5" transform="translate(-4428.05 -1872.39)"/><path class="cls-1" d="M4719.48,2004.7l18.44-6.52" transform="translate(-4428.05 -1872.39)"/><path class="cls-1" d="M4584.4,2000.53l12.93-.88" transform="translate(-4428.05 -1872.39)"/><path class="cls-1" d="M4587.27,1990.37l-20.1,4.44" transform="translate(-4428.05 -1872.39)"/><path class="cls-1" d="M4567.17,1994.82l-17.35-5.75" transform="translate(-4428.05 -1872.39)"/><path class="cls-1" d="M4549.82,1989.06l18.31-7.47" transform="translate(-4428.05 -1872.39)"/><path class="cls-1" d="M4568.14,1981.6l19.14,8.77" transform="translate(-4428.05 -1872.39)"/><path class="cls-1" d="M4551,1976l-18.15,7.79" transform="translate(-4428.05 -1872.39)"/><path class="cls-1" d="M4532.89,1983.82l-17-5.28" transform="translate(-4428.05 -1872.39)"/><path class="cls-1" d="M4515.86,1978.54l18-8.11" transform="translate(-4428.05 -1872.39)"/><path class="cls-1" d="M4533.84,1970.44l17.2,5.6" transform="translate(-4428.05 -1872.39)"/><path class="cls-1" d="M4516.63,1965.06l-17.9,8.17" transform="translate(-4428.05 -1872.39)"/><path class="cls-1" d="M4498.73,1973.23l-17.24-5.34" transform="translate(-4428.05 -1872.39)"/><path class="cls-1" d="M4463.93,1976l35.39-16.35" transform="translate(-4428.05 -1872.39)"/><path class="cls-1" d="M4517.42,1951.3l-18.1,8.36,17.31,5.4" transform="translate(-4428.05 -1872.39)"/><path class="cls-1" d="M4897.21,1892.67l-20.13,4,16.33-18.06" transform="translate(-4428.05 -1872.39)"/><path class="cls-1" d="M4864.19,1926.78l-20.41,3.66,16.84-15.62,20.27-3.87" transform="translate(-4428.05 -1872.39)"/><path class="cls-1" d="M4880.9,1910.95l16.31-18.28" transform="translate(-4428.05 -1872.39)"/><path class="cls-1" d="M4830.14,1955.93l-20.69,3.13,17.34-12.86,20.55-3.45" transform="translate(-4428.05 -1872.39)"/><path class="cls-1" d="M4847.34,1942.75l16.85-16" transform="translate(-4428.05 -1872.39)"/><path class="cls-1" d="M4795.08,1979.44l-20.95,2.4,17.8-9.79,20.83-2.81" transform="translate(-4428.05 -1872.39)"/><path class="cls-1" d="M4812.76,1969.24l17.38-13.31" transform="translate(-4428.05 -1872.39)"/><path class="cls-1" d="M4759.09,1996.66l-21.18,1.52,18.22-6.44,21.08-2" transform="translate(-4428.05 -1872.39)"/><path class="cls-1" d="M4777.21,1989.74l17.88-10.31" transform="translate(-4428.05 -1872.39)"/><path class="cls-1" d="M4684.83,2010c42.08-6.49,30-5.12,55.94-6.38" transform="translate(-4428.05 -1872.39)"/><path class="cls-1" d="M4740.77,2003.66l18.33-7" transform="translate(-4428.05 -1872.39)"/><path class="cls-1" d="M4722.29,2007l-21.37.52" transform="translate(-4428.05 -1872.39)"/><path class="cls-1" d="M4703.58,2010.46l18.71-3.42" transform="translate(-4428.05 -1872.39)"/><path class="cls-1" d="M4570.94,1973.46,4551,1976l17.09,5.57,18.49,2.58" transform="translate(-4428.05 -1872.39)"/><path class="cls-1" d="M4534.81,1956.77l-18.17,8.29,17.21,5.37,18.25-8.23" transform="translate(-4428.05 -1872.39)"/><path class="cls-1" d="M4552.09,1962.21l18.85,11.25" transform="translate(-4428.05 -1872.39)"/><path class="cls-1" d="M4535.79,1942.81l-18.37,8.49,17.39,5.47" transform="translate(-4428.05 -1872.39)"/><path class="cls-1" d="M4917.51,1891.9l-20.29.76,16.2-18.15" transform="translate(-4428.05 -1872.39)"/><path class="cls-1" d="M4884.73,1926.36l-20.54.42,16.7-15.84,20.42-.66" transform="translate(-4428.05 -1872.39)"/><path class="cls-1" d="M4901.31,1910.29l16.19-18.39" transform="translate(-4428.05 -1872.39)"/><path class="cls-1" d="M4850.92,1956.09l-20.78-.15,17.2-13.18,20.66-.19" transform="translate(-4428.05 -1872.39)"/><path class="cls-1" d="M4868,1942.56l16.72-16.2" transform="translate(-4428.05 -1872.39)"/><path class="cls-1" d="M4816.09,1980.38l-21-.94,17.68-10.2,20.9.5" transform="translate(-4428.05 -1872.39)"/><path class="cls-1" d="M4833.66,1969.74l17.26-13.65" transform="translate(-4428.05 -1872.39)"/><path class="cls-1" d="M4780.29,1998.55l-21.2-1.89,18.11-6.92,21.11,1.38" transform="translate(-4428.05 -1872.39)"/><path class="cls-1" d="M4798.32,1991.13l17.77-10.75" transform="translate(-4428.05 -1872.39)"/><path class="cls-1" d="M4743.64,2010l-21.35-3,18.48-3.38,21.29,2.4" transform="translate(-4428.05 -1872.39)"/><path class="cls-1" d="M4762.06,2006.07l18.24-7.51" transform="translate(-4428.05 -1872.39)"/><path class="cls-1" d="M4684.82,2010.09l18.76.37L4725,2014" transform="translate(-4428.05 -1872.39)"/><path class="cls-1" d="M4725,2014l18.65-4" transform="translate(-4428.05 -1872.39)"/><path class="cls-1" d="M4706.26,2014.18l-21.44-4.09-18.6-.37" transform="translate(-4428.05 -1872.39)"/><path class="cls-1" d="M4687.28,2014.38l19-.2" transform="translate(-4428.05 -1872.39)"/><path class="cls-1" d="M4668.34,2010.67c-23.12-5.62-20.36-5-24.37-5.87" transform="translate(-4428.05 -1872.39)"/><path class="cls-1" d="M4649.16,2006.9l19.18,3.76" transform="translate(-4428.05 -1872.39)"/><path class="cls-1" d="M4554.35,1955.3l-19.54,1.47c21.76,6.85,13.15,4.35,37.92,10.9" transform="translate(-4428.05 -1872.39)"/><path class="cls-1" d="M4572.73,1967.67l3.81,2.37" transform="translate(-4428.05 -1872.39)"/><path class="cls-1" d="M4553.61,1947.64l-17.82-4.84,18.56,12.49" transform="translate(-4428.05 -1872.39)"/><path class="cls-1" d="M4938,1894.07l-20.52-2.17,16.08-18.26" transform="translate(-4428.05 -1872.39)"/><path class="cls-1" d="M4905.46,1928.94l-20.73-2.58,16.58-16.07,20.63,2.31" transform="translate(-4428.05 -1872.39)"/><path class="cls-1" d="M4921.94,1912.6l16.08-18.52" transform="translate(-4428.05 -1872.39)"/><path class="cls-1" d="M4871.86,1959.33l-20.95-3.24,17.09-13.52,20.84,2.85" transform="translate(-4428.05 -1872.39)"/><path class="cls-1" d="M4888.85,1945.42l16.61-16.48" transform="translate(-4428.05 -1872.39)"/><path class="cls-1" d="M4837.23,1984.49l-21.15-4.12,17.58-10.63,21.05,3.63" transform="translate(-4428.05 -1872.39)"/><path class="cls-1" d="M4854.72,1973.37l17.15-14" transform="translate(-4428.05 -1872.39)"/><path class="cls-1" d="M4801.61,2003.72l-21.32-5.17,18-7.43,21.24,4.61" transform="translate(-4428.05 -1872.39)"/><path class="cls-1" d="M4819.56,1995.73l17.67-11.24" transform="translate(-4428.05 -1872.39)"/><path class="cls-1" d="M4765.07,2016.35l-21.44-6.35,18.42-3.93,21.39,5.74" transform="translate(-4428.05 -1872.39)"/><path class="cls-1" d="M4783.45,2011.8l18.16-8.08" transform="translate(-4428.05 -1872.39)"/><path class="cls-1" d="M4727.75,2021.78l-21.5-7.6,18.73-.2,21.49,7" transform="translate(-4428.05 -1872.39)"/><path class="cls-1" d="M4746.47,2021l18.6-4.6" transform="translate(-4428.05 -1872.39)"/><path class="cls-1" d="M4689.81,2019.51l-21.47-8.85,18.94,3.72,21.5,8.24" transform="translate(-4428.05 -1872.39)"/><path class="cls-1" d="M4708.79,2022.62l19-.84" transform="translate(-4428.05 -1872.39)"/><path class="cls-1" d="M4621.69,1995.73c33,13.4,21.91,8.71,48.9,20.64" transform="translate(-4428.05 -1872.39)"/><path class="cls-1" d="M4670.59,2016.37l19.22,3.14" transform="translate(-4428.05 -1872.39)"/><path class="cls-1" d="M4651.48,2009.19l-21.35-10" transform="translate(-4428.05 -1872.39)"/><path class="cls-1" d="M4632.13,2001.92l19.35,7.27" transform="translate(-4428.05 -1872.39)"/><path class="cls-1" d="M4570,1961.78l-15.64-6.48c21.36,14.38,17.24,11.75,21.81,14.25" transform="translate(-4428.05 -1872.39)"/><path class="cls-1" d="M4958.82,1898.85l-20.79-4.78,16-18.41" transform="translate(-4428.05 -1872.39)"/><path class="cls-1" d="M4926.45,1934.23l-21-5.29,16.48-16.35,20.89,5" transform="translate(-4428.05 -1872.39)"/><path class="cls-1" d="M4942.83,1917.56l16-18.71" transform="translate(-4428.05 -1872.39)"/><path class="cls-1" d="M4893,1965.39l-21.18-6.06,17-13.91,21.09,5.61" transform="translate(-4428.05 -1872.39)"/><path class="cls-1" d="M4909.94,1951l16.51-16.8" transform="translate(-4428.05 -1872.39)"/><path class="cls-1" d="M4858.59,1991.55l-21.36-7.05,17.48-11.12,21.28,6.5" transform="translate(-4428.05 -1872.39)"/><path class="cls-1" d="M4876,1979.88l17.05-14.49" transform="translate(-4428.05 -1872.39)"/><path class="cls-1" d="M4823.12,2012l-21.51-8.24,18-8,21.45,7.61" transform="translate(-4428.05 -1872.39)"/><path class="cls-1" d="M4841,2003.34l17.58-11.79" transform="translate(-4428.05 -1872.39)"/><path class="cls-1" d="M4786.69,2025.92l-21.62-9.57,18.37-4.54,21.58,8.88" transform="translate(-4428.05 -1872.39)"/><path class="cls-1" d="M4805,2020.68l18.1-8.72" transform="translate(-4428.05 -1872.39)"/><path class="cls-1" d="M4749.41,2032.76l-21.66-11,18.72-.83,21.65,10.26" transform="translate(-4428.05 -1872.39)"/><path class="cls-1" d="M4768.13,2031.21l18.56-5.3" transform="translate(-4428.05 -1872.39)"/><path class="cls-1" d="M4711.42,2031.92l-21.61-12.4,19,3.1,21.65,11.7" transform="translate(-4428.05 -1872.39)"/><path class="cls-1" d="M4730.44,2034.32l19-1.56" transform="translate(-4428.05 -1872.39)"/><path class="cls-1" d="M4672.94,2022.95l-21.46-13.76,19.11,7.18,21.56,13.11" transform="translate(-4428.05 -1872.39)"/><path class="cls-1" d="M4692.15,2029.48l19.27,2.43" transform="translate(-4428.05 -1872.39)"/><path class="cls-1" d="M4598.77,1982.16c41.57,24.62,27.63,15.89,54.71,34.17" transform="translate(-4428.05 -1872.39)"/><path class="cls-1" d="M4653.49,2016.33l19.46,6.62" transform="translate(-4428.05 -1872.39)"/><path class="cls-1" d="M4634.23,2005.57l-21.2-15" transform="translate(-4428.05 -1872.39)"/><path class="cls-1" d="M4614.73,1994.66l19.5,10.9" transform="translate(-4428.05 -1872.39)"/><path class="cls-1" d="M4979.92,1905.85l-21.1-7,15.89-18.6" transform="translate(-4428.05 -1872.39)"/><path class="cls-1" d="M4947.74,1941.86l-21.28-7.63,16.38-16.67,21.19,7.25" transform="translate(-4428.05 -1872.39)"/><path class="cls-1" d="M4964,1924.81l15.9-19" transform="translate(-4428.05 -1872.39)"/><path class="cls-1" d="M4914.51,1973.92l-21.47-8.53,16.89-14.36,21.38,8" transform="translate(-4428.05 -1872.39)"/><path class="cls-1" d="M4931.32,1959l16.42-17.19" transform="translate(-4428.05 -1872.39)"/><path class="cls-1" d="M4880.23,2001.22l-21.64-9.67,17.4-11.67,21.56,9" transform="translate(-4428.05 -1872.39)"/><path class="cls-1" d="M4897.55,1988.93l17-15" transform="translate(-4428.05 -1872.39)"/><path class="cls-1" d="M4844.9,2023l-21.78-11,17.89-8.62,21.72,10.3" transform="translate(-4428.05 -1872.39)"/><path class="cls-1" d="M4862.73,2013.65l17.5-12.42" transform="translate(-4428.05 -1872.39)"/><path class="cls-1" d="M4808.57,2038.44l-21.88-12.53,18.33-5.23,21.84,11.75" transform="translate(-4428.05 -1872.39)"/><path class="cls-1" d="M4826.87,2032.43l18-9.45" transform="translate(-4428.05 -1872.39)"/><path class="cls-1" d="M4771.31,2046.89l-21.91-14.14,18.72-1.54,21.91,13.32" transform="translate(-4428.05 -1872.39)"/><path class="cls-1" d="M4790,2044.53l18.53-6.09" transform="translate(-4428.05 -1872.39)"/><path class="cls-1" d="M4733.27,2047.7l-21.85-15.78,19,2.4,21.9,15" transform="translate(-4428.05 -1872.39)"/><path class="cls-1" d="M4752.34,2049.28l19-2.39" transform="translate(-4428.05 -1872.39)"/><path class="cls-1" d="M4694.64,2040.32l-21.7-17.37,19.21,6.53,21.8,16.6" transform="translate(-4428.05 -1872.39)"/><path class="cls-1" d="M4713.95,2046.09l19.33,1.61" transform="translate(-4428.05 -1872.39)"/><path class="cls-1" d="M4655.65,2024.39l-21.42-18.82,19.26,10.76,21.58,18.15" transform="translate(-4428.05 -1872.39)"/><path class="cls-1" d="M4675.07,2034.48l19.57,5.84" transform="translate(-4428.05 -1872.39)"/><path class="cls-1" d="M4576.92,1965c46.24,36.35,33.67,25.9,59,49.2" transform="translate(-4428.05 -1872.39)"/><path class="cls-1" d="M4636,2014.16l19.68,10.23" transform="translate(-4428.05 -1872.39)"/><path class="cls-1" d="M4616.59,1999.69c-26.35-25.12-16.44-16.45-39.3-34.36" transform="translate(-4428.05 -1872.39)"/><path class="cls-1" d="M4618,2009.76,4597,1985l19.62,14.65" transform="translate(-4428.05 -1872.39)"/><path class="cls-1" d="M5001.35,1914.64l-21.43-8.79,15.8-18.84" transform="translate(-4428.05 -1872.39)"/><path class="cls-1" d="M4969.34,1951.41l-21.61-9.55,16.29-17.06,21.52,9.09" transform="translate(-4428.05 -1872.39)"/><path class="cls-1" d="M4985.55,1933.9l15.81-19.26" transform="translate(-4428.05 -1872.39)"/><path class="cls-1" d="M4936.3,1984.52l-21.79-10.6,16.8-14.87,21.7,10" transform="translate(-4428.05 -1872.39)"/><path class="cls-1" d="M4953,1969.05l16.32-17.64" transform="translate(-4428.05 -1872.39)"/><path class="cls-1" d="M4902.19,2013.13l-22-11.91,17.32-12.29,21.88,11.19" transform="translate(-4428.05 -1872.39)"/><path class="cls-1" d="M4919.43,2000.12l16.87-15.6" transform="translate(-4428.05 -1872.39)"/><path class="cls-1" d="M4867,2036.42,4844.9,2023l17.83-9.34,22,12.63" transform="translate(-4428.05 -1872.39)"/><path class="cls-1" d="M4884.77,2026.27l17.42-13.14" transform="translate(-4428.05 -1872.39)"/><path class="cls-1" d="M4830.77,2053.6l-22.2-15.16,18.3-6,22.16,14.26" transform="translate(-4428.05 -1872.39)"/><path class="cls-1" d="M4849,2046.69l18-10.27" transform="translate(-4428.05 -1872.39)"/><path class="cls-1" d="M4793.55,2063.89l-22.23-17,18.72-2.36,22.23,16.06" transform="translate(-4428.05 -1872.39)"/><path class="cls-1" d="M4812.27,2060.59l18.5-7" transform="translate(-4428.05 -1872.39)"/><path class="cls-1" d="M4755.46,2066.59l-22.18-18.9,19.07,1.59,22.23,17.95" transform="translate(-4428.05 -1872.39)"/><path class="cls-1" d="M4774.57,2067.23l19-3.34" transform="translate(-4428.05 -1872.39)"/><path class="cls-1" d="M4716.66,2061.09l-22-20.77,19.31,5.76,22.13,19.86" transform="translate(-4428.05 -1872.39)"/><path class="cls-1" d="M4736.08,2065.95l19.38.65" transform="translate(-4428.05 -1872.39)"/><path class="cls-1" d="M4677.39,2046.91l-21.74-22.52,19.42,10.09,21.91,21.69" transform="translate(-4428.05 -1872.39)"/><path class="cls-1" d="M4697,2056.18l19.69,4.92" transform="translate(-4428.05 -1872.39)"/><path class="cls-1" d="M4637.91,2023.73l-21.31-24,19.38,14.47,21.56,23.36" transform="translate(-4428.05 -1872.39)"/><path class="cls-1" d="M4657.53,2037.52l19.86,9.39" transform="translate(-4428.05 -1872.39)"/><path class="cls-1" d="M4639.52,2038.49,4618,2009.76l19.88,14" transform="translate(-4428.05 -1872.39)"/><path class="cls-1" d="M5023.12,1924.72l-21.77-10.08,15.72-19.15" transform="translate(-4428.05 -1872.39)"/><path class="cls-1" d="M4991.29,1962.4l-22-11,16.2-17.51,21.86,10.45" transform="translate(-4428.05 -1872.39)"/><path class="cls-1" d="M5007.41,1944.35l15.72-19.64" transform="translate(-4428.05 -1872.39)"/><path class="cls-1" d="M4958.44,1996.72l-22.14-12.2,16.72-15.46,22,11.52" transform="translate(-4428.05 -1872.39)"/><path class="cls-1" d="M4975.06,1980.58l16.23-18.17" transform="translate(-4428.05 -1872.39)"/><path class="cls-1" d="M4924.5,2026.81l-22.31-13.69,17.24-13,22.23,12.88" transform="translate(-4428.05 -1872.39)"/><path class="cls-1" d="M4941.66,2013l16.78-16.28" transform="translate(-4428.05 -1872.39)"/><path class="cls-1" d="M4889.47,2051.85,4867,2036.42l17.76-10.15,22.4,14.5" transform="translate(-4428.05 -1872.39)"/><path class="cls-1" d="M4907.17,2040.78l17.34-14" transform="translate(-4428.05 -1872.39)"/><path class="cls-1" d="M4853.34,2071l-22.58-17.37,18.27-6.91,22.53,16.36" transform="translate(-4428.05 -1872.39)"/><path class="cls-1" d="M4871.57,2063l17.9-11.2" transform="translate(-4428.05 -1872.39)"/><path class="cls-1" d="M4816.17,2083.36l-22.63-19.47,18.72-3.3,22.62,18.39" transform="translate(-4428.05 -1872.39)"/><path class="cls-1" d="M4834.89,2079l18.46-8" transform="translate(-4428.05 -1872.39)"/><path class="cls-1" d="M4778,2088.25l-22.59-21.65,19.11.64,22.63,20.55" transform="translate(-4428.05 -1872.39)"/><path class="cls-1" d="M4797.2,2087.79l19-4.43" transform="translate(-4428.05 -1872.39)"/><path class="cls-1" d="M4739.11,2084.95l-22.44-23.85,19.41,4.85,22.54,22.77" transform="translate(-4428.05 -1872.39)"/><path class="cls-1" d="M4758.62,2088.72l19.43-.47" transform="translate(-4428.05 -1872.39)"/><path class="cls-1" d="M4699.56,2072.87l-22.17-26,19.59,9.26,22.34,24.94" transform="translate(-4428.05 -1872.39)"/><path class="cls-1" d="M4719.31,2081.12l19.79,3.82" transform="translate(-4428.05 -1872.39)"/><path class="cls-1" d="M4659.66,2051.58l-21.75-27.85,19.62,13.79,22,27" transform="translate(-4428.05 -1872.39)"/><path class="cls-1" d="M4679.52,2064.49l20,8.38" transform="translate(-4428.05 -1872.39)"/><path class="cls-1" d="M4661.55,2070.93l-22-32.44,20.14,13.09" transform="translate(-4428.05 -1872.39)"/><path class="cls-1" d="M5045.23,1935.56l-22.1-10.84,15.64-19.53" transform="translate(-4428.05 -1872.39)"/><path class="cls-1" d="M5013.58,1974.3l-22.29-11.9,16.11-18,22.19,11.29" transform="translate(-4428.05 -1872.39)"/><path class="cls-1" d="M5029.6,1955.64l15.63-20.09" transform="translate(-4428.05 -1872.39)"/><path class="cls-1" d="M4980.92,2010l-22.49-13.28,16.63-16.14,22.39,12.51" transform="translate(-4428.05 -1872.39)"/><path class="cls-1" d="M4997.45,1993.09l16.13-18.79" transform="translate(-4428.05 -1872.39)"/><path class="cls-1" d="M4947.18,2041.77l-22.68-15,17.16-13.81,22.59,14.05" transform="translate(-4428.05 -1872.39)"/><path class="cls-1" d="M4964.25,2027.05l16.67-17.05" transform="translate(-4428.05 -1872.39)"/><path class="cls-1" d="M4912.32,2068.75l-22.85-16.91,17.69-11.07,22.77,15.87" transform="translate(-4428.05 -1872.39)"/><path class="cls-1" d="M4929.94,2056.65l17.24-14.87" transform="translate(-4428.05 -1872.39)"/><path class="cls-1" d="M4876.33,2090.06l-23-19.09,18.22-7.92,22.93,18" transform="translate(-4428.05 -1872.39)"/><path class="cls-1" d="M4894.49,2081l17.83-12.25" transform="translate(-4428.05 -1872.39)"/><path class="cls-1" d="M4839.23,2104.83l-23.06-21.47,18.71-4.37,23,20.25" transform="translate(-4428.05 -1872.39)"/><path class="cls-1" d="M4857.93,2099.24l18.4-9.18" transform="translate(-4428.05 -1872.39)"/><path class="cls-1" d="M4801.1,2112.22l-23-24,19.15-.46,23.08,22.71" transform="translate(-4428.05 -1872.39)"/><path class="cls-1" d="M4820.27,2110.49l19-5.67" transform="translate(-4428.05 -1872.39)"/><path class="cls-1" d="M4762,2111.46l-22.93-26.51,19.51,3.77,23,25.25" transform="translate(-4428.05 -1872.39)"/><path class="cls-1" d="M4781.63,2114l19.46-1.75" transform="translate(-4428.05 -1872.39)"/><path class="cls-1" d="M4722.24,2101.87l-22.69-29,19.76,8.25,22.84,27.79" transform="translate(-4428.05 -1872.39)"/><path class="cls-1" d="M4742.15,2108.91l19.89,2.55" transform="translate(-4428.05 -1872.39)"/><path class="cls-1" d="M4681.94,2082.92l-22.28-31.33,19.86,12.91,22.52,30.23" transform="translate(-4428.05 -1872.39)"/><path class="cls-1" d="M4702,2094.72l20.21,7.15" transform="translate(-4428.05 -1872.39)"/><path class="cls-1" d="M4684.22,2106.67l-22.67-35.74,20.4,12" transform="translate(-4428.05 -1872.39)"/><path class="cls-1" d="M5067.64,1946.6l-22.41-11,15.55-20" transform="translate(-4428.05 -1872.39)"/><path class="cls-1" d="M5036.2,1986.56l-22.62-12.26,16-18.66,22.51,11.57" transform="translate(-4428.05 -1872.39)"/><path class="cls-1" d="M5052.11,1967.21l15.53-20.61" transform="translate(-4428.05 -1872.39)"/><path class="cls-1" d="M5003.75,2023.8,4980.92,2010l16.53-16.91,22.72,13" transform="translate(-4428.05 -1872.39)"/><path class="cls-1" d="M5020.17,2006l16-19.48" transform="translate(-4428.05 -1872.39)"/><path class="cls-1" d="M4970.23,2057.45l-23-15.67,17.07-14.72,22.94,14.66" transform="translate(-4428.05 -1872.39)"/><path class="cls-1" d="M4987.19,2041.72l16.56-17.91" transform="translate(-4428.05 -1872.39)"/><path class="cls-1" d="M4935.56,2086.59l-23.24-17.84,17.62-12.1,23.15,16.69" transform="translate(-4428.05 -1872.39)"/><path class="cls-1" d="M4953.09,2073.34l17.14-15.89" transform="translate(-4428.05 -1872.39)"/><path class="cls-1" d="M4899.74,2110.33l-23.41-20.27,18.17-9.06,23.34,19" transform="translate(-4428.05 -1872.39)"/><path class="cls-1" d="M4917.83,2100l17.73-13.41" transform="translate(-4428.05 -1872.39)"/><path class="cls-1" d="M4862.75,2127.75l-23.52-22.92,18.69-5.59,23.48,21.56" transform="translate(-4428.05 -1872.39)"/><path class="cls-1" d="M4881.4,2120.79l18.33-10.46" transform="translate(-4428.05 -1872.39)"/><path class="cls-1" d="M4824.64,2138l-23.55-25.75,19.18-1.72,23.55,24.31" transform="translate(-4428.05 -1872.39)"/><path class="cls-1" d="M4843.82,2134.81l18.92-7.06" transform="translate(-4428.05 -1872.39)"/><path class="cls-1" d="M4785.51,2140.13,4762,2111.46l19.59,2.51,23.53,27.21" transform="translate(-4428.05 -1872.39)"/><path class="cls-1" d="M4805.17,2141.18l19.48-3.21" transform="translate(-4428.05 -1872.39)"/><path class="cls-1" d="M4745.51,2133.46l-23.27-31.58,19.91,7,23.4,30.15" transform="translate(-4428.05 -1872.39)"/><path class="cls-1" d="M4765.55,2139.07l20,1.06" transform="translate(-4428.05 -1872.39)"/><path class="cls-1" d="M4704.85,2117.3l-22.9-34.38,20.09,11.81,23.12,33" transform="translate(-4428.05 -1872.39)"/><path class="cls-1" d="M4725.15,2127.76l20.36,5.7" transform="translate(-4428.05 -1872.39)"/><path class="cls-1" d="M4707.59,2145.17l-23.38-38.5,20.63,10.63" transform="translate(-4428.05 -1872.39)"/><path class="cls-1" d="M5090.34,1957.28l-22.7-10.68,15.45-20.51" transform="translate(-4428.05 -1872.39)"/><path class="cls-1" d="M5059.11,1998.6l-22.91-12,15.91-19.35,22.8,11.27" transform="translate(-4428.05 -1872.39)"/><path class="cls-1" d="M5026.9,2037.55l-23.15-13.75,16.42-17.76,23,12.81" transform="translate(-4428.05 -1872.39)"/><path class="cls-1" d="M4993.62,2073.24l-23.39-15.79,17-15.73,23.28,14.69" transform="translate(-4428.05 -1872.39)"/><path class="cls-1" d="M4959.19,2104.76l-23.63-18.17,17.52-13.25,23.52,16.91" transform="translate(-4428.05 -1872.39)"/><path class="cls-1" d="M4923.57,2131.17l-23.83-20.84,18.1-10.33,23.74,19.44" transform="translate(-4428.05 -1872.39)"/><path class="cls-1" d="M4886.73,2151.53l-24-23.78,18.66-7,23.92,22.26" transform="translate(-4428.05 -1872.39)"/><path class="cls-1" d="M4848.7,2164.9,4824.64,2138l19.18-3.16,24,25.32" transform="translate(-4428.05 -1872.39)"/><path class="cls-1" d="M4809.56,2170.36l-24-30.23,19.65,1,24.08,28.57" transform="translate(-4428.05 -1872.39)"/><path class="cls-1" d="M4769.4,2167l-23.89-33.58,20,5.61,24,31.92" transform="translate(-4428.05 -1872.39)"/><path class="cls-1" d="M4728.43,2154.18l-23.59-36.88,20.3,10.46,23.77,35.27" transform="translate(-4428.05 -1872.39)"/><path class="cls-1" d="M4873.52,1886l-16.48,18-20,10.82" transform="translate(-4428.05 -1872.39)"/><path class="cls-1" d="M4820.19,1932.81l20.23-10.74-17,15.42L4803,1948" transform="translate(-4428.05 -1872.39)"/><path class="cls-1" d="M4785.66,1963.37l20.6-10.32-17.49,12.55-20.78,10" transform="translate(-4428.05 -1872.39)"/><path class="cls-1" d="M4750.12,1988l21-9.7c-22.6,11.83-13.72,7.53-39.09,18.69" transform="translate(-4428.05 -1872.39)"/><path class="cls-1" d="M4600.47,2017l6.79-1.81" transform="translate(-4428.05 -1872.39)"/><path class="cls-1" d="M4565.39,2007.2l19-6.67" transform="translate(-4428.05 -1872.39)"/><path class="cls-1" d="M4601,2005.13c-20.88-5.8-13.13-3.46-33.8-10.32l-18.45,7.26" transform="translate(-4428.05 -1872.39)"/><path class="cls-1" d="M4532,1996.93l17.86-7.86-16.93-5.24-17.78,7.92" transform="translate(-4428.05 -1872.39)"/><path class="cls-1" d="M4498.15,1986.53l17.71-8-17.13-5.31-17.64,8.05" transform="translate(-4428.05 -1872.39)"/><path class="cls-1" d="M4646.89,2005.45l40.39,8.93" transform="translate(-4428.05 -1872.39)"/><path class="cls-1" d="M4557.38,1945.39,4597,1985" transform="translate(-4428.05 -1872.39)"/><path class="cls-1" d="M4680.91,2010l22.66.51" transform="translate(-4428.05 -1872.39)"/><path class="cls-1" d="M4664.62,2009.37l20.2.72" transform="translate(-4428.05 -1872.39)"/><path class="cls-1" d="M4601.77,2006.41l-18.77,5.72" transform="translate(-4428.05 -1872.39)"/><path class="cls-1" d="M4591.23,1990.84l-4-.47,5.33,2.44" transform="translate(-4428.05 -1872.39)"/><path class="cls-1" d="M4581.3,1976.48l-10.36-3,14.1,8.41" transform="translate(-4428.05 -1872.39)"/><path class="cls-1" d="M4566.23,1957l-28.81-21.46" transform="translate(-4428.05 -1872.39)"/></svg>