<svg xmlns="http://www.w3.org/2000/svg" viewBox="0 0 423.46 87.26"><defs><style>.cls-1{isolation:isolate;}.cls-2{mix-blend-mode:multiply;}.cls-3{fill:#826d4c;}</style></defs><title>architecture-fig2-2</title><g class="cls-1"><g id="Layer_1" data-name="Layer 1"><g class="cls-2"><path class="cls-3" d="M409.18,280.26a.19.19,0,0,1-.12-.24h0a.17.17,0,0,1,.21-.13h0a.19.19,0,0,1,.13.23h0a.19.19,0,0,1-.18.15h0ZM401.65,278a.2.2,0,0,1-.12-.24h0a.18.18,0,0,1,.22-.13h0a.2.2,0,0,1,.12.24h0a.19.19,0,0,1-.17.14h-.06Zm-7.44-2.62h0a.19.19,0,0,1-.11-.24h0a.17.17,0,0,1,.22-.12h0a.18.18,0,0,1,.11.24h0a.17.17,0,0,1-.17.13h-.06Zm-7.34-2.92a.19.19,0,0,1-.1-.25h0A.16.16,0,0,1,387,272h0a.2.2,0,0,1,.1.25h0a.17.17,0,0,1-.16.12h-.06Zm-7.24-3.19a.19.19,0,0,1-.09-.25h0a.17.17,0,0,1,.23-.11h0a.21.21,0,0,1,.09.26h0a.17.17,0,0,1-.17.11h-.06Zm-7.16-3.4h0a.21.21,0,0,1-.08-.26h0a.16.16,0,0,1,.23-.09h0a.19.19,0,0,1,.09.25h0a.17.17,0,0,1-.17.11h-.06Zm-7.12-3.53a.2.2,0,0,1-.09-.25h0a.18.18,0,0,1,.24-.1h0a.21.21,0,0,1,.08.26h0a.17.17,0,0,1-.16.11h0Zm-7.1-3.57a.21.21,0,0,1-.08-.26h0a.17.17,0,0,1,.24-.09h0a.2.2,0,0,1,.08.25h0a.17.17,0,0,1-.17.11h-.07ZM108.88,256a.18.18,0,0,1-.17-.19h0a.18.18,0,0,1,.17-.19h0a.18.18,0,0,1,.18.19h0a.18.18,0,0,1-.18.19Zm-7.83-.08h0a.19.19,0,0,1-.18-.2h0a.18.18,0,0,1,.18-.18h0a.19.19,0,0,1,.18.19h0a.19.19,0,0,1-.18.19Zm15.48-.2a.18.18,0,0,1,.18-.19h0a.18.18,0,0,1,.18.19h0a.18.18,0,0,1-.17.19h0A.18.18,0,0,1,116.53,255.74Zm-23.3,0a.19.19,0,0,1-.17-.2h0a.18.18,0,0,1,.18-.19h0a.2.2,0,0,1,.17.2h0a.18.18,0,0,1-.17.19h0Zm31.13-.21a.18.18,0,0,1,.17-.2h0a.18.18,0,0,1,.18.18h0a.18.18,0,0,1-.17.2h0A.18.18,0,0,1,124.36,255.48Zm-38.95-.22a.18.18,0,0,1-.17-.2h0a.18.18,0,0,1,.18-.18h0a.19.19,0,0,1,.17.2h0a.2.2,0,0,1-.18.18h0Zm46.75-.23a.19.19,0,0,1,.17-.2h0a.18.18,0,0,1,.19.18h0a.2.2,0,0,1-.17.2h0A.19.19,0,0,1,132.16,255Zm219,.12a.2.2,0,0,1-.08-.26h0a.16.16,0,0,1,.23-.09h0a.2.2,0,0,1,.09.25h0a.19.19,0,0,1-.17.11h-.07ZM77.6,254.65a.19.19,0,0,1-.16-.21h0a.17.17,0,0,1,.18-.17h0a.18.18,0,0,1,.17.2h0a.19.19,0,0,1-.17.18h0Zm62.37-.27a.18.18,0,0,1,.16-.21h0a.18.18,0,0,1,.19.17h0a.19.19,0,0,1-.17.21h0A.17.17,0,0,1,140,254.38Zm-70.16-.52a.19.19,0,0,1-.16-.21h0a.18.18,0,0,1,.19-.17h0a.19.19,0,0,1,.16.21h0a.18.18,0,0,1-.18.17h0Zm77.94-.34a.19.19,0,0,1,.16-.22h0a.18.18,0,0,1,.19.17h0a.18.18,0,0,1-.16.21h0A.19.19,0,0,1,147.75,253.52Zm-85.87-.86a.18.18,0,0,1,.19-.17h0a.2.2,0,0,1,.16.22h0a.18.18,0,0,1-.2.16h0A.19.19,0,0,1,61.88,252.66Zm93.62-.24a.2.2,0,0,1,.15-.22h0a.18.18,0,0,1,.19.16h0a.19.19,0,0,1-.15.22h0A.19.19,0,0,1,155.5,252.41Zm-101.22-.75a.19.19,0,0,1-.14-.22h0a.18.18,0,0,1,.2-.16h0a.21.21,0,0,1,.15.22h0a.18.18,0,0,1-.18.16h0Zm289.79-.06a.2.2,0,0,1-.09-.26h0a.17.17,0,0,1,.23-.09h0a.19.19,0,0,1,.09.25h0a.18.18,0,0,1-.16.12h0ZM163.23,251a.2.2,0,0,1,.14-.23h0a.19.19,0,0,1,.21.16h0a.19.19,0,0,1-.15.22h0A.18.18,0,0,1,163.23,251Zm-116.65-.82a.2.2,0,0,1-.15-.23h0a.18.18,0,0,1,.21-.15h0a.2.2,0,0,1,.15.23h0a.18.18,0,0,1-.17.15h0Zm124.31-.87a.19.19,0,0,1,.14-.23h0a.18.18,0,0,1,.21.15h0a.2.2,0,0,1-.13.23h0A.18.18,0,0,1,170.89,249.34Zm-132-.85a.19.19,0,0,1-.14-.23h0a.17.17,0,0,1,.21-.14h0a.19.19,0,0,1,.14.22h0a.19.19,0,0,1-.17.16h0Zm298-.38h0a.21.21,0,0,1-.08-.26h0a.17.17,0,0,1,.23-.1h0a.2.2,0,0,1,.09.25h0a.17.17,0,0,1-.17.12h0Zm-158.47-.84a.2.2,0,0,1,.13-.24h0a.17.17,0,0,1,.21.14h0a.19.19,0,0,1-.12.23h0A.19.19,0,0,1,178.47,247.26ZM31.3,246.44a.2.2,0,0,1-.12-.24h0a.17.17,0,0,1,.21-.14h0a.22.22,0,0,1,.13.24h0a.18.18,0,0,1-.18.14h0Zm154.65-1.69a.2.2,0,0,1,.12-.24h0a.17.17,0,0,1,.22.12h0a.2.2,0,0,1-.12.24h-.06A.18.18,0,0,1,185.95,244.75Zm143.85-.07a.21.21,0,0,1-.09-.26h0a.18.18,0,0,1,.23-.1h0a.2.2,0,0,1,.09.26h0a.17.17,0,0,1-.16.11h-.07Zm-306-.7a.21.21,0,0,1-.11-.25h0a.19.19,0,0,1,.23-.12h0a.2.2,0,0,1,.11.25h0a.19.19,0,0,1-.18.13H23.8Zm169.61-1.8a.19.19,0,0,1,.12-.24h0a.17.17,0,0,1,.22.12h0a.19.19,0,0,1-.11.24h-.06A.19.19,0,0,1,193.41,242.18Zm129.21-.86h0a.2.2,0,0,1-.09-.25h0a.18.18,0,0,1,.24-.1h0a.2.2,0,0,1,.09.25h0a.18.18,0,0,1-.17.12h-.07ZM16.46,241a.21.21,0,0,1-.09-.26h0a.17.17,0,0,1,.23-.1h0a.19.19,0,0,1,.09.25h0a.17.17,0,0,1-.17.12h-.06Zm184.43-1.33a.19.19,0,0,1,.12-.24h0a.18.18,0,0,1,.22.13h0a.2.2,0,0,1-.12.24h-.06A.17.17,0,0,1,200.89,239.67ZM315.42,238a.19.19,0,0,1-.09-.25h0a.17.17,0,0,1,.23-.11h0a.21.21,0,0,1,.09.26h0a.17.17,0,0,1-.16.11h-.07Zm-107-.73a.2.2,0,0,1,.12-.24h0a.18.18,0,0,1,.22.13h0a.2.2,0,0,1-.12.24h0A.19.19,0,0,1,208.39,237.28Zm-199,0a.21.21,0,0,1-.07-.26h0a.18.18,0,0,1,.25-.08h0a.2.2,0,0,1,.06.26h0a.16.16,0,0,1-.16.1h0ZM215.94,235a.19.19,0,0,1,.13-.23h0a.17.17,0,0,1,.21.14h0a.19.19,0,0,1-.13.23h0A.18.18,0,0,1,215.94,235Zm92.25-.24a.19.19,0,0,1-.09-.25h0a.17.17,0,0,1,.23-.11h0a.19.19,0,0,1,.09.25h0a.17.17,0,0,1-.17.12h-.06Zm-84.67-1.83a.19.19,0,0,1,.14-.23h0a.18.18,0,0,1,.21.14h0a.19.19,0,0,1-.14.23h0A.18.18,0,0,1,223.52,232.95Zm77.37-1.17h0a.2.2,0,0,1-.11-.24h0a.17.17,0,0,1,.22-.12h0a.2.2,0,0,1,.12.24h0a.19.19,0,0,1-.18.13h-.06Zm-69.73-.69a.2.2,0,0,1,.14-.23h0a.19.19,0,0,1,.21.15h0a.2.2,0,0,1-.14.23h0A.18.18,0,0,1,231.15,231.09Zm7.68-1.61a.19.19,0,0,1,.15-.22h0a.18.18,0,0,1,.2.15h0a.18.18,0,0,1-.14.22h0A.19.19,0,0,1,238.83,229.48Zm54.54,0h0a.21.21,0,0,1-.14-.24h0a.18.18,0,0,1,.21-.14h0a.2.2,0,0,1,.14.23h0a.18.18,0,0,1-.18.15h0Zm-46.81-1.35a.19.19,0,0,1,.15-.22h0a.19.19,0,0,1,.2.17h0a.19.19,0,0,1-.16.21h0A.18.18,0,0,1,246.56,228.16Zm39.13-.22h0a.2.2,0,0,1-.16-.22h0a.19.19,0,0,1,.2-.17h0a.19.19,0,0,1,.15.22h0a.18.18,0,0,1-.18.17h0Zm-31.36-.76a.19.19,0,0,1,.16-.21h0a.18.18,0,0,1,.19.17h0a.2.2,0,0,1-.16.22h0A.19.19,0,0,1,254.33,227.18Zm23.61-.18h0a.19.19,0,0,1-.17-.21h0a.17.17,0,0,1,.18-.17h0a.18.18,0,0,1,.17.2h0a.18.18,0,0,1-.18.18h0Zm-15.8-.41a.18.18,0,0,1,.17-.2h0a.18.18,0,0,1,.18.18h0a.19.19,0,0,1-.17.2h0A.18.18,0,0,1,262.14,226.59Zm8,.05h0a.19.19,0,0,1-.18-.2h0a.19.19,0,0,1,.18-.19h0a.19.19,0,0,1,.18.2h0a.2.2,0,0,1-.18.19h0Z" transform="translate(-9.31 -193.89)"/><path class="cls-3" d="M410,279.72h0a.39.39,0,0,1-.24-.48h0a.35.35,0,0,1,.44-.26h0a.4.4,0,0,1,.24.48h0a.36.36,0,0,1-.34.27H410Zm-7.45-2.63h0a.4.4,0,0,1-.22-.49h0a.36.36,0,0,1,.45-.24h0a.39.39,0,0,1,.22.49h0a.37.37,0,0,1-.33.25h0A.23.23,0,0,1,402.54,277.09Zm-7.33-3a.38.38,0,0,1-.19-.5h0a.34.34,0,0,1,.46-.21h0a.4.4,0,0,1,.19.5h0a.36.36,0,0,1-.33.24h0A.31.31,0,0,1,395.21,274.09Zm-7.2-3.34a.41.41,0,0,1-.18-.51h0a.35.35,0,0,1,.48-.19h0a.4.4,0,0,1,.18.51h0a.36.36,0,0,1-.32.22h0A.35.35,0,0,1,388,270.76Zm-7.08-3.63h0a.39.39,0,0,1-.17-.51h0a.34.34,0,0,1,.47-.18h0a.39.39,0,0,1,.17.52h0a.36.36,0,0,1-.32.21h0A.33.33,0,0,1,380.94,267.13Zm-7-3.82a.4.4,0,0,1-.15-.52h0a.34.34,0,0,1,.48-.16h0a.4.4,0,0,1,.15.51h0a.34.34,0,0,1-.31.21h0A.33.33,0,0,1,373.95,263.31ZM367,259.41a.4.4,0,0,1-.15-.52h0a.34.34,0,0,1,.48-.16h0a.4.4,0,0,1,.15.52h0a.35.35,0,0,1-.31.2h0A.34.34,0,0,1,367,259.41Zm-240.15-3a.38.38,0,0,1,.35-.39h0a.36.36,0,0,1,.36.38h0a.38.38,0,0,1-.35.39h0A.38.38,0,0,1,126.86,256.45Zm-7.47.34h0a.37.37,0,0,1-.35-.39h0a.37.37,0,0,1,.36-.38h0a.38.38,0,0,1,.35.39h0a.38.38,0,0,1-.36.38Zm15.3-.49a.36.36,0,0,1,.34-.39h0a.37.37,0,0,1,.37.37h0a.39.39,0,0,1-.35.4h0A.37.37,0,0,1,134.68,256.3Zm-23.14.26a.38.38,0,0,1-.34-.4h0a.37.37,0,0,1,.37-.37h0a.37.37,0,0,1,.34.4h0a.38.38,0,0,1-.35.37h0Zm30.94-.62a.38.38,0,0,1,.34-.41h0a.36.36,0,0,1,.37.36h0a.37.37,0,0,1-.33.41h0A.38.38,0,0,1,142.49,255.94Zm-38.76.2a.38.38,0,0,1-.34-.41h0a.38.38,0,0,1,.38-.36h0a.38.38,0,0,1,.33.41h0a.36.36,0,0,1-.36.36h0Zm46.57-.81a.37.37,0,0,1,.32-.41h0a.36.36,0,0,1,.39.35h0a.38.38,0,0,1-.32.41h0A.37.37,0,0,1,150.3,255.33Zm-54.39.22a.38.38,0,0,1-.32-.42h0a.36.36,0,0,1,.38-.35h0a.39.39,0,0,1,.33.41h0a.37.37,0,0,1-.36.36h0Zm264.17-.06a.39.39,0,0,1-.16-.51h0a.34.34,0,0,1,.48-.17h0a.41.41,0,0,1,.16.52h0a.37.37,0,0,1-.32.21h0A.29.29,0,0,1,360.08,255.49Zm-202-1a.38.38,0,0,1,.31-.43h0a.37.37,0,0,1,.4.34h0a.39.39,0,0,1-.31.43h0A.36.36,0,0,1,158.08,254.45Zm-70,.32h0a.38.38,0,0,1-.31-.42h0a.36.36,0,0,1,.39-.35h0a.38.38,0,0,1,.31.42h0a.37.37,0,0,1-.35.35h0Zm-7.78-1a.39.39,0,0,1-.31-.43h0a.36.36,0,0,1,.4-.33h0a.38.38,0,0,1,.31.42h0a.37.37,0,0,1-.35.34h0Zm85.49-.55a.38.38,0,0,1,.3-.44h0a.35.35,0,0,1,.41.31h0a.39.39,0,0,1-.29.45h-.06A.37.37,0,0,1,165.82,253.27Zm-93.26-.58a.38.38,0,0,1-.3-.44h0a.35.35,0,0,1,.4-.32h0a.37.37,0,0,1,.3.43h0a.36.36,0,0,1-.35.33h-.05Zm101-1a.37.37,0,0,1,.27-.45h0a.35.35,0,0,1,.42.29h0a.4.4,0,0,1-.28.46h-.07A.37.37,0,0,1,173.52,251.71Zm179.6-.08a.4.4,0,0,1-.16-.52h0a.34.34,0,0,1,.48-.17h0a.42.42,0,0,1,.16.52h0a.37.37,0,0,1-.32.21h0A.28.28,0,0,1,353.12,251.63Zm-288.29-.27a.38.38,0,0,1-.29-.44h0a.35.35,0,0,1,.41-.32h0a.37.37,0,0,1,.29.44h0a.36.36,0,0,1-.35.32h-.05Zm116.28-1.65a.42.42,0,0,1,.25-.48h0a.37.37,0,0,1,.44.27h0a.41.41,0,0,1-.25.48h-.09A.37.37,0,0,1,181.11,249.71Zm-124,.11a.37.37,0,0,1-.28-.45h0a.35.35,0,0,1,.42-.3h0a.39.39,0,0,1,.28.45h0a.37.37,0,0,1-.35.31h-.06Zm-7.67-1.76a.38.38,0,0,1-.27-.46h0a.35.35,0,0,1,.42-.29h0a.38.38,0,0,1,.27.46h0a.36.36,0,0,1-.34.3h-.08Zm296.67-.21h0a.4.4,0,0,1-.17-.51h0a.35.35,0,0,1,.48-.18h0a.39.39,0,0,1,.16.51h0a.34.34,0,0,1-.31.22h0A.28.28,0,0,1,346.12,247.85Zm-157.53-.62a.41.41,0,0,1,.23-.49h0a.35.35,0,0,1,.45.25h0a.4.4,0,0,1-.23.48h0a.22.22,0,0,1-.11,0h0A.35.35,0,0,1,188.6,247.23ZM41.84,246a.38.38,0,0,1-.25-.47h0a.35.35,0,0,1,.43-.27h0a.38.38,0,0,1,.25.47h0a.36.36,0,0,1-.34.29h0ZM196,244.58a.39.39,0,0,1,.22-.49h0a.35.35,0,0,1,.45.24h0a.4.4,0,0,1-.22.49h0l-.11,0h0A.35.35,0,0,1,196,244.58Zm143-.39a.4.4,0,0,1-.17-.51h0a.34.34,0,0,1,.47-.19h0a.4.4,0,0,1,.17.52h0a.34.34,0,0,1-.32.22h0A.29.29,0,0,1,339.07,244.19ZM34.3,243.74h0a.4.4,0,0,1-.24-.49h0a.34.34,0,0,1,.44-.25h0a.39.39,0,0,1,.24.48h0a.37.37,0,0,1-.34.27h0A.17.17,0,0,1,34.3,243.74Zm169.16-1.85a.39.39,0,0,1,.22-.49h0a.35.35,0,0,1,.45.24h0a.41.41,0,0,1-.23.49h0l-.11,0h0A.35.35,0,0,1,203.46,241.89Zm-176.61-.81h0a.4.4,0,0,1-.22-.5h0a.35.35,0,0,1,.45-.23h0a.41.41,0,0,1,.22.5h0a.37.37,0,0,1-.33.25h0ZM332,240.63h0a.4.4,0,0,1-.17-.51h0a.34.34,0,0,1,.47-.19h0a.4.4,0,0,1,.18.51h0a.37.37,0,0,1-.32.23h0A.36.36,0,0,1,332,240.63Zm-121.09-1.42a.38.38,0,0,1,.22-.48h0a.35.35,0,0,1,.45.24h0a.41.41,0,0,1-.23.49h0l-.11,0h0A.36.36,0,0,1,210.89,239.21ZM19.54,237.94a.4.4,0,0,1-.18-.5h0a.34.34,0,0,1,.47-.2h0a.39.39,0,0,1,.18.5h0a.34.34,0,0,1-.32.23h0A.39.39,0,0,1,19.54,237.94Zm305.3-.75h0a.4.4,0,0,1-.18-.5h0a.34.34,0,0,1,.47-.2h0a.39.39,0,0,1,.18.5h0a.34.34,0,0,1-.32.23h0A.39.39,0,0,1,324.84,237.19Zm-106.5-.56a.39.39,0,0,1,.24-.48h0a.36.36,0,0,1,.44.25h0a.41.41,0,0,1-.23.49h-.11A.36.36,0,0,1,218.34,236.62Zm7.49-2.47a.39.39,0,0,1,.24-.48h0a.34.34,0,0,1,.43.26h0a.39.39,0,0,1-.24.48h0l-.1,0h0A.35.35,0,0,1,225.84,234.15Zm-213.35,0h0a.4.4,0,0,1-.14-.53h0a.34.34,0,0,1,.48-.15h0A.41.41,0,0,1,13,234h0a.34.34,0,0,1-.31.2h0A.38.38,0,0,1,12.48,234.19Zm305.18-.34h0a.4.4,0,0,1-.19-.5h0a.35.35,0,0,1,.47-.21h0a.39.39,0,0,1,.18.5h0a.35.35,0,0,1-.32.24h0A.34.34,0,0,1,317.66,233.85Zm-84.31-2a.4.4,0,0,1,.25-.48h0a.37.37,0,0,1,.44.28h0a.4.4,0,0,1-.26.47h-.09A.36.36,0,0,1,233.36,231.84Zm77.08-1.23h0a.4.4,0,0,1-.19-.51h0a.35.35,0,0,1,.46-.21h0a.4.4,0,0,1,.19.5h0a.36.36,0,0,1-.32.25h0A.34.34,0,0,1,310.44,230.62Zm-69.5-.88a.38.38,0,0,1,.27-.46h0a.34.34,0,0,1,.42.28h0a.37.37,0,0,1-.26.46h-.08A.37.37,0,0,1,240.93,229.73Zm7.64-1.86a.38.38,0,0,1,.28-.45h0a.36.36,0,0,1,.41.31h0a.37.37,0,0,1-.28.45h-.06A.37.37,0,0,1,248.58,227.87Zm54.51,0a.4.4,0,0,1-.25-.47h0a.35.35,0,0,1,.44-.27h0a.4.4,0,0,1,.24.48h0a.35.35,0,0,1-.34.28h0Zm-46.81-1.55a.38.38,0,0,1,.3-.44h0a.37.37,0,0,1,.41.32h0a.38.38,0,0,1-.3.44h-.06A.37.37,0,0,1,256.27,226.32Zm39.22-.32a.4.4,0,0,1-.29-.45h0a.36.36,0,0,1,.42-.31h0a.37.37,0,0,1,.29.44h0a.36.36,0,0,1-.35.32h-.06ZM264,225.13a.38.38,0,0,1,.31-.43h0a.36.36,0,0,1,.4.34h0a.39.39,0,0,1-.31.43h0A.36.36,0,0,1,264,225.13Zm23.75-.22h0a.38.38,0,0,1-.32-.42h0a.36.36,0,0,1,.38-.35h0a.37.37,0,0,1,.32.41h0a.36.36,0,0,1-.35.36h0Zm-16-.53a.37.37,0,0,1,.33-.41h0a.37.37,0,0,1,.38.36h0a.38.38,0,0,1-.33.41h0A.37.37,0,0,1,271.81,224.38Zm7.82-.25a.37.37,0,0,1,.36-.38h0a.38.38,0,0,1,.35.39h0a.37.37,0,0,1-.36.38h0A.37.37,0,0,1,279.63,224.13Z" transform="translate(-9.31 -193.89)"/><path class="cls-3" d="M410.22,278.91h0a.59.59,0,0,1-.32-.73h0a.51.51,0,0,1,.67-.36h0a.59.59,0,0,1,.33.73h0a.54.54,0,0,1-.51.39h0A.54.54,0,0,1,410.22,278.91Zm-7.35-3a.62.62,0,0,1-.3-.76h0a.52.52,0,0,1,.7-.32h0a.61.61,0,0,1,.3.75h0a.54.54,0,0,1-.5.37h0A.74.74,0,0,1,402.87,275.93Zm-7.19-3.4a.6.6,0,0,1-.26-.77h0a.51.51,0,0,1,.71-.28h0a.61.61,0,0,1,.26.77h0a.53.53,0,0,1-.49.33h0A.45.45,0,0,1,395.68,272.54Zm-7-3.78h0a.59.59,0,0,1-.23-.78h0a.51.51,0,0,1,.72-.24h0a.61.61,0,0,1,.22.78h0a.52.52,0,0,1-.47.31h0A.42.42,0,0,1,388.66,268.76Zm-6.88-4.06a.62.62,0,0,1-.2-.79h0a.51.51,0,0,1,.73-.22h0a.62.62,0,0,1,.2.79h0a.52.52,0,0,1-.47.29h0A.5.5,0,0,1,381.78,264.7ZM375,260.46a.6.6,0,0,1-.18-.79h0a.5.5,0,0,1,.72-.21h0a.61.61,0,0,1,.19.79h0a.51.51,0,0,1-.46.29h0A.52.52,0,0,1,375,260.46ZM137.57,258.2a.56.56,0,0,1-.54-.58h0a.55.55,0,0,1,.54-.57h0a.56.56,0,0,1,.54.58h0a.57.57,0,0,1-.54.57Zm7.29-.65a.55.55,0,0,1,.52-.59h0a.55.55,0,0,1,.54.56h0a.56.56,0,0,1-.52.59h0A.55.55,0,0,1,144.86,257.55Zm-15.13.51h0a.57.57,0,0,1-.52-.6h0a.56.56,0,0,1,.55-.56h0a.57.57,0,0,1,.52.6h0a.56.56,0,0,1-.54.56h0Zm22.94-.85a.57.57,0,0,1,.51-.61h0a.55.55,0,0,1,.56.54h0a.56.56,0,0,1-.5.61h0A.56.56,0,0,1,152.67,257.21Zm-30.77.48a.57.57,0,0,1-.51-.61h0a.55.55,0,0,1,.56-.54h0a.58.58,0,0,1,.51.61h0a.56.56,0,0,1-.54.54h0Zm-7.83-.57h0a.56.56,0,0,1-.49-.62h0a.55.55,0,0,1,.57-.53h0a.56.56,0,0,1,.49.62h0a.55.55,0,0,1-.53.54h0Zm46.4-.55a.57.57,0,0,1,.47-.63h0a.55.55,0,0,1,.59.52h0a.58.58,0,0,1-.48.63H161A.55.55,0,0,1,160.48,256.56Zm-54.21-.2a.58.58,0,0,1-.48-.64h0a.54.54,0,0,1,.59-.51h0a.57.57,0,0,1,.47.63h0a.55.55,0,0,1-.53.52h-.05Zm262-.19a.62.62,0,0,1-.19-.79h0a.51.51,0,0,1,.73-.21h0a.6.6,0,0,1,.19.79h0a.52.52,0,0,1-.46.29h0A.53.53,0,0,1,368.25,256.17Zm-200-.6a.56.56,0,0,1,.44-.65h0a.56.56,0,0,1,.61.49h0a.59.59,0,0,1-.45.66h-.08A.53.53,0,0,1,168.25,255.57Zm-69.77-.16h0a.56.56,0,0,1-.46-.64h0a.53.53,0,0,1,.59-.5h0a.57.57,0,0,1,.47.64h0a.56.56,0,0,1-.54.51h-.06ZM176,254.16a.58.58,0,0,1,.42-.68h0a.53.53,0,0,1,.64.45h0a.58.58,0,0,1-.42.68h-.1A.55.55,0,0,1,176,254.16Zm-85.24.12a.57.57,0,0,1-.45-.65h0a.53.53,0,0,1,.6-.49h0a.56.56,0,0,1,.45.65h0a.55.55,0,0,1-.53.5h-.07ZM83,253a.58.58,0,0,1-.43-.67h0a.54.54,0,0,1,.62-.48h0a.58.58,0,0,1,.44.67h0a.55.55,0,0,1-.53.48H83Zm100.61-.75a.58.58,0,0,1,.37-.71h0a.53.53,0,0,1,.66.41h0a.58.58,0,0,1-.37.71h0l-.14,0h0A.54.54,0,0,1,183.58,252.23Zm177.9-.3h0a.61.61,0,0,1-.19-.79h0a.5.5,0,0,1,.72-.22h0a.61.61,0,0,1,.2.79h0a.52.52,0,0,1-.46.29h0A.51.51,0,0,1,361.48,251.93ZM75.25,251.5h0a.58.58,0,0,1-.42-.68h0a.54.54,0,0,1,.63-.46h0a.59.59,0,0,1,.42.68h0a.56.56,0,0,1-.53.47h-.1Zm115.81-1.74a.6.6,0,0,1,.34-.73h0a.53.53,0,0,1,.67.37h0a.6.6,0,0,1-.34.73h0a.47.47,0,0,1-.17,0h0A.55.55,0,0,1,191.06,249.76Zm-123.5.07a.58.58,0,0,1-.41-.69h0a.52.52,0,0,1,.63-.44h0a.58.58,0,0,1,.42.68h0a.55.55,0,0,1-.53.46h-.11ZM59.91,248a.58.58,0,0,1-.4-.69h0a.54.54,0,0,1,.65-.43h0a.58.58,0,0,1,.4.69h0A.54.54,0,0,1,60,248h0A.29.29,0,0,1,59.91,248Zm294.75-.17a.6.6,0,0,1-.21-.78h0a.51.51,0,0,1,.72-.23h0a.6.6,0,0,1,.22.78h0a.54.54,0,0,1-.47.31h0A.51.51,0,0,1,354.66,247.79ZM198.47,247a.58.58,0,0,1,.32-.73h0a.51.51,0,0,1,.67.35h0a.6.6,0,0,1-.32.74h0a.53.53,0,0,1-.18,0h0A.53.53,0,0,1,198.47,247ZM52.31,245.89a.59.59,0,0,1-.38-.7h0a.54.54,0,0,1,.66-.42h0a.59.59,0,0,1,.38.71h0a.54.54,0,0,1-.52.43h0A.33.33,0,0,1,52.31,245.89Zm153.53-1.76a.59.59,0,0,1,.31-.74h0a.51.51,0,0,1,.68.34h0a.59.59,0,0,1-.31.74h0a.43.43,0,0,1-.18,0h0A.53.53,0,0,1,205.84,244.14Zm141.94-.32h0a.6.6,0,0,1-.23-.78h0a.51.51,0,0,1,.72-.25h0a.61.61,0,0,1,.22.78h0a.52.52,0,0,1-.47.31h0A.5.5,0,0,1,347.78,243.81Zm-303-.22h0a.59.59,0,0,1-.36-.72h0a.52.52,0,0,1,.66-.38h0a.6.6,0,0,1,.36.72h0a.55.55,0,0,1-.52.42h0Zm168.43-2.38a.6.6,0,0,1,.31-.75h0a.53.53,0,0,1,.69.35h0a.6.6,0,0,1-.32.74h0a.54.54,0,0,1-.18,0h0A.55.55,0,0,1,213.18,241.21ZM37.27,241a.59.59,0,0,1-.33-.73h0a.53.53,0,0,1,.67-.37h0a.61.61,0,0,1,.34.74h0a.55.55,0,0,1-.51.39h0Zm303.54-1h0a.6.6,0,0,1-.25-.77h0a.52.52,0,0,1,.72-.26h0a.6.6,0,0,1,.25.77h0a.54.54,0,0,1-.48.32h0A.49.49,0,0,1,340.81,240ZM220.54,238.3a.6.6,0,0,1,.32-.74h0a.52.52,0,0,1,.68.35h0a.6.6,0,0,1-.32.74h0a.58.58,0,0,1-.18,0h0A.54.54,0,0,1,220.54,238.3Zm-190.65-.14h0a.61.61,0,0,1-.31-.75h0a.52.52,0,0,1,.69-.33h0a.59.59,0,0,1,.3.75h0a.54.54,0,0,1-.5.37h0A.56.56,0,0,1,29.89,238.16Zm303.88-1.83a.59.59,0,0,1-.26-.76h0a.5.5,0,0,1,.7-.28h0a.59.59,0,0,1,.26.76h0a.52.52,0,0,1-.48.34h0A.43.43,0,0,1,333.77,236.33Zm-105.85-.87a.59.59,0,0,1,.33-.73h0a.52.52,0,0,1,.68.35h0a.6.6,0,0,1-.33.74h0a.54.54,0,0,1-.18,0h0A.55.55,0,0,1,227.91,235.46Zm-205.29-.57a.6.6,0,0,1-.27-.76h0a.52.52,0,0,1,.71-.29h0a.6.6,0,0,1,.27.76h0a.54.54,0,0,1-.49.35h0A.46.46,0,0,1,22.63,234.88Zm212.7-2.15a.59.59,0,0,1,.35-.73h0a.52.52,0,0,1,.66.37h0a.6.6,0,0,1-.34.73h0a.48.48,0,0,1-.17,0h0A.55.55,0,0,1,235.32,232.73Zm91.33.1a.6.6,0,0,1-.27-.76h0a.51.51,0,0,1,.7-.3h0a.6.6,0,0,1,.27.76h0a.52.52,0,0,1-.49.35h0A.58.58,0,0,1,326.65,232.84ZM15.57,231.1h0a.6.6,0,0,1-.21-.78h0a.51.51,0,0,1,.73-.23h0a.6.6,0,0,1,.21.78h0a.54.54,0,0,1-.47.3h0A.48.48,0,0,1,15.57,231.1Zm227.21-.92a.59.59,0,0,1,.36-.72h0a.53.53,0,0,1,.66.39h0a.59.59,0,0,1-.36.71h0a.43.43,0,0,1-.16,0h0A.53.53,0,0,1,242.79,230.17Zm76.69-.68a.62.62,0,0,1-.29-.76h0a.53.53,0,0,1,.7-.31h0a.61.61,0,0,1,.29.76h0a.53.53,0,0,1-.5.35h0A.49.49,0,0,1,319.48,229.49Zm-69.17-1.67a.59.59,0,0,1,.38-.71h0a.53.53,0,0,1,.66.41h0a.58.58,0,0,1-.38.7h0a.33.33,0,0,1-.14,0h0A.54.54,0,0,1,250.31,227.82Zm61.94-1.51a.6.6,0,0,1-.32-.74h0a.52.52,0,0,1,.68-.35h0a.6.6,0,0,1,.32.74h0a.54.54,0,0,1-.5.39h0A.61.61,0,0,1,312.25,226.32Zm-54.36-.58a.6.6,0,0,1,.41-.7h0a.54.54,0,0,1,.64.44h0a.58.58,0,0,1-.4.69h0l-.12,0h0A.56.56,0,0,1,257.9,225.73Zm7.66-1.76a.58.58,0,0,1,.42-.68h0a.54.54,0,0,1,.62.47h0a.58.58,0,0,1-.42.67h-.1A.54.54,0,0,1,265.56,224Zm39.26,0a.59.59,0,0,1-.41-.69h0a.53.53,0,0,1,.64-.44h0a.59.59,0,0,1,.41.69h0a.54.54,0,0,1-.53.45h-.11Zm-31.53-1.36a.57.57,0,0,1,.46-.65h0a.54.54,0,0,1,.59.5h0a.57.57,0,0,1-.46.65h-.06A.54.54,0,0,1,273.28,222.62Zm23.88,0h0a.56.56,0,0,1-.47-.64h0a.56.56,0,0,1,.59-.51h0a.58.58,0,0,1,.47.64h0a.54.54,0,0,1-.54.51h-.06Zm-16.1-.84a.56.56,0,0,1,.5-.61h0a.55.55,0,0,1,.56.54h0a.56.56,0,0,1-.5.61h0A.55.55,0,0,1,281.06,221.75Zm8.34.33a.56.56,0,0,1-.53-.59h0a.56.56,0,0,1,.55-.57h0a.56.56,0,0,1,.52.59h0a.55.55,0,0,1-.53.57h0Z" transform="translate(-9.31 -193.89)"/><path class="cls-3" d="M417.32,280.66a.78.78,0,0,1-.45-1h0a.69.69,0,0,1,.9-.49h0a.78.78,0,0,1,.45,1h0a.72.72,0,0,1-.67.53h0A.59.59,0,0,1,417.32,280.66Zm-7.38-2.9a.81.81,0,0,1-.41-1h0a.7.7,0,0,1,.92-.44h0a.8.8,0,0,1,.41,1h0a.72.72,0,0,1-.66.49h0A.79.79,0,0,1,409.93,277.76Zm-7.22-3.37a.8.8,0,0,1-.35-1h0a.69.69,0,0,1,.95-.37h0a.8.8,0,0,1,.34,1h0a.72.72,0,0,1-.65.45h0A.62.62,0,0,1,402.72,274.38Zm-7-3.82a.79.79,0,0,1-.29-1h0a.68.68,0,0,1,1-.32h0a.81.81,0,0,1,.29,1.05h0a.71.71,0,0,1-.63.4h0A.7.7,0,0,1,395.69,270.57Zm-6.82-4.23h0a.82.82,0,0,1-.24-1.07h0a.69.69,0,0,1,1-.27h0a.81.81,0,0,1,.24,1.05h0a.71.71,0,0,1-.61.38h0A.65.65,0,0,1,388.87,266.34Zm-6.65-4.5a.81.81,0,0,1-.22-1.06h0a.68.68,0,0,1,1-.24h0a.82.82,0,0,1,.21,1.07h0a.69.69,0,0,1-.6.35h0A.65.65,0,0,1,382.23,261.84ZM147.76,260h0a.75.75,0,0,1-.7-.78h0a.73.73,0,0,1,.71-.76h0a.74.74,0,0,1,.71.77h0a.75.75,0,0,1-.71.77h0Zm7.12-.85a.75.75,0,0,1,.69-.79h0a.75.75,0,0,1,.74.75h0a.75.75,0,0,1-.69.79h0A.75.75,0,0,1,154.88,259.12Zm-15,.65a.76.76,0,0,1-.68-.8h0a.74.74,0,0,1,.74-.74h0a.74.74,0,0,1,.68.8h0a.74.74,0,0,1-.71.74h0Zm22.78-1a.76.76,0,0,1,.66-.83h0a.74.74,0,0,1,.77.71h0a.76.76,0,0,1-.66.83h-.06A.74.74,0,0,1,162.69,258.72Zm-30.61.57a.74.74,0,0,1-.66-.82h0a.73.73,0,0,1,.76-.71h0a.75.75,0,0,1,.66.82h0a.74.74,0,0,1-.7.72h-.05Zm38.4-1.37a.75.75,0,0,1,.62-.86h0a.73.73,0,0,1,.79.67h0a.77.77,0,0,1-.62.86h-.09A.73.73,0,0,1,170.48,257.93Zm-46.22.67a.76.76,0,0,1-.64-.84h0a.72.72,0,0,1,.78-.69h0a.75.75,0,0,1,.64.83h0a.74.74,0,0,1-.7.7h-.07Zm-7.8-.91a.77.77,0,0,1-.63-.86h0a.73.73,0,0,1,.79-.67h0a.76.76,0,0,1,.62.86h0a.73.73,0,0,1-.71.67h-.07Zm259.21-.49a.81.81,0,0,1-.2-1.08h0a.66.66,0,0,1,1-.22h0a.81.81,0,0,1,.21,1.07h0a.7.7,0,0,1-.6.35h0A.68.68,0,0,1,375.68,257.2Zm-197.46-.53a.77.77,0,0,1,.56-.9h0a.72.72,0,0,1,.83.62h0a.77.77,0,0,1-.56.9h-.14A.73.73,0,0,1,178.22,256.66Zm-69.53-.09a.77.77,0,0,1-.61-.88h0a.72.72,0,0,1,.8-.65h0a.76.76,0,0,1,.61.87h0a.73.73,0,0,1-.7.66h-.1Zm77.17-1.74a.78.78,0,0,1,.5-1h0a.7.7,0,0,1,.87.54h0a.79.79,0,0,1-.5,1h0a.61.61,0,0,1-.18,0h0A.72.72,0,0,1,185.86,254.84Zm-84.92.43a.77.77,0,0,1-.58-.89h0a.71.71,0,0,1,.81-.63h0a.77.77,0,0,1,.59.88h0a.74.74,0,0,1-.7.65h-.12Zm-7.72-1.49h0a.77.77,0,0,1-.57-.9h0a.72.72,0,0,1,.83-.61h0a.78.78,0,0,1,.57.9h0a.74.74,0,0,1-.7.63h0Zm100.13-1.42a.79.79,0,0,1,.44-1h0a.7.7,0,0,1,.9.48h0a.8.8,0,0,1-.44,1h0a.65.65,0,0,1-.23,0h0A.71.71,0,0,1,193.34,252.36Zm175.79.18h0a.83.83,0,0,1-.2-1.08h0a.67.67,0,0,1,1-.22h0a.82.82,0,0,1,.21,1.07h0a.7.7,0,0,1-.6.35h0A.71.71,0,0,1,369.13,252.55Zm-283.61-.42h0a.78.78,0,0,1-.54-.91h0a.71.71,0,0,1,.84-.6h0a.79.79,0,0,1,.55.91h0a.74.74,0,0,1-.7.62h0Zm-7.65-1.84h0a.77.77,0,0,1-.53-.92h0a.71.71,0,0,1,.85-.58h0a.79.79,0,0,1,.54.93h0a.72.72,0,0,1-.69.59h0A.41.41,0,0,1,77.87,250.28Zm122.85-.78a.79.79,0,0,1,.41-1h0a.69.69,0,0,1,.91.45h0a.79.79,0,0,1-.42,1h0a.71.71,0,0,1-.25,0h0A.7.7,0,0,1,200.71,249.5ZM70.25,248.28a.77.77,0,0,1-.52-.93h0a.7.7,0,0,1,.87-.56h0a.77.77,0,0,1,.51.94h0a.73.73,0,0,1-.68.58h0A.51.51,0,0,1,70.25,248.28Zm292.3-.28a.79.79,0,0,1-.23-1.05h0a.68.68,0,0,1,1-.26h0a.82.82,0,0,1,.23,1.06h0a.7.7,0,0,1-.61.37h0A.63.63,0,0,1,362.55,248ZM208,246.44a.79.79,0,0,1,.4-1h0a.69.69,0,0,1,.92.43h0a.81.81,0,0,1-.4,1h0a.61.61,0,0,1-.26.06h0A.72.72,0,0,1,208,246.44Zm-145.35-.35h0a.79.79,0,0,1-.49-1h0a.69.69,0,0,1,.88-.54h0a.79.79,0,0,1,.49,1h0a.71.71,0,0,1-.68.56h0Zm152.62-2.81a.79.79,0,0,1,.4-1h0a.69.69,0,0,1,.92.42h0a.79.79,0,0,1-.4,1h0a.6.6,0,0,1-.26.06h0A.71.71,0,0,1,215.28,243.27Zm-160.15.43a.77.77,0,0,1-.47-1h0a.71.71,0,0,1,.89-.51h0a.79.79,0,0,1,.47,1h0a.72.72,0,0,1-.67.55h0A.52.52,0,0,1,55.13,243.71Zm300.73-.07h0a.82.82,0,0,1-.26-1.06h0a.68.68,0,0,1,1-.28h0a.81.81,0,0,1,.26,1.06h0a.71.71,0,0,1-.62.38h0A.7.7,0,0,1,355.86,243.63ZM47.65,241.12h0a.78.78,0,0,1-.45-1h0a.7.7,0,0,1,.9-.49h0a.78.78,0,0,1,.45,1h0a.71.71,0,0,1-.67.53h0A.57.57,0,0,1,47.65,241.12Zm174.88-1.05a.79.79,0,0,1,.4-1h0a.69.69,0,0,1,.92.43h0a.79.79,0,0,1-.4,1h0a.6.6,0,0,1-.26.05h0A.71.71,0,0,1,222.53,240.07Zm126.55-.6a.81.81,0,0,1-.29-1h0a.68.68,0,0,1,1-.31h0a.81.81,0,0,1,.29,1h0a.7.7,0,0,1-.63.4h0A.7.7,0,0,1,349.08,239.47ZM40.24,238.31a.78.78,0,0,1-.42-1h0a.7.7,0,0,1,.91-.46h0a.8.8,0,0,1,.42,1h0a.72.72,0,0,1-.67.5h0A.54.54,0,0,1,40.24,238.31Zm189.55-1.41a.79.79,0,0,1,.4-1h0a.68.68,0,0,1,.92.43h0a.79.79,0,0,1-.4,1h0a.59.59,0,0,1-.26.05h0A.71.71,0,0,1,229.79,236.9Zm112.38-1.38a.82.82,0,0,1-.3-1h0a.68.68,0,0,1,1-.34h0a.81.81,0,0,1,.31,1h0a.71.71,0,0,1-.64.42h0A.81.81,0,0,1,342.17,235.53Zm-309.26-.29h0a.8.8,0,0,1-.39-1h0a.69.69,0,0,1,.92-.43h0a.8.8,0,0,1,.4,1h0a.72.72,0,0,1-.66.48h0A.68.68,0,0,1,32.92,235.24Zm204.17-1.44a.79.79,0,0,1,.41-1h0a.7.7,0,0,1,.91.44h0a.8.8,0,0,1-.42,1h0a.74.74,0,0,1-.25.05h0A.72.72,0,0,1,237.09,233.8Zm-211.38-2h0a.79.79,0,0,1-.35-1h0a.69.69,0,0,1,1-.37h0a.8.8,0,0,1,.34,1h0a.72.72,0,0,1-.65.45h0A.75.75,0,0,1,25.71,231.84Zm309.47,0a.81.81,0,0,1-.34-1h0a.69.69,0,0,1,.95-.37h0a.8.8,0,0,1,.33,1h0a.69.69,0,0,1-.64.44h0A.65.65,0,0,1,335.18,231.8Zm-90.76-1a.78.78,0,0,1,.42-1h0a.7.7,0,0,1,.91.46h0a.81.81,0,0,1-.43,1h0a.64.64,0,0,1-.24,0h0A.71.71,0,0,1,244.42,230.83Zm7.38-2.8a.79.79,0,0,1,.45-1h0a.7.7,0,0,1,.9.49h0a.79.79,0,0,1-.45,1h0a.59.59,0,0,1-.23,0h0A.73.73,0,0,1,251.81,228Zm76.28.25a.8.8,0,0,1-.36-1h0a.69.69,0,0,1,.93-.4h0a.81.81,0,0,1,.37,1h0a.71.71,0,0,1-.66.46h0A.6.6,0,0,1,328.08,228.27ZM18.67,228a.81.81,0,0,1-.29-1h0a.68.68,0,0,1,1-.31h0a.82.82,0,0,1,.29,1.05h0a.72.72,0,0,1-.63.4h0A.61.61,0,0,1,18.67,228Zm240.61-2.56a.78.78,0,0,1,.48-1h0a.7.7,0,0,1,.88.52h0a.78.78,0,0,1-.48,1h0a.46.46,0,0,1-.2,0h0A.71.71,0,0,1,259.27,225.44Zm61.64-.5h0a.79.79,0,0,1-.38-1h0a.68.68,0,0,1,.92-.42h0a.81.81,0,0,1,.39,1h0a.71.71,0,0,1-.66.47h0A.69.69,0,0,1,320.91,224.94Zm-54.11-1.78a.79.79,0,0,1,.52-.94h0a.71.71,0,0,1,.87.56h0a.78.78,0,0,1-.52.93h0a.54.54,0,0,1-.18,0h0A.73.73,0,0,1,266.8,223.16ZM313.66,222h0a.79.79,0,0,1-.49-1h0a.7.7,0,0,1,.89-.52h0a.79.79,0,0,1,.48,1h0a.73.73,0,0,1-.68.55h0A.64.64,0,0,1,313.66,222Zm-39.23-.79a.78.78,0,0,1,.55-.91h0a.71.71,0,0,1,.84.6h0a.78.78,0,0,1-.55.91h-.15A.72.72,0,0,1,274.43,221.23Zm7.71-1.48a.76.76,0,0,1,.61-.87h0a.73.73,0,0,1,.8.66h0a.78.78,0,0,1-.61.87h-.1A.73.73,0,0,1,282.13,219.76Zm24,.46a.77.77,0,0,1-.6-.88h0a.71.71,0,0,1,.81-.64h0a.75.75,0,0,1,.59.87h0a.73.73,0,0,1-.7.66h-.1Zm-16.22-1.37a.77.77,0,0,1,.67-.82h0a.74.74,0,0,1,.75.73h0a.75.75,0,0,1-.66.81h0A.74.74,0,0,1,289.9,218.85Zm8.51.6a.75.75,0,0,1-.69-.79h0a.75.75,0,0,1,.74-.75h0a.76.76,0,0,1,.69.8h0a.74.74,0,0,1-.71.74h0Z" transform="translate(-9.31 -193.89)"/><path class="cls-3" d="M416.41,279.48h0a1,1,0,0,1-.52-1.26h0a.88.88,0,0,1,1.14-.56h0a1,1,0,0,1,.52,1.26h0a.9.9,0,0,1-.83.62h0A.7.7,0,0,1,416.41,279.48Zm-7.26-3.28a1,1,0,0,1-.44-1.29h0a.87.87,0,0,1,1.18-.48h0a1,1,0,0,1,.44,1.29h0a.91.91,0,0,1-.81.56h0A.94.94,0,0,1,409.15,276.19Zm-7.05-3.81h0a1,1,0,0,1-.36-1.31h0a.85.85,0,0,1,1.2-.4h0a1,1,0,0,1,.37,1.32h0a.89.89,0,0,1-.78.5h0A.81.81,0,0,1,402.1,272.39Zm-6.8-4.29h0a1,1,0,0,1-.28-1.33h0a.83.83,0,0,1,1.22-.31h0a1,1,0,0,1,.29,1.33h0a.87.87,0,0,1-.76.46h0A.8.8,0,0,1,395.3,268.1Zm-6.57-4.68a1,1,0,0,1-.23-1.35h0a.84.84,0,0,1,1.24-.25h0a1,1,0,0,1,.23,1.35h0a.88.88,0,0,1-.74.42h0A.86.86,0,0,1,388.72,263.41Zm-231-1.39a.94.94,0,0,1-.89-1h0a.94.94,0,0,1,.89-1h0a.93.93,0,0,1,.89,1h0a.93.93,0,0,1-.89,1Zm-7.86-.18h0a.94.94,0,0,1-.85-1h0a.92.92,0,0,1,.92-.93h0a.94.94,0,0,1,.85,1h0a.93.93,0,0,1-.89.93h0Zm14.79-.93a1,1,0,0,1,.85-1h0a.91.91,0,0,1,.92.92h0a.92.92,0,0,1-.84,1h0A.93.93,0,0,1,164.7,260.91Zm-22.64.42h0a.94.94,0,0,1-.81-1h0a.92.92,0,0,1,1-.89h0a1,1,0,0,1,.82,1h0a.94.94,0,0,1-.9.89h-.06Zm30.45-1a1,1,0,0,1,.78-1.06h0a.91.91,0,0,1,1,.86h0a1,1,0,0,1-.79,1.07h-.09A.91.91,0,0,1,172.51,260.33Zm-38.26.21a.94.94,0,0,1-.78-1.06h0a.91.91,0,0,1,1-.85h0a1,1,0,0,1,.78,1.07h0a.92.92,0,0,1-.88.86h-.1Zm46-1.31a1,1,0,0,1,.72-1.13h0a.91.91,0,0,1,1,.78h0a1,1,0,0,1-.73,1.13h-.15A.91.91,0,0,1,180.26,259.24Zm-53.8.27a1,1,0,0,1-.77-1.09h0a.91.91,0,0,1,1-.83h0a1,1,0,0,1,.76,1.1h0a.92.92,0,0,1-.88.83h-.12Zm255.88-1h0a1,1,0,0,1-.19-1.35h0a.84.84,0,0,1,1.25-.21h0a1,1,0,0,1,.19,1.35h0a.87.87,0,0,1-.72.4h0A.81.81,0,0,1,382.34,258.47Zm-263.64-.23h0a1,1,0,0,1-.73-1.12h0a.9.9,0,0,1,1-.79h0a1,1,0,0,1,.74,1.11h0a.92.92,0,0,1-.88.81h-.14Zm69.23-.74a1,1,0,0,1,.63-1.19h0a.89.89,0,0,1,1.09.68h0a1,1,0,0,1-.64,1.19h0l-.22,0h0A.89.89,0,0,1,187.92,257.5Zm-77-.73a1,1,0,0,1-.71-1.13h0a.91.91,0,0,1,1-.78h0A1,1,0,0,1,112,256h0a.92.92,0,0,1-.88.79h0ZM195.41,255a1,1,0,0,1,.54-1.23h0a.87.87,0,0,1,1.13.59h0a1,1,0,0,1-.54,1.24h0a1,1,0,0,1-.29,0h0A.9.9,0,0,1,195.41,255Zm-92.15.07a1,1,0,0,1-.68-1.14h0a.9.9,0,0,1,1.05-.75h0a1,1,0,0,1,.69,1.15h0a.92.92,0,0,1-.87.76h0ZM376,253.44a1,1,0,0,1-.18-1.35h0a.84.84,0,0,1,1.24-.21h0a1,1,0,0,1,.19,1.36h0a.88.88,0,0,1-.72.39h0A.82.82,0,0,1,376,253.44Zm-280.43-.19h0a1,1,0,0,1-.66-1.16h0a.88.88,0,0,1,1.07-.72h0a1,1,0,0,1,.67,1.17h0a.92.92,0,0,1-.87.75h0Zm107.14-1.18a1,1,0,0,1,.5-1.27h0a.88.88,0,0,1,1.15.54h0a1,1,0,0,1-.5,1.26h0a.71.71,0,0,1-.32.07h0A.9.9,0,0,1,202.74,252.07ZM88,251.23a1,1,0,0,1-.65-1.18h0a.88.88,0,0,1,1.08-.69h0a1,1,0,0,1,.65,1.18h0a.91.91,0,0,1-.87.72h0A.56.56,0,0,1,88,251.23Zm122-2.4a1,1,0,0,1,.46-1.27h0a.86.86,0,0,1,1.17.5h0a1,1,0,0,1-.47,1.28h0a.84.84,0,0,1-.35.08h0A.88.88,0,0,1,210,248.83ZM80.41,249a1,1,0,0,1-.62-1.19h0a.88.88,0,0,1,1.09-.67h0a1,1,0,0,1,.62,1.19h0a.89.89,0,0,1-.85.7h0A1,1,0,0,1,80.41,249Zm289.32-.58a1,1,0,0,1-.21-1.35h0a.84.84,0,0,1,1.24-.23h0a1,1,0,0,1,.21,1.35h0a.87.87,0,0,1-.73.41h0A.83.83,0,0,1,369.72,248.47ZM72.87,246.7a1,1,0,0,1-.6-1.2h0a.88.88,0,0,1,1.11-.65h0A1,1,0,0,1,74,246h0a.91.91,0,0,1-.86.69h0A1,1,0,0,1,72.87,246.7Zm144.3-1.27a1,1,0,0,1,.45-1.28h0a.87.87,0,0,1,1.17.5h0a1,1,0,0,1-.45,1.28h0a.93.93,0,0,1-.36.08h0A.89.89,0,0,1,217.17,245.43Zm-151.8-1.25a1,1,0,0,1-.58-1.22h0a.88.88,0,0,1,1.12-.63h0a1,1,0,0,1,.58,1.22h0a.91.91,0,0,1-.85.67h0A.78.78,0,0,1,65.37,244.19Zm297.93-.52a1,1,0,0,1-.25-1.35h0a.84.84,0,0,1,1.23-.27h0a1,1,0,0,1,.25,1.35h0a.86.86,0,0,1-.74.43h0A.82.82,0,0,1,363.31,243.66Zm-139-1.69a1,1,0,0,1,.44-1.28h0a.86.86,0,0,1,1.17.48h0a1,1,0,0,1-.44,1.28h0a.8.8,0,0,1-.36.09h0A.9.9,0,0,1,224.32,242Zm-166.4-.48a1,1,0,0,1-.55-1.23h0a.88.88,0,0,1,1.13-.6h0a1,1,0,0,1,.55,1.23h0a.9.9,0,0,1-.84.65h0A.69.69,0,0,1,57.93,241.49Zm298.83-2.4a1,1,0,0,1-.3-1.34h0a.85.85,0,0,1,1.23-.31h0a1,1,0,0,1,.29,1.33h0a.87.87,0,0,1-.76.46h0A.86.86,0,0,1,356.76,239.09Zm-125.29-.59a1,1,0,0,1,.45-1.28h0a.86.86,0,0,1,1.17.49h0a1,1,0,0,1-.45,1.28h0a.78.78,0,0,1-.36.08h0A.88.88,0,0,1,231.46,238.5Zm-180.94.13A1,1,0,0,1,50,237.4h0a.87.87,0,0,1,1.14-.57h0a1,1,0,0,1,.53,1.24h0a.89.89,0,0,1-.83.63h0A.87.87,0,0,1,50.52,238.63Zm188.1-3.57a1,1,0,0,1,.47-1.27h0a.86.86,0,0,1,1.16.5h0a1,1,0,0,1-.46,1.28h0a.85.85,0,0,1-.35.08h0A.9.9,0,0,1,238.63,235.07Zm-195.43.51h0a1,1,0,0,1-.5-1.26h0a.86.86,0,0,1,1.15-.53h0a1,1,0,0,1,.5,1.26h0a.89.89,0,0,1-.83.61h0A.78.78,0,0,1,43.2,235.58Zm306.86-.78a1,1,0,0,1-.34-1.32h0a.85.85,0,0,1,1.21-.37h0a1,1,0,0,1,.34,1.32h0a.88.88,0,0,1-.78.49h0A.84.84,0,0,1,350.06,234.79ZM35.94,232.31h0a1,1,0,0,1-.47-1.28h0a.87.87,0,0,1,1.17-.5h0a1,1,0,0,1,.46,1.27h0a.87.87,0,0,1-.81.58h0A.84.84,0,0,1,35.94,232.31Zm209.88-.58a1,1,0,0,1,.48-1.27h0a.86.86,0,0,1,1.16.52h0a1,1,0,0,1-.48,1.27h0a.8.8,0,0,1-.34.07h0A.9.9,0,0,1,245.83,231.73Zm97.38-1h0a1,1,0,0,1-.39-1.31h0a.86.86,0,0,1,1.2-.41h0a1,1,0,0,1,.38,1.3h0a.87.87,0,0,1-.78.52h0A.84.84,0,0,1,343.21,230.78Zm-90.13-2.26a1,1,0,0,1,.51-1.25h0a.86.86,0,0,1,1.14.54h0a1,1,0,0,1-.5,1.26h0a.93.93,0,0,1-.32.07h0A.9.9,0,0,1,253.08,228.52Zm-224.3.26a1,1,0,0,1-.41-1.29h0a.85.85,0,0,1,1.18-.46h0a1,1,0,0,1,.42,1.3h0a.89.89,0,0,1-.8.55h0A.76.76,0,0,1,28.78,228.78ZM336.23,227a1,1,0,0,1-.42-1.29h0a.86.86,0,0,1,1.18-.46h0a1,1,0,0,1,.42,1.29h0a.89.89,0,0,1-.8.55h0A.84.84,0,0,1,336.23,227Zm-75.83-1.53a1,1,0,0,1,.54-1.24h0a.87.87,0,0,1,1.13.58h0a1,1,0,0,1-.54,1.24h0a.74.74,0,0,1-.29.06h0A.89.89,0,0,1,260.4,225.49Zm-238.64-.58h0a1,1,0,0,1-.36-1.32h0a.85.85,0,0,1,1.2-.39h0a1,1,0,0,1,.36,1.32h0a.87.87,0,0,1-.78.5h0A.83.83,0,0,1,21.76,224.91Zm307.38-1.39h0a1,1,0,0,1-.46-1.28h0a.86.86,0,0,1,1.16-.5h0a1,1,0,0,1,.45,1.28h0a.88.88,0,0,1-.81.58h0A.93.93,0,0,1,329.13,223.52Zm-61.33-.8a1,1,0,0,1,.57-1.22h0a.86.86,0,0,1,1.12.62h0a1,1,0,0,1-.57,1.22h0a.89.89,0,0,1-.27.05h0A.9.9,0,0,1,267.8,222.72Zm7.49-2.47a1,1,0,0,1,.62-1.19h0a.89.89,0,0,1,1.09.68h0a1,1,0,0,1-.62,1.19h0a1,1,0,0,1-.24,0h0A.89.89,0,0,1,275.29,220.25Zm46.67,0h0a1,1,0,0,1-.5-1.26h0a.88.88,0,0,1,1.15-.54h0a1,1,0,0,1,.5,1.26h0a.89.89,0,0,1-.82.61h0A.72.72,0,0,1,322,220.25Zm-39.08-2.06a1,1,0,0,1,.68-1.14h0a.9.9,0,0,1,1.06.74h0a1,1,0,0,1-.69,1.15h0a.58.58,0,0,1-.18,0h0A.91.91,0,0,1,282.88,218.19Zm31.74-.32a1,1,0,0,1-.69-1.15h0A.89.89,0,0,1,315,216h0a1,1,0,0,1,.69,1.15h0a.92.92,0,0,1-.87.76h0A.55.55,0,0,1,314.62,217.87Zm-24.05-1.23a1,1,0,0,1,.76-1.08h0a.9.9,0,0,1,1,.82h0a1,1,0,0,1-.76,1.09h-.13A.92.92,0,0,1,290.57,216.64Zm16.43.1a1,1,0,0,1-.83-1h0a.92.92,0,0,1,1-.9h0a.93.93,0,0,1,.82,1h0a.92.92,0,0,1-.89.89H307Zm-8.65-1a1,1,0,0,1,.85-1h0a.92.92,0,0,1,.92.92h0a.94.94,0,0,1-.84,1h0A.93.93,0,0,1,298.35,215.76Z" transform="translate(-9.31 -193.89)"/><path class="cls-3" d="M422.37,281.08h0a1.19,1.19,0,0,1-.64-1.49h0a1,1,0,0,1,1.37-.69h0a1.19,1.19,0,0,1,.64,1.49h0a1.08,1.08,0,0,1-1,.76h0A.92.92,0,0,1,422.37,281.08Zm-7.31-3.2a1.19,1.19,0,0,1-.54-1.53h0a1,1,0,0,1,1.4-.59h0a1.19,1.19,0,0,1,.54,1.53h0a1.07,1.07,0,0,1-1,.69h0A.93.93,0,0,1,415.06,277.87Zm-7.1-3.74a1.22,1.22,0,0,1-.45-1.57h0a1,1,0,0,1,1.45-.48h0a1.21,1.21,0,0,1,.44,1.57h0a1.07,1.07,0,0,1-.94.62h0A1,1,0,0,1,408,274.13Zm-6.84-4.28a1.22,1.22,0,0,1-.33-1.6h0a1,1,0,0,1,1.47-.37h0a1.23,1.23,0,0,1,.34,1.6h0a1.06,1.06,0,0,1-.91.54h0A1,1,0,0,1,401.13,269.85Zm-6.54-4.78a1.23,1.23,0,0,1-.24-1.62h0a1,1,0,0,1,1.49-.27h0a1.23,1.23,0,0,1,.25,1.62h0a1,1,0,0,1-.87.49h0A1,1,0,0,1,394.58,265.07Zm-228.05-1.95a1.13,1.13,0,0,1,1-1.19h0a1.11,1.11,0,0,1,1.09,1.14h0a1.12,1.12,0,0,1-1,1.19h0A1.11,1.11,0,0,1,166.53,263.12Zm-6.79,1.07a1.11,1.11,0,0,1-1-1.19h0a1.1,1.1,0,0,1,1.1-1.13h0a1.11,1.11,0,0,1,1,1.2h0a1.11,1.11,0,0,1-1.06,1.12h0Zm14.61-1.43a1.14,1.14,0,0,1,1-1.26h0a1.1,1.1,0,0,1,1.14,1.07h0a1.13,1.13,0,0,1-1,1.25h-.09A1.1,1.1,0,0,1,174.35,262.77Zm-22.46,1a1.13,1.13,0,0,1-1-1.25h0a1.09,1.09,0,0,1,1.14-1.06h0a1.13,1.13,0,0,1,1,1.25h0a1.11,1.11,0,0,1-1.06,1.06h-.08ZM144,262.9h0a1.14,1.14,0,0,1-.93-1.29h0a1.08,1.08,0,0,1,1.18-1h0a1.14,1.14,0,0,1,.93,1.29h0a1.1,1.1,0,0,1-1.06,1H144Zm38.08-1.06a1.14,1.14,0,0,1,.88-1.33h0a1.09,1.09,0,0,1,1.23,1h0a1.15,1.15,0,0,1-.89,1.33h-.17A1.09,1.09,0,0,1,182.13,261.84Zm-45.87-.06a1.15,1.15,0,0,1-.9-1.32h0a1.09,1.09,0,0,1,1.22-1h0a1.15,1.15,0,0,1,.9,1.32h0a1.11,1.11,0,0,1-1.05,1h0Zm53.54-1.56a1.17,1.17,0,0,1,.77-1.42h0a1.06,1.06,0,0,1,1.3.83h0a1.18,1.18,0,0,1-.77,1.42h0a1.19,1.19,0,0,1-.27,0h0A1.09,1.09,0,0,1,189.8,260.22Zm-61.29.17a1.16,1.16,0,0,1-.87-1.35h0a1.08,1.08,0,0,1,1.24-.94h0a1.17,1.17,0,0,1,.87,1.36h0a1.11,1.11,0,0,1-1.05,1h0Zm259.81-.47a1.22,1.22,0,0,1-.18-1.63h0a1,1,0,0,1,1.5-.19h0a1.23,1.23,0,0,1,.17,1.63h0a1,1,0,0,1-.84.44h0A1,1,0,0,1,388.32,259.92Zm-267.53-1.15a1.16,1.16,0,0,1-.83-1.38h0a1.07,1.07,0,0,1,1.26-.89h0a1.15,1.15,0,0,1,.82,1.37h0a1.08,1.08,0,0,1-1,.92h0A.85.85,0,0,1,120.79,258.76Zm76.5-1a1.19,1.19,0,0,1,.65-1.49h0a1,1,0,0,1,1.37.69h0a1.2,1.2,0,0,1-.65,1.49h0a.9.9,0,0,1-.36.07h0A1.07,1.07,0,0,1,197.29,257.77Zm-84.18-.84h0a1.17,1.17,0,0,1-.79-1.4h0a1.06,1.06,0,0,1,1.28-.86h0a1.15,1.15,0,0,1,.79,1.39h0a1.08,1.08,0,0,1-1,.9h0Zm91.49-2.22a1.2,1.2,0,0,1,.56-1.52h0a1,1,0,0,1,1.4.62h0a1.2,1.2,0,0,1-.57,1.52h0a1,1,0,0,1-.42.09h0A1.06,1.06,0,0,1,204.6,254.71Zm-99.11.18h0a1.15,1.15,0,0,1-.77-1.41h0a1,1,0,0,1,1.29-.83h0a1.16,1.16,0,0,1,.77,1.41h0a1.08,1.08,0,0,1-1,.87h0A.79.79,0,0,1,105.49,254.89Zm276.73-.32h0a1.25,1.25,0,0,1-.15-1.64h0a1,1,0,0,1,1.5-.16h0a1.23,1.23,0,0,1,.15,1.63h0a1,1,0,0,1-.83.43h0A1,1,0,0,1,382.22,254.56Zm-284.3-1.89a1.17,1.17,0,0,1-.75-1.43h0a1.05,1.05,0,0,1,1.32-.8h0a1.18,1.18,0,0,1,.74,1.43h0a1.09,1.09,0,0,1-1,.85h0A.89.89,0,0,1,97.91,252.68Zm113.87-1.37a1.2,1.2,0,0,1,.53-1.54h0a1,1,0,0,1,1.41.57h0a1.21,1.21,0,0,1-.53,1.54h0a1,1,0,0,1-.44.1h0A1.06,1.06,0,0,1,211.78,251.31Zm-121.41-1h0a1.18,1.18,0,0,1-.72-1.45h0a1.06,1.06,0,0,1,1.33-.78h0a1.18,1.18,0,0,1,.71,1.45h0a1.09,1.09,0,0,1-1,.83h0A1.18,1.18,0,0,1,90.37,250.3Zm285.8-1.11a1.25,1.25,0,0,1-.16-1.64h0a1,1,0,0,1,1.51-.17h0a1.25,1.25,0,0,1,.16,1.64h0a1,1,0,0,1-.83.43h0A1.06,1.06,0,0,1,376.17,249.19Zm-157.3-1.48a1.21,1.21,0,0,1,.5-1.55h0a1,1,0,0,1,1.42.54h0a1.22,1.22,0,0,1-.5,1.56h0a1.09,1.09,0,0,1-.46.11h0A1,1,0,0,1,218.88,247.71Zm-136,.05a1.17,1.17,0,0,1-.69-1.46h0a1.05,1.05,0,0,1,1.34-.75h0a1.19,1.19,0,0,1,.69,1.47h0a1.08,1.08,0,0,1-1,.8h0A.88.88,0,0,1,82.89,247.76Zm-7.46-2.68a1.19,1.19,0,0,1-.66-1.48h0a1,1,0,0,1,1.35-.72h0a1.18,1.18,0,0,1,.66,1.48h0a1.07,1.07,0,0,1-1,.78h0A1.07,1.07,0,0,1,75.43,245.08ZM225.93,244a1.22,1.22,0,0,1,.49-1.56h0a1,1,0,0,1,1.43.53h0a1.22,1.22,0,0,1-.5,1.56h0a1,1,0,0,1-.46.12h0A1.06,1.06,0,0,1,225.93,244Zm144.15-.08a1.23,1.23,0,0,1-.2-1.63h0a1,1,0,0,1,1.5-.22h0a1.25,1.25,0,0,1,.2,1.64h0a1.07,1.07,0,0,1-.85.45h0A1,1,0,0,1,370.07,243.94Zm-302-1.7a1.18,1.18,0,0,1-.65-1.49h0a1,1,0,0,1,1.37-.69h0a1.2,1.2,0,0,1,.65,1.49h0a1.08,1.08,0,0,1-1,.76h0A.89.89,0,0,1,68,242.24Zm164.92-2a1.22,1.22,0,0,1,.49-1.56h0a1,1,0,0,1,1.43.53h0a1.21,1.21,0,0,1-.5,1.56h0a1,1,0,0,1-.46.11h0A1.07,1.07,0,0,1,233,240.28Zm-172.27-1a1.18,1.18,0,0,1-.62-1.5h0a1,1,0,0,1,1.38-.66h0a1.19,1.19,0,0,1,.61,1.5h0a1.07,1.07,0,0,1-1,.74h0A.82.82,0,0,1,60.69,239.25Zm303.13-.34h0a1.23,1.23,0,0,1-.26-1.62h0A1,1,0,0,1,365,237h0a1.22,1.22,0,0,1,.26,1.62h0a1,1,0,0,1-.88.49h0A.94.94,0,0,1,363.82,238.91ZM240,236.55a1.21,1.21,0,0,1,.5-1.56h0a1,1,0,0,1,1.42.54h0a1.19,1.19,0,0,1-.5,1.55h0a1,1,0,0,1-.46.12h0A1.06,1.06,0,0,1,240,236.55Zm-186.62-.43h0a1.19,1.19,0,0,1-.59-1.51h0a1,1,0,0,1,1.38-.64h0a1.19,1.19,0,0,1,.59,1.52h0a1.06,1.06,0,0,1-1,.72h0A1,1,0,0,1,53.39,236.12Zm304-1.92a1.22,1.22,0,0,1-.32-1.61h0a1,1,0,0,1,1.47-.35h0a1.22,1.22,0,0,1,.32,1.61h0a1,1,0,0,1-.89.53h0A1,1,0,0,1,357.37,234.2Zm-110.31-1.33a1.21,1.21,0,0,1,.52-1.55h0a1,1,0,0,1,1.41.56h0a1.21,1.21,0,0,1-.51,1.55h0a1.07,1.07,0,0,1-.45.11h0A1.07,1.07,0,0,1,247.06,232.88Zm-200.92,0h0a1.2,1.2,0,0,1-.56-1.53h0a1,1,0,0,1,1.4-.61h0a1.2,1.2,0,0,1,.55,1.53h0a1.05,1.05,0,0,1-1,.7h0A1,1,0,0,1,46.14,232.84Zm208-3.53a1.21,1.21,0,0,1,.54-1.54h0a1,1,0,0,1,1.41.58h0a1.21,1.21,0,0,1-.54,1.54h0a1,1,0,0,1-.43.1h0A1.06,1.06,0,0,1,254.17,229.31Zm96.57.5a1.21,1.21,0,0,1-.4-1.58h0a1,1,0,0,1,1.46-.43h0a1.24,1.24,0,0,1,.4,1.59h0a1.07,1.07,0,0,1-.93.58h0A1,1,0,0,1,350.74,229.81ZM39,229.37a1.21,1.21,0,0,1-.54-1.54h0a1,1,0,0,1,1.42-.57h0a1.21,1.21,0,0,1,.53,1.54h0a1.08,1.08,0,0,1-1,.68h0A1,1,0,0,1,39,229.37Zm222.38-3.49a1.19,1.19,0,0,1,.57-1.52h0a1,1,0,0,1,1.39.61h0a1.2,1.2,0,0,1-.56,1.53h0a1,1,0,0,1-.42.09h0A1.08,1.08,0,0,1,261.34,225.88Zm82.58-.11h0a1.22,1.22,0,0,1-.45-1.57h0a1,1,0,0,1,1.44-.5h0a1.22,1.22,0,0,1,.45,1.57h0a1.06,1.06,0,0,1-1,.63h0A1.08,1.08,0,0,1,343.92,225.77Zm-312.06-.06a1.21,1.21,0,0,1-.49-1.55h0a1,1,0,0,1,1.43-.53h0a1.22,1.22,0,0,1,.49,1.56h0a1.07,1.07,0,0,1-1,.64h0A1,1,0,0,1,31.85,225.71Zm236.73-3a1.21,1.21,0,0,1,.62-1.51h0a1,1,0,0,1,1.37.67h0a1.2,1.2,0,0,1-.61,1.5h0a1.06,1.06,0,0,1-.38.08h0A1.1,1.1,0,0,1,268.58,222.67ZM337,222h0a1.19,1.19,0,0,1-.52-1.54h0a1,1,0,0,1,1.42-.56h0a1.2,1.2,0,0,1,.51,1.55h0a1,1,0,0,1-1,.66h0A.91.91,0,0,1,337,222Zm-312.1-.21a1.22,1.22,0,0,1-.44-1.57h0a1,1,0,0,1,1.45-.48h0a1.21,1.21,0,0,1,.43,1.57h0a1.07,1.07,0,0,1-.94.62h0A1,1,0,0,1,24.85,221.82Zm251.08-2.11a1.19,1.19,0,0,1,.66-1.48h0A1,1,0,0,1,278,219h0a1.2,1.2,0,0,1-.66,1.48h0a1.07,1.07,0,0,1-.35.06h0A1.07,1.07,0,0,1,275.93,219.72Zm53.91-1.1a1.2,1.2,0,0,1-.56-1.53h0a1,1,0,0,1,1.39-.61h0a1.19,1.19,0,0,1,.56,1.52h0a1.06,1.06,0,0,1-1,.71h0A1,1,0,0,1,329.84,218.61Zm-46.47-1.51a1.18,1.18,0,0,1,.73-1.44h0a1,1,0,0,1,1.31.79h0a1.18,1.18,0,0,1-.73,1.44h0a1,1,0,0,1-.3.05h0A1.11,1.11,0,0,1,283.38,217.1Zm7.57-2.17a1.16,1.16,0,0,1,.81-1.38h0a1.07,1.07,0,0,1,1.27.88h0a1.18,1.18,0,0,1-.81,1.39h0l-.23,0h0A1.1,1.1,0,0,1,290.94,214.93Zm31.71.71a1.18,1.18,0,0,1-.73-1.45h0a1.06,1.06,0,0,1,1.33-.78h0a1.18,1.18,0,0,1,.72,1.44h0a1.08,1.08,0,0,1-1,.83h0A1,1,0,0,1,322.66,215.65Zm-24-2.29a1.15,1.15,0,0,1,.91-1.31h0a1.09,1.09,0,0,1,1.2,1h0a1.16,1.16,0,0,1-.91,1.31h-.15A1.1,1.1,0,0,1,298.63,213.36Zm16.54.67a1.15,1.15,0,0,1-.94-1.29h0a1.09,1.09,0,0,1,1.18-1h0a1.14,1.14,0,0,1,.94,1.29h0a1.1,1.1,0,0,1-1.06,1h-.12Zm-8.76-1.48a1.13,1.13,0,0,1,1-1.2h0a1.11,1.11,0,0,1,1.09,1.14h0a1.11,1.11,0,0,1-1,1.19h0A1.11,1.11,0,0,1,306.41,212.55Z" transform="translate(-9.31 -193.89)"/><path class="cls-3" d="M420.46,279.39a1.38,1.38,0,0,1-.66-1.77h0a1.21,1.21,0,0,1,1.63-.72h0a1.42,1.42,0,0,1,.66,1.79h0a1.24,1.24,0,0,1-1.14.81h0A1.06,1.06,0,0,1,420.46,279.39Zm-7.15-3.66h0a1.41,1.41,0,0,1-.54-1.82h0a1.2,1.2,0,0,1,1.68-.58h0a1.42,1.42,0,0,1,.54,1.83h0a1.23,1.23,0,0,1-1.11.72h0A1.09,1.09,0,0,1,413.31,275.73Zm-6.87-4.24h0a1.42,1.42,0,0,1-.41-1.86h0a1.19,1.19,0,0,1,1.72-.44h0a1.43,1.43,0,0,1,.4,1.87h0a1.21,1.21,0,0,1-1.06.63h0A1.12,1.12,0,0,1,406.44,271.49Zm-6.55-4.8h0a1.44,1.44,0,0,1-.27-1.9h0a1.17,1.17,0,0,1,1.73-.29h0a1.43,1.43,0,0,1,.28,1.89h0a1.24,1.24,0,0,1-1,.56h0A1.19,1.19,0,0,1,399.88,266.69Zm-230.49,0a1.3,1.3,0,0,1-1.23-1.37h0a1.3,1.3,0,0,1,1.26-1.35h0a1.31,1.31,0,0,1,1.23,1.37h0a1.3,1.3,0,0,1-1.25,1.35h0Zm6.59-1.48a1.33,1.33,0,0,1,1.17-1.44h0a1.28,1.28,0,0,1,1.31,1.28h0a1.31,1.31,0,0,1-1.16,1.43h-.08A1.3,1.3,0,0,1,176,265.22Zm-14.47,1.15h0a1.32,1.32,0,0,1-1.15-1.44h0a1.28,1.28,0,0,1,1.32-1.27h0a1.32,1.32,0,0,1,1.16,1.45h0a1.29,1.29,0,0,1-1.25,1.26h-.07Zm22.26-1.88a1.35,1.35,0,0,1,1.06-1.54h0a1.27,1.27,0,0,1,1.4,1.15h0a1.33,1.33,0,0,1-1.05,1.53h0l-.18,0h0A1.3,1.3,0,0,1,183.77,264.49Zm-30.11,1.11a1.33,1.33,0,0,1-1.1-1.5h0a1.28,1.28,0,0,1,1.38-1.2h0a1.34,1.34,0,0,1,1.1,1.51h0a1.29,1.29,0,0,1-1.24,1.2h-.14Zm-7.81-1.15a1.35,1.35,0,0,1-1-1.55h0a1.26,1.26,0,0,1,1.41-1.14h0a1.35,1.35,0,0,1,1,1.55h0a1.28,1.28,0,0,1-1.23,1.15h-.19ZM191.48,263a1.37,1.37,0,0,1,.9-1.65h0a1.24,1.24,0,0,1,1.5,1h0A1.37,1.37,0,0,1,193,264h0a1.56,1.56,0,0,1-.3,0h0A1.27,1.27,0,0,1,191.48,263Zm-53.38,0a1.35,1.35,0,0,1-1-1.59h0a1.24,1.24,0,0,1,1.46-1.06h0a1.34,1.34,0,0,1,1,1.58h0a1.28,1.28,0,0,1-1.23,1.11h0A.89.89,0,0,1,138.1,263Zm255.57-1.57a1.43,1.43,0,0,1-.17-1.91h0a1.17,1.17,0,0,1,1.75-.17h0a1.43,1.43,0,0,1,.16,1.9h0a1.17,1.17,0,0,1-1,.49h0A1.16,1.16,0,0,1,393.66,261.41ZM199,260.58a1.39,1.39,0,0,1,.73-1.75h0a1.22,1.22,0,0,1,1.6.8h0a1.4,1.4,0,0,1-.73,1.75h0a1.32,1.32,0,0,1-.43.08h0A1.25,1.25,0,0,1,199,260.58Zm-68.58.64a1.35,1.35,0,0,1-.94-1.62h0a1.25,1.25,0,0,1,1.49-1h0a1.36,1.36,0,0,1,.94,1.62h0a1.28,1.28,0,0,1-1.22,1.06h0A.79.79,0,0,1,130.4,261.22Zm-7.65-2h0a1.36,1.36,0,0,1-.9-1.65h0a1.23,1.23,0,0,1,1.51-1h0a1.38,1.38,0,0,1,.9,1.65h0a1.26,1.26,0,0,1-1.21,1h0A1.05,1.05,0,0,1,122.75,259.24Zm83.5-1.8a1.4,1.4,0,0,1,.64-1.78h0a1.2,1.2,0,0,1,1.64.69h0a1.4,1.4,0,0,1-.64,1.78h0a1.17,1.17,0,0,1-.51.12h0A1.23,1.23,0,0,1,206.25,257.44Zm-91.1-.41a1.37,1.37,0,0,1-.87-1.67h0a1.22,1.22,0,0,1,1.53-.93h0a1.37,1.37,0,0,1,.87,1.67h0a1.27,1.27,0,0,1-1.2,1h0A1,1,0,0,1,115.15,257Zm272.56-1.22h0a1.44,1.44,0,0,1-.1-1.92h0a1.18,1.18,0,0,1,1.76-.1h0a1.44,1.44,0,0,1,.09,1.91h0a1.19,1.19,0,0,1-.92.45h0A1.15,1.15,0,0,1,387.72,255.81ZM107.6,254.62a1.38,1.38,0,0,1-.82-1.69h0a1.23,1.23,0,0,1,1.55-.9h0a1.39,1.39,0,0,1,.83,1.7h0a1.27,1.27,0,0,1-1.19,1h0A1.18,1.18,0,0,1,107.6,254.62Zm105.76-.72a1.41,1.41,0,0,1,.58-1.81h0a1.19,1.19,0,0,1,1.66.62h0a1.42,1.42,0,0,1-.57,1.82h0a1.18,1.18,0,0,1-.54.13h0A1.25,1.25,0,0,1,213.37,253.9Zm-113.25-1.85h0a1.38,1.38,0,0,1-.79-1.71h0a1.21,1.21,0,0,1,1.57-.86h0a1.38,1.38,0,0,1,.79,1.71h0a1.25,1.25,0,0,1-1.18.93h0A1.31,1.31,0,0,1,100.12,252.05Zm120.27-1.93a1.4,1.4,0,0,1,.55-1.82h0a1.19,1.19,0,0,1,1.67.58h0a1.42,1.42,0,0,1-.54,1.83h0a1.19,1.19,0,0,1-.57.15h0A1.24,1.24,0,0,1,220.39,250.12Zm161.53,0a1.43,1.43,0,0,1-.07-1.91h0a1.17,1.17,0,0,1,1.75-.09h0a1.45,1.45,0,0,1,.08,1.92h0a1.21,1.21,0,0,1-.92.44h0A1.19,1.19,0,0,1,381.92,250.07Zm-289.23-.75a1.38,1.38,0,0,1-.77-1.73h0a1.23,1.23,0,0,1,1.59-.83h0a1.4,1.4,0,0,1,.77,1.73h0a1.27,1.27,0,0,1-1.18.91h0A1.22,1.22,0,0,1,92.69,249.32Zm134.66-3.1a1.41,1.41,0,0,1,.53-1.83h0a1.2,1.2,0,0,1,1.68.56h0a1.42,1.42,0,0,1-.53,1.83h0a1.11,1.11,0,0,1-.58.16h0A1.23,1.23,0,0,1,227.35,246.22Zm-142.05.22h0a1.4,1.4,0,0,1-.74-1.74h0a1.22,1.22,0,0,1,1.6-.8h0a1.39,1.39,0,0,1,.73,1.74h0a1.24,1.24,0,0,1-1.16.88h0A1.1,1.1,0,0,1,85.3,246.44Zm290.84-2a1.43,1.43,0,0,1-.11-1.91h0a1.18,1.18,0,0,1,1.76-.12h0a1.44,1.44,0,0,1,.12,1.91h0a1.22,1.22,0,0,1-.94.46h0A1.16,1.16,0,0,1,376.14,244.4ZM78,243.41a1.39,1.39,0,0,1-.71-1.75h0a1.21,1.21,0,0,1,1.61-.77h0a1.39,1.39,0,0,1,.71,1.75h0a1.26,1.26,0,0,1-1.16.87h0A1,1,0,0,1,78,243.41Zm156.31-1.18a1.41,1.41,0,0,1,.52-1.83h0a1.2,1.2,0,0,1,1.69.55h0a1.44,1.44,0,0,1-.52,1.84h0a1.22,1.22,0,0,1-.58.15h0A1.24,1.24,0,0,1,234.27,242.24Zm-163.61-2A1.41,1.41,0,0,1,70,238.5h0a1.21,1.21,0,0,1,1.62-.74h0a1.39,1.39,0,0,1,.68,1.76h0a1.24,1.24,0,0,1-1.15.84h0A1.31,1.31,0,0,1,70.66,240.27Zm299.56-1.35A1.45,1.45,0,0,1,370,237h0a1.18,1.18,0,0,1,1.75-.19h0a1.44,1.44,0,0,1,.17,1.91h0a1.2,1.2,0,0,1-1,.49h0A1.22,1.22,0,0,1,370.22,238.92Zm-129-.67a1.42,1.42,0,0,1,.52-1.84h0a1.21,1.21,0,0,1,1.69.57h0a1.42,1.42,0,0,1-.53,1.83h0a1.21,1.21,0,0,1-.58.15h0A1.24,1.24,0,0,1,241.19,238.25ZM63.42,237h0a1.4,1.4,0,0,1-.66-1.78h0a1.21,1.21,0,0,1,1.62-.71h0a1.4,1.4,0,0,1,.67,1.78h0a1.26,1.26,0,0,1-1.14.82h0A1.06,1.06,0,0,1,63.42,237Zm184.71-2.7a1.41,1.41,0,0,1,.53-1.82h0a1.19,1.19,0,0,1,1.68.57h0a1.42,1.42,0,0,1-.54,1.83h0a1.19,1.19,0,0,1-.57.15h0A1.22,1.22,0,0,1,248.12,234.28Zm116-.53a1.43,1.43,0,0,1-.27-1.89h0a1.19,1.19,0,0,1,1.74-.29h0a1.43,1.43,0,0,1,.26,1.89h0a1.2,1.2,0,0,1-1,.55h0A1.15,1.15,0,0,1,364.1,233.75Zm-307.88-.16a1.41,1.41,0,0,1-.64-1.79h0a1.21,1.21,0,0,1,1.64-.69h0a1.41,1.41,0,0,1,.64,1.79h0a1.25,1.25,0,0,1-1.14.81h0A1.14,1.14,0,0,1,56.22,233.59Zm198.87-3.19a1.41,1.41,0,0,1,.55-1.82h0a1.2,1.2,0,0,1,1.67.6h0a1.42,1.42,0,0,1-.55,1.82h0a1.15,1.15,0,0,1-.55.15h0A1.24,1.24,0,0,1,255.09,230.39Zm-206-.32a1.41,1.41,0,0,1-.61-1.8h0a1.21,1.21,0,0,1,1.65-.66h0a1.4,1.4,0,0,1,.61,1.8h0a1.24,1.24,0,0,1-1.13.78h0A1.22,1.22,0,0,1,49.07,230.07Zm308.67-1.12h0a1.44,1.44,0,0,1-.36-1.88h0a1.18,1.18,0,0,1,1.73-.39h0a1.43,1.43,0,0,1,.36,1.87h0a1.21,1.21,0,0,1-1,.61h0A1.18,1.18,0,0,1,357.73,228.95Zm-95.62-2.33a1.39,1.39,0,0,1,.58-1.8h0a1.2,1.2,0,0,1,1.66.63h0a1.41,1.41,0,0,1-.58,1.81h0a1.12,1.12,0,0,1-.54.13h0A1.23,1.23,0,0,1,262.11,226.62ZM42,226.43a1.41,1.41,0,0,1-.58-1.81h0A1.2,1.2,0,0,1,43,224h0a1.41,1.41,0,0,1,.58,1.81h0a1.25,1.25,0,0,1-1.13.76h0A1.17,1.17,0,0,1,42,226.43Zm309.17-1.88h0a1.41,1.41,0,0,1-.45-1.85h0a1.18,1.18,0,0,1,1.7-.49h0a1.44,1.44,0,0,1,.45,1.86h0a1.23,1.23,0,0,1-1.08.67h0A1.19,1.19,0,0,1,351.14,224.55ZM269.2,223a1.41,1.41,0,0,1,.63-1.79h0a1.2,1.2,0,0,1,1.64.68h0a1.4,1.4,0,0,1-.63,1.79h0a1.14,1.14,0,0,1-.51.12h0A1.25,1.25,0,0,1,269.2,223Zm-234.27-.36a1.4,1.4,0,0,1-.55-1.82h0a1.19,1.19,0,0,1,1.67-.59h0a1.42,1.42,0,0,1,.55,1.82h0a1.25,1.25,0,0,1-1.12.74h0A1.13,1.13,0,0,1,34.93,222.65Zm309.4-2.11a1.4,1.4,0,0,1-.54-1.82h0a1.19,1.19,0,0,1,1.67-.59h0a1.41,1.41,0,0,1,.54,1.82h0a1.24,1.24,0,0,1-1.11.74h0A1.16,1.16,0,0,1,344.32,220.54Zm-67.94-.92a1.4,1.4,0,0,1,.68-1.77h0a1.21,1.21,0,0,1,1.62.74h0a1.41,1.41,0,0,1-.68,1.77h0a1.32,1.32,0,0,1-.47.1h0A1.25,1.25,0,0,1,276.38,219.62Zm-248.44-.88h0a1.42,1.42,0,0,1-.52-1.84h0a1.19,1.19,0,0,1,1.68-.56h0a1.41,1.41,0,0,1,.52,1.83h0a1.23,1.23,0,0,1-1.1.72h0A1.13,1.13,0,0,1,27.94,218.73Zm255.73-2.23a1.39,1.39,0,0,1,.75-1.73h0a1.23,1.23,0,0,1,1.6.81h0a1.4,1.4,0,0,1-.76,1.74h0a1.21,1.21,0,0,1-.41.08h0A1.25,1.25,0,0,1,283.67,216.5Zm53.66.39h0a1.4,1.4,0,0,1-.62-1.79h0a1.21,1.21,0,0,1,1.64-.68h0a1.42,1.42,0,0,1,.63,1.8h0a1.26,1.26,0,0,1-1.13.79h0A1.19,1.19,0,0,1,337.33,216.89Zm-46.25-3.12a1.37,1.37,0,0,1,.84-1.68h0a1.22,1.22,0,0,1,1.54.91h0a1.36,1.36,0,0,1-.83,1.68h0a1.12,1.12,0,0,1-.36.06h0A1.26,1.26,0,0,1,291.08,213.77Zm39.11-.18h0a1.39,1.39,0,0,1-.69-1.76h0a1.22,1.22,0,0,1,1.62-.76h0a1.4,1.4,0,0,1,.69,1.77h0a1.26,1.26,0,0,1-1.15.85h0A1.24,1.24,0,0,1,330.2,213.59Zm-31.56-2a1.36,1.36,0,0,1,1-1.62h0a1.24,1.24,0,0,1,1.48,1h0a1.36,1.36,0,0,1-.94,1.62h0a1.3,1.3,0,0,1-.28,0h0A1.27,1.27,0,0,1,298.63,211.54Zm24.29-.17a1.35,1.35,0,0,1-1-1.57h0a1.27,1.27,0,0,1,1.44-1.11h0a1.35,1.35,0,0,1,1,1.58h0a1.27,1.27,0,0,1-1.23,1.12h0A.81.81,0,0,1,322.92,211.37Zm-16.6-1.4a1.33,1.33,0,0,1,1.08-1.51h0a1.26,1.26,0,0,1,1.38,1.18h0a1.34,1.34,0,0,1-1.09,1.51h-.15A1.28,1.28,0,0,1,306.32,210Zm9,.68a1.3,1.3,0,0,1-1.24-1.37h0a1.3,1.3,0,0,1,1.25-1.35h0a1.32,1.32,0,0,1,1.24,1.37h0a1.31,1.31,0,0,1-1.25,1.35h0Z" transform="translate(-9.31 -193.89)"/><path class="cls-3" d="M425.35,280.73a1.61,1.61,0,0,1-.77-2h0a1.38,1.38,0,0,1,1.85-.83h0a1.6,1.6,0,0,1,.78,2h0a1.42,1.42,0,0,1-1.32,1h0A1.34,1.34,0,0,1,425.35,280.73Zm-7.19-3.59h0a1.62,1.62,0,0,1-.64-2.08h0a1.37,1.37,0,0,1,1.91-.68h0a1.62,1.62,0,0,1,.64,2.08h0a1.43,1.43,0,0,1-1.27.85h0A1.32,1.32,0,0,1,418.17,277.15ZM411.23,273h0a1.62,1.62,0,0,1-.47-2.13h0a1.35,1.35,0,0,1,1.95-.51h0a1.62,1.62,0,0,1,.48,2.12h0a1.4,1.4,0,0,1-1.22.74h0A1.35,1.35,0,0,1,411.23,273ZM177.4,267.67a1.5,1.5,0,0,1,1.38-1.6h0a1.47,1.47,0,0,1,1.47,1.5h0a1.5,1.5,0,0,1-1.37,1.6h0A1.49,1.49,0,0,1,177.4,267.67Zm-6.46,1.46a1.49,1.49,0,0,1-1.36-1.61h0a1.48,1.48,0,0,1,1.48-1.49h0a1.5,1.5,0,0,1,1.37,1.61h0a1.49,1.49,0,0,1-1.42,1.49h-.06Zm-7.88-.61h0a1.53,1.53,0,0,1-1.26-1.7h0a1.45,1.45,0,0,1,1.56-1.39h0a1.52,1.52,0,0,1,1.26,1.7h0a1.47,1.47,0,0,1-1.41,1.39h-.14Zm22.15-1.36a1.52,1.52,0,0,1,1.24-1.73h0a1.45,1.45,0,0,1,1.59,1.35h0a1.54,1.54,0,0,1-1.24,1.73h-.18A1.47,1.47,0,0,1,185.21,267.16Zm219.43,1a1.62,1.62,0,0,1-.3-2.16h0a1.35,1.35,0,0,1,2-.34h0a1.65,1.65,0,0,1,.3,2.17h0a1.39,1.39,0,0,1-1.14.63h0A1.33,1.33,0,0,1,404.64,268.17Zm-249.42-.74a1.54,1.54,0,0,1-1.19-1.77h0a1.44,1.44,0,0,1,1.62-1.3h0a1.53,1.53,0,0,1,1.18,1.77h0a1.46,1.46,0,0,1-1.4,1.32h0Zm37.71-1.6A1.54,1.54,0,0,1,194,264h0a1.42,1.42,0,0,1,1.72,1.14h0a1.55,1.55,0,0,1-1.05,1.86h0a1.3,1.3,0,0,1-.33.05h0A1.46,1.46,0,0,1,192.93,265.83Zm-45.48.11a1.55,1.55,0,0,1-1.12-1.82h0a1.43,1.43,0,0,1,1.67-1.23h0a1.55,1.55,0,0,1,1.12,1.82h0a1.46,1.46,0,0,1-1.39,1.26h0A1.33,1.33,0,0,1,147.46,265.94Zm53-2.46a1.59,1.59,0,0,1,.83-2h0a1.39,1.39,0,0,1,1.84.89h0a1.6,1.6,0,0,1-.83,2h0a1.27,1.27,0,0,1-.5.1h0A1.43,1.43,0,0,1,200.45,263.47Zm-60.69.63h0a1.55,1.55,0,0,1-1.05-1.86h0a1.41,1.41,0,0,1,1.71-1.16h0a1.55,1.55,0,0,1,1.05,1.86h0a1.45,1.45,0,0,1-1.38,1.19h0A1.25,1.25,0,0,1,139.76,264.11Zm258.68-1.3a1.65,1.65,0,0,1-.16-2.18h0a1.35,1.35,0,0,1,2-.17h0a1.65,1.65,0,0,1,.16,2.18h0a1.38,1.38,0,0,1-1.09.54h0A1.35,1.35,0,0,1,398.43,262.81ZM132.13,262a1.56,1.56,0,0,1-1-1.9h0a1.42,1.42,0,0,1,1.74-1.09h0a1.57,1.57,0,0,1,1,1.91h0A1.44,1.44,0,0,1,132.5,262h0A1.2,1.2,0,0,1,132.13,262Zm75.58-1.72a1.61,1.61,0,0,1,.69-2.06h0a1.39,1.39,0,0,1,1.89.77h0a1.62,1.62,0,0,1-.7,2h0a1.42,1.42,0,0,1-.59.14h0A1.41,1.41,0,0,1,207.71,260.28Zm-83.14-.64a1.56,1.56,0,0,1-1-1.93h0a1.4,1.4,0,0,1,1.77-1h0a1.58,1.58,0,0,1,1,1.93h0a1.44,1.44,0,0,1-1.37,1.1h0A1.18,1.18,0,0,1,124.57,259.64Zm268-2.59h0a1.66,1.66,0,0,1,0-2.19h0a1.34,1.34,0,0,1,2-.05h0a1.64,1.64,0,0,1,0,2.19h0a1.35,1.35,0,0,1-1,.48h0A1.4,1.4,0,0,1,392.59,257Zm-177.81-.43a1.61,1.61,0,0,1,.62-2.08h0a1.37,1.37,0,0,1,1.91.68h0a1.61,1.61,0,0,1-.62,2.08h0a1.39,1.39,0,0,1-.65.17h0A1.41,1.41,0,0,1,214.78,256.61Zm-97.71.45a1.59,1.59,0,0,1-.9-2h0a1.4,1.4,0,0,1,1.8-1h0a1.59,1.59,0,0,1,.9,1.95h0a1.45,1.45,0,0,1-1.36,1.08h0A1.38,1.38,0,0,1,117.06,257.07Zm-7.44-2.77h0a1.59,1.59,0,0,1-.87-2h0a1.39,1.39,0,0,1,1.82-.94h0a1.58,1.58,0,0,1,.87,2h0a1.44,1.44,0,0,1-1.35,1h0A1.31,1.31,0,0,1,109.63,254.29Zm112.1-1.61a1.61,1.61,0,0,1,.57-2.1h0a1.36,1.36,0,0,1,1.92.62h0a1.61,1.61,0,0,1-.57,2.1h0a1.27,1.27,0,0,1-.67.19h0A1.4,1.4,0,0,1,221.73,252.69ZM387,251h0a1.65,1.65,0,0,1,0-2.19h0a1.34,1.34,0,0,1,2,0h0a1.64,1.64,0,0,1,0,2.19h0a1.38,1.38,0,0,1-1,.44h0A1.38,1.38,0,0,1,387,251Zm-284.76.32h0a1.59,1.59,0,0,1-.83-2h0a1.39,1.39,0,0,1,1.83-.89h0a1.58,1.58,0,0,1,.83,2h0a1.43,1.43,0,0,1-1.33,1h0A1.24,1.24,0,0,1,102.25,251.36Zm126.33-2.77a1.63,1.63,0,0,1,.55-2.11h0a1.37,1.37,0,0,1,1.94.59h0a1.61,1.61,0,0,1-.54,2.11h0a1.26,1.26,0,0,1-.69.2h0A1.43,1.43,0,0,1,228.59,248.59Zm-133.65-.31a1.59,1.59,0,0,1-.79-2h0A1.38,1.38,0,0,1,96,245.4h0a1.6,1.6,0,0,1,.79,2h0a1.43,1.43,0,0,1-1.33,1h0A1.2,1.2,0,0,1,94.93,248.28ZM381.53,245a1.64,1.64,0,0,1,0-2.19h0a1.34,1.34,0,0,1,2,0h0a1.63,1.63,0,0,1,0,2.18h0a1.35,1.35,0,0,1-1,.45h0A1.35,1.35,0,0,1,381.53,245Zm-146.11-.57a1.63,1.63,0,0,1,.53-2.12h0a1.36,1.36,0,0,1,1.94.58h0a1.62,1.62,0,0,1-.53,2.11h0a1.3,1.3,0,0,1-.7.2h0A1.4,1.4,0,0,1,235.42,244.41Zm-147.75.64a1.59,1.59,0,0,1-.77-2h0a1.38,1.38,0,0,1,1.85-.83h0a1.6,1.6,0,0,1,.77,2h0a1.44,1.44,0,0,1-1.32,1h0A1.3,1.3,0,0,1,87.66,245.05Zm-7.23-3.35a1.6,1.6,0,0,1-.74-2h0a1.37,1.37,0,0,1,1.87-.79h0a1.59,1.59,0,0,1,.74,2h0a1.42,1.42,0,0,1-1.3.93h0A1.29,1.29,0,0,1,80.44,241.71Zm161.78-1.53a1.61,1.61,0,0,1,.53-2.11h0a1.37,1.37,0,0,1,1.95.57h0a1.62,1.62,0,0,1-.54,2.11h0a1.3,1.3,0,0,1-.7.21h0A1.39,1.39,0,0,1,242.22,240.18ZM376,239.06h0a1.63,1.63,0,0,1-.05-2.18h0a1.34,1.34,0,0,1,2-.07h0A1.65,1.65,0,0,1,378,239h0a1.4,1.4,0,0,1-1,.49h0A1.31,1.31,0,0,1,376,239.06Zm-302.71-.81a1.59,1.59,0,0,1-.71-2h0a1.37,1.37,0,0,1,1.87-.77h0a1.62,1.62,0,0,1,.72,2h0a1.42,1.42,0,0,1-1.3.9h0A1.33,1.33,0,0,1,73.26,238.25ZM249,236a1.63,1.63,0,0,1,.54-2.11h0a1.36,1.36,0,0,1,1.93.59h0a1.62,1.62,0,0,1-.54,2.11h0a1.38,1.38,0,0,1-.7.2h0A1.41,1.41,0,0,1,249,236ZM66.13,234.68a1.61,1.61,0,0,1-.69-2h0a1.37,1.37,0,0,1,1.89-.75h0a1.61,1.61,0,0,1,.69,2.06h0a1.43,1.43,0,0,1-1.29.89h0A1.3,1.3,0,0,1,66.13,234.68Zm304.08-1.25h0a1.66,1.66,0,0,1-.16-2.19h0a1.35,1.35,0,0,1,2-.17h0a1.63,1.63,0,0,1,.16,2.18h0a1.35,1.35,0,0,1-1.08.54h0A1.38,1.38,0,0,1,370.21,233.44Zm-114.36-1.65a1.61,1.61,0,0,1,.55-2.1h0a1.37,1.37,0,0,1,1.94.61h0a1.62,1.62,0,0,1-.56,2.1h0a1.31,1.31,0,0,1-.68.19h0A1.41,1.41,0,0,1,255.85,231.79ZM59,231a1.6,1.6,0,0,1-.66-2.06h0a1.37,1.37,0,0,1,1.89-.73h0a1.61,1.61,0,0,1,.67,2.07h0a1.42,1.42,0,0,1-1.28.88h0A1.23,1.23,0,0,1,59,231Zm203.68-3.33a1.6,1.6,0,0,1,.58-2.09h0a1.37,1.37,0,0,1,1.93.64h0a1.62,1.62,0,0,1-.59,2.09h0a1.35,1.35,0,0,1-.66.18h0A1.41,1.41,0,0,1,262.72,227.7Zm101.46.48a1.63,1.63,0,0,1-.3-2.16h0a1.35,1.35,0,0,1,2-.32h0a1.65,1.65,0,0,1,.29,2.17h0a1.36,1.36,0,0,1-1.13.62h0A1.31,1.31,0,0,1,364.19,228.18ZM52,227.29a1.61,1.61,0,0,1-.65-2.08h0a1.36,1.36,0,0,1,1.9-.69h0a1.62,1.62,0,0,1,.65,2.07h0a1.43,1.43,0,0,1-1.27.86h0A1.3,1.3,0,0,1,52,227.29Zm217.66-3.55a1.62,1.62,0,0,1,.63-2.08h0a1.37,1.37,0,0,1,1.91.68h0a1.62,1.62,0,0,1-.63,2.08h0a1.24,1.24,0,0,1-.64.17h0A1.41,1.41,0,0,1,269.65,223.74ZM45,223.47a1.62,1.62,0,0,1-.63-2.08h0a1.38,1.38,0,0,1,1.92-.68h0a1.61,1.61,0,0,1,.62,2.08h0a1.4,1.4,0,0,1-1.26.85h0A1.51,1.51,0,0,1,45,223.47Zm312.89-.09a1.64,1.64,0,0,1-.42-2.15h0a1.36,1.36,0,0,1,2-.45h0a1.64,1.64,0,0,1,.42,2.14h0a1.39,1.39,0,0,1-1.19.71h0A1.33,1.33,0,0,1,357.85,223.38ZM276.67,220a1.62,1.62,0,0,1,.68-2.07h0a1.38,1.38,0,0,1,1.89.74h0a1.61,1.61,0,0,1-.68,2.06h0a1.3,1.3,0,0,1-.61.15h0A1.42,1.42,0,0,1,276.67,220ZM38,219.58a1.6,1.6,0,0,1-.61-2.08h0a1.36,1.36,0,0,1,1.91-.67h0a1.61,1.61,0,0,1,.61,2.09h0a1.4,1.4,0,0,1-1.26.83h0A1.27,1.27,0,0,1,38,219.58ZM351.26,219a1.62,1.62,0,0,1-.55-2.11h0a1.36,1.36,0,0,1,1.94-.59h0a1.62,1.62,0,0,1,.54,2.11h0a1.41,1.41,0,0,1-1.24.79h0A1.32,1.32,0,0,1,351.26,219Zm-67.47-2.62a1.62,1.62,0,0,1,.75-2h0a1.38,1.38,0,0,1,1.86.81h0a1.6,1.6,0,0,1-.74,2h0a1.42,1.42,0,0,1-.56.12h0A1.43,1.43,0,0,1,283.78,216.41ZM31,215.65a1.62,1.62,0,0,1-.61-2.09h0a1.37,1.37,0,0,1,1.93-.65h0A1.63,1.63,0,0,1,33,215h0a1.44,1.44,0,0,1-1.26.83h0A1.3,1.3,0,0,1,31,215.65Zm313.37-.52h0a1.62,1.62,0,0,1-.66-2.07h0a1.38,1.38,0,0,1,1.9-.71h0a1.61,1.61,0,0,1,.66,2.07h0a1.43,1.43,0,0,1-1.28.87h0A1.3,1.3,0,0,1,344.41,215.12Zm-53.39-2a1.59,1.59,0,0,1,.84-2h0a1.38,1.38,0,0,1,1.83.9h0a1.59,1.59,0,0,1-.83,2h0a1.27,1.27,0,0,1-.5.1h0A1.44,1.44,0,0,1,291,213.17Zm46.35-1.54a1.6,1.6,0,0,1-.75-2h0a1.38,1.38,0,0,1,1.86-.81h0a1.59,1.59,0,0,1,.75,2h0a1.43,1.43,0,0,1-1.31.93h0A1.23,1.23,0,0,1,337.37,211.63Zm-39-1.3a1.58,1.58,0,0,1,1-1.94h0a1.4,1.4,0,0,1,1.77,1h0a1.57,1.57,0,0,1-1,1.93h0a1.2,1.2,0,0,1-.42.07h0A1.44,1.44,0,0,1,298.4,210.33Zm7.54-2.29A1.55,1.55,0,0,1,307,206.2h0a1.43,1.43,0,0,1,1.69,1.19h0a1.55,1.55,0,0,1-1.09,1.84h0a1,1,0,0,1-.3,0h0A1.44,1.44,0,0,1,305.94,208Zm24.29.77h0a1.56,1.56,0,0,1-1-1.88h0a1.41,1.41,0,0,1,1.73-1.13h0a1.56,1.56,0,0,1,1,1.88h0a1.45,1.45,0,0,1-1.38,1.18h0A1.48,1.48,0,0,1,330.23,208.82Zm-16.6-2.3a1.52,1.52,0,0,1,1.27-1.7h0a1.46,1.46,0,0,1,1.56,1.38h0a1.52,1.52,0,0,1-1.27,1.7H315A1.47,1.47,0,0,1,313.63,206.52Zm9.15,1.12h0a1.5,1.5,0,0,1-1.35-1.62h0a1.48,1.48,0,0,1,1.49-1.48h0a1.5,1.5,0,0,1,1.35,1.63h0a1.48,1.48,0,0,1-1.42,1.47h-.06Z" transform="translate(-9.31 -193.89)"/><path class="cls-3" d="M422.54,278.36a1.81,1.81,0,0,1-.73-2.33h0a1.54,1.54,0,0,1,2.14-.79h0a1.82,1.82,0,0,1,.73,2.33h0a1.58,1.58,0,0,1-1.44,1h0A1.46,1.46,0,0,1,422.54,278.36Zm-7-4.13a1.82,1.82,0,0,1-.54-2.39h0a1.52,1.52,0,0,1,2.19-.59h0a1.83,1.83,0,0,1,.55,2.39h0a1.57,1.57,0,0,1-1.38.84h0A1.49,1.49,0,0,1,415.56,274.23Zm-236.93-4.13a1.66,1.66,0,0,1,1.59-1.75h0a1.66,1.66,0,0,1,1.61,1.73h0a1.68,1.68,0,0,1-1.59,1.76h0A1.67,1.67,0,0,1,178.63,270.11Zm-6.34,1.43a1.7,1.7,0,0,1-1.48-1.87h0a1.65,1.65,0,0,1,1.72-1.61h0a1.7,1.7,0,0,1,1.48,1.87h0a1.67,1.67,0,0,1-1.6,1.62h-.12Zm14.16-1.7a1.71,1.71,0,0,1,1.43-1.91h0a1.64,1.64,0,0,1,1.75,1.56h0a1.72,1.72,0,0,1-1.43,1.91H188A1.66,1.66,0,0,1,186.45,269.83Zm-22,.77h0a1.7,1.7,0,0,1-1.36-2h0a1.62,1.62,0,0,1,1.8-1.49h0a1.72,1.72,0,0,1,1.37,2h0a1.65,1.65,0,0,1-1.58,1.51h0Zm29.78-1.92a1.75,1.75,0,0,1,1.22-2.07h0a1.6,1.6,0,0,1,1.91,1.32h0A1.76,1.76,0,0,1,196.1,270h0a1.32,1.32,0,0,1-.34,0h0A1.64,1.64,0,0,1,194.19,268.69Zm214.75.77h0a1.83,1.83,0,0,1-.35-2.43h0a1.51,1.51,0,0,1,2.23-.38h0a1.85,1.85,0,0,1,.35,2.43h0a1.55,1.55,0,0,1-1.29.71h0A1.52,1.52,0,0,1,408.94,269.46Zm-252.33-.28h0a1.75,1.75,0,0,1-1.26-2h0a1.61,1.61,0,0,1,1.87-1.38h0a1.74,1.74,0,0,1,1.26,2h0a1.64,1.64,0,0,1-1.57,1.42h0A1,1,0,0,1,156.61,269.18Zm45.13-2.73a1.8,1.8,0,0,1,.92-2.25h0a1.57,1.57,0,0,1,2.07,1h0a1.79,1.79,0,0,1-.93,2.25h0a1.6,1.6,0,0,1-.56.11h0A1.61,1.61,0,0,1,201.74,266.45Zm-52.84.89h0a1.76,1.76,0,0,1-1.18-2.1h0a1.6,1.6,0,0,1,1.94-1.28h0a1.74,1.74,0,0,1,1.17,2.1h0a1.63,1.63,0,0,1-1.55,1.33h0A1.3,1.3,0,0,1,148.89,267.34Zm-7.62-2.18a1.77,1.77,0,0,1-1.11-2.15h0a1.59,1.59,0,0,1,2-1.21h0a1.77,1.77,0,0,1,1.11,2.15h0a1.62,1.62,0,0,1-1.54,1.27h0A1.56,1.56,0,0,1,141.27,265.16Zm261.44-1.08h0a1.86,1.86,0,0,1-.16-2.46h0a1.52,1.52,0,0,1,2.26-.17h0a1.84,1.84,0,0,1,.16,2.45h0a1.54,1.54,0,0,1-1.21.6h0A1.56,1.56,0,0,1,402.72,264.08ZM209,263.22a1.8,1.8,0,0,1,.76-2.32h0a1.55,1.55,0,0,1,2.13.83h0a1.8,1.8,0,0,1-.77,2.31h0a1.4,1.4,0,0,1-.67.17h0A1.59,1.59,0,0,1,209,263.22Zm-75.26-.54a1.78,1.78,0,0,1-1-2.19h0a1.58,1.58,0,0,1,2-1.13h0a1.78,1.78,0,0,1,1,2.19h0a1.6,1.6,0,0,1-1.52,1.21h0A1.4,1.4,0,0,1,133.72,262.68ZM216,259.47a1.82,1.82,0,0,1,.67-2.36h0a1.54,1.54,0,0,1,2.16.72h0a1.82,1.82,0,0,1-.66,2.35h0a1.48,1.48,0,0,1-.76.21h0A1.59,1.59,0,0,1,216,259.47Zm-89.74.49a1.8,1.8,0,0,1-1-2.23h0a1.59,1.59,0,0,1,2-1.07h0a1.77,1.77,0,0,1,1,2.22h0a1.61,1.61,0,0,1-1.5,1.15h0A1.59,1.59,0,0,1,126.27,260Zm270.66-1.78a1.84,1.84,0,0,1,0-2.46h0a1.51,1.51,0,0,1,2.27,0h0a1.85,1.85,0,0,1,0,2.46h0a1.53,1.53,0,0,1-1.13.51h0A1.53,1.53,0,0,1,396.93,258.18ZM118.87,257h0a1.79,1.79,0,0,1-.92-2.25h0a1.55,1.55,0,0,1,2.06-1h0a1.8,1.8,0,0,1,.93,2.24h0a1.63,1.63,0,0,1-1.5,1.12h0A1.62,1.62,0,0,1,118.87,257Zm104-1.62a1.83,1.83,0,0,1,.6-2.38h0a1.53,1.53,0,0,1,2.18.65h0a1.84,1.84,0,0,1-.6,2.38h0a1.5,1.5,0,0,1-.78.22h0A1.57,1.57,0,0,1,222.89,255.4Zm-111.35-1.52a1.79,1.79,0,0,1-.88-2.27h0a1.55,1.55,0,0,1,2.09-1h0a1.79,1.79,0,0,1,.89,2.26h0a1.6,1.6,0,0,1-1.49,1.09h0A1.47,1.47,0,0,1,111.55,253.88Zm280-1.92a1.85,1.85,0,0,1,.1-2.46h0a1.51,1.51,0,0,1,2.26.11h0a1.87,1.87,0,0,1-.1,2.46h0a1.55,1.55,0,0,1-1.08.45h0A1.55,1.55,0,0,1,391.5,252Zm-161.83-.82a1.83,1.83,0,0,1,.56-2.39h0a1.53,1.53,0,0,1,2.19.61h0a1.83,1.83,0,0,1-.56,2.39h0a1.51,1.51,0,0,1-.81.24h0A1.58,1.58,0,0,1,229.67,251.14Zm-125.38-.55a1.79,1.79,0,0,1-.84-2.28h0a1.55,1.55,0,0,1,2.1-.91h0a1.79,1.79,0,0,1,.84,2.28h0a1.6,1.6,0,0,1-1.47,1.07h0A1.47,1.47,0,0,1,104.29,250.59Zm132.1-3.82a1.83,1.83,0,0,1,.54-2.39h0a1.52,1.52,0,0,1,2.2.58h0a1.82,1.82,0,0,1-.54,2.39h0a1.5,1.5,0,0,1-.83.25h0A1.57,1.57,0,0,1,236.39,246.77Zm-139.28.39a1.8,1.8,0,0,1-.81-2.3h0a1.55,1.55,0,0,1,2.11-.87h0a1.81,1.81,0,0,1,.81,2.3h0a1.61,1.61,0,0,1-1.47,1h0A1.33,1.33,0,0,1,97.11,247.16Zm289.17-1.56h0a1.86,1.86,0,0,1,.14-2.46h0a1.51,1.51,0,0,1,2.25.15h0a1.86,1.86,0,0,1-.13,2.46h0a1.52,1.52,0,0,1-1.06.43h0A1.56,1.56,0,0,1,386.28,245.6ZM90,243.6h0a1.8,1.8,0,0,1-.78-2.31h0a1.54,1.54,0,0,1,2.12-.84h0a1.82,1.82,0,0,1,.77,2.32h0a1.62,1.62,0,0,1-1.46,1h0A1.45,1.45,0,0,1,90,243.6Zm153.12-1.27a1.83,1.83,0,0,1,.54-2.39h0a1.52,1.52,0,0,1,2.2.58h0a1.83,1.83,0,0,1-.54,2.39h0a1.5,1.5,0,0,1-.83.25h0A1.56,1.56,0,0,1,243.09,242.34ZM82.87,239.95h0a1.83,1.83,0,0,1-.75-2.33h0a1.56,1.56,0,0,1,2.14-.81h0a1.83,1.83,0,0,1,.75,2.33h0a1.6,1.6,0,0,1-1.44,1h0A1.6,1.6,0,0,1,82.87,239.95Zm298.2-.65a1.86,1.86,0,0,1,.09-2.46h0a1.51,1.51,0,0,1,2.26.1h0a1.85,1.85,0,0,1-.09,2.46h0a1.57,1.57,0,0,1-1.09.45h0A1.54,1.54,0,0,1,381.07,239.29Zm-131.3-1.4a1.85,1.85,0,0,1,.53-2.39h0a1.53,1.53,0,0,1,2.21.58h0a1.84,1.84,0,0,1-.54,2.39h0a1.52,1.52,0,0,1-.83.25h0A1.57,1.57,0,0,1,249.78,237.9ZM75.83,236.19a1.83,1.83,0,0,1-.73-2.34h0a1.56,1.56,0,0,1,2.15-.78h0A1.82,1.82,0,0,1,78,235.4h0a1.58,1.58,0,0,1-1.43,1h0A1.5,1.5,0,0,1,75.83,236.19Zm180.64-2.7a1.84,1.84,0,0,1,.55-2.39h0a1.53,1.53,0,0,1,2.2.6h0a1.84,1.84,0,0,1-.55,2.39h0a1.56,1.56,0,0,1-.82.24h0A1.58,1.58,0,0,1,256.47,233.49Zm119.25-.26h0a1.84,1.84,0,0,1,0-2.46h0a1.51,1.51,0,0,1,2.26,0h0a1.87,1.87,0,0,1,0,2.47h0a1.54,1.54,0,0,1-1.13.51h0A1.53,1.53,0,0,1,375.71,233.23Zm-306.9-.87a1.81,1.81,0,0,1-.69-2.34h0a1.52,1.52,0,0,1,2.14-.76h0a1.81,1.81,0,0,1,.69,2.34h0a1.58,1.58,0,0,1-1.42,1h0A1.47,1.47,0,0,1,68.82,232.35Zm194.39-3.22a1.82,1.82,0,0,1,.57-2.38h0a1.53,1.53,0,0,1,2.19.62h0a1.81,1.81,0,0,1-.57,2.38h0a1.48,1.48,0,0,1-.8.24h0A1.58,1.58,0,0,1,263.2,229.13Zm-201.36-.68a1.81,1.81,0,0,1-.68-2.35h0a1.54,1.54,0,0,1,2.15-.74h0A1.83,1.83,0,0,1,64,227.7h0a1.58,1.58,0,0,1-1.42.94h0A1.48,1.48,0,0,1,61.85,228.45Zm308.22-.92a1.86,1.86,0,0,1-.17-2.46h0a1.51,1.51,0,0,1,2.26-.17h0a1.84,1.84,0,0,1,.16,2.45h0a1.52,1.52,0,0,1-1.21.6h0A1.53,1.53,0,0,1,370.06,227.52ZM270,224.86a1.82,1.82,0,0,1,.61-2.37h0a1.54,1.54,0,0,1,2.18.67h0a1.83,1.83,0,0,1-.61,2.37h0a1.5,1.5,0,0,1-.78.22h0A1.56,1.56,0,0,1,270,224.86ZM54.9,224.5a1.83,1.83,0,0,1-.67-2.35h0a1.53,1.53,0,0,1,2.16-.73h0a1.81,1.81,0,0,1,.67,2.35h0a1.59,1.59,0,0,1-1.42.93h0A1.54,1.54,0,0,1,54.9,224.5Zm309.17-2.22a1.85,1.85,0,0,1-.32-2.44h0a1.51,1.51,0,0,1,2.23-.36h0a1.85,1.85,0,0,1,.33,2.44h0a1.57,1.57,0,0,1-1.28.7h0A1.53,1.53,0,0,1,364.07,222.28Zm-87.23-1.54a1.82,1.82,0,0,1,.66-2.36h0a1.53,1.53,0,0,1,2.16.72h0a1.81,1.81,0,0,1-.67,2.35h0a1.43,1.43,0,0,1-.75.21h0A1.59,1.59,0,0,1,276.83,220.74ZM48,220.51a1.82,1.82,0,0,1-.66-2.35h0a1.54,1.54,0,0,1,2.17-.72h0a1.83,1.83,0,0,1,.66,2.35h0a1.6,1.6,0,0,1-1.42.92h0A1.47,1.47,0,0,1,48,220.51Zm309.76-3a1.82,1.82,0,0,1-.49-2.4h0a1.52,1.52,0,0,1,2.21-.54h0a1.84,1.84,0,0,1,.5,2.4h0a1.58,1.58,0,0,1-1.36.81h0A1.45,1.45,0,0,1,357.73,217.54Zm-74-.74a1.81,1.81,0,0,1,.73-2.33h0a1.54,1.54,0,0,1,2.14.79h0a1.83,1.83,0,0,1-.72,2.33h0a1.53,1.53,0,0,1-.71.18h0A1.6,1.6,0,0,1,283.77,216.79Zm-242.72-.27a1.82,1.82,0,0,1-.67-2.36h0a1.54,1.54,0,0,1,2.16-.72h0a1.81,1.81,0,0,1,.66,2.35h0a1.59,1.59,0,0,1-1.41.93h0A1.55,1.55,0,0,1,41.06,216.52Zm249.78-3.43a1.81,1.81,0,0,1,.8-2.3h0a1.57,1.57,0,0,1,2.12.88h0a1.82,1.82,0,0,1-.81,2.3h0a1.52,1.52,0,0,1-.66.15h0A1.59,1.59,0,0,1,290.83,213.1Zm60.25.23a1.82,1.82,0,0,1-.66-2.36h0a1.54,1.54,0,0,1,2.17-.71h0a1.83,1.83,0,0,1,.66,2.36h0a1.6,1.6,0,0,1-1.41.92h0A1.49,1.49,0,0,1,351.08,213.33Zm-316.95-.76a1.83,1.83,0,0,1-.68-2.35h0a1.54,1.54,0,0,1,2.16-.74h0a1.82,1.82,0,0,1,.68,2.35h0a1.6,1.6,0,0,1-1.42.93h0A1.5,1.5,0,0,1,34.13,212.56ZM298,209.73a1.8,1.8,0,0,1,.91-2.25h0a1.56,1.56,0,0,1,2.07,1h0a1.8,1.8,0,0,1-.91,2.26h0a1.61,1.61,0,0,1-.57.11h0A1.61,1.61,0,0,1,298,209.73Zm46.15-.13a1.8,1.8,0,0,1-.79-2.3h0a1.55,1.55,0,0,1,2.12-.86h0a1.81,1.81,0,0,1,.78,2.31h0a1.6,1.6,0,0,1-1.45,1h0A1.42,1.42,0,0,1,344.18,209.6Zm-38.81-2.78a1.79,1.79,0,0,1,1.06-2.19h0a1.58,1.58,0,0,1,2,1.15h0a1.78,1.78,0,0,1-1.06,2.18h0a1.55,1.55,0,0,1-.47.08h0A1.63,1.63,0,0,1,305.37,206.82Zm31.74-.44a1.78,1.78,0,0,1-1-2.21h0a1.58,1.58,0,0,1,2-1.07h0a1.8,1.8,0,0,1,1,2.22h0a1.62,1.62,0,0,1-1.51,1.17h0A1.39,1.39,0,0,1,337.11,206.37ZM312.9,204.5a1.73,1.73,0,0,1,1.24-2.06h0a1.6,1.6,0,0,1,1.89,1.35h0a1.74,1.74,0,0,1-1.24,2.06h0a1.92,1.92,0,0,1-.32,0h0A1.64,1.64,0,0,1,312.9,204.5Zm16.94.18h0a1.71,1.71,0,0,1-1.43-1.91h0a1.64,1.64,0,0,1,1.75-1.56h0a1.71,1.71,0,0,1,1.43,1.91h0a1.66,1.66,0,0,1-1.59,1.57h-.17ZM320.6,203a1.7,1.7,0,0,1,1.48-1.87h0a1.64,1.64,0,0,1,1.72,1.6h0a1.7,1.7,0,0,1-1.47,1.87h-.13A1.67,1.67,0,0,1,320.6,203Z" transform="translate(-9.31 -193.89)"/><path class="cls-3" d="M426.48,279.41a2,2,0,0,1-.82-2.59h0a1.72,1.72,0,0,1,2.37-.9h0a2,2,0,0,1,.82,2.58h0a1.76,1.76,0,0,1-1.6,1.09h0A1.67,1.67,0,0,1,426.48,279.41Zm-7-4.1h0a2,2,0,0,1-.62-2.65h0a1.7,1.7,0,0,1,2.44-.68h0a2,2,0,0,1,.62,2.65h0a1.74,1.74,0,0,1-1.53.94h0A1.57,1.57,0,0,1,419.48,275.31Zm-238.1-.82a1.88,1.88,0,0,1-1.73-2h0a1.85,1.85,0,0,1,1.83-1.88h0a1.87,1.87,0,0,1,1.73,2h0a1.86,1.86,0,0,1-1.78,1.89h0Zm6.09-2a1.88,1.88,0,0,1,1.63-2.07h0a1.83,1.83,0,0,1,1.91,1.78h0a1.89,1.89,0,0,1-1.64,2.08h-.13A1.84,1.84,0,0,1,187.47,272.5Zm-14,1.39h0a1.92,1.92,0,0,1-1.58-2.14h0a1.82,1.82,0,0,1,2-1.71h0a1.9,1.9,0,0,1,1.57,2.14h0a1.84,1.84,0,0,1-1.76,1.72h-.19Zm21.81-2.3a1.94,1.94,0,0,1,1.39-2.28h0a1.79,1.79,0,0,1,2.09,1.52h0a1.93,1.93,0,0,1-1.39,2.28h0a2,2,0,0,1-.35,0h0A1.83,1.83,0,0,1,195.24,271.58Zm-29.67,1.05a1.93,1.93,0,0,1-1.43-2.25h0a1.78,1.78,0,0,1,2.06-1.56h0a1.92,1.92,0,0,1,1.44,2.24h0a1.83,1.83,0,0,1-1.75,1.6h0Zm247.23-2.08a2.05,2.05,0,0,1-.4-2.7h0a1.69,1.69,0,0,1,2.48-.43h0a2.06,2.06,0,0,1,.4,2.7h0a1.75,1.75,0,0,1-1.44.8h0A1.67,1.67,0,0,1,412.8,270.56Zm-255,.3h0a1.94,1.94,0,0,1-1.32-2.33h0a1.78,1.78,0,0,1,2.14-1.43h0a2,2,0,0,1,1.32,2.33h0a1.82,1.82,0,0,1-1.73,1.49h0A1.51,1.51,0,0,1,157.82,270.86Zm45-1.37a2,2,0,0,1,1-2.49h0a1.74,1.74,0,0,1,2.29,1.13h0a2,2,0,0,1-1,2.49h0a1.77,1.77,0,0,1-.63.12h0A1.79,1.79,0,0,1,202.82,269.49Zm-52.65-.83h0a2,2,0,0,1-1.21-2.39h0a1.76,1.76,0,0,1,2.2-1.33h0a2,2,0,0,1,1.22,2.4h0a1.82,1.82,0,0,1-1.71,1.4h0A1.45,1.45,0,0,1,150.17,268.66Zm59.9-2.39a2,2,0,0,1,.83-2.58h0a1.72,1.72,0,0,1,2.37.9h0a2,2,0,0,1-.82,2.58h0a1.66,1.66,0,0,1-.78.19h0A1.77,1.77,0,0,1,210.06,266.27Zm-67.44-.16h0a2,2,0,0,1-1.13-2.45h0a1.75,1.75,0,0,1,2.25-1.23h0a2,2,0,0,1,1.13,2.44h0a1.8,1.8,0,0,1-1.69,1.33h0A1.58,1.58,0,0,1,142.63,266.11Zm263.94-1a2.05,2.05,0,0,1-.17-2.73h0a1.68,1.68,0,0,1,2.51-.18h0a2.07,2.07,0,0,1,.17,2.73h0a1.76,1.76,0,0,1-1.35.66h0A1.67,1.67,0,0,1,406.57,265.15Zm-189.51-2.71a2,2,0,0,1,.7-2.62h0a1.7,1.7,0,0,1,2.42.76h0a2,2,0,0,1-.7,2.62h0a1.7,1.7,0,0,1-.86.24h0A1.76,1.76,0,0,1,217.06,262.44Zm-81.87.82a2,2,0,0,1-1.05-2.49h0a1.73,1.73,0,0,1,2.29-1.14h0a2,2,0,0,1,1.05,2.48h0a1.8,1.8,0,0,1-1.67,1.27h0A1.65,1.65,0,0,1,135.19,263.26Zm-7.35-3.09a2,2,0,0,1-1-2.52h0a1.74,1.74,0,0,1,2.32-1.08h0a2,2,0,0,1,1,2.52h0a1.8,1.8,0,0,1-1.65,1.22h0A1.75,1.75,0,0,1,127.84,260.17Zm273-1h0a2,2,0,0,1,0-2.73h0a1.68,1.68,0,0,1,2.51,0h0a2.07,2.07,0,0,1,0,2.74h0a1.71,1.71,0,0,1-1.24.54h0A1.69,1.69,0,0,1,400.81,259.17Zm-176.93-.91a2,2,0,0,1,.63-2.65h0a1.71,1.71,0,0,1,2.44.67h0a2,2,0,0,1-.63,2.65h0a1.69,1.69,0,0,1-.9.26h0A1.74,1.74,0,0,1,223.89,258.26Zm-103.31-1.4a2,2,0,0,1-.93-2.55h0a1.74,1.74,0,0,1,2.34-1h0a2,2,0,0,1,.92,2.55h0a1.78,1.78,0,0,1-1.63,1.17h0A1.62,1.62,0,0,1,120.58,256.86Zm110-3a2,2,0,0,1,.57-2.66h0a1.71,1.71,0,0,1,2.45.62h0a2,2,0,0,1-.57,2.66h0a1.65,1.65,0,0,1-.94.29h0A1.75,1.75,0,0,1,230.6,253.86Zm-117.21-.48a2,2,0,0,1-.88-2.57h0a1.72,1.72,0,0,1,2.35-1h0a2,2,0,0,1,.88,2.57h0a1.77,1.77,0,0,1-1.62,1.13h0A1.76,1.76,0,0,1,113.39,253.38Zm282.1-.59h0a2,2,0,0,1,.19-2.72h0a1.68,1.68,0,0,1,2.51.21h0A2.06,2.06,0,0,1,398,253h0a1.71,1.71,0,0,1-1.15.47h0A1.71,1.71,0,0,1,395.49,252.79Zm-158.25-3.45a2,2,0,0,1,.54-2.67h0a1.7,1.7,0,0,1,2.45.58h0a2,2,0,0,1-.54,2.67h0a1.68,1.68,0,0,1-1,.31h0A1.73,1.73,0,0,1,237.24,249.34Zm-131,.39a2,2,0,0,1-.83-2.57h0a1.72,1.72,0,0,1,2.37-.91h0a2,2,0,0,1,.83,2.58h0a1.79,1.79,0,0,1-1.61,1.09h0A1.67,1.67,0,0,1,106.27,249.73Zm284.21-3.56a2.05,2.05,0,0,1,.28-2.72h0a1.69,1.69,0,0,1,2.5.3h0a2.06,2.06,0,0,1-.28,2.72h0a1.69,1.69,0,0,1-1.11.42h0A1.71,1.71,0,0,1,390.48,246.18ZM99.22,246h0a2,2,0,0,1-.79-2.6h0a1.71,1.71,0,0,1,2.38-.86h0a2,2,0,0,1,.79,2.6h0a1.76,1.76,0,0,1-1.59,1.07h0A1.64,1.64,0,0,1,99.22,246Zm144.61-1.25a2,2,0,0,1,.53-2.67h0a1.69,1.69,0,0,1,2.45.57h0a2,2,0,0,1-.53,2.67h0a1.64,1.64,0,0,1-1,.31h0A1.75,1.75,0,0,1,243.83,244.73ZM92.23,242.1a2,2,0,0,1-.77-2.61h0a1.71,1.71,0,0,1,2.4-.82h0a2,2,0,0,1,.76,2.6h0a1.76,1.76,0,0,1-1.58,1h0A1.69,1.69,0,0,1,92.23,242.1Zm158.17-2a2,2,0,0,1,.53-2.67h0a1.69,1.69,0,0,1,2.45.56h0a2,2,0,0,1-.53,2.68h0a1.64,1.64,0,0,1-1,.31h0A1.75,1.75,0,0,1,250.4,240.1Zm135.19-.55a2,2,0,0,1,.26-2.71h0a1.67,1.67,0,0,1,2.5.28h0a2,2,0,0,1-.26,2.72h0a1.69,1.69,0,0,1-1.12.43h0A1.73,1.73,0,0,1,385.6,239.55ZM85.27,238.13a2,2,0,0,1-.73-2.62h0a1.7,1.7,0,0,1,2.4-.8h0a2,2,0,0,1,.74,2.62h0a1.76,1.76,0,0,1-1.57,1h0A1.7,1.7,0,0,1,85.27,238.13ZM257,235.47a2,2,0,0,1,.54-2.67h0a1.7,1.7,0,0,1,2.46.57h0a2.06,2.06,0,0,1-.54,2.68h0a1.75,1.75,0,0,1-1,.3h0A1.75,1.75,0,0,1,257,235.47ZM78.37,234.08h0a2,2,0,0,1-.72-2.62h0a1.71,1.71,0,0,1,2.42-.77h0a2,2,0,0,1,.71,2.62h0a1.76,1.76,0,0,1-1.56,1h0A1.65,1.65,0,0,1,78.37,234.08Zm302.25-1a2.05,2.05,0,0,1,.18-2.73h0a1.68,1.68,0,0,1,2.51.18h0a2.06,2.06,0,0,1-.17,2.73h0a1.7,1.7,0,0,1-1.16.48h0A1.74,1.74,0,0,1,380.62,233.08Zm-117-2.21a2,2,0,0,1,.55-2.67h0a1.71,1.71,0,0,1,2.45.61h0a2,2,0,0,1-.55,2.66h0a1.69,1.69,0,0,1-1,.3h0A1.75,1.75,0,0,1,263.57,230.87ZM71.49,230h0a2,2,0,0,1-.7-2.63h0a1.71,1.71,0,0,1,2.42-.76h0a2,2,0,0,1,.69,2.63h0a1.76,1.76,0,0,1-1.56,1h0A1.65,1.65,0,0,1,71.49,230Zm303.9-3.05a2.06,2.06,0,0,1,0-2.74h0a1.68,1.68,0,0,1,2.51,0h0a2.07,2.07,0,0,1,0,2.74h0a1.73,1.73,0,0,1-1.26.56h0A1.72,1.72,0,0,1,375.39,226.93Zm-105.17-.59a2,2,0,0,1,.58-2.66h0a1.7,1.7,0,0,1,2.45.63h0a2.05,2.05,0,0,1-.58,2.67h0a1.67,1.67,0,0,1-.93.28h0A1.76,1.76,0,0,1,270.22,226.34Zm-205.58-.5h0a2,2,0,0,1-.68-2.63h0a1.7,1.7,0,0,1,2.42-.75h0a2,2,0,0,1,.68,2.63h0a1.76,1.76,0,0,1-1.55,1h0A1.64,1.64,0,0,1,64.64,225.83Zm212.27-3.93a2,2,0,0,1,.64-2.64h0a1.69,1.69,0,0,1,2.43.68h0a2,2,0,0,1-.63,2.65h0a1.66,1.66,0,0,1-.9.26h0A1.75,1.75,0,0,1,276.91,221.91ZM57.8,221.68a2,2,0,0,1-.68-2.63h0a1.71,1.71,0,0,1,2.42-.75h0a2,2,0,0,1,.68,2.64h0a1.75,1.75,0,0,1-1.55,1h0A1.72,1.72,0,0,1,57.8,221.68Zm312-.45a2.06,2.06,0,0,1-.19-2.73h0a1.68,1.68,0,0,1,2.51-.2h0a2,2,0,0,1,.18,2.72h0a1.7,1.7,0,0,1-1.35.67h0A1.69,1.69,0,0,1,369.79,221.23Zm-86.11-3.61a2,2,0,0,1,.69-2.62h0a1.7,1.7,0,0,1,2.42.74h0a2,2,0,0,1-.69,2.63h0a1.59,1.59,0,0,1-.86.24h0A1.75,1.75,0,0,1,283.68,217.63ZM51,217.54h0a2,2,0,0,1-.69-2.63h0a1.7,1.7,0,0,1,2.42-.75h0a2,2,0,0,1,.69,2.63h0a1.78,1.78,0,0,1-1.56,1h0A1.58,1.58,0,0,1,51,217.54Zm312.8-1.46a2,2,0,0,1-.41-2.69h0a1.68,1.68,0,0,1,2.47-.45h0a2,2,0,0,1,.42,2.7h0a1.73,1.73,0,0,1-1.45.8h0A1.63,1.63,0,0,1,363.77,216.08Zm-73.21-2.53a2,2,0,0,1,.77-2.61h0a1.71,1.71,0,0,1,2.39.83h0a2,2,0,0,1-.77,2.61h0a1.7,1.7,0,0,1-.81.21h0A1.76,1.76,0,0,1,290.56,213.55Zm-246.44-.1a2,2,0,0,1-.72-2.62h0a1.7,1.7,0,0,1,2.41-.78h0a2,2,0,0,1,.72,2.62h0a1.78,1.78,0,0,1-1.57,1h0A1.72,1.72,0,0,1,44.12,213.45Zm313.25-1.93a2,2,0,0,1-.62-2.65h0a1.7,1.7,0,0,1,2.44-.67h0a2,2,0,0,1,.62,2.65h0a1.74,1.74,0,0,1-1.53.94h0A1.7,1.7,0,0,1,357.36,211.52Zm-59.81-1.8a2,2,0,0,1,.87-2.57h0a1.73,1.73,0,0,1,2.36.94h0a2,2,0,0,1-.87,2.57h0a1.67,1.67,0,0,1-.75.18h0A1.78,1.78,0,0,1,297.55,209.72Zm-260.33-.25a2,2,0,0,1-.77-2.6h0a1.71,1.71,0,0,1,2.4-.83h0a2,2,0,0,1,.77,2.6h0A1.78,1.78,0,0,1,38,209.69h0A1.65,1.65,0,0,1,37.23,209.47Zm313.4-1.94h0a2,2,0,0,1-.8-2.6h0a1.71,1.71,0,0,1,2.38-.86h0a2,2,0,0,1,.8,2.6h0a1.78,1.78,0,0,1-1.6,1.08h0A1.75,1.75,0,0,1,350.63,207.53Zm-45.92-1.29a2,2,0,0,1,1-2.51h0a1.73,1.73,0,0,1,2.31,1.08h0a2,2,0,0,1-1,2.51h0a1.75,1.75,0,0,1-.66.14h0A1.78,1.78,0,0,1,304.71,206.24Zm7.32-3a2,2,0,0,1,1.17-2.43h0a1.75,1.75,0,0,1,2.22,1.28h0a2,2,0,0,1-1.16,2.42h0a1.7,1.7,0,0,1-.54.09h0A1.81,1.81,0,0,1,312,203.25Zm31.61.82a2,2,0,0,1-1-2.53h0a1.73,1.73,0,0,1,2.33-1h0a2,2,0,0,1,1,2.52h0a1.76,1.76,0,0,1-1.64,1.2h0A1.62,1.62,0,0,1,343.63,204.07Zm-24.09-3.16a1.93,1.93,0,0,1,1.39-2.27h0a1.78,1.78,0,0,1,2.1,1.52h0a1.93,1.93,0,0,1-1.39,2.27h0a1.38,1.38,0,0,1-.35,0h0A1.83,1.83,0,0,1,319.55,200.91Zm17,.86a1.93,1.93,0,0,1-1.48-2.22h0a1.8,1.8,0,0,1,2-1.6h0a1.92,1.92,0,0,1,1.47,2.22h0a1.82,1.82,0,0,1-1.75,1.62h0A1.29,1.29,0,0,1,336.55,201.77Zm-9.29-2.23a1.87,1.87,0,0,1,1.69-2h0a1.84,1.84,0,0,1,1.87,1.83h0a1.88,1.88,0,0,1-1.69,2H329A1.85,1.85,0,0,1,327.26,199.54Z" transform="translate(-9.31 -193.89)"/><path class="cls-3" d="M430,280.23h0a2.21,2.21,0,0,1-.92-2.84h0a1.89,1.89,0,0,1,2.61-1h0a2.21,2.21,0,0,1,.91,2.83h0a2,2,0,0,1-1.76,1.22h0A1.79,1.79,0,0,1,430,280.23Zm-241.69-5.1a2.07,2.07,0,0,1,1.87-2.22h0a2,2,0,0,1,2,2h0a2.06,2.06,0,0,1-1.86,2.22h-.09A2,2,0,0,1,188.28,275.13Zm-6,1.95a2.06,2.06,0,0,1-1.83-2.25h0a2,2,0,0,1,2.07-2h0a2.07,2.07,0,0,1,1.84,2.25h0a2,2,0,0,1-2,2h-.12Zm240.62-.91a2.24,2.24,0,0,1-.69-2.92h0a1.88,1.88,0,0,1,2.68-.75h0a2.24,2.24,0,0,1,.7,2.91h0a1.94,1.94,0,0,1-1.69,1.05h0A1.86,1.86,0,0,1,422.93,276.16Zm-226.84-1.69a2.12,2.12,0,0,1,1.59-2.46h0a2,2,0,0,1,2.27,1.72h0a2.13,2.13,0,0,1-1.59,2.47h0a1.91,1.91,0,0,1-.34,0h0A2,2,0,0,1,196.08,274.48Zm-21.72,1.68a2.11,2.11,0,0,1-1.64-2.42h0a2,2,0,0,1,2.22-1.79h0a2.1,2.1,0,0,1,1.64,2.42h0a2,2,0,0,1-1.93,1.81h0A1.55,1.55,0,0,1,174.36,276.15Zm-7.82-1.59h0a2.15,2.15,0,0,1-1.49-2.54h0a2,2,0,0,1,2.34-1.62h0a2.14,2.14,0,0,1,1.49,2.54h0a2,2,0,0,1-1.91,1.67h0A2,2,0,0,1,166.54,274.57Zm37.17-2a2.17,2.17,0,0,1,1.16-2.72h0a1.91,1.91,0,0,1,2.51,1.26h0a2.19,2.19,0,0,1-1.16,2.73h0a1.79,1.79,0,0,1-.67.13h0A2,2,0,0,1,203.71,272.61Zm-44.87-.18h0a2.16,2.16,0,0,1-1.34-2.63h0a1.93,1.93,0,0,1,2.41-1.46h0a2.17,2.17,0,0,1,1.35,2.63h0a2,2,0,0,1-1.88,1.55h0A1.7,1.7,0,0,1,158.84,272.43Zm257.39-1a2.26,2.26,0,0,1-.44-3h0a1.85,1.85,0,0,1,2.73-.47h0a2.26,2.26,0,0,1,.44,3h0a1.91,1.91,0,0,1-1.59.88h0A1.84,1.84,0,0,1,416.24,271.41Zm-205.27-2a2.23,2.23,0,0,1,.9-2.85h0a1.88,1.88,0,0,1,2.61,1h0a2.22,2.22,0,0,1-.9,2.84h0a1.8,1.8,0,0,1-.86.22h0A2,2,0,0,1,211,269.43Zm-59.68.42a2.17,2.17,0,0,1-1.23-2.69h0a1.92,1.92,0,0,1,2.48-1.34h0a2.18,2.18,0,0,1,1.23,2.7h0a2,2,0,0,1-1.85,1.45h0A1.8,1.8,0,0,1,151.28,269.85Zm-7.43-2.92a2.18,2.18,0,0,1-1.13-2.74h0a1.9,1.9,0,0,1,2.52-1.23h0a2.18,2.18,0,0,1,1.13,2.74h0a2,2,0,0,1-1.83,1.38h0A1.7,1.7,0,0,1,143.86,266.93Zm74.09-1.38a2.23,2.23,0,0,1,.75-2.89h0a1.87,1.87,0,0,1,2.66.81h0a2.23,2.23,0,0,1-.74,2.9h0a1.88,1.88,0,0,1-1,.27h0A1.94,1.94,0,0,1,217.95,265.55ZM410,266a2.26,2.26,0,0,1-.18-3h0a1.84,1.84,0,0,1,2.76-.2h0a2.26,2.26,0,0,1,.18,3h0a1.89,1.89,0,0,1-1.48.72h0A1.86,1.86,0,0,1,410,266Zm-273.46-2.27a2.2,2.2,0,0,1-1-2.78h0a1.9,1.9,0,0,1,2.56-1.14h0a2.21,2.21,0,0,1,1,2.79h0a2,2,0,0,1-1.8,1.3h0A1.89,1.89,0,0,1,136.53,263.72Zm88.2-2.43a2.24,2.24,0,0,1,.65-2.92h0a1.86,1.86,0,0,1,2.69.7h0a2.24,2.24,0,0,1-.65,2.92h0a1.81,1.81,0,0,1-1,.31h0A1.9,1.9,0,0,1,224.73,261.29Zm179.51-1.35h0a2.26,2.26,0,0,1,.07-3h0a1.85,1.85,0,0,1,2.77.09h0a2.26,2.26,0,0,1-.08,3h0a1.85,1.85,0,0,1-1.34.58h0A1.89,1.89,0,0,1,404.24,259.94Zm-274.92.32a2.21,2.21,0,0,1-1-2.82h0a1.9,1.9,0,0,1,2.59-1.05h0a2.21,2.21,0,0,1,1,2.82h0a1.94,1.94,0,0,1-1.77,1.25h0A1.79,1.79,0,0,1,129.32,260.26Zm102.05-3.49a2.25,2.25,0,0,1,.58-2.94h0a1.86,1.86,0,0,1,2.7.63h0a2.23,2.23,0,0,1-.58,2.94h0a1.81,1.81,0,0,1-1.06.34h0A1.92,1.92,0,0,1,231.37,256.77Zm-109.18-.18a2.22,2.22,0,0,1-.9-2.84h0a1.9,1.9,0,0,1,2.62-1h0a2.23,2.23,0,0,1,.9,2.85h0a1.94,1.94,0,0,1-1.75,1.2h0A1.77,1.77,0,0,1,122.2,256.59ZM399,253.41a2.26,2.26,0,0,1,.29-3h0a1.85,1.85,0,0,1,2.75.31h0a2.25,2.25,0,0,1-.29,3h0a1.83,1.83,0,0,1-1.23.47h0A1.88,1.88,0,0,1,399,253.41Zm-161.07-1.3a2.25,2.25,0,0,1,.54-3h0a1.86,1.86,0,0,1,2.71.58h0a2.25,2.25,0,0,1-.54,3h0a1.78,1.78,0,0,1-1.09.36h0A1.92,1.92,0,0,1,237.93,252.11Zm-122.78.65h0a2.21,2.21,0,0,1-.85-2.86h0a1.88,1.88,0,0,1,2.63-.92h0a2.24,2.24,0,0,1,.85,2.87h0A2,2,0,0,1,116,253h0A1.88,1.88,0,0,1,115.15,252.77Zm-7-4a2.23,2.23,0,0,1-.8-2.88h0A1.88,1.88,0,0,1,110,245h0a2.24,2.24,0,0,1,.8,2.88h0a2,2,0,0,1-1.73,1.13h0A1.83,1.83,0,0,1,108.19,248.79Zm136.25-1.44a2.26,2.26,0,0,1,.52-3h0a1.86,1.86,0,0,1,2.72.56h0a2.25,2.25,0,0,1-.52,3h0a1.84,1.84,0,0,1-1.1.37h0A1.9,1.9,0,0,1,244.43,247.35Zm149.75-.75a2.25,2.25,0,0,1,.41-3h0a1.85,1.85,0,0,1,2.73.44h0a2.25,2.25,0,0,1-.41,3h0a1.85,1.85,0,0,1-1.16.41h0A1.87,1.87,0,0,1,394.18,246.6Zm-292.89-1.9a2.24,2.24,0,0,1-.77-2.89h0a1.88,1.88,0,0,1,2.66-.83h0a2.22,2.22,0,0,1,.77,2.89h0a1.93,1.93,0,0,1-1.72,1.09h0A1.81,1.81,0,0,1,101.29,244.7Zm149.61-2.15a2.26,2.26,0,0,1,.51-3h0a1.86,1.86,0,0,1,2.72.54h0a2.26,2.26,0,0,1-.51,3h0a1.85,1.85,0,0,1-1.11.37h0A1.91,1.91,0,0,1,250.9,242.55Zm-156.46-2h0a2.23,2.23,0,0,1-.73-2.9h0a1.88,1.88,0,0,1,2.67-.79h0a2.23,2.23,0,0,1,.73,2.9h0a1.94,1.94,0,0,1-1.7,1.07h0A1.81,1.81,0,0,1,94.44,240.51Zm295.13-.81h0a2.25,2.25,0,0,1,.44-3h0a1.85,1.85,0,0,1,2.72.48h0a2.25,2.25,0,0,1-.44,3h0a1.82,1.82,0,0,1-1.14.4h0A1.91,1.91,0,0,1,389.57,239.7Zm-132.21-2a2.24,2.24,0,0,1,.52-3h0a1.84,1.84,0,0,1,2.71.55h0a2.25,2.25,0,0,1-.51,3h0a1.84,1.84,0,0,1-1.1.37h0A1.92,1.92,0,0,1,257.36,237.73ZM87.64,236.25h0a2.24,2.24,0,0,1-.7-2.91h0a1.87,1.87,0,0,1,2.67-.77h0a2.24,2.24,0,0,1,.71,2.91h0a1.91,1.91,0,0,1-1.69,1.05h0A1.87,1.87,0,0,1,87.64,236.25Zm176.19-3.32a2.24,2.24,0,0,1,.53-3h0a1.85,1.85,0,0,1,2.71.57h0a2.24,2.24,0,0,1-.53,3h0a1.78,1.78,0,0,1-1.09.36h0A1.91,1.91,0,0,1,263.83,232.93Zm121.14,0a2.26,2.26,0,0,1,.38-3h0a1.85,1.85,0,0,1,2.74.41h0a2.26,2.26,0,0,1-.38,3h0a1.83,1.83,0,0,1-1.18.42h0A1.9,1.9,0,0,1,385,232.89Zm-304.09-1A2.24,2.24,0,0,1,80.2,229h0a1.86,1.86,0,0,1,2.68-.75h0a2.24,2.24,0,0,1,.69,2.91h0a1.94,1.94,0,0,1-1.69,1h0A1.83,1.83,0,0,1,80.88,231.93Zm189.46-3.77a2.24,2.24,0,0,1,.55-3h0a1.86,1.86,0,0,1,2.7.6h0a2.24,2.24,0,0,1-.55,3h0a1.81,1.81,0,0,1-1.07.35h0A1.9,1.9,0,0,1,270.34,228.16Zm-196.2-.59a2.23,2.23,0,0,1-.67-2.91h0a1.86,1.86,0,0,1,2.68-.74h0a2.25,2.25,0,0,1,.68,2.92h0a1.94,1.94,0,0,1-1.69,1h0A1.87,1.87,0,0,1,74.14,227.57Zm306-1.25h0a2.25,2.25,0,0,1,.22-3h0a1.83,1.83,0,0,1,2.75.24h0a2.25,2.25,0,0,1-.22,3h0a1.85,1.85,0,0,1-1.26.51h0A1.88,1.88,0,0,1,380.16,226.33Zm-103.28-2.84a2.24,2.24,0,0,1,.59-2.94h0a1.87,1.87,0,0,1,2.7.64h0a2.25,2.25,0,0,1-.59,2.94h0a1.89,1.89,0,0,1-1.05.33h0A1.93,1.93,0,0,1,276.88,223.48Zm-209.46-.27h0a2.25,2.25,0,0,1-.67-2.92h0a1.86,1.86,0,0,1,2.68-.73h0a2.23,2.23,0,0,1,.67,2.91h0a1.94,1.94,0,0,1-1.68,1h0A1.81,1.81,0,0,1,67.42,223.21Zm307.55-3a2.26,2.26,0,0,1,0-3h0a1.84,1.84,0,0,1,2.76,0h0a2.27,2.27,0,0,1,0,3h0a1.9,1.9,0,0,1-1.38.62h0A1.87,1.87,0,0,1,375,220.2Zm-91.49-1.29a2.25,2.25,0,0,1,.65-2.93h0a1.86,1.86,0,0,1,2.69.7h0a2.23,2.23,0,0,1-.64,2.92h0a1.79,1.79,0,0,1-1,.32h0A1.93,1.93,0,0,1,283.49,218.91Zm-222.79-.06a2.24,2.24,0,0,1-.69-2.91h0a1.86,1.86,0,0,1,2.68-.74h0a2.23,2.23,0,0,1,.68,2.91h0a1.93,1.93,0,0,1-1.69,1h0A1.84,1.84,0,0,1,60.69,218.85Zm229.49-4.36a2.24,2.24,0,0,1,.71-2.91h0a1.88,1.88,0,0,1,2.68.77h0a2.24,2.24,0,0,1-.72,2.91h0a1.84,1.84,0,0,1-1,.28h0A1.93,1.93,0,0,1,290.19,214.49Zm79.14.13h0a2.24,2.24,0,0,1-.27-3h0a1.85,1.85,0,0,1,2.75-.29h0a2.26,2.26,0,0,1,.27,3h0a1.9,1.9,0,0,1-1.51.78h0A1.86,1.86,0,0,1,369.33,214.62ZM54,214.56h0a2.24,2.24,0,0,1-.71-2.91h0a1.87,1.87,0,0,1,2.68-.77h0a2.23,2.23,0,0,1,.72,2.9h0a1.94,1.94,0,0,1-1.7,1.06h0A1.81,1.81,0,0,1,54,214.56Zm243-4.29a2.23,2.23,0,0,1,.8-2.88h0a1.88,1.88,0,0,1,2.65.87h0a2.24,2.24,0,0,1-.8,2.88h0a1.83,1.83,0,0,1-.92.25h0A2,2,0,0,1,297,210.27Zm-249.81.09a2.24,2.24,0,0,1-.77-2.89h0a1.87,1.87,0,0,1,2.66-.82h0a2.23,2.23,0,0,1,.77,2.89h0a1.93,1.93,0,0,1-1.72,1.09h0A1.82,1.82,0,0,1,47.17,210.36Zm316-.68a2.25,2.25,0,0,1-.54-3h0a1.86,1.86,0,0,1,2.71-.58h0a2.23,2.23,0,0,1,.54,3h0a1.9,1.9,0,0,1-1.62.94h0A1.89,1.89,0,0,1,363.22,209.68Zm-59.29-3.36a2.22,2.22,0,0,1,.92-2.84h0a1.89,1.89,0,0,1,2.6,1h0a2.22,2.22,0,0,1-.91,2.84h0a1.85,1.85,0,0,1-.84.2h0A2,2,0,0,1,303.93,206.32Zm-263.6.06h0a2.22,2.22,0,0,1-.85-2.86h0a1.88,1.88,0,0,1,2.63-.93h0a2.24,2.24,0,0,1,.85,2.87h0a1.94,1.94,0,0,1-1.74,1.16h0A1.79,1.79,0,0,1,40.33,206.38Zm316.36-1h0a2.24,2.24,0,0,1-.78-2.89h0a1.88,1.88,0,0,1,2.65-.85h0a2.23,2.23,0,0,1,.78,2.89h0a2,2,0,0,1-1.73,1.11h0A1.9,1.9,0,0,1,356.69,205.39ZM311,202.75a2.21,2.21,0,0,1,1.07-2.78h0a1.91,1.91,0,0,1,2.56,1.18h0a2.19,2.19,0,0,1-1.08,2.77h0a1.9,1.9,0,0,1-.74.15h0A2,2,0,0,1,311,202.75Zm38.8-1a2.19,2.19,0,0,1-1-2.8h0a1.9,1.9,0,0,1,2.58-1.09h0a2.2,2.2,0,0,1,1,2.8h0a2,2,0,0,1-1.79,1.28h0A1.73,1.73,0,0,1,349.83,201.71Zm-31.5-2a2.18,2.18,0,0,1,1.27-2.67h0a1.93,1.93,0,0,1,2.45,1.4h0a2.17,2.17,0,0,1-1.27,2.66h0a1.74,1.74,0,0,1-.59.1h0A2,2,0,0,1,318.34,199.67Zm7.52-2.35a2.11,2.11,0,0,1,1.55-2.48h0a2,2,0,0,1,2.29,1.69h0a2.13,2.13,0,0,1-1.56,2.49h0a2.19,2.19,0,0,1-.37,0h0A2,2,0,0,1,325.86,197.32Zm17,1.61h0a2.15,2.15,0,0,1-1.47-2.56h0a2,2,0,0,1,2.35-1.59h0a2.15,2.15,0,0,1,1.46,2.55h0a2,2,0,0,1-1.9,1.66h0A1.68,1.68,0,0,1,342.86,198.93ZM333.57,196a2.06,2.06,0,0,1,1.93-2.16h0a2,2,0,0,1,2,2.09h0a2.06,2.06,0,0,1-1.92,2.17h0A2.05,2.05,0,0,1,333.57,196Z" transform="translate(-9.31 -193.89)"/></g></g></g></svg>