<svg id="Layer_1" data-name="Layer 1" xmlns="http://www.w3.org/2000/svg" viewBox="0 0 530.37 51.01"><defs><style>.cls-1{fill:#fff;}</style></defs><title>footer-logo</title><path class="cls-1" d="M260.87,55.29h3.93c2.55,0,4.38.92,4.38,3.54a3.4,3.4,0,0,1-2.84,3.52l3.22,5.49h-1.8l-3-5.32h-2.26v5.32h-1.59Zm3.7,6c2,0,3-.79,3-2.41s-1.08-2.24-3-2.24h-2.1v4.65Z" transform="translate(-21.2 -23.6)"/><rect class="cls-1" x="258.16" y="31.69" width="1.59" height="12.56"/><path class="cls-1" d="M290.29,55.29h1.66l2,6.81c.45,1.47.74,2.67,1.22,4.14h.07c.46-1.47.77-2.67,1.21-4.14l2-6.81h1.61l-4,12.56h-1.83Z" transform="translate(-21.2 -23.6)"/><polygon class="cls-1" points="288.23 31.69 295.46 31.69 295.46 33.04 289.82 33.04 289.82 36.98 294.58 36.98 294.58 38.33 289.82 38.33 289.82 42.89 295.65 42.89 295.65 44.25 288.23 44.25 288.23 31.69"/><path class="cls-1" d="M327.1,55.29H331c2.55,0,4.38.92,4.38,3.54a3.4,3.4,0,0,1-2.84,3.52l3.22,5.49H334l-3-5.32h-2.26v5.32H327.1Zm3.7,6c2,0,3-.79,3-2.41s-1.08-2.24-3-2.24h-2.1v4.65Z" transform="translate(-21.2 -23.6)"/><path class="cls-1" d="M345.59,55.29h3.59c2.8,0,4.69,1,4.69,3.69s-1.86,3.88-4.62,3.88h-2.07v5h-1.59ZM349,61.58c2.21,0,3.25-.8,3.25-2.6s-1.11-2.4-3.32-2.4h-1.8v5Z" transform="translate(-21.2 -23.6)"/><path class="cls-1" d="M365.65,55.29h1.76l4.26,12.56H370L368.8,64h-4.58L363,67.84H361.4Zm-1,7.46h3.8l-.6-1.92c-.46-1.42-.86-2.79-1.27-4.24h-.07c-.39,1.47-.8,2.82-1.25,4.24Z" transform="translate(-21.2 -23.6)"/><path class="cls-1" d="M381,55.29H385c2.55,0,4.38.92,4.38,3.54a3.4,3.4,0,0,1-2.84,3.52l3.22,5.49h-1.8l-3-5.32h-2.26v5.32H381Zm3.7,6c2,0,3-.79,3-2.41s-1.08-2.24-3-2.24h-2.1v4.65Z" transform="translate(-21.2 -23.6)"/><polygon class="cls-1" points="378.34 31.69 379.93 31.69 379.93 38 379.98 38 385.21 31.69 386.99 31.69 383.08 36.48 387.61 44.25 385.85 44.25 382.08 37.71 379.93 40.28 379.93 44.25 378.34 44.25 378.34 31.69"/><path class="cls-1" d="M446.43,61.58c0-4.05,2.38-6.52,5.56-6.52a4.64,4.64,0,0,1,3.44,1.56l-.85,1a3.43,3.43,0,0,0-2.57-1.2c-2.38,0-4,2-4,5.08s1.5,5.15,3.9,5.15a3.81,3.81,0,0,0,2.91-1.4l.87,1a4.85,4.85,0,0,1-3.85,1.8c-3.11,0-5.46-2.41-5.46-6.48" transform="translate(-21.2 -23.6)"/><polygon class="cls-1" points="444.47 31.69 451.7 31.69 451.7 33.04 446.06 33.04 446.06 36.98 450.81 36.98 450.81 38.33 446.06 38.33 446.06 42.89 451.89 42.89 451.89 44.25 444.47 44.25 444.47 31.69"/><path class="cls-1" d="M483.34,55.29H485l4.57,7.92,1.33,2.58H491c-.09-1.27-.21-2.67-.21-4V55.29h1.51V67.84h-1.62l-4.57-7.92-1.35-2.58h-.07c.07,1.26.19,2.6.19,3.92v6.59h-1.5Z" transform="translate(-21.2 -23.6)"/><polygon class="cls-1" points="484.72 33.04 480.92 33.04 480.92 31.69 490.1 31.69 490.1 33.04 486.31 33.04 486.31 44.24 484.72 44.24 484.72 33.04"/><path class="cls-1" d="M521.11,62.66V55.29h1.59v7.42c0,3,1.28,4,2.91,4s3-.94,3-4V55.29h1.52v7.37c0,4-2,5.41-4.52,5.41s-4.5-1.37-4.5-5.41" transform="translate(-21.2 -23.6)"/><path class="cls-1" d="M541.1,55.29H543L545.43,62c.29.87.58,1.74.89,2.62h.09c.29-.87.56-1.74.85-2.62l2.4-6.72h1.91V67.84h-1.49V60.9c0-1.08.12-2.6.21-3.69h-.07l-1,2.86-2.38,6.52h-1.06l-2.38-6.52-1-2.86h-.07c.07,1.1.19,2.62.19,3.69v6.95H541.1Z" transform="translate(-21.2 -23.6)"/><rect class="cls-1" x="101.34" width="2.08" height="51.01"/><path class="cls-1" d="M48,59.43c-2.55,4.51-9.17,4.37-9.17,4.37H29.67V34.36c0-2.52,2.92-2.76,2.92-2.76v-1.3H21.2v1.3s2.92.24,2.92,2.77h0V63.84c0,2.53-2.92,2.77-2.92,2.77v1.3H45.47l3.73-7.7Z" transform="translate(-21.2 -23.6)"/><path class="cls-1" d="M225.07,59.43c-2.55,4.51-9.16,4.37-9.16,4.37h-9.12V34.36c0-2.52,2.92-2.76,2.92-2.76v-1.3H198.31v1.3s2.92.24,2.92,2.77V63.84c0,2.53-2.92,2.77-2.92,2.77v1.3h24.27l3.73-7.7Z" transform="translate(-21.2 -23.6)"/><path class="cls-1" d="M96.2,59.43C93.66,63.93,87,63.8,87,63.8H77.62V50.41h6.69c4.85,0,5.92,1.12,5.92,1.12h.87l.78-3.25V47.5H77.62V34h8.89c4.94,0,5.43,2,5.43,2h.87l1.65-4.58V30.29H69.15v1.3s2.92.24,2.92,2.77h0V63.84c0,2.53-2.92,2.77-2.92,2.77v1.3H93.72l3.73-7.7Z" transform="translate(-21.2 -23.6)"/><path class="cls-1" d="M176.58,59.43c-2.55,4.51-9.16,4.37-9.16,4.37H158V50.41h6.69c4.86,0,5.91,1.12,5.91,1.12h.87l.78-3.25V47.5H158V34h8.89c4.95,0,5.43,2,5.43,2h.87l1.65-4.58V30.29H149.53v1.3s2.91.24,2.91,2.77h0V63.84c0,2.53-2.91,2.77-2.91,2.77v1.3H174.1l3.73-7.7Z" transform="translate(-21.2 -23.6)"/></svg>