<svg id="Layer_1" data-name="Layer 1" xmlns="http://www.w3.org/2000/svg" viewBox="0 0 190.66 47.41"><defs><style>.cls-1{fill:#826d4c;}.cls-2{fill:none;}</style></defs><title>logo2</title><path class="cls-1" d="M112.21,98.2" transform="translate(-16.06 -50.78)"/><path class="cls-1" d="M85.78,84.09c-2.37,4.19-8.52,4.06-8.52,4.06H68.51V75.71h6.22c4.51,0,5.5,1,5.5,1H81l.73-3V73H68.51V60.48h8.26c4.6,0,5,1.82,5,1.82h.81L84.16,58V57H60.63v1.21s2.71.23,2.71,2.58h0v27.4c0,2.35-2.71,2.57-2.71,2.57V92H83.47l3.46-7.16Z" transform="translate(-16.06 -50.78)"/><rect class="cls-2" width="190.66" height="47.41"/></svg>