<svg xmlns="http://www.w3.org/2000/svg" viewBox="0 0 190.75 93.92"><defs><style>.cls-1{fill:#826d4c;}.cls-2{fill:none;}</style></defs><title>logo-txt</title><g id="Layer_1" data-name="Layer 1"><path class="cls-1" d="M60.08,94.94h2.76c1.79,0,3.07.65,3.07,2.48a2.38,2.38,0,0,1-2,2.47l2.25,3.85H64.91L62.78,100H61.19v3.73H60.08Zm2.59,4.17c1.38,0,2.13-.55,2.13-1.69s-.76-1.57-2.13-1.57H61.19v3.26Z" transform="translate(-16 -27.48)"/><rect class="cls-1" x="57.05" y="67.46" width="1.11" height="8.8"/><path class="cls-1" d="M80.72,94.94h1.16l1.43,4.77c.31,1,.52,1.87.85,2.9h0c.32-1,.54-1.87.85-2.9l1.42-4.77H87.6l-2.79,8.8H83.53Z" transform="translate(-16 -27.48)"/><polygon class="cls-1" points="78.15 67.46 83.22 67.46 83.22 68.4 79.26 68.4 79.26 71.16 82.6 71.16 82.6 72.11 79.26 72.11 79.26 75.31 83.35 75.31 83.35 76.26 78.15 76.26 78.15 67.46"/><path class="cls-1" d="M106.54,94.94h2.76c1.79,0,3.07.65,3.07,2.48a2.38,2.38,0,0,1-2,2.47l2.25,3.85h-1.26L109.24,100h-1.58v3.73h-1.11Zm2.59,4.17c1.38,0,2.13-.55,2.13-1.69s-.76-1.57-2.13-1.57h-1.48v3.26Z" transform="translate(-16 -27.48)"/><path class="cls-1" d="M119.51,94.94H122c2,0,3.29.67,3.29,2.59s-1.31,2.72-3.24,2.72h-1.45v3.49h-1.11Zm2.42,4.41c1.55,0,2.28-.56,2.28-1.82s-.78-1.68-2.33-1.68h-1.26v3.5Z" transform="translate(-16 -27.48)"/><path class="cls-1" d="M133.59,94.94h1.24l3,8.8h-1.17l-.84-2.69h-3.21l-.85,2.69H130.6Zm-.73,5.23h2.66l-.42-1.34c-.32-1-.6-2-.89-3h0c-.27,1-.56,2-.87,3Z" transform="translate(-16 -27.48)"/><path class="cls-1" d="M144.39,94.94h2.76c1.79,0,3.07.65,3.07,2.48a2.38,2.38,0,0,1-2,2.47l2.26,3.85h-1.26L147.09,100h-1.58v3.73h-1.12ZM147,99.11c1.38,0,2.13-.55,2.13-1.69s-.76-1.57-2.13-1.57h-1.48v3.26Z" transform="translate(-16 -27.48)"/><polygon class="cls-1" points="141.36 67.46 142.48 67.46 142.48 71.88 142.51 71.88 146.18 67.46 147.43 67.46 144.68 70.81 147.86 76.26 146.63 76.26 143.99 71.68 142.48 73.48 142.48 76.26 141.36 76.26 141.36 67.46"/><path class="cls-1" d="M74.26,116.85c0-2.84,1.67-4.57,3.9-4.57a3.25,3.25,0,0,1,2.41,1.09l-.6.72a2.4,2.4,0,0,0-1.8-.84c-1.67,0-2.77,1.37-2.77,3.56s1.06,3.61,2.73,3.61a2.67,2.67,0,0,0,2-1l.61.7a3.39,3.39,0,0,1-2.7,1.26c-2.18,0-3.83-1.69-3.83-4.55" transform="translate(-16 -27.48)"/><polygon class="cls-1" points="71.76 84.96 76.84 84.96 76.84 85.9 72.88 85.9 72.88 88.66 76.21 88.66 76.21 89.61 72.88 89.61 72.88 92.81 76.97 92.81 76.97 93.76 71.76 93.76 71.76 84.96"/><path class="cls-1" d="M100.16,112.44h1.15l3.2,5.55.93,1.81h.06c-.06-.89-.14-1.87-.14-2.78v-4.58h1.06v8.8h-1.14l-3.2-5.55-.95-1.81h0c0,.89.13,1.82.13,2.75v4.62h-1.05Z" transform="translate(-16 -27.48)"/><polygon class="cls-1" points="100 85.9 97.33 85.9 97.33 84.96 103.78 84.96 103.78 85.9 101.11 85.9 101.11 93.76 100 93.76 100 85.9"/><path class="cls-1" d="M126.65,117.6v-5.17h1.11v5.2c0,2.12.9,2.78,2,2.78s2.1-.66,2.1-2.78v-5.2H133v5.17c0,2.83-1.37,3.79-3.17,3.79s-3.15-1-3.15-3.79" transform="translate(-16 -27.48)"/><path class="cls-1" d="M140.68,112.44H142l1.69,4.71c.2.61.41,1.22.62,1.84h.06c.2-.61.4-1.22.6-1.84l1.68-4.71H148v8.8h-1v-4.87c0-.76.08-1.82.15-2.59h0l-.7,2-1.67,4.57H144l-1.67-4.57-.7-2h0c0,.77.13,1.83.13,2.59v4.87h-1Z" transform="translate(-16 -27.48)"/></g><g id="Layer_2" data-name="Layer 2"><rect class="cls-2" width="190.75" height="93.92"/></g></svg>